<?xml version="1.0" standalone="no"?>
 <!DOCTYPE svg PUBLIC "-//W3C//DTD SVG 1.1//EN" 
 "http://www.w3.org/Graphics/SVG/1.1/DTD/svg11.dtd"> 
<svg xmlns="http://www.w3.org/2000/svg" version="1.1" 
    width="14.7015cm" height="7.99846cm" viewBox="0 0 57880 31490 ">
<title>SVG Picture created as LNA-brd.svg date 2015/04/13 00:44:13 </title>
  <desc>Picture generated by PCBNEW </desc>
<g style="fill:#000000; fill-opacity:1;stroke:#000000; stroke-opacity:1;
stroke-linecap:round; stroke-linejoin:round; "
 transform="translate(0 0) scale(1 1)">
</g>
<g style="fill:#000000; fill-opacity:0.0; 
stroke:#000000; stroke-width:59.0551; stroke-opacity:1; 
stroke-linecap:round; stroke-linejoin:round;">
<path d="M44077 13171
L44825 12816
" />
<path d="M40376 12659
L41242 13013
" />
<path d="M41242 13013
L40730 12187
" />
<path d="M40730 12187
L41596 12541
" />
<path d="M41596 12541
L41163 11753
" />
<path d="M41163 11753
L41990 12305
" />
<path d="M41990 12305
L42029 11360
" />
<path d="M42029 11360
L42463 12147
" />
<path d="M42463 12147
L42817 11320
" />
<path d="M42817 11320
L43014 12187
" />
<path d="M43014 12187
L43526 11517
" />
<path d="M43526 11517
L43447 12423
" />
<path d="M43447 12423
L44116 11872
" />
<path d="M44116 11872
L43801 12738
" />
<path d="M43801 12738
L44589 12344
" />
<path d="M44589 12344
L44077 13131
" />
<path d="M40415 14824
L41321 14588
" />
<path d="M41321 14588
L40966 15494
" />
<path d="M40966 15494
L41596 14903
" />
<path d="M41596 14903
L41596 15887
" />
<path d="M41596 15887
L42108 15218
" />
<path d="M42108 15218
L42148 16084
" />
<path d="M42148 16084
L42541 15257
" />
<path d="M42541 15257
L42738 16163
" />
<path d="M42738 16163
L43014 15218
" />
<path d="M43014 15218
L43486 15966
" />
<path d="M43486 15966
L43289 15139
" />
<path d="M43289 15139
L44077 15612
" />
<path d="M44077 15612
L43683 14824
" />
<path d="M43683 14824
L44549 15218
" />
<path d="M44549 15218
L43998 14391
" />
<path d="M43998 14391
L44825 14746
" />
<circle cx="42620.3" cy="13722.4" r="1535" /> 
<circle cx="42620.3" cy="13722.4" r="2480" /> 
<path d="M17671 15179
L18026 15927
" />
<path d="M18183 11478
L17829 12344
" />
<path d="M17829 12344
L18655 11832
" />
<path d="M18655 11832
L18301 12698
" />
<path d="M18301 12698
L19089 12265
" />
<path d="M19089 12265
L18537 13092
" />
<path d="M18537 13092
L19482 13131
" />
<path d="M19482 13131
L18695 13565
" />
<path d="M18695 13565
L19522 13919
" />
<path d="M19522 13919
L18655 14116
" />
<path d="M18655 14116
L19325 14628
" />
<path d="M19325 14628
L18419 14549
" />
<path d="M18419 14549
L18970 15218
" />
<path d="M18970 15218
L18104 14903
" />
<path d="M18104 14903
L18498 15691
" />
<path d="M18498 15691
L17711 15179
" />
<path d="M16018 11517
L16254 12423
" />
<path d="M16254 12423
L15348 12068
" />
<path d="M15348 12068
L15939 12698
" />
<path d="M15939 12698
L14955 12698
" />
<path d="M14955 12698
L15624 13210
" />
<path d="M15624 13210
L14758 13250
" />
<path d="M14758 13250
L15585 13643
" />
<path d="M15585 13643
L14679 13840
" />
<path d="M14679 13840
L15624 14116
" />
<path d="M15624 14116
L14876 14588
" />
<path d="M14876 14588
L15703 14391
" />
<path d="M15703 14391
L15230 15179
" />
<path d="M15230 15179
L16018 14785
" />
<path d="M16018 14785
L15624 15651
" />
<path d="M15624 15651
L16451 15100
" />
<path d="M16451 15100
L16096 15927
" />
<circle cx="17120.3" cy="13722.4" r="1535" /> 
<circle cx="17120.3" cy="13722.4" r="2480" /> 
<path d="M47520 12472
L47520 12892
" />
<path d="M47320 12672
L47730 12672
" />
<circle cx="48120.3" cy="12472.4" r="1000" /> 
<path d="M20332 13935
L20136 14131
" />
<path d="M21907 13935
L22104 14131
" />
<path d="M21907.7 13935 A1113.55 1113.55 0.0 0 0 20332.9 13935 " />
<path d="M21710.8 15706.7 A1147.83 1147.83 0.0 0 0 22104.5 14131.9 " />
<path d="M20136 14131.9 A1147.83 1147.83 0.0 0 0 20529.7 15706.7 " />
<path d="M21710 15706
L21120 15706
" />
<path d="M21120 15706
L20529 15706
" />
<path d="M20726 15116
L21513 14328
" />
<path d="M20726 14328
L21513 15116
" />
<path d="M23332 13935
L23136 14131
" />
<path d="M24907 13935
L25104 14131
" />
<path d="M24907.7 13935 A1113.55 1113.55 0.0 0 0 23332.9 13935 " />
<path d="M24710.8 15706.7 A1147.83 1147.83 0.0 0 0 25104.5 14131.9 " />
<path d="M23136 14131.9 A1147.83 1147.83 0.0 0 0 23529.7 15706.7 " />
<path d="M24710 15706
L24120 15706
" />
<path d="M24120 15706
L23529 15706
" />
<path d="M23726 15116
L24513 14328
" />
<path d="M23726 14328
L24513 15116
" />
<path d="M5974 13637
L5659 9307
" />
<path d="M6289 13637
L5974 9307
" />
<path d="M6604 13637
L6289 9307
" />
<path d="M6919 13637
L6604 9307
" />
<path d="M7234 13637
L6919 9307
" />
<path d="M7549 13637
L7234 9307
" />
<circle cx="1683.27" cy="11472.4" r="394" /> 
<path d="M4833 9582
L108 9582
" />
<path d="M108 9582
L108 13362
" />
<path d="M108 13362
L4833 13362
" />
<path d="M7785 9307
L4833 9307
" />
<path d="M4833 9307
L4833 13637
" />
<path d="M4833 13637
L7785 13637
" />
<path d="M13455 14543
L13455 8401
" />
<path d="M13455 8401
L7785 8401
" />
<path d="M7785 8401
L7785 14543
" />
<path d="M7785 14543
L13455 14543
" />
</g>
<g style="fill:#000000; fill-opacity:0.0; 
stroke:#000000; stroke-width:120; stroke-opacity:1; 
stroke-linecap:round; stroke-linejoin:round;">
<path d="M49832 13901
L49832 20043
" />
<path d="M53533 20043
L53533 13901
" />
<path d="M53533 13901
L49832 13901
" />
<path d="M53533 20043
L49832 20043
" />
</g>
<g style="fill:#000000; fill-opacity:0.0; 
stroke:#000000; stroke-width:118; stroke-opacity:1; 
stroke-linecap:round; stroke-linejoin:round;">
<path d="M53533 17877
L49832 17877
" />
<path d="M53533 16066
L49832 16066
" />
</g>
<g style="fill:#000000; fill-opacity:0.0; 
stroke:#000000; stroke-width:150; stroke-opacity:1; 
stroke-linecap:round; stroke-linejoin:round;">
<path d="M53573 7409
L53336 7409
" />
<path d="M53573 9535
L53336 9535
" />
<path d="M51447 9535
L50265 9535
" />
<path d="M50265 7409
L51447 7409
" />
<path d="M53297 9732
L53336 9535
" />
<path d="M53336 9535
L53336 7409
" />
<path d="M53336 7409
L53297 7212
" />
<path d="M51447 9535
L51447 7409
" />
<path d="M51447 7409
L51486 7212
" />
<path d="M51486 9732
L51447 9535
" />
<path d="M51762 9732
L51486 7212
" />
<path d="M52352 9732
L52076 7212
" />
<path d="M52037 9732
L51762 7212
" />
<path d="M52667 9732
L52391 7212
" />
<path d="M52982 9732
L52706 7212
" />
<path d="M51486 9732
L53297 9732
" />
<path d="M53297 9732
L53021 7212
" />
<path d="M51486 7212
L53297 7212
" />
<path d="M53573 9535
L53573 7409
" />
<path d="M50265 9771
L47667 9771
" />
<path d="M47667 9771
L47666 7173
" />
<path d="M47667 7173
L50265 7173
" />
<path d="M50265 7173
L50265 9771
" />
</g>
<g style="fill:#000000; fill-opacity:0.0; 
stroke:#000000; stroke-width:59.0551; stroke-opacity:1; 
stroke-linecap:round; stroke-linejoin:round;">
<circle cx="35120.3" cy="14862.2" r="157.48" /> 
<circle cx="35120.3" cy="12972.4" r="1574.8" /> 
<circle cx="35120.3" cy="12972.4" r="2204.72" /> 
<path d="M28671 15179
L29026 15927
" />
<path d="M29183 11478
L28829 12344
" />
<path d="M28829 12344
L29655 11832
" />
<path d="M29655 11832
L29301 12698
" />
<path d="M29301 12698
L30089 12265
" />
<path d="M30089 12265
L29537 13092
" />
<path d="M29537 13092
L30482 13131
" />
<path d="M30482 13131
L29695 13565
" />
<path d="M29695 13565
L30522 13919
" />
<path d="M30522 13919
L29655 14116
" />
<path d="M29655 14116
L30325 14628
" />
<path d="M30325 14628
L29419 14549
" />
<path d="M29419 14549
L29970 15218
" />
<path d="M29970 15218
L29104 14903
" />
<path d="M29104 14903
L29498 15691
" />
<path d="M29498 15691
L28711 15179
" />
<path d="M27018 11517
L27254 12423
" />
<path d="M27254 12423
L26348 12068
" />
<path d="M26348 12068
L26939 12698
" />
<path d="M26939 12698
L25955 12698
" />
<path d="M25955 12698
L26624 13210
" />
<path d="M26624 13210
L25758 13250
" />
<path d="M25758 13250
L26585 13643
" />
<path d="M26585 13643
L25679 13840
" />
<path d="M25679 13840
L26624 14116
" />
<path d="M26624 14116
L25876 14588
" />
<path d="M25876 14588
L26703 14391
" />
<path d="M26703 14391
L26230 15179
" />
<path d="M26230 15179
L27018 14785
" />
<path d="M27018 14785
L26624 15651
" />
<path d="M26624 15651
L27451 15100
" />
<path d="M27451 15100
L27096 15927
" />
<circle cx="28120.3" cy="13722.4" r="1535" /> 
<circle cx="28120.3" cy="13722.4" r="2480" /> 
<path d="M42320 13506
L42545 13506
" />
<path d="M42432 13900
L42432 13506
" />
<path d="M42639 13506
L42882 13506
L42751 13656
L42807 13656
L42845 13675
L42863 13694
L42882 13731
L42882 13825
L42863 13863
L42845 13881
L42807 13900
L42695 13900
L42657 13881
L42639 13863
" />
<path d="M16820 13506
L17045 13506
" />
<path d="M16932 13900
L16932 13506
" />
<path d="M17382 13900
L17157 13900
" />
<path d="M17270 13900
L17270 13506
L17232 13563
L17195 13600
L17157 13619
" />
<path d="M46804 13363
L46785 13381
L46729 13400
L46692 13400
L46635 13381
L46598 13344
L46579 13306
L46560 13231
L46560 13175
L46579 13100
L46598 13063
L46635 13025
L46692 13006
L46729 13006
L46785 13025
L46804 13044
" />
<path d="M47179 13400
L46954 13400
" />
<path d="M47067 13400
L47067 13006
L47029 13063
L46992 13100
L46954 13119
" />
<path d="M21021 17433
L20993 17461
L20909 17489
L20853 17489
L20768 17461
L20712 17405
L20684 17348
L20656 17236
L20656 17152
L20684 17039
L20712 16983
L20768 16927
L20853 16899
L20909 16899
L20993 16927
L21021 16955
" />
<path d="M21218 16899
L21584 16899
L21387 17124
L21471 17124
L21528 17152
L21556 17180
L21584 17236
L21584 17377
L21556 17433
L21528 17461
L21471 17489
L21303 17489
L21246 17461
L21218 17433
" />
<path d="M24021 17433
L23993 17461
L23909 17489
L23853 17489
L23768 17461
L23712 17405
L23684 17348
L23656 17236
L23656 17152
L23684 17039
L23712 16983
L23768 16927
L23853 16899
L23909 16899
L23993 16927
L24021 16955
" />
<path d="M24528 16899
L24415 16899
L24359 16927
L24331 16955
L24274 17039
L24246 17152
L24246 17377
L24274 17433
L24303 17461
L24359 17489
L24471 17489
L24528 17461
L24556 17433
L24584 17377
L24584 17236
L24556 17180
L24528 17152
L24471 17124
L24359 17124
L24303 17152
L24274 17180
L24246 17236
" />
<path d="M10579 11900
L10579 11506
L10729 11506
L10767 11525
L10785 11544
L10804 11581
L10804 11638
L10785 11675
L10767 11694
L10729 11713
L10579 11713
" />
<path d="M11179 11900
L10954 11900
" />
<path d="M11067 11900
L11067 11506
L11029 11563
L10992 11600
L10954 11619
" />
</g>
<g style="fill:#000000; fill-opacity:0.0; 
stroke:#000000; stroke-width:80; stroke-opacity:1; 
stroke-linecap:round; stroke-linejoin:round;">
<path d="M51579 20900
L51579 20506
L51729 20506
L51767 20525
L51785 20544
L51804 20581
L51804 20638
L51785 20675
L51767 20694
L51729 20713
L51579 20713
" />
<path d="M51954 20544
L51973 20525
L52010 20506
L52104 20506
L52142 20525
L52160 20544
L52179 20581
L52179 20619
L52160 20675
L51935 20900
L52179 20900
" />
</g>
<g style="fill:#000000; fill-opacity:0.0; 
stroke:#000000; stroke-width:120; stroke-opacity:1; 
stroke-linecap:round; stroke-linejoin:round;">
<path d="M52177 10993
L52177 10393
L52405 10393
L52463 10422
L52491 10451
L52520 10508
L52520 10593
L52491 10651
L52463 10679
L52405 10708
L52177 10708
" />
<path d="M52720 10393
L53091 10393
L52891 10622
L52977 10622
L53034 10651
L53063 10679
L53091 10736
L53091 10879
L53063 10936
L53034 10965
L52977 10993
L52805 10993
L52748 10965
L52720 10936
" />
</g>
<g style="fill:#000000; fill-opacity:0.0; 
stroke:#000000; stroke-width:59.0551; stroke-opacity:1; 
stroke-linecap:round; stroke-linejoin:round;">
<path d="M32082 13188
L32045 13169
L32007 13131
L31951 13075
L31914 13056
L31876 13056
" />
<path d="M31895 13150
L31857 13131
L31820 13094
L31801 13019
L31801 12888
L31820 12813
L31857 12775
L31895 12756
L31970 12756
L32007 12775
L32045 12813
L32064 12888
L32064 13019
L32045 13094
L32007 13131
L31970 13150
L31895 13150
" />
<path d="M32438 13150
L32214 13150
" />
<path d="M32326 13150
L32326 12756
L32288 12813
L32251 12850
L32214 12869
" />
<path d="M27820 13506
L28045 13506
" />
<path d="M27932 13900
L27932 13506
" />
<path d="M28157 13544
L28176 13525
L28214 13506
L28307 13506
L28345 13525
L28363 13544
L28382 13581
L28382 13619
L28363 13675
L28139 13900
L28382 13900
" />
</g>
<g style="fill:#000000; fill-opacity:0.0; 
stroke:#000000; stroke-width:118.11; stroke-opacity:1; 
stroke-linecap:round; stroke-linejoin:round;">
<path d="M55143 15944
L55537 15944
" />
<path d="M54918 16085
L55340 16226
L55340 15860
" />
<path d="M54946 15523
L54946 15466
L54974 15410
L55002 15382
L55058 15354
L55171 15326
L55312 15326
L55424 15354
L55480 15382
L55508 15410
L55537 15466
L55537 15523
L55508 15579
L55480 15607
L55424 15635
L55312 15663
L55171 15663
L55058 15635
L55002 15607
L54974 15579
L54946 15523
" />
<path d="M55508 15044
L55537 15044
L55593 15073
L55621 15101
" />
<path d="M54946 14679
L54946 14623
L54974 14566
L55002 14538
L55058 14510
L55171 14482
L55312 14482
L55424 14510
L55480 14538
L55508 14566
L55537 14623
L55537 14679
L55508 14735
L55480 14763
L55424 14791
L55312 14820
L55171 14820
L55058 14791
L55002 14763
L54974 14735
L54946 14679
" />
<path d="M54946 14116
L54946 14060
L54974 14004
L55002 13976
L55058 13948
L55171 13920
L55312 13920
L55424 13948
L55480 13976
L55508 14004
L55537 14060
L55537 14116
L55508 14173
L55480 14201
L55424 14229
L55312 14257
L55171 14257
L55058 14229
L55002 14201
L54974 14173
L54946 14116
" />
<path d="M54946 13554
L54946 13498
L54974 13442
L55002 13413
L55058 13385
L55171 13357
L55312 13357
L55424 13385
L55480 13413
L55508 13442
L55537 13498
L55537 13554
L55508 13610
L55480 13638
L55424 13667
L55312 13695
L55171 13695
L55058 13667
L55002 13638
L54974 13610
L54946 13554
" />
<path d="M55537 12654
L55143 12654
" />
<path d="M55199 12654
L55171 12626
L55143 12570
L55143 12485
L55171 12429
L55227 12401
L55537 12401
" />
<path d="M55227 12401
L55171 12373
L55143 12317
L55143 12232
L55171 12176
L55227 12148
L55537 12148
" />
<path d="M55537 11867
L55143 11867
" />
<path d="M55199 11867
L55171 11839
L55143 11782
L55143 11698
L55171 11642
L55227 11614
L55537 11614
" />
<path d="M55227 11614
L55171 11586
L55143 11529
L55143 11445
L55171 11389
L55227 11361
L55537 11361
" />
<path d="M54738 21653
L54738 5905
" />
<path d="M50801 21653
L55801 21653
" />
<path d="M50801 5905
L55801 5905
" />
<path d="M54738 5905
L54969 6349
" />
<path d="M54738 5905
L54507 6349
" />
<path d="M54738 21653
L54969 21210
" />
<path d="M54738 21653
L54507 21210
" />
<path d="M26757 24420
L26420 24420
" />
<path d="M26588 24420
L26588 23830
L26532 23914
L26476 23970
L26420 23998
" />
<path d="M27319 24420
L26982 24420
" />
<path d="M27151 24420
L27151 23830
L27094 23914
L27038 23970
L26982 23998
" />
<path d="M27685 23830
L27741 23830
L27797 23858
L27826 23886
L27854 23942
L27882 24055
L27882 24195
L27854 24308
L27826 24364
L27797 24392
L27741 24420
L27685 24420
L27629 24392
L27601 24364
L27573 24308
L27544 24195
L27544 24055
L27573 23942
L27601 23886
L27629 23858
L27685 23830
" />
<path d="M28163 24392
L28163 24420
L28135 24476
L28107 24505
" />
<path d="M28529 23830
L28585 23830
L28641 23858
L28669 23886
L28697 23942
L28726 24055
L28726 24195
L28697 24308
L28669 24364
L28641 24392
L28585 24420
L28529 24420
L28472 24392
L28444 24364
L28416 24308
L28388 24195
L28388 24055
L28416 23942
L28444 23886
L28472 23858
L28529 23830
" />
<path d="M29091 23830
L29147 23830
L29204 23858
L29232 23886
L29260 23942
L29288 24055
L29288 24195
L29260 24308
L29232 24364
L29204 24392
L29147 24420
L29091 24420
L29035 24392
L29007 24364
L28979 24308
L28950 24195
L28950 24055
L28979 23942
L29007 23886
L29035 23858
L29091 23830
" />
<path d="M29654 23830
L29710 23830
L29766 23858
L29794 23886
L29822 23942
L29850 24055
L29850 24195
L29822 24308
L29794 24364
L29766 24392
L29710 24420
L29654 24420
L29597 24392
L29569 24364
L29541 24308
L29513 24195
L29513 24055
L29541 23942
L29569 23886
L29597 23858
L29654 23830
" />
<path d="M30553 24420
L30553 24026
" />
<path d="M30553 24083
L30582 24055
L30638 24026
L30722 24026
L30778 24055
L30806 24111
L30806 24420
" />
<path d="M30806 24111
L30835 24055
L30891 24026
L30975 24026
L31031 24055
L31060 24111
L31060 24420
" />
<path d="M31341 24420
L31341 24026
" />
<path d="M31341 24083
L31369 24055
L31425 24026
L31510 24026
L31566 24055
L31594 24111
L31594 24420
" />
<path d="M31594 24111
L31622 24055
L31678 24026
L31763 24026
L31819 24055
L31847 24111
L31847 24420
" />
<path d="M7494 23622
L50801 23622
" />
<path d="M7494 21653
L7494 24685
" />
<path d="M50801 21653
L50801 24685
" />
<path d="M50801 23622
L50357 23852
" />
<path d="M50801 23622
L50357 23391
" />
<path d="M7494 23622
L7937 23852
" />
<path d="M7494 23622
L7937 23391
" />
</g>
<g style="fill:#000000; fill-opacity:0.0; 
stroke:#000000; stroke-width:39.3701; stroke-opacity:1; 
stroke-linecap:round; stroke-linejoin:round;">
<path d="M7494 5905
L7494 21653
" />
<path d="M50801 5905
L7494 5905
" />
<path d="M50801 21653
L50801 5905
" />
<path d="M50801 21653
L7494 21653
" />
</g> 
</svg>
