<?xml version="1.0" standalone="no"?>
 <!DOCTYPE svg PUBLIC "-//W3C//DTD SVG 1.1//EN" 
 "http://www.w3.org/Graphics/SVG/1.1/DTD/svg11.dtd"> 
<svg xmlns="http://www.w3.org/2000/svg" version="1.1" 
    width="14.7015cm" height="7.99846cm" viewBox="0 0 57880 31490 ">
<title>SVG Picture created as LNA-brd.svg date 2015/04/13 00:49:09 </title>
  <desc>Picture generated by PCBNEW </desc>
<g style="fill:#000000; fill-opacity:1;stroke:#000000; stroke-opacity:1;
stroke-linecap:round; stroke-linejoin:round; "
 transform="translate(0 0) scale(1 1)">
</g>
<g style="fill:#000000; fill-opacity:0.0; 
stroke:#000000; stroke-width:19.685; stroke-opacity:1; 
stroke-linecap:round; stroke-linejoin:round;">
<path d="M37153 11013
L37153 12431
" />
<path d="M36366 11013
L36366 12431
" />
<path d="M37153 11013
L36366 11013
" />
<path d="M37153 12431
L36366 12431
" />
<path d="M34551 10328
L35968 10328
" />
<path d="M34551 11116
L35968 11116
" />
<path d="M34551 10328
L34551 11116
" />
<path d="M35968 10328
L35968 11116
" />
<path d="M34153 11013
L34153 12431
" />
<path d="M33366 11013
L33366 12431
" />
<path d="M34153 11013
L33366 11013
" />
<path d="M34153 12431
L33366 12431
" />
<path d="M25301 10328
L26718 10328
" />
<path d="M25301 11116
L26718 11116
" />
<path d="M25301 10328
L25301 11116
" />
<path d="M26718 10328
L26718 11116
" />
<path d="M20153 9263
L20153 10681
" />
<path d="M19366 9263
L19366 10681
" />
<path d="M20153 9263
L19366 9263
" />
<path d="M20153 10681
L19366 10681
" />
<path d="M20551 16578
L21968 16578
" />
<path d="M20551 17366
L21968 17366
" />
<path d="M20551 16578
L20551 17366
" />
<path d="M21968 16578
L21968 17366
" />
<path d="M9153 11763
L9153 13181
" />
<path d="M8366 11763
L8366 13181
" />
<path d="M9153 11763
L8366 11763
" />
<path d="M9153 13181
L8366 13181
" />
<path d="M12653 9763
L12653 11181
" />
<path d="M11866 9763
L11866 11181
" />
<path d="M12653 9763
L11866 9763
" />
<path d="M12653 11181
L11866 11181
" />
<path d="M23037 16338
L23037 14606
" />
<path d="M23982 16338
L23982 14606
" />
<path d="M23037 16338
L23982 16338
" />
<path d="M23037 14606
L23982 14606
" />
<path d="M23037 10838
L23037 9106
" />
<path d="M23982 10838
L23982 9106
" />
<path d="M23037 10838
L23982 10838
" />
<path d="M23037 9106
L23982 9106
" />
<path d="M22125 12444
L20393 12444
" />
<path d="M22125 11500
L20393 11500
" />
<path d="M22125 12444
L22125 11500
" />
<path d="M20393 12444
L20393 11500
" />
<path d="M20287 10838
L20287 9106
" />
<path d="M21232 10838
L21232 9106
" />
<path d="M20287 10838
L21232 10838
" />
<path d="M20287 9106
L21232 9106
" />
<path d="M20393 15500
L22125 15500
" />
<path d="M20393 16444
L22125 16444
" />
<path d="M20393 15500
L20393 16444
" />
<path d="M22125 15500
L22125 16444
" />
</g>
<g style="fill:#000000; fill-opacity:0.0; 
stroke:#000000; stroke-width:59.0551; stroke-opacity:1; 
stroke-linecap:round; stroke-linejoin:round;">
<path d="M37094 11919
L37094 11525
" />
<path d="M36425 11525
L36425 11919
" />
<path d="M35456 10387
L35062 10387
" />
<path d="M35062 11057
L35456 11057
" />
<path d="M34094 11919
L34094 11525
" />
<path d="M33425 11525
L33425 11919
" />
<path d="M26206 10387
L25812 10387
" />
<path d="M25812 11057
L26206 11057
" />
<path d="M20094 10169
L20094 9775
" />
<path d="M19425 9775
L19425 10169
" />
<path d="M21456 16637
L21062 16637
" />
<path d="M21062 17307
L21456 17307
" />
<path d="M9094 12669
L9094 12275
" />
<path d="M8425 12275
L8425 12669
" />
<path d="M12594 10669
L12594 10275
" />
<path d="M11925 10275
L11925 10669
" />
<path d="M23932 15078
L23932 15866
" />
<path d="M23086 15866
L23086 15078
" />
<path d="M23932 9578
L23932 10366
" />
<path d="M23086 10366
L23086 9578
" />
<path d="M20866 11549
L21653 11549
" />
<path d="M21653 12395
L20866 12395
" />
<path d="M21182 9578
L21182 10366
" />
<path d="M20336 10366
L20336 9578
" />
<path d="M21653 16395
L20866 16395
" />
<path d="M20866 15549
L21653 15549
" />
<path d="M35694 11863
L35675 11881
L35619 11900
L35581 11900
L35525 11881
L35487 11844
L35469 11806
L35450 11731
L35450 11675
L35469 11600
L35487 11563
L35525 11525
L35581 11506
L35619 11506
L35675 11525
L35694 11544
" />
<path d="M35844 11544
L35862 11525
L35900 11506
L35994 11506
L36031 11525
L36050 11544
L36069 11581
L36069 11619
L36050 11675
L35825 11900
L36069 11900
" />
<path d="M35194 10036
L35175 10055
L35119 10073
L35081 10073
L35025 10055
L34987 10017
L34969 9980
L34950 9905
L34950 9848
L34969 9773
L34987 9736
L35025 9698
L35081 9680
L35119 9680
L35175 9698
L35194 9717
" />
<path d="M35531 9811
L35531 10073
" />
<path d="M35437 9661
L35344 9942
L35587 9942
" />
<path d="M32694 11863
L32675 11881
L32619 11900
L32581 11900
L32525 11881
L32487 11844
L32469 11806
L32450 11731
L32450 11675
L32469 11600
L32487 11563
L32525 11525
L32581 11506
L32619 11506
L32675 11525
L32694 11544
" />
<path d="M33050 11506
L32862 11506
L32844 11694
L32862 11675
L32900 11656
L32994 11656
L33031 11675
L33050 11694
L33069 11731
L33069 11825
L33050 11863
L33031 11881
L32994 11900
L32900 11900
L32862 11881
L32844 11863
" />
<path d="M25944 10036
L25925 10055
L25869 10073
L25831 10073
L25775 10055
L25737 10017
L25719 9980
L25700 9905
L25700 9848
L25719 9773
L25737 9736
L25775 9698
L25831 9680
L25869 9680
L25925 9698
L25944 9717
" />
<path d="M26075 9680
L26337 9680
L26169 10073
" />
<path d="M18694 10113
L18675 10131
L18619 10150
L18581 10150
L18525 10131
L18487 10094
L18469 10056
L18450 9981
L18450 9925
L18469 9850
L18487 9813
L18525 9775
L18581 9756
L18619 9756
L18675 9775
L18694 9794
" />
<path d="M18919 9925
L18881 9906
L18862 9888
L18844 9850
L18844 9831
L18862 9794
L18881 9775
L18919 9756
L18994 9756
L19031 9775
L19050 9794
L19069 9831
L19069 9850
L19050 9888
L19031 9906
L18994 9925
L18919 9925
L18881 9944
L18862 9963
L18844 10000
L18844 10075
L18862 10113
L18881 10131
L18919 10150
L18994 10150
L19031 10131
L19050 10113
L19069 10075
L19069 10000
L19050 9963
L19031 9944
L18994 9925
" />
<path d="M21194 18113
L21175 18131
L21119 18150
L21081 18150
L21025 18131
L20987 18094
L20969 18056
L20950 17981
L20950 17925
L20969 17850
L20987 17813
L21025 17775
L21081 17756
L21119 17756
L21175 17775
L21194 17794
" />
<path d="M21381 18150
L21456 18150
L21494 18131
L21512 18113
L21550 18056
L21569 17981
L21569 17831
L21550 17794
L21531 17775
L21494 17756
L21419 17756
L21381 17775
L21362 17794
L21344 17831
L21344 17925
L21362 17963
L21381 17981
L21419 18000
L21494 18000
L21531 17981
L21550 17963
L21569 17925
" />
<path d="M8006 11363
L7987 11381
L7931 11400
L7894 11400
L7837 11381
L7800 11344
L7781 11306
L7762 11231
L7762 11175
L7781 11100
L7800 11063
L7837 11025
L7894 11006
L7931 11006
L7987 11025
L8006 11044
" />
<path d="M8381 11400
L8156 11400
" />
<path d="M8269 11400
L8269 11006
L8231 11063
L8194 11100
L8156 11119
" />
<path d="M8625 11006
L8662 11006
L8700 11025
L8719 11044
L8737 11081
L8756 11156
L8756 11250
L8737 11325
L8719 11363
L8700 11381
L8662 11400
L8625 11400
L8587 11381
L8569 11363
L8550 11325
L8531 11250
L8531 11156
L8550 11081
L8569 11044
L8587 11025
L8625 11006
" />
<path d="M13256 10613
L13237 10631
L13181 10650
L13144 10650
L13087 10631
L13050 10594
L13031 10556
L13012 10481
L13012 10425
L13031 10350
L13050 10313
L13087 10275
L13144 10256
L13181 10256
L13237 10275
L13256 10294
" />
<path d="M13631 10650
L13406 10650
" />
<path d="M13519 10650
L13519 10256
L13481 10313
L13444 10350
L13406 10369
" />
<path d="M14006 10650
L13781 10650
" />
<path d="M13894 10650
L13894 10256
L13856 10313
L13819 10350
L13781 10369
" />
<path d="M24444 15650
L24312 15463
" />
<path d="M24219 15650
L24219 15256
L24369 15256
L24406 15275
L24425 15294
L24444 15331
L24444 15388
L24425 15425
L24406 15444
L24369 15463
L24219 15463
" />
<path d="M24819 15650
L24594 15650
" />
<path d="M24706 15650
L24706 15256
L24669 15313
L24631 15350
L24594 15369
" />
<path d="M24444 10150
L24312 9963
" />
<path d="M24219 10150
L24219 9756
L24369 9756
L24406 9775
L24425 9794
L24444 9831
L24444 9888
L24425 9925
L24406 9944
L24369 9963
L24219 9963
" />
<path d="M24594 9794
L24612 9775
L24650 9756
L24744 9756
L24781 9775
L24800 9794
L24819 9831
L24819 9869
L24800 9925
L24575 10150
L24819 10150
" />
<path d="M21194 13056
L21062 12868
" />
<path d="M20969 13056
L20969 12662
L21119 12662
L21156 12681
L21175 12699
L21194 12737
L21194 12793
L21175 12831
L21156 12849
L21119 12868
L20969 12868
" />
<path d="M21325 12662
L21569 12662
L21437 12812
L21494 12812
L21531 12831
L21550 12849
L21569 12887
L21569 12981
L21550 13018
L21531 13037
L21494 13056
L21381 13056
L21344 13037
L21325 13018
" />
<path d="M21694 10150
L21562 9963
" />
<path d="M21469 10150
L21469 9756
L21619 9756
L21656 9775
L21675 9794
L21694 9831
L21694 9888
L21675 9925
L21656 9944
L21619 9963
L21469 9963
" />
<path d="M22031 9888
L22031 10150
" />
<path d="M21937 9738
L21844 10019
L22087 10019
" />
<path d="M21194 15245
L21062 15057
" />
<path d="M20969 15245
L20969 14851
L21119 14851
L21156 14870
L21175 14888
L21194 14926
L21194 14982
L21175 15020
L21156 15038
L21119 15057
L20969 15057
" />
<path d="M21550 14851
L21362 14851
L21344 15038
L21362 15020
L21400 15001
L21494 15001
L21531 15020
L21550 15038
L21569 15076
L21569 15170
L21550 15207
L21531 15226
L21494 15245
L21400 15245
L21362 15226
L21344 15207
" />
</g>
<g style="fill:#000000; fill-opacity:0.0; 
stroke:#000000; stroke-width:118.11; stroke-opacity:1; 
stroke-linecap:round; stroke-linejoin:round;">
<path d="M2736 11614
L2342 11614
" />
<path d="M2961 11473
L2539 11332
L2539 11698
" />
<path d="M2933 12035
L2933 12092
L2905 12148
L2877 12176
L2821 12204
L2708 12232
L2567 12232
L2455 12204
L2399 12176
L2371 12148
L2342 12092
L2342 12035
L2371 11979
L2399 11951
L2455 11923
L2567 11895
L2708 11895
L2821 11923
L2877 11951
L2905 11979
L2933 12035
" />
<path d="M2371 12514
L2342 12514
L2286 12485
L2258 12457
" />
<path d="M2933 12879
L2933 12935
L2905 12992
L2877 13020
L2821 13048
L2708 13076
L2567 13076
L2455 13048
L2399 13020
L2371 12992
L2342 12935
L2342 12879
L2371 12823
L2399 12795
L2455 12767
L2567 12739
L2708 12739
L2821 12767
L2877 12795
L2905 12823
L2933 12879
" />
<path d="M2933 13442
L2933 13498
L2905 13554
L2877 13582
L2821 13610
L2708 13638
L2567 13638
L2455 13610
L2399 13582
L2371 13554
L2342 13498
L2342 13442
L2371 13385
L2399 13357
L2455 13329
L2567 13301
L2708 13301
L2821 13329
L2877 13357
L2905 13385
L2933 13442
" />
<path d="M2933 14004
L2933 14060
L2905 14116
L2877 14145
L2821 14173
L2708 14201
L2567 14201
L2455 14173
L2399 14145
L2371 14116
L2342 14060
L2342 14004
L2371 13948
L2399 13920
L2455 13892
L2567 13863
L2708 13863
L2821 13892
L2877 13920
L2905 13948
L2933 14004
" />
<path d="M2342 14904
L2736 14904
" />
<path d="M2680 14904
L2708 14932
L2736 14988
L2736 15073
L2708 15129
L2652 15157
L2342 15157
" />
<path d="M2652 15157
L2708 15185
L2736 15241
L2736 15326
L2708 15382
L2652 15410
L2342 15410
" />
<path d="M2342 15691
L2736 15691
" />
<path d="M2680 15691
L2708 15719
L2736 15776
L2736 15860
L2708 15916
L2652 15944
L2342 15944
" />
<path d="M2652 15944
L2708 15973
L2736 16029
L2736 16113
L2708 16169
L2652 16197
L2342 16197
" />
<path d="M3141 21653
L3141 5905
" />
<path d="M7078 21653
L2078 21653
" />
<path d="M7078 5905
L2078 5905
" />
<path d="M3141 5905
L2910 6349
" />
<path d="M3141 5905
L3372 6349
" />
<path d="M3141 21653
L2910 21210
" />
<path d="M3141 21653
L3372 21210
" />
<path d="M26341 24420
L26004 24420
" />
<path d="M26173 24420
L26173 23830
L26116 23914
L26060 23970
L26004 23998
" />
<path d="M26904 24420
L26566 24420
" />
<path d="M26735 24420
L26735 23830
L26679 23914
L26623 23970
L26566 23998
" />
<path d="M27269 23830
L27326 23830
L27382 23858
L27410 23886
L27438 23942
L27466 24055
L27466 24195
L27438 24308
L27410 24364
L27382 24392
L27326 24420
L27269 24420
L27213 24392
L27185 24364
L27157 24308
L27129 24195
L27129 24055
L27157 23942
L27185 23886
L27213 23858
L27269 23830
" />
<path d="M27747 24392
L27747 24420
L27719 24476
L27691 24505
" />
<path d="M28113 23830
L28169 23830
L28225 23858
L28254 23886
L28282 23942
L28310 24055
L28310 24195
L28282 24308
L28254 24364
L28225 24392
L28169 24420
L28113 24420
L28057 24392
L28029 24364
L28001 24308
L27972 24195
L27972 24055
L28001 23942
L28029 23886
L28057 23858
L28113 23830
" />
<path d="M28675 23830
L28732 23830
L28788 23858
L28816 23886
L28844 23942
L28872 24055
L28872 24195
L28844 24308
L28816 24364
L28788 24392
L28732 24420
L28675 24420
L28619 24392
L28591 24364
L28563 24308
L28535 24195
L28535 24055
L28563 23942
L28591 23886
L28619 23858
L28675 23830
" />
<path d="M29238 23830
L29294 23830
L29350 23858
L29378 23886
L29407 23942
L29435 24055
L29435 24195
L29407 24308
L29378 24364
L29350 24392
L29294 24420
L29238 24420
L29182 24392
L29153 24364
L29125 24308
L29097 24195
L29097 24055
L29125 23942
L29153 23886
L29182 23858
L29238 23830
" />
<path d="M30138 24420
L30138 24026
" />
<path d="M30138 24083
L30166 24055
L30222 24026
L30306 24026
L30363 24055
L30391 24111
L30391 24420
" />
<path d="M30391 24111
L30419 24055
L30475 24026
L30560 24026
L30616 24055
L30644 24111
L30644 24420
" />
<path d="M30925 24420
L30925 24026
" />
<path d="M30925 24083
L30953 24055
L31010 24026
L31094 24026
L31150 24055
L31178 24111
L31178 24420
" />
<path d="M31178 24111
L31206 24055
L31263 24026
L31347 24026
L31403 24055
L31431 24111
L31431 24420
" />
<path d="M50385 23622
L7078 23622
" />
<path d="M50385 21653
L50385 24685
" />
<path d="M7078 21653
L7078 24685
" />
<path d="M7078 23622
L7522 23852
" />
<path d="M7078 23622
L7522 23391
" />
<path d="M50385 23622
L49942 23852
" />
<path d="M50385 23622
L49942 23391
" />
</g>
<g style="fill:#000000; fill-opacity:0.0; 
stroke:#000000; stroke-width:39.3701; stroke-opacity:1; 
stroke-linecap:round; stroke-linejoin:round;">
<path d="M50385 5905
L50385 21653
" />
<path d="M7078 5905
L50385 5905
" />
<path d="M7078 21653
L7078 5905
" />
<path d="M7078 21653
L50385 21653
" />
</g> 
</svg>
