<?xml version="1.0" standalone="no"?>
 <!DOCTYPE svg PUBLIC "-//W3C//DTD SVG 1.1//EN" 
 "http://www.w3.org/Graphics/SVG/1.1/DTD/svg11.dtd"> 
<svg xmlns="http://www.w3.org/2000/svg" version="1.1" 
    width="14.7015cm" height="7.99846cm" viewBox="0 0 57880 31490 ">
<title>SVG Picture created as LNA-brd.svg date 2015/04/13 00:50:18 </title>
  <desc>Picture generated by PCBNEW </desc>
<g style="fill:#000000; fill-opacity:1;stroke:#000000; stroke-opacity:1;
stroke-linecap:round; stroke-linejoin:round; "
 transform="translate(0 0) scale(1 1)">
</g>
<g style="fill:#000000; fill-opacity:0.0; 
stroke:#000000; stroke-width:196.85; stroke-opacity:1; 
stroke-linecap:round; stroke-linejoin:round;">
<path d="M20670 20041
L20295 20041
L20295 19253
" />
<path d="M20933 20041
L20933 19253
L21383 20041
L21383 19253
" />
<path d="M21720 19816
L22095 19816
" />
<path d="M21645 20041
L21908 19253
L22170 20041
" />
<path d="M22957 19516
L23145 20041
L23332 19516
" />
<path d="M24645 20041
L24195 20041
" />
<path d="M24420 20041
L24420 19253
L24345 19366
L24270 19441
L24195 19478
" />
<path d="M24982 19966
L25020 20003
L24982 20041
L24945 20003
L24982 19966
L24982 20041
" />
<path d="M25507 19253
L25582 19253
L25657 19291
L25695 19328
L25732 19403
L25770 19553
L25770 19741
L25732 19891
L25695 19966
L25657 20003
L25582 20041
L25507 20041
L25432 20003
L25395 19966
L25357 19891
L25320 19741
L25320 19553
L25357 19403
L25395 19328
L25432 19291
L25507 19253
" />
<path d="M26632 19516
L26782 20041
L26932 19666
L27082 20041
L27232 19516
" />
<path d="M27457 19516
L27644 20041
" />
<path d="M27832 19516
L27644 20041
L27569 20228
L27532 20266
L27457 20303
" />
<path d="M28132 20041
L28132 19253
" />
<path d="M28207 19741
L28432 20041
" />
<path d="M28432 19516
L28132 19816
" />
<path d="M28694 19516
L28882 20041
" />
<path d="M29069 19516
L28882 20041
L28807 20228
L28769 20266
L28694 20303
" />
<path d="M29332 20003
L29407 20041
L29557 20041
L29632 20003
L29669 19928
L29669 19891
L29632 19816
L29557 19778
L29444 19778
L29369 19741
L29332 19666
L29332 19628
L29369 19553
L29444 19516
L29557 19516
L29632 19553
" />
<path d="M30569 19328
L30606 19291
L30681 19253
L30869 19253
L30944 19291
L30981 19328
L31019 19403
L31019 19478
L30981 19591
L30531 20041
L31019 20041
" />
<path d="M31506 19253
L31581 19253
L31656 19291
L31694 19328
L31731 19403
L31769 19553
L31769 19741
L31731 19891
L31694 19966
L31656 20003
L31581 20041
L31506 20041
L31431 20003
L31394 19966
L31356 19891
L31319 19741
L31319 19553
L31356 19403
L31394 19328
L31431 19291
L31506 19253
" />
<path d="M32519 20041
L32069 20041
" />
<path d="M32294 20041
L32294 19253
L32219 19366
L32144 19441
L32069 19478
" />
<path d="M33231 19253
L32856 19253
L32819 19628
L32856 19591
L32931 19553
L33119 19553
L33194 19591
L33231 19628
L33269 19703
L33269 19891
L33231 19966
L33194 20003
L33119 20041
L32931 20041
L32856 20003
L32819 19966
" />
</g>
<g style="fill:#000000; fill-opacity:0.0; 
stroke:#000000; stroke-width:39.3701; stroke-opacity:1; 
stroke-linecap:round; stroke-linejoin:round;">
</g>
<g style="fill:#000000; fill-opacity:1.0; 
stroke:#000000; stroke-width:39.3701; stroke-opacity:1; 
stroke-linecap:round; stroke-linejoin:round;">
<circle cx="18212.7" cy="15100.4" r="570.815" /> 
<circle cx="12306.7" cy="15100.4" r="570.815" /> 
<circle cx="18212.7" cy="12344.4" r="570.815" /> 
<circle cx="12306.7" cy="12344.4" r="570.815" /> 
<circle cx="42137.7" cy="10769.4" r="570.815" /> 
<circle cx="42137.7" cy="16675.4" r="570.815" /> 
<circle cx="39381.7" cy="10769.4" r="570.815" /> 
<circle cx="39381.7" cy="16675.4" r="570.815" /> 
<circle cx="9759.73" cy="11972.4" r="275.815" /> 
<circle cx="9759.73" cy="12972.4" r="275.815" /> 
<polyline style="fill-rule:evenodd;"
points="36986,11151
36533,11151
36533,11505
36986,11505
36986,11151
" /> 
<polyline style="fill-rule:evenodd;"
points="36986,11938
36533,11938
36533,12293
36986,12293
36986,11938
" /> 
</g>
<g style="fill:#000000; fill-opacity:1.0; 
stroke:#000000; stroke-width:787.402; stroke-opacity:1; 
stroke-linecap:round; stroke-linejoin:round;">
</g>
<g style="fill:#000000; fill-opacity:0.0; 
stroke:#000000; stroke-width:787.402; stroke-opacity:1; 
stroke-linecap:round; stroke-linejoin:round;">
<path d="M36562 13541
L36956 13541
" />
<path d="M36562 15903
L36956 15903
" />
</g>
<g style="fill:#000000; fill-opacity:0.0; 
stroke:#000000; stroke-width:39.3701; stroke-opacity:1; 
stroke-linecap:round; stroke-linejoin:round;">
</g>
<g style="fill:#000000; fill-opacity:1.0; 
stroke:#000000; stroke-width:39.3701; stroke-opacity:1; 
stroke-linecap:round; stroke-linejoin:round;">
<polyline style="fill-rule:evenodd;"
points="34688,10496
34688,10948
35043,10948
35043,10496
34688,10496
" /> 
<polyline style="fill-rule:evenodd;"
points="35476,10496
35476,10948
35830,10948
35830,10496
35476,10496
" /> 
<polyline style="fill-rule:evenodd;"
points="33986,11151
33533,11151
33533,11505
33986,11505
33986,11151
" /> 
<polyline style="fill-rule:evenodd;"
points="33986,11938
33533,11938
33533,12293
33986,12293
33986,11938
" /> 
</g>
<g style="fill:#000000; fill-opacity:1.0; 
stroke:#000000; stroke-width:787.402; stroke-opacity:1; 
stroke-linecap:round; stroke-linejoin:round;">
</g>
<g style="fill:#000000; fill-opacity:0.0; 
stroke:#000000; stroke-width:787.402; stroke-opacity:1; 
stroke-linecap:round; stroke-linejoin:round;">
<path d="M33562 13541
L33956 13541
" />
<path d="M33562 15903
L33956 15903
" />
</g>
<g style="fill:#000000; fill-opacity:0.0; 
stroke:#000000; stroke-width:39.3701; stroke-opacity:1; 
stroke-linecap:round; stroke-linejoin:round;">
</g>
<g style="fill:#000000; fill-opacity:1.0; 
stroke:#000000; stroke-width:39.3701; stroke-opacity:1; 
stroke-linecap:round; stroke-linejoin:round;">
<polyline style="fill-rule:evenodd;"
points="25438,10496
25438,10948
25793,10948
25793,10496
25438,10496
" /> 
<polyline style="fill-rule:evenodd;"
points="26226,10496
26226,10948
26580,10948
26580,10496
26226,10496
" /> 
<polyline style="fill-rule:evenodd;"
points="19986,9401
19533,9401
19533,9755
19986,9755
19986,9401
" /> 
<polyline style="fill-rule:evenodd;"
points="19986,10188
19533,10188
19533,10543
19986,10543
19986,10188
" /> 
<polyline style="fill-rule:evenodd;"
points="20688,16746
20688,17198
21043,17198
21043,16746
20688,16746
" /> 
<polyline style="fill-rule:evenodd;"
points="21476,16746
21476,17198
21830,17198
21830,16746
21476,16746
" /> 
<polyline style="fill-rule:evenodd;"
points="8986,11901
8533,11901
8533,12255
8986,12255
8986,11901
" /> 
<polyline style="fill-rule:evenodd;"
points="8986,12688
8533,12688
8533,13043
8986,13043
8986,12688
" /> 
<polyline style="fill-rule:evenodd;"
points="12486,9901
12033,9901
12033,10255
12486,10255
12486,9901
" /> 
<polyline style="fill-rule:evenodd;"
points="12486,10688
12033,10688
12033,11043
12486,11043
12486,10688
" /> 
</g>
<g style="fill:#000000; fill-opacity:1.0; 
stroke:#000000; stroke-width:1378; stroke-opacity:1; 
stroke-linecap:round; stroke-linejoin:round;">
</g>
<g style="fill:#000000; fill-opacity:0.0; 
stroke:#000000; stroke-width:1378; stroke-opacity:1; 
stroke-linecap:round; stroke-linejoin:round;">
<path d="M47658 13479
L46280 13479
" />
<path d="M47658 9464
L46280 9464
" />
</g>
<g style="fill:#000000; fill-opacity:0.0; 
stroke:#000000; stroke-width:630; stroke-opacity:1; 
stroke-linecap:round; stroke-linejoin:round;">
<path d="M45467 11472
L45113 11472
" />
<path d="M45467 12456
L45113 12456
" />
</g>
<g style="fill:#000000; fill-opacity:0.0; 
stroke:#000000; stroke-width:39.3701; stroke-opacity:1; 
stroke-linecap:round; stroke-linejoin:round;">
</g>
<g style="fill:#000000; fill-opacity:1.0; 
stroke:#000000; stroke-width:39.3701; stroke-opacity:1; 
stroke-linecap:round; stroke-linejoin:round;">
<polyline style="fill-rule:evenodd;"
points="10330,15598
9385,15598
9385,16346
10330,16346
10330,15598
" /> 
</g>
<g style="fill:#000000; fill-opacity:1.0; 
stroke:#000000; stroke-width:787.402; stroke-opacity:1; 
stroke-linecap:round; stroke-linejoin:round;">
</g>
<g style="fill:#000000; fill-opacity:0.0; 
stroke:#000000; stroke-width:787.402; stroke-opacity:1; 
stroke-linecap:round; stroke-linejoin:round;">
<path d="M8562 15972
L8759 15972
" />
<path d="M9759 16972
L9956 16972
" />
<path d="M8562 16972
L8759 16972
" />
<path d="M9759 17972
L9956 17972
" />
<path d="M8562 17972
L8759 17972
" />
</g>
<g style="fill:#000000; fill-opacity:0.0; 
stroke:#000000; stroke-width:39.3701; stroke-opacity:1; 
stroke-linecap:round; stroke-linejoin:round;">
</g>
<g style="fill:#000000; fill-opacity:1.0; 
stroke:#000000; stroke-width:39.3701; stroke-opacity:1; 
stroke-linecap:round; stroke-linejoin:round;">
<circle cx="8929.73" cy="8472.44" r="433.071" /> 
<circle cx="9929.73" cy="7472.44" r="433.071" /> 
<circle cx="9929.73" cy="9472.44" r="433.071" /> 
<circle cx="7929.73" cy="9472.44" r="433.071" /> 
<circle cx="7929.73" cy="7472.44" r="433.071" /> 
</g>
<g style="fill:#000000; fill-opacity:1.0; 
stroke:#000000; stroke-width:551.181; stroke-opacity:1; 
stroke-linecap:round; stroke-linejoin:round;">
</g>
<g style="fill:#000000; fill-opacity:0.0; 
stroke:#000000; stroke-width:551.181; stroke-opacity:1; 
stroke-linecap:round; stroke-linejoin:round;">
<path d="M23763 12972
L23330 12972
" />
<path d="M22759 13976
L22759 13543
" />
<path d="M22759 12401
L22759 11968
" />
</g>
<g style="fill:#000000; fill-opacity:0.0; 
stroke:#000000; stroke-width:39.3701; stroke-opacity:1; 
stroke-linecap:round; stroke-linejoin:round;">
</g>
<g style="fill:#000000; fill-opacity:1.0; 
stroke:#000000; stroke-width:39.3701; stroke-opacity:1; 
stroke-linecap:round; stroke-linejoin:round;">
<polyline style="fill-rule:evenodd;"
points="23194,16200
23824,16200
23824,15885
23194,15885
23194,16200
" /> 
<polyline style="fill-rule:evenodd;"
points="23194,15059
23824,15059
23824,14744
23194,14744
23194,15059
" /> 
<polyline style="fill-rule:evenodd;"
points="23194,10700
23824,10700
23824,10385
23194,10385
23194,10700
" /> 
<polyline style="fill-rule:evenodd;"
points="23194,9559
23824,9559
23824,9244
23194,9244
23194,9559
" /> 
<polyline style="fill-rule:evenodd;"
points="21988,12287
21988,11657
21673,11657
21673,12287
21988,12287
" /> 
<polyline style="fill-rule:evenodd;"
points="20846,12287
20846,11657
20531,11657
20531,12287
20846,12287
" /> 
<polyline style="fill-rule:evenodd;"
points="20444,10700
21074,10700
21074,10385
20444,10385
20444,10700
" /> 
<polyline style="fill-rule:evenodd;"
points="20444,9559
21074,9559
21074,9244
20444,9244
20444,9559
" /> 
<polyline style="fill-rule:evenodd;"
points="20531,15657
20531,16287
20846,16287
20846,15657
20531,15657
" /> 
<polyline style="fill-rule:evenodd;"
points="21673,15657
21673,16287
21988,16287
21988,15657
21673,15657
" /> 
<circle cx="31137.7" cy="10769.4" r="570.815" /> 
<circle cx="31137.7" cy="16675.4" r="570.815" /> 
<circle cx="28381.7" cy="10769.4" r="570.815" /> 
<circle cx="28381.7" cy="16675.4" r="570.815" /> 
<circle cx="38574.7" cy="7874.02" r="1161.42" /> 
<circle cx="38574.7" cy="19685" r="1161.42" /> 
<circle cx="14952.6" cy="19685" r="1161.42" /> 
<circle cx="14952.6" cy="7874.02" r="1161.42" /> 
<circle cx="17905.4" cy="19685" r="570.866" /> 
<circle cx="17905.4" cy="7874.02" r="570.866" /> 
<circle cx="41527.4" cy="19685" r="570.866" /> 
<circle cx="41527.4" cy="7874.02" r="570.866" /> 
</g>
<g style="fill:#000000; fill-opacity:1.0; 
stroke:#000000; stroke-width:98.4252; stroke-opacity:1; 
stroke-linecap:round; stroke-linejoin:round;">
</g>
<g style="fill:#000000; fill-opacity:0.0; 
stroke:#000000; stroke-width:98.4252; stroke-opacity:1; 
stroke-linecap:round; stroke-linejoin:round;">
<path d="M9759 15972
L10259 15972
" />
</g>
<g style="fill:#000000; fill-opacity:0.0; 
stroke:#000000; stroke-width:393.701; stroke-opacity:1; 
stroke-linecap:round; stroke-linejoin:round;">
<path d="M8759 15972
L9759 15972
" />
<path d="M9759 15222
L9759 12972
" />
<path d="M9759 15972
L9759 15222
" />
<path d="M8866 12972
L8759 12866
" />
<path d="M9759 12972
L8866 12972
" />
<path d="M9759 15100
L9759 15222
" />
<path d="M12306 15100
L9759 15100
" />
</g>
<g style="fill:#000000; fill-opacity:0.0; 
stroke:#000000; stroke-width:196.85; stroke-opacity:1; 
stroke-linecap:round; stroke-linejoin:round;">
<path d="M20759 10543
L19936 10543
" />
</g>
<g style="fill:#000000; fill-opacity:0.0; 
stroke:#000000; stroke-width:98.4252; stroke-opacity:1; 
stroke-linecap:round; stroke-linejoin:round;">
<path d="M19936 10543
L19759 10366
" />
</g>
<g style="fill:#000000; fill-opacity:0.0; 
stroke:#000000; stroke-width:196.85; stroke-opacity:1; 
stroke-linecap:round; stroke-linejoin:round;">
<path d="M20688 11972
L20688 10614
" />
</g>
<g style="fill:#000000; fill-opacity:0.0; 
stroke:#000000; stroke-width:98.4252; stroke-opacity:1; 
stroke-linecap:round; stroke-linejoin:round;">
<path d="M20688 10614
L20759 10543
" />
</g>
<g style="fill:#000000; fill-opacity:0.0; 
stroke:#000000; stroke-width:196.85; stroke-opacity:1; 
stroke-linecap:round; stroke-linejoin:round;">
<path d="M21830 15972
L21830 16795
" />
</g>
<g style="fill:#000000; fill-opacity:0.0; 
stroke:#000000; stroke-width:98.4252; stroke-opacity:1; 
stroke-linecap:round; stroke-linejoin:round;">
<path d="M21830 16795
L21653 16972
" />
</g>
<g style="fill:#000000; fill-opacity:0.0; 
stroke:#000000; stroke-width:196.85; stroke-opacity:1; 
stroke-linecap:round; stroke-linejoin:round;">
<path d="M21901 16043
L21830 15972
" />
<path d="M23509 16043
L21901 16043
" />
<path d="M19628 13759
L18212 12344
" />
<path d="M22759 13759
L19628 13759
" />
<path d="M21830 11972
L22547 11972
" />
</g>
<g style="fill:#000000; fill-opacity:0.0; 
stroke:#000000; stroke-width:98.4252; stroke-opacity:1; 
stroke-linecap:round; stroke-linejoin:round;">
<path d="M22547 11972
L22759 12185
" />
</g>
<g style="fill:#000000; fill-opacity:0.0; 
stroke:#000000; stroke-width:196.85; stroke-opacity:1; 
stroke-linecap:round; stroke-linejoin:round;">
<path d="M36759 11328
L36759 10722
" />
<path d="M35653 10722
L36759 10722
" />
<path d="M36759 10722
L39334 10722
" />
</g>
<g style="fill:#000000; fill-opacity:0.0; 
stroke:#000000; stroke-width:98.4252; stroke-opacity:1; 
stroke-linecap:round; stroke-linejoin:round;">
<path d="M39334 10722
L39381 10769
" />
</g>
<g style="fill:#000000; fill-opacity:0.0; 
stroke:#000000; stroke-width:196.85; stroke-opacity:1; 
stroke-linecap:round; stroke-linejoin:round;">
<path d="M36759 13541
L36759 12116
" />
<path d="M33759 11328
L33759 10722
" />
<path d="M34866 10722
L33759 10722
" />
<path d="M33759 10722
L31184 10722
" />
</g>
<g style="fill:#000000; fill-opacity:0.0; 
stroke:#000000; stroke-width:98.4252; stroke-opacity:1; 
stroke-linecap:round; stroke-linejoin:round;">
<path d="M31184 10722
L31137 10769
" />
</g>
<g style="fill:#000000; fill-opacity:0.0; 
stroke:#000000; stroke-width:196.85; stroke-opacity:1; 
stroke-linecap:round; stroke-linejoin:round;">
<path d="M33759 13541
L33759 12116
" />
<path d="M23509 12935
L23547 12972
" />
<path d="M23509 10722
L23509 12935
" />
<path d="M23509 10543
L23509 10722
" />
<path d="M23547 14864
L23509 14901
" />
<path d="M23547 12972
L23547 14864
" />
<path d="M25616 10722
L23509 10722
" />
</g>
<g style="fill:#000000; fill-opacity:0.0; 
stroke:#000000; stroke-width:98.4252; stroke-opacity:1; 
stroke-linecap:round; stroke-linejoin:round;">
<path d="M28259 10891
L28381 10769
" />
<path d="M28334 10722
L28381 10769
" />
</g>
<g style="fill:#000000; fill-opacity:0.0; 
stroke:#000000; stroke-width:196.85; stroke-opacity:1; 
stroke-linecap:round; stroke-linejoin:round;">
<path d="M28334 10722
L28381 10769
" />
<path d="M26403 10722
L28334 10722
" />
<path d="M20688 15972
L20688 16795
" />
<path d="M20688 16795
L20866 16972
" />
<path d="M12259 12297
L12306 12344
" />
<path d="M12259 10866
L12259 12297
" />
<path d="M13881 12344
L12306 12344
" />
<path d="M16509 14972
L13881 12344
" />
<path d="M16637 15100
L16509 14972
" />
<path d="M17509 15972
L16509 14972
" />
<path d="M20688 15972
L19084 15972
" />
<path d="M18009 15972
L17509 15972
" />
<path d="M19084 15972
L18009 15972
" />
<path d="M18212 15972
L18009 15972
" />
<path d="M18212 15100
L18212 15972
" />
<path d="M11509 8472
L12259 9222
" />
<path d="M12259 9222
L12259 10078
" />
<path d="M8929 8472
L11509 8472
" />
</g>
<g style="fill:#000000; fill-opacity:0.0; 
stroke:#000000; stroke-width:98.4252; stroke-opacity:1; 
stroke-linecap:round; stroke-linejoin:round;">
<path d="M42184 10722
L42137 10769
" />
<path d="M42259 10647
L42137 10769
" />
<path d="M42137 10769
L42137 10600
" />
</g>
<g style="fill:#000000; fill-opacity:0.0; 
stroke:#000000; stroke-width:196.85; stroke-opacity:1; 
stroke-linecap:round; stroke-linejoin:round;">
<path d="M42840 11472
L42137 10769
" />
<path d="M45290 11472
L42840 11472
" />
</g>
<g style="fill:#000000; fill-opacity:0.0; 
stroke:#000000; stroke-width:393.701; stroke-opacity:1; 
stroke-linecap:round; stroke-linejoin:round;">
<path d="M8759 17972
L9759 17972
" />
</g>
<g style="fill:#000000; fill-opacity:1.0; 
stroke:#000000; stroke-width:118.11; stroke-opacity:1; 
stroke-linecap:round; stroke-linejoin:round;">
<polyline style="fill-rule:evenodd;"
points="7354,21377
7492,21377
7492,9967
7929,9530
7987,9588
8367,9967
8322,10082
8059,10186
7775,10181
7536,10082
7492,9967
7492,21377
7898,21377
7898,17972
7898,15972
7948,15723
8088,15513
8299,15372
8548,15322
8774,15322
9022,15372
9142,15452
9180,15395
9265,15337
9306,15329
9306,15222
9306,15100
9306,13425
8866,13425
8692,13390
8592,13323
8513,13323
8416,13304
8330,13248
8272,13163
8252,13062
8252,12669
8271,12571
8328,12485
8345,12474
8294,12422
8254,12327
8254,12184
8254,11973
8254,11830
8294,11735
8366,11662
8462,11622
8565,11622
8654,11622
8718,11687
8718,12037
8319,12037
8254,11973
8254,12184
8319,12119
8718,12119
8718,12127
8800,12127
8800,12119
8808,12119
8808,12037
8800,12037
8800,11687
8865,11622
8954,11622
9057,11622
9152,11662
9215,11725
9225,11735
9239,11769
9279,11674
9377,11648
9435,11706
9435,11590
9461,11492
9492,11480
9492,9967
9929,9530
9987,9588
9987,9472
10425,9034
10540,9079
10643,9343
10639,9626
10540,9865
10425,9909
9987,9472
9987,9588
10367,9967
10322,10082
10059,10186
9775,10181
9536,10082
9492,9967
9492,11480
9667,11414
9888,11421
10058,11492
10083,11590
9759,11914
9435,11590
9435,11706
9701,11972
9377,12296
9279,12270
9264,12231
9264,12327
9225,12422
9174,12473
9189,12483
9213,12519
9432,12519
9446,12505
9517,12475
9461,12452
9435,12354
9759,12030
9817,12088
9817,11972
10141,11648
10240,11674
10317,11880
10310,12101
10240,12270
10141,12296
9817,11972
9817,12088
10083,12354
10058,12452
9999,12474
10071,12504
10226,12659
10311,12862
10311,13081
10227,13284
10212,13299
10212,14647
11577,14647
11588,14621
11826,14383
12137,14254
12474,14253
12785,14382
13023,14620
13152,14931
13153,15268
13024,15579
12786,15817
12475,15946
12139,15946
11827,15818
11589,15580
11578,15553
10606,15553
10611,15578
10611,16366
10592,16463
10535,16549
10476,16589
10575,16760
10593,16830
10543,16931
9899,16931
9899,16923
9817,16923
9817,16931
9346,16931
9173,16931
8702,16931
8702,16923
8620,16923
8620,16931
7976,16931
7925,16830
7944,16760
8072,16539
8155,16476
8088,16431
7948,16221
7898,15972
7898,17972
7948,17723
8088,17513
8155,17468
8072,17405
7944,17184
7925,17114
7976,17013
8620,17013
8620,17021
8702,17021
8702,17013
9173,17013
9346,17013
9817,17013
9817,17021
9899,17021
9899,17013
10543,17013
10593,17114
10575,17184
10447,17405
10363,17468
10430,17513
10571,17723
10620,17972
10571,18221
10430,18431
10219,18572
9971,18622
9745,18622
9496,18572
9285,18431
9281,18425
9238,18425
9233,18431
9022,18572
8774,18622
8548,18622
8299,18572
8088,18431
7948,18221
7898,17972
7898,21377
19753,21377
19753,20590
19753,18582
27530,18582
27530,16837
27533,16499
27657,16199
27786,16138
27844,16196
27844,16080
27906,15951
28219,15824
28557,15827
28857,15951
28918,16080
28381,16617
27844,16080
27844,16196
28323,16675
27786,17212
27657,17150
27530,16837
27530,18582
27844,18582
27844,17270
28381,16733
28439,16791
28439,16675
28976,16138
29105,16199
29232,16513
29229,16851
29105,17150
28976,17212
28439,16675
28439,16791
28918,17270
28857,17399
28543,17526
28205,17523
27906,17399
27844,17270
27844,18582
30286,18582
30286,16837
30289,16499
30291,16495
30291,10601
30419,10290
30657,10052
30968,9923
31305,9922
31616,10051
31854,10289
31887,10368
33759,10368
34434,10368
34483,10293
34568,10235
34669,10215
35062,10215
35160,10234
35246,10290
35259,10310
35270,10293
35355,10235
35456,10215
35850,10215
35947,10234
36033,10290
36085,10368
36759,10368
38631,10368
38663,10290
38901,10052
39212,9923
39549,9922
39860,10051
40098,10289
40227,10600
40228,10937
40099,11248
39861,11486
39550,11615
39214,11615
38902,11487
38664,11249
38592,11076
37255,11076
37266,11131
37266,11525
37247,11623
37191,11708
37171,11722
37189,11733
37246,11818
37266,11919
37266,12312
37247,12410
37191,12496
37114,12548
37114,12919
37221,12941
37432,13081
37573,13292
37622,13541
37573,13789
37432,14000
37221,14141
36973,14190
36546,14190
36297,14141
36086,14000
35946,13789
35896,13541
35946,13292
36086,13081
36297,12941
36405,12919
36405,12547
36330,12498
36272,12413
36252,12312
36252,11919
36271,11821
36328,11735
36347,11722
36330,11711
36272,11626
36252,11525
36252,11131
36263,11076
36085,11076
36035,11151
35950,11209
35850,11229
35456,11229
35359,11210
35273,11154
35259,11134
35248,11151
35163,11209
35062,11229
34669,11229
34571,11210
34485,11154
34433,11076
34255,11076
34266,11131
34266,11525
34247,11623
34191,11708
34171,11722
34189,11733
34246,11818
34266,11919
34266,12312
34247,12410
34191,12496
34114,12548
34114,12919
34221,12941
34432,13081
34573,13292
34622,13541
34573,13789
34432,14000
34221,14141
33973,14190
33546,14190
33297,14141
33086,14000
32946,13789
32896,13541
32946,13292
33086,13081
33297,12941
33405,12919
33405,12547
33330,12498
33272,12413
33252,12312
33252,11919
33271,11821
33328,11735
33347,11722
33330,11711
33272,11626
33252,11525
33252,11131
33263,11076
31926,11076
31855,11248
31617,11486
31306,11615
30970,11615
30658,11487
30420,11249
30291,10938
30291,10601
30291,16495
30413,16199
30542,16138
30600,16196
30600,16080
30662,15951
30975,15824
31313,15827
31613,15951
31674,16080
31137,16617
30600,16080
30600,16196
31079,16675
30542,17212
30413,17150
30286,16837
30286,18582
30600,18582
30600,17270
31137,16733
31195,16791
31195,16675
31732,16138
31861,16199
31988,16513
31985,16851
31861,17150
31732,17212
31195,16675
31195,16791
31674,17270
31613,17399
31299,17526
30961,17523
30662,17399
30600,17270
30600,18582
32925,18582
32925,16045
32925,15761
32944,15691
33072,15470
33275,15316
33521,15250
33718,15250
33718,15862
32976,15862
32925,15761
32925,16045
32976,15944
33718,15944
33718,16556
33521,16556
33275,16490
33072,16336
32944,16115
32925,16045
32925,18582
33773,18582
33773,20590
19753,20590
19753,21377
33800,21377
33800,16556
33800,15944
33800,15862
33800,15250
33997,15250
34244,15316
34447,15470
34575,15691
34593,15761
34543,15862
33800,15862
33800,15944
34543,15944
34593,16045
34575,16115
34447,16336
34244,16490
33997,16556
33800,16556
33800,21377
35925,21377
35925,16045
35925,15761
35944,15691
36072,15470
36275,15316
36521,15250
36718,15250
36718,15862
35976,15862
35925,15761
35925,16045
35976,15944
36718,15944
36718,16556
36521,16556
36275,16490
36072,16336
35944,16115
35925,16045
35925,21377
36800,21377
36800,16556
36800,15944
36800,15862
36800,15250
36997,15250
37244,15316
37447,15470
37575,15691
37593,15761
37543,15862
36800,15862
36800,15944
37543,15944
37593,16045
37575,16115
37447,16336
37244,16490
36997,16556
36800,16556
36800,21377
38530,21377
38530,16837
38533,16499
38657,16199
38786,16138
38844,16196
38844,16080
38906,15951
39219,15824
39557,15827
39857,15951
39918,16080
39381,16617
38844,16080
38844,16196
39323,16675
38786,17212
38657,17150
38530,16837
38530,21377
38844,21377
38844,17270
39381,16733
39439,16791
39439,16675
39976,16138
40105,16199
40232,16513
40229,16851
40105,17150
39976,17212
39439,16675
39439,16791
39918,17270
39857,17399
39543,17526
39205,17523
38906,17399
38844,17270
38844,21377
41286,21377
41286,16837
41289,16499
41291,16495
41291,10601
41419,10290
41657,10052
41968,9923
42305,9922
42616,10051
42854,10289
42983,10600
42984,10937
42932,11062
42987,11118
44662,11118
44695,11068
44880,10944
45099,10901
45351,10901
45351,9653
45351,9275
45389,9139
45581,8823
45880,8604
46239,8516
46928,8516
46928,9423
45398,9423
45351,9275
45351,9653
45398,9505
46928,9505
46928,10412
46239,10412
45880,10324
45581,10105
45389,9789
45351,9653
45351,10901
45482,10901
45700,10944
45886,11068
46009,11253
46053,11472
46009,11690
45886,11876
45754,11964
45902,12079
46013,12274
46026,12326
45975,12415
45331,12415
45331,12407
45249,12407
45249,12415
44606,12415
44554,12326
44567,12274
44678,12079
44827,11964
44695,11876
44662,11826
42840,11826
42705,11799
42590,11722
42431,11564
42306,11615
41970,11615
41658,11487
41420,11249
41291,10938
41291,10601
41291,16495
41413,16199
41542,16138
41600,16196
41600,16080
41662,15951
41975,15824
42313,15827
42613,15951
42674,16080
42137,16617
41600,16080
41600,16196
42079,16675
41542,17212
41413,17150
41286,16837
41286,21377
41600,21377
41600,17270
42137,16733
42195,16791
42195,16675
42732,16138
42861,16199
42988,16513
42985,16851
42861,17150
42732,17212
42195,16675
42195,16791
42674,17270
42613,17399
42299,17526
41961,17523
41662,17399
41600,17270
41600,21377
44554,21377
44554,12586
44606,12497
45249,12497
45249,13030
45072,13030
44856,12971
44678,12833
44567,12638
44554,12586
44554,21377
45331,21377
45331,13030
45331,12497
45975,12497
46025,12583
46239,12531
46928,12531
46928,13438
45398,13438
45351,13290
45389,13154
45464,13030
45331,13030
45331,21377
45351,21377
45351,13668
45398,13520
46928,13520
46928,14427
46239,14427
45880,14339
45581,14120
45389,13804
45351,13668
45351,21377
47010,21377
47010,14427
47010,13520
47010,13438
47010,12531
47010,10412
47010,9505
47010,9423
47010,8516
47699,8516
48059,8604
48358,8823
48550,9139
48587,9275
48541,9423
47010,9423
47010,9505
48541,9505
48587,9653
48550,9789
48358,10105
48059,10324
47699,10412
47010,10412
47010,12531
47699,12531
48059,12619
48358,12838
48550,13154
48587,13290
48541,13438
47010,13438
47010,13520
48541,13520
48587,13668
48550,13804
48358,14120
48059,14339
47699,14427
47010,14427
47010,21377
50110,21377
50110,6181
7354,6181
7354,7066
7434,7034
7492,7092
7492,6976
7536,6862
7800,6758
8083,6763
8322,6862
8367,6976
7929,7414
7492,6976
7492,7092
7871,7472
7434,7909
7354,7878
7354,9066
7434,9034
7492,9092
7492,8976
7536,8862
7800,8758
8083,8763
8220,8820
8322,8862
8367,8976
8399,8944
8329,8874
8221,8614
8220,8332
8328,8071
8399,8000
8367,7967
8322,8082
8059,8186
7775,8181
7536,8082
7492,7967
7929,7530
7935,7535
7987,7483
7993,7478
7987,7472
8425,7034
8540,7079
8643,7343
8639,7626
8540,7865
8425,7909
8457,7942
8527,7872
8788,7763
9070,7763
9215,7823
9330,7871
9401,7942
9434,7909
9319,7865
9215,7601
9220,7318
9319,7079
9434,7034
9492,7092
9492,6976
9536,6862
9800,6758
10083,6763
10322,6862
10367,6976
9929,7414
9492,6976
9492,7092
9871,7472
9866,7478
9924,7535
9929,7530
9987,7588
9987,7472
10425,7034
10540,7079
10643,7343
10639,7626
10540,7865
10425,7909
9987,7472
9987,7588
10367,7967
10322,8082
10232,8118
11509,8118
11645,8145
11760,8221
12510,8971
12587,9086
12614,9222
12614,9646
12689,9696
12746,9781
12766,9881
12766,10275
12747,10373
12691,10458
12671,10472
12689,10483
12746,10568
12766,10669
12766,11062
12747,11160
12691,11246
12614,11298
12614,11555
12785,11626
13023,11864
13076,11990
13881,11990
14017,12017
14132,12093
16760,14721
16888,14849
17408,15369
17366,15269
17366,14932
17366,12176
17494,11865
17732,11627
18043,11498
18380,11497
18691,11626
18929,11864
19058,12175
19059,12512
19007,12637
19252,12883
19252,10562
19252,10169
19271,10071
19328,9985
19345,9974
19294,9922
19254,9827
19254,9684
19254,9473
19254,9330
19294,9235
19366,9162
19462,9122
19565,9122
19654,9122
19718,9187
19718,9537
19319,9537
19254,9473
19254,9684
19319,9619
19718,9619
19718,9627
19800,9627
19800,9619
19808,9619
19808,9537
19800,9537
19800,9187
19865,9122
19954,9122
20057,9122
20152,9162
20166,9175
20166,9172
20205,9077
20278,9004
20373,8965
20476,8965
20654,8965
20718,9030
20718,9360
20710,9360
20710,9442
20718,9442
20718,9773
20654,9837
20476,9837
20373,9837
20278,9798
20264,9784
20264,9827
20225,9922
20174,9973
20189,9983
20246,10068
20265,10164
20324,10125
20425,10105
20800,10105
20800,9773
20800,9442
20800,9360
20800,9030
20865,8965
21042,8965
21145,8965
21241,9004
21313,9077
21353,9172
21353,9295
21288,9360
20800,9360
20800,9442
21288,9442
21353,9507
21353,9630
21313,9725
21241,9798
21145,9837
21042,9837
20865,9837
20800,9773
20800,10105
21094,10105
21191,10124
21277,10180
21335,10265
21355,10366
21355,10720
21336,10818
21280,10903
21194,10961
21094,10981
21043,10981
21043,11448
21049,11452
21106,11537
21126,11637
21126,12307
21108,12404
21051,12490
20966,12547
20866,12568
20511,12568
20414,12549
20328,12492
20270,12407
20250,12307
20250,11637
20269,11540
20326,11454
20334,11448
20334,10963
20327,10962
20241,10906
20236,10897
19936,10897
19801,10870
19731,10823
19513,10823
19416,10804
19330,10748
19272,10663
19252,10562
19252,12883
19774,13405
22252,13405
22268,13325
22383,13152
22556,13037
22759,12997
22790,13003
22784,12972
22790,12941
22759,12947
22556,12907
22383,12792
22268,12619
22231,12432
22193,12490
22108,12547
22007,12568
21653,12568
21555,12549
21470,12492
21412,12407
21392,12307
21392,11637
21411,11540
21467,11454
21552,11397
21653,11376
22007,11376
22105,11395
22191,11452
22248,11537
22264,11618
22357,11618
22383,11578
22556,11462
22759,11422
22963,11462
23135,11578
23155,11607
23155,10977
23077,10962
22991,10906
22934,10821
22914,10720
22914,10366
22916,10356
22916,9630
22916,9507
22916,9295
22916,9172
22955,9077
23028,9004
23123,8965
23226,8965
23404,8965
23468,9030
23468,9360
22980,9360
22916,9295
22916,9507
22980,9442
23468,9442
23468,9773
23404,9837
23226,9837
23123,9837
23028,9798
22955,9725
22916,9630
22916,10356
22933,10268
22989,10182
23074,10125
23175,10105
23550,10105
23550,9773
23550,9442
23550,9360
23550,9030
23615,8965
23792,8965
23895,8965
23991,9004
24063,9077
24103,9172
24103,9295
24038,9360
23550,9360
23550,9442
24038,9442
24103,9507
24103,9630
24063,9725
23991,9798
23895,9837
23792,9837
23615,9837
23550,9773
23550,10105
23844,10105
23941,10124
24027,10180
24085,10265
24105,10366
24105,10368
25184,10368
25233,10293
25318,10235
25419,10215
25812,10215
25910,10234
25996,10290
26009,10310
26020,10293
26105,10235
26206,10215
26600,10215
26697,10234
26783,10290
26835,10368
27631,10368
27663,10290
27901,10052
28212,9923
28549,9922
28860,10051
29098,10289
29227,10600
29228,10937
29099,11248
28861,11486
28550,11615
28214,11615
27902,11487
27664,11249
27592,11076
26835,11076
26785,11151
26700,11209
26600,11229
26206,11229
26109,11210
26023,11154
26009,11134
25998,11151
25913,11209
25812,11229
25419,11229
25321,11210
25235,11154
25183,11076
23864,11076
23864,12457
23981,12481
24154,12596
24269,12769
24309,12972
24269,13175
24154,13348
23981,13463
23901,13479
23901,14474
23941,14482
24027,14538
24085,14623
24105,14724
24105,15078
24086,15176
24030,15262
23944,15319
23844,15339
23175,15339
23077,15320
22991,15264
22934,15179
22914,15078
22914,14724
22933,14626
22989,14541
23074,14483
23175,14463
23192,14463
23192,14281
23135,14366
22963,14482
22759,14522
22556,14482
22383,14366
22268,14194
22252,14114
19628,14114
19492,14087
19377,14010
18506,13139
18381,13190
18045,13190
17733,13062
17495,12824
17366,12513
17366,12176
17366,14932
17494,14621
17732,14383
18043,14254
18380,14253
18691,14382
18929,14620
19058,14931
19059,15268
18930,15579
18891,15618
19084,15618
20254,15618
20269,15540
20326,15454
20411,15397
20511,15376
20866,15376
20963,15395
21049,15452
21106,15537
21126,15637
21126,16307
21108,16404
21067,16466
21160,16484
21246,16540
21259,16560
21270,16543
21355,16485
21452,16466
21412,16407
21392,16307
21392,15637
21411,15540
21467,15454
21552,15397
21653,15376
22007,15376
22105,15395
22191,15452
22248,15537
22268,15637
22268,15688
22985,15688
22989,15682
23074,15625
23175,15605
23844,15605
23941,15624
24027,15680
24085,15765
24105,15866
24105,16220
24086,16318
24030,16403
23944,16461
23844,16481
23175,16481
23077,16462
22991,16406
22986,16397
22251,16397
22249,16404
22193,16490
22184,16496
22184,16795
22157,16930
22111,17000
22111,17218
22092,17316
22035,17401
21950,17459
21850,17479
21456,17479
21359,17460
21273,17404
21259,17384
21248,17401
21163,17459
21062,17479
20669,17479
20571,17460
20485,17404
20428,17319
20408,17218
20408,17000
20361,16930
20361,16930
20334,16795
20334,16496
20328,16492
20270,16407
20254,16326
19084,16326
18212,16326
18009,16326
17509,16326
17374,16299
17259,16222
16387,15350
16259,15222
13734,12698
13076,12698
13024,12823
12786,13061
12475,13190
12139,13190
11827,13062
11589,12824
11460,12513
11460,12176
11588,11865
11826,11627
11905,11594
11905,11297
11830,11248
11772,11163
11752,11062
11752,10669
11771,10571
11828,10485
11847,10472
11830,10461
11772,10376
11752,10275
11752,9881
11771,9784
11828,9698
11905,9646
11905,9369
11362,8826
10237,8826
10322,8862
10367,8976
9929,9414
9924,9408
9866,9466
9871,9472
9434,9909
9319,9865
9215,9601
9220,9318
9319,9079
9434,9034
9401,9002
9331,9072
9071,9180
8789,9181
8528,9073
8457,9002
8425,9034
8540,9079
8643,9343
8639,9626
8540,9865
8425,9909
7987,9472
7993,9466
7935,9408
7929,9414
7492,8976
7492,9092
7871,9472
7434,9909
7354,9878
7354,21377
" /> 
</g>
<g style="fill:#FFFFFF; fill-opacity:1.0; 
stroke:#FFFFFF; stroke-width:39.3701; stroke-opacity:1; 
stroke-linecap:round; stroke-linejoin:round;">
<circle cx="17905.4" cy="19685" r="98.4252" /> 
<circle cx="17905.4" cy="7874.02" r="98.4252" /> 
<circle cx="41527.4" cy="19685" r="98.4252" /> 
<circle cx="41527.4" cy="7874.02" r="98.4252" /> 
<circle cx="18212.7" cy="15100.4" r="98.4252" /> 
<circle cx="12306.7" cy="15100.4" r="98.4252" /> 
<circle cx="18212.7" cy="12344.4" r="98.4252" /> 
<circle cx="12306.7" cy="12344.4" r="98.4252" /> 
<circle cx="42137.7" cy="10769.4" r="98.4252" /> 
<circle cx="42137.7" cy="16675.4" r="98.4252" /> 
<circle cx="39381.7" cy="10769.4" r="98.4252" /> 
<circle cx="39381.7" cy="16675.4" r="98.4252" /> 
<circle cx="9759.73" cy="11972.4" r="98.4252" /> 
<circle cx="9759.73" cy="12972.4" r="98.4252" /> 
<circle cx="36759.7" cy="13541.3" r="98.4252" /> 
<circle cx="36759.7" cy="15903.5" r="98.4252" /> 
<circle cx="33759.7" cy="13541.3" r="98.4252" /> 
<circle cx="33759.7" cy="15903.5" r="98.4252" /> 
<circle cx="46969.7" cy="13479.4" r="98.4252" /> 
<circle cx="46969.7" cy="9464.44" r="98.4252" /> 
<circle cx="45290.7" cy="11472.4" r="98.4252" /> 
<circle cx="45290.7" cy="12456.4" r="98.4252" /> 
<circle cx="9759.73" cy="15972.4" r="98.4252" /> 
<circle cx="8759.73" cy="15972.4" r="98.4252" /> 
<circle cx="9759.73" cy="16972.4" r="98.4252" /> 
<circle cx="8759.73" cy="16972.4" r="98.4252" /> 
<circle cx="9759.73" cy="17972.4" r="98.4252" /> 
<circle cx="8759.73" cy="17972.4" r="98.4252" /> 
<circle cx="8929.73" cy="8472.44" r="98.4252" /> 
<circle cx="9929.73" cy="7472.44" r="98.4252" /> 
<circle cx="9929.73" cy="9472.44" r="98.4252" /> 
<circle cx="7929.73" cy="9472.44" r="98.4252" /> 
<circle cx="7929.73" cy="7472.44" r="98.4252" /> 
<circle cx="23547.1" cy="12972.4" r="98.4252" /> 
<circle cx="22759.7" cy="13759.8" r="98.4252" /> 
<circle cx="22759.7" cy="12185" r="98.4252" /> 
<circle cx="31137.7" cy="10769.4" r="98.4252" /> 
<circle cx="31137.7" cy="16675.4" r="98.4252" /> 
<circle cx="28381.7" cy="10769.4" r="98.4252" /> 
<circle cx="28381.7" cy="16675.4" r="98.4252" /> 
<circle cx="38574.7" cy="7874.02" r="98.4252" /> 
<circle cx="38574.7" cy="19685" r="98.4252" /> 
<circle cx="14952.6" cy="19685" r="98.4252" /> 
<circle cx="14952.6" cy="7874.02" r="98.4252" /> 
</g>
<g style="fill:#000000; fill-opacity:0.0; 
stroke:#000000; stroke-width:118.11; stroke-opacity:1; 
stroke-linecap:round; stroke-linejoin:round;">
<path d="M2736 11614
L2342 11614
" />
<path d="M2961 11473
L2539 11332
L2539 11698
" />
<path d="M2933 12035
L2933 12092
L2905 12148
L2877 12176
L2821 12204
L2708 12232
L2567 12232
L2455 12204
L2399 12176
L2371 12148
L2342 12092
L2342 12035
L2371 11979
L2399 11951
L2455 11923
L2567 11895
L2708 11895
L2821 11923
L2877 11951
L2905 11979
L2933 12035
" />
<path d="M2371 12514
L2342 12514
L2286 12485
L2258 12457
" />
<path d="M2933 12879
L2933 12935
L2905 12992
L2877 13020
L2821 13048
L2708 13076
L2567 13076
L2455 13048
L2399 13020
L2371 12992
L2342 12935
L2342 12879
L2371 12823
L2399 12795
L2455 12767
L2567 12739
L2708 12739
L2821 12767
L2877 12795
L2905 12823
L2933 12879
" />
<path d="M2933 13442
L2933 13498
L2905 13554
L2877 13582
L2821 13610
L2708 13638
L2567 13638
L2455 13610
L2399 13582
L2371 13554
L2342 13498
L2342 13442
L2371 13385
L2399 13357
L2455 13329
L2567 13301
L2708 13301
L2821 13329
L2877 13357
L2905 13385
L2933 13442
" />
<path d="M2933 14004
L2933 14060
L2905 14116
L2877 14145
L2821 14173
L2708 14201
L2567 14201
L2455 14173
L2399 14145
L2371 14116
L2342 14060
L2342 14004
L2371 13948
L2399 13920
L2455 13892
L2567 13863
L2708 13863
L2821 13892
L2877 13920
L2905 13948
L2933 14004
" />
<path d="M2342 14904
L2736 14904
" />
<path d="M2680 14904
L2708 14932
L2736 14988
L2736 15073
L2708 15129
L2652 15157
L2342 15157
" />
<path d="M2652 15157
L2708 15185
L2736 15241
L2736 15326
L2708 15382
L2652 15410
L2342 15410
" />
<path d="M2342 15691
L2736 15691
" />
<path d="M2680 15691
L2708 15719
L2736 15776
L2736 15860
L2708 15916
L2652 15944
L2342 15944
" />
<path d="M2652 15944
L2708 15973
L2736 16029
L2736 16113
L2708 16169
L2652 16197
L2342 16197
" />
<path d="M3141 21653
L3141 5905
" />
<path d="M7078 21653
L2078 21653
" />
<path d="M7078 5905
L2078 5905
" />
<path d="M3141 5905
L2910 6349
" />
<path d="M3141 5905
L3372 6349
" />
<path d="M3141 21653
L2910 21210
" />
<path d="M3141 21653
L3372 21210
" />
<path d="M26341 24420
L26004 24420
" />
<path d="M26173 24420
L26173 23830
L26116 23914
L26060 23970
L26004 23998
" />
<path d="M26904 24420
L26566 24420
" />
<path d="M26735 24420
L26735 23830
L26679 23914
L26623 23970
L26566 23998
" />
<path d="M27269 23830
L27326 23830
L27382 23858
L27410 23886
L27438 23942
L27466 24055
L27466 24195
L27438 24308
L27410 24364
L27382 24392
L27326 24420
L27269 24420
L27213 24392
L27185 24364
L27157 24308
L27129 24195
L27129 24055
L27157 23942
L27185 23886
L27213 23858
L27269 23830
" />
<path d="M27747 24392
L27747 24420
L27719 24476
L27691 24505
" />
<path d="M28113 23830
L28169 23830
L28225 23858
L28254 23886
L28282 23942
L28310 24055
L28310 24195
L28282 24308
L28254 24364
L28225 24392
L28169 24420
L28113 24420
L28057 24392
L28029 24364
L28001 24308
L27972 24195
L27972 24055
L28001 23942
L28029 23886
L28057 23858
L28113 23830
" />
<path d="M28675 23830
L28732 23830
L28788 23858
L28816 23886
L28844 23942
L28872 24055
L28872 24195
L28844 24308
L28816 24364
L28788 24392
L28732 24420
L28675 24420
L28619 24392
L28591 24364
L28563 24308
L28535 24195
L28535 24055
L28563 23942
L28591 23886
L28619 23858
L28675 23830
" />
<path d="M29238 23830
L29294 23830
L29350 23858
L29378 23886
L29407 23942
L29435 24055
L29435 24195
L29407 24308
L29378 24364
L29350 24392
L29294 24420
L29238 24420
L29182 24392
L29153 24364
L29125 24308
L29097 24195
L29097 24055
L29125 23942
L29153 23886
L29182 23858
L29238 23830
" />
<path d="M30138 24420
L30138 24026
" />
<path d="M30138 24083
L30166 24055
L30222 24026
L30306 24026
L30363 24055
L30391 24111
L30391 24420
" />
<path d="M30391 24111
L30419 24055
L30475 24026
L30560 24026
L30616 24055
L30644 24111
L30644 24420
" />
<path d="M30925 24420
L30925 24026
" />
<path d="M30925 24083
L30953 24055
L31010 24026
L31094 24026
L31150 24055
L31178 24111
L31178 24420
" />
<path d="M31178 24111
L31206 24055
L31263 24026
L31347 24026
L31403 24055
L31431 24111
L31431 24420
" />
<path d="M50385 23622
L7078 23622
" />
<path d="M50385 21653
L50385 24685
" />
<path d="M7078 21653
L7078 24685
" />
<path d="M7078 23622
L7522 23852
" />
<path d="M7078 23622
L7522 23391
" />
<path d="M50385 23622
L49942 23852
" />
<path d="M50385 23622
L49942 23391
" />
</g>
<g style="fill:#000000; fill-opacity:0.0; 
stroke:#000000; stroke-width:39.3701; stroke-opacity:1; 
stroke-linecap:round; stroke-linejoin:round;">
<path d="M50385 5905
L50385 21653
" />
<path d="M7078 5905
L50385 5905
" />
<path d="M7078 21653
L7078 5905
" />
<path d="M7078 21653
L50385 21653
" />
</g> 
</svg>
