<?xml version="1.0" encoding="UTF-8" standalone="no"?>
<svg
   xmlns:dc="http://purl.org/dc/elements/1.1/"
   xmlns:cc="http://creativecommons.org/ns#"
   xmlns:rdf="http://www.w3.org/1999/02/22-rdf-syntax-ns#"
   xmlns:svg="http://www.w3.org/2000/svg"
   xmlns="http://www.w3.org/2000/svg"
   xmlns:sodipodi="http://sodipodi.sourceforge.net/DTD/sodipodi-0.dtd"
   xmlns:inkscape="http://www.inkscape.org/namespaces/inkscape"
   version="1.1"
   width="382.68921"
   height="453.54572"
   viewBox="0 0 42520.899 50393.876"
   id="svg2"
   inkscape:version="0.48.4 r9939"
   sodipodi:docname="os_b.svg">
  <metadata
     id="metadata212">
    <rdf:RDF>
      <cc:Work
         rdf:about="">
        <dc:format>image/svg+xml</dc:format>
        <dc:type
           rdf:resource="http://purl.org/dc/dcmitype/StillImage" />
      </cc:Work>
    </rdf:RDF>
  </metadata>
  <defs
     id="defs210" />
  <sodipodi:namedview
     pagecolor="#ffffff"
     bordercolor="#666666"
     borderopacity="1"
     objecttolerance="10"
     gridtolerance="10"
     guidetolerance="10"
     inkscape:pageopacity="0"
     inkscape:pageshadow="2"
     inkscape:window-width="640"
     inkscape:window-height="480"
     id="namedview208"
     showgrid="false"
     fit-margin-top="0"
     fit-margin-left="0"
     fit-margin-right="0"
     fit-margin-bottom="0"
     inkscape:zoom="0.61815592"
     inkscape:cx="195.01742"
     inkscape:cy="226.85948"
     inkscape:window-x="0"
     inkscape:window-y="25"
     inkscape:window-maximized="0"
     inkscape:current-layer="svg2" />
  <title
     id="title4">SVG Picture created as zdroj-brd.svg date 2015/04/13 04:19:05 </title>
  <desc
     id="desc6">Picture generated by PCBNEW </desc>
  <g
     id="g3189"
     transform="matrix(0,1,-1,0,42480.033,-1489.1855)">
    <g
       id="g8"
       style="fill:#000000;fill-opacity:1;stroke:#000000;stroke-linecap:round;stroke-linejoin:round;stroke-opacity:1" />
    <g
       id="g10"
       style="fill:#000000;fill-opacity:0;stroke:#000000;stroke-width:19.68499947;stroke-linecap:round;stroke-linejoin:round;stroke-opacity:1">
      <path
         id="path12"
         d="m 32375,26157 0,1417"
         inkscape:connector-curvature="0" />
      <path
         id="path14"
         d="m 33163,26157 0,1417"
         inkscape:connector-curvature="0" />
      <path
         id="path16"
         d="m 32375,26157 788,0"
         inkscape:connector-curvature="0" />
      <path
         id="path18"
         d="m 32375,27574 788,0"
         inkscape:connector-curvature="0" />
      <path
         id="path20"
         d="m 32375,34157 0,1417"
         inkscape:connector-curvature="0" />
      <path
         id="path22"
         d="m 33163,34157 0,1417"
         inkscape:connector-curvature="0" />
      <path
         id="path24"
         d="m 32375,34157 788,0"
         inkscape:connector-curvature="0" />
      <path
         id="path26"
         d="m 32375,35574 788,0"
         inkscape:connector-curvature="0" />
      <path
         id="path28"
         d="m 32375,18157 0,1417"
         inkscape:connector-curvature="0" />
      <path
         id="path30"
         d="m 33163,18157 0,1417"
         inkscape:connector-curvature="0" />
      <path
         id="path32"
         d="m 32375,18157 788,0"
         inkscape:connector-curvature="0" />
      <path
         id="path34"
         d="m 32375,19574 788,0"
         inkscape:connector-curvature="0" />
      <path
         id="path36"
         d="m 33163,37574 0,-1417"
         inkscape:connector-curvature="0" />
      <path
         id="path38"
         d="m 32375,37574 0,-1417"
         inkscape:connector-curvature="0" />
      <path
         id="path40"
         d="m 33163,37574 -788,0"
         inkscape:connector-curvature="0" />
      <path
         id="path42"
         d="m 33163,36157 -788,0"
         inkscape:connector-curvature="0" />
      <path
         id="path44"
         d="m 35275,27157 0,1417"
         inkscape:connector-curvature="0" />
      <path
         id="path46"
         d="m 36063,27157 0,1417"
         inkscape:connector-curvature="0" />
      <path
         id="path48"
         d="m 35275,27157 788,0"
         inkscape:connector-curvature="0" />
      <path
         id="path50"
         d="m 35275,28574 788,0"
         inkscape:connector-curvature="0" />
      <path
         id="path52"
         d="m 33163,21674 0,-1417"
         inkscape:connector-curvature="0" />
      <path
         id="path54"
         d="m 32375,21674 0,-1417"
         inkscape:connector-curvature="0" />
      <path
         id="path56"
         d="m 33163,21674 -788,0"
         inkscape:connector-curvature="0" />
      <path
         id="path58"
         d="m 33163,20257 -788,0"
         inkscape:connector-curvature="0" />
    </g>
    <g
       id="g60"
       style="fill:#000000;fill-opacity:0;stroke:#000000;stroke-width:59.05509949;stroke-linecap:round;stroke-linejoin:round;stroke-opacity:1">
      <path
         id="path62"
         d="m 32435,27062 0,-393"
         inkscape:connector-curvature="0" />
      <path
         id="path64"
         d="m 33104,26669 0,393"
         inkscape:connector-curvature="0" />
      <path
         id="path66"
         d="m 32435,35062 0,-393"
         inkscape:connector-curvature="0" />
      <path
         id="path68"
         d="m 33104,34669 0,393"
         inkscape:connector-curvature="0" />
      <path
         id="path70"
         d="m 32435,19062 0,-393"
         inkscape:connector-curvature="0" />
      <path
         id="path72"
         d="m 33104,18669 0,393"
         inkscape:connector-curvature="0" />
      <path
         id="path74"
         d="m 33104,36669 0,393"
         inkscape:connector-curvature="0" />
      <path
         id="path76"
         d="m 32435,37062 0,-393"
         inkscape:connector-curvature="0" />
      <path
         id="path78"
         d="m 35335,28062 0,-393"
         inkscape:connector-curvature="0" />
      <path
         id="path80"
         d="m 36004,27669 0,393"
         inkscape:connector-curvature="0" />
      <path
         id="path82"
         d="m 33104,20769 0,393"
         inkscape:connector-curvature="0" />
      <path
         id="path84"
         d="m 32435,21162 0,-393"
         inkscape:connector-curvature="0" />
      <path
         id="path86"
         d="m 32083,26800 19,-19 19,-56 0,-37 -19,-57 -38,-37 -37,-19 -75,-19 -56,0 -75,19 -38,19 -37,37 -19,57 0,37 19,56 18,19"
         inkscape:connector-curvature="0" />
      <path
         id="path88"
         d="m 31727,27156 0,-187 187,-19 -18,19 -19,37 0,94 19,37 18,19 38,19 94,0 37,-19 19,-19 19,-37 0,-94 -19,-37 -19,-19"
         inkscape:connector-curvature="0" />
      <path
         id="path90"
         d="m 32260,34800 19,-19 18,-56 0,-37 -18,-57 -38,-37 -37,-19 -75,-19 -57,0 -75,19 -37,19 -38,37 -18,57 0,37 18,56 19,19"
         inkscape:connector-curvature="0" />
      <path
         id="path92"
         d="m 32035,35137 262,0"
         inkscape:connector-curvature="0" />
      <path
         id="path94"
         d="m 31885,35044 281,-94 0,244"
         inkscape:connector-curvature="0" />
      <path
         id="path96"
         d="m 32185,18875 19,-19 18,-56 0,-37 -18,-57 -38,-37 -37,-19 -75,-19 -57,0 -75,19 -37,19 -38,37 -18,57 0,37 18,56 19,19"
         inkscape:connector-curvature="0" />
      <path
         id="path98"
         d="m 31829,19212 0,-75 18,-37 19,-19 56,-37 75,-19 150,0 38,19 19,19 18,37 0,75 -18,37 -19,19 -38,19 -93,0 -38,-19 -19,-19 -18,-37 0,-75 18,-37 19,-19 38,-19"
         inkscape:connector-curvature="0" />
      <path
         id="path100"
         d="m 32210,36775 19,-19 18,-56 0,-37 -18,-57 -38,-37 -37,-19 -75,-19 -57,0 -75,19 -37,19 -38,37 -18,57 0,37 18,56 19,19"
         inkscape:connector-curvature="0" />
      <path
         id="path102"
         d="m 31854,36906 0,263 393,-169"
         inkscape:connector-curvature="0" />
      <path
         id="path104"
         d="m 36685,27775 19,-19 18,-56 0,-37 -18,-57 -38,-37 -37,-19 -75,-19 -57,0 -75,19 -37,19 -38,37 -18,57 0,37 18,56 19,19"
         inkscape:connector-curvature="0" />
      <path
         id="path106"
         d="m 36497,28000 -18,-37 -19,-19 -38,-19 -18,0 -38,19 -19,19 -18,37 0,75 18,37 19,19 38,19 18,0 38,-19 19,-19 18,-37 0,-75 19,-37 19,-19 37,-19 75,0 38,19 19,19 18,37 0,75 -18,37 -19,19 -38,19 -75,0 -37,-19 -19,-19 -19,-37"
         inkscape:connector-curvature="0" />
      <path
         id="path108"
         d="m 32210,20850 19,-19 18,-56 0,-37 -18,-57 -38,-37 -37,-19 -75,-19 -57,0 -75,19 -37,19 -38,37 -18,57 0,37 18,56 19,19"
         inkscape:connector-curvature="0" />
      <path
         id="path110"
         d="m 32247,21038 0,74 -18,38 -19,19 -56,37 -75,19 -150,0 -38,-19 -19,-19 -18,-37 0,-75 18,-37 19,-19 38,-19 93,0 38,19 19,19 18,37 0,75 -18,37 -19,19 -38,19"
         inkscape:connector-curvature="0" />
    </g>
    <g
       id="g112"
       style="fill:#000000;fill-opacity:0;stroke:#000000;stroke-width:118.11000061;stroke-linecap:round;stroke-linejoin:round;stroke-opacity:1">
      <path
         id="path114"
         d="m 51560,17314 0,-338"
         inkscape:connector-curvature="0" />
      <path
         id="path116"
         d="m 51560,17145 -591,0 85,-56 56,-56 28,-57"
         inkscape:connector-curvature="0" />
      <path
         id="path118"
         d="m 50969,17679 0,57 29,56 28,28 56,28 112,28 141,0 112,-28 57,-28 28,-28 28,-56 0,-57 -28,-56 -28,-28 -57,-28 -112,-28 -141,0 -112,28 -56,28 -28,28 -29,56"
         inkscape:connector-curvature="0" />
      <path
         id="path120"
         d="m 50969,18242 0,56 29,56 28,29 56,28 112,28 141,0 112,-28 57,-28 28,-29 28,-56 0,-56 -28,-56 -28,-28 -57,-29 -112,-28 -141,0 -112,28 -56,29 -28,28 -29,56"
         inkscape:connector-curvature="0" />
      <path
         id="path122"
         d="m 51532,18720 28,0 56,-28 28,-28"
         inkscape:connector-curvature="0" />
      <path
         id="path124"
         d="m 50969,19086 0,56 29,56 28,28 56,28 112,28 141,0 112,-28 57,-28 28,-28 28,-56 0,-56 -28,-57 -28,-28 -57,-28 -112,-28 -141,0 -112,28 -56,28 -28,28 -29,57"
         inkscape:connector-curvature="0" />
      <path
         id="path126"
         d="m 50969,19648 0,56 29,56 28,29 56,28 112,28 141,0 112,-28 57,-28 28,-29 28,-56 0,-56 -28,-56 -28,-28 -57,-29 -112,-28 -141,0 -112,28 -56,29 -28,28 -29,56"
         inkscape:connector-curvature="0" />
      <path
         id="path128"
         d="m 50969,20210 0,57 29,56 28,28 56,28 112,28 141,0 112,-28 57,-28 28,-28 28,-56 0,-57 -28,-56 -28,-28 -57,-28 -112,-28 -141,0 -112,28 -56,28 -28,28 -29,56"
         inkscape:connector-curvature="0" />
      <path
         id="path130"
         d="m 51560,21110 -394,0"
         inkscape:connector-curvature="0" />
      <path
         id="path132"
         d="m 51223,21110 -29,28 -28,57 0,84 28,56 57,28 309,0"
         inkscape:connector-curvature="0" />
      <path
         id="path134"
         d="m 51251,21363 -57,29 -28,56 0,84 28,56 57,28 309,0"
         inkscape:connector-curvature="0" />
      <path
         id="path136"
         d="m 51560,21898 -394,0"
         inkscape:connector-curvature="0" />
      <path
         id="path138"
         d="m 51223,21898 -29,28 -28,56 0,84 28,57 57,28 309,0"
         inkscape:connector-curvature="0" />
      <path
         id="path140"
         d="m 51251,22151 -57,28 -28,56 0,85 28,56 57,28 309,0"
         inkscape:connector-curvature="0" />
      <path
         id="path142"
         d="M 50761,39389 50761,19"
         inkscape:connector-curvature="0" />
      <path
         id="path144"
         d="m 48793,39389 3031,0"
         inkscape:connector-curvature="0" />
      <path
         id="path146"
         d="m 48793,19 3031,0"
         inkscape:connector-curvature="0" />
      <path
         id="path148"
         d="m 50761,19 231,444"
         inkscape:connector-curvature="0" />
      <path
         id="path150"
         d="m 50761,19 -231,444"
         inkscape:connector-curvature="0" />
      <path
         id="path152"
         d="m 50761,39389 231,-443"
         inkscape:connector-curvature="0" />
      <path
         id="path154"
         d="m 50761,39389 -231,-443"
         inkscape:connector-curvature="0" />
      <path
         id="path156"
         d="m 27561,42156 338,0"
         inkscape:connector-curvature="0" />
      <path
         id="path158"
         d="m 27730,42156 0,-590 56,84 56,56 57,29"
         inkscape:connector-curvature="0" />
      <path
         id="path160"
         d="m 27336,41622 -28,-28 -56,-28 -141,0 -56,28 -28,28 -28,56 0,57 28,84 337,337 -365,0"
         inkscape:connector-curvature="0" />
      <path
         id="path162"
         d="m 26633,41566 -56,0 -56,28 -29,28 -28,56 -28,113 0,140 28,113 28,56 29,28 56,28 56,0 56,-28 28,-28 29,-56 28,-113 0,-140 -28,-113 -29,-56 -28,-28 -56,-28"
         inkscape:connector-curvature="0" />
      <path
         id="path164"
         d="m 26155,42128 0,28 28,57 28,28"
         inkscape:connector-curvature="0" />
      <path
         id="path166"
         d="m 25789,41566 -56,0 -56,28 -28,28 -28,56 -28,113 0,140 28,113 28,56 28,28 56,28 56,0 57,-28 28,-28 28,-56 28,-113 0,-140 -28,-113 -28,-56 -28,-28 -57,-28"
         inkscape:connector-curvature="0" />
      <path
         id="path168"
         d="m 25227,41566 -56,0 -56,28 -29,28 -28,56 -28,113 0,140 28,113 28,56 29,28 56,28 56,0 56,-28 28,-28 28,-56 29,-113 0,-140 -29,-113 -28,-56 -28,-28 -56,-28"
         inkscape:connector-curvature="0" />
      <path
         id="path170"
         d="m 24665,41566 -57,0 -56,28 -28,28 -28,56 -28,113 0,140 28,113 28,56 28,28 56,28 57,0 56,-28 28,-28 28,-56 28,-113 0,-140 -28,-113 -28,-56 -28,-28 -56,-28"
         inkscape:connector-curvature="0" />
      <path
         id="path172"
         d="m 23765,42156 0,-393"
         inkscape:connector-curvature="0" />
      <path
         id="path174"
         d="m 23765,41819 -28,-28 -57,-28 -84,0 -56,28 -28,56 0,309"
         inkscape:connector-curvature="0" />
      <path
         id="path176"
         d="m 23512,41847 -29,-56 -56,-28 -84,0 -56,28 -29,56 0,309"
         inkscape:connector-curvature="0" />
      <path
         id="path178"
         d="m 22977,42156 0,-393"
         inkscape:connector-curvature="0" />
      <path
         id="path180"
         d="m 22977,41819 -28,-28 -56,-28 -84,0 -57,28 -28,56 0,309"
         inkscape:connector-curvature="0" />
      <path
         id="path182"
         d="m 22724,41847 -28,-56 -56,-28 -85,0 -56,28 -28,56 0,309"
         inkscape:connector-curvature="0" />
      <path
         id="path184"
         d="m 1549,41358 47244,0"
         inkscape:connector-curvature="0" />
      <path
         id="path186"
         d="m 1549,39389 0,3032"
         inkscape:connector-curvature="0" />
      <path
         id="path188"
         d="m 48793,39389 0,3032"
         inkscape:connector-curvature="0" />
      <path
         id="path190"
         d="m 48793,41358 -444,231"
         inkscape:connector-curvature="0" />
      <path
         id="path192"
         d="m 48793,41358 -444,-231"
         inkscape:connector-curvature="0" />
      <path
         id="path194"
         d="m 1549,41358 443,231"
         inkscape:connector-curvature="0" />
      <path
         id="path196"
         d="m 1549,41358 443,-231"
         inkscape:connector-curvature="0" />
    </g>
    <g
       id="g198"
       style="fill:#000000;fill-opacity:0;stroke:#000000;stroke-width:39.37009811;stroke-linecap:round;stroke-linejoin:round;stroke-opacity:1">
      <path
         id="path200"
         d="M 1549,39389 1549,19"
         inkscape:connector-curvature="0" />
      <path
         id="path202"
         d="m 48793,39389 -47244,0"
         inkscape:connector-curvature="0" />
      <path
         id="path204"
         d="m 48793,19 0,39370"
         inkscape:connector-curvature="0" />
      <path
         id="path206"
         d="m 1549,19 47244,0"
         inkscape:connector-curvature="0" />
    </g>
  </g>
</svg>
