<?xml version="1.0" standalone="no"?>
 <!DOCTYPE svg PUBLIC "-//W3C//DTD SVG 1.1//EN" 
 "http://www.w3.org/Graphics/SVG/1.1/DTD/svg11.dtd"> 
<svg xmlns="http://www.w3.org/2000/svg" version="1.1" 
    width="13.7643cm" height="10.7747cm" viewBox="0 0 54190 42420 ">
<title>SVG Picture created as zdroj-brd.svg date 2015/04/13 04:17:26 </title>
  <desc>Picture generated by PCBNEW </desc>
<g style="fill:#000000; fill-opacity:1;stroke:#000000; stroke-opacity:1;
stroke-linecap:round; stroke-linejoin:round; "
 transform="translate(0 0) scale(1 1)">
</g>
<g style="fill:#000000; fill-opacity:0.0; 
stroke:#000000; stroke-width:59.0551; stroke-opacity:1; 
stroke-linecap:round; stroke-linejoin:round;">
<path d="M27169 34466
L26769 34466
" />
<path d="M26969 34266
L26969 34666
" />
<circle cx="25769.7" cy="35866.1" r="2500" /> 
<path d="M27169 23216
L26769 23216
" />
<path d="M26969 23016
L26969 23416
" />
<circle cx="25769.7" cy="24616.1" r="2500" /> 
<path d="M34869 9466
L34869 9866
" />
<path d="M34669 9666
L35069 9666
" />
<circle cx="36269.7" cy="10866.1" r="2500" /> 
</g>
<g style="fill:#000000; fill-opacity:0.0; 
stroke:#000000; stroke-width:150; stroke-opacity:1; 
stroke-linecap:round; stroke-linejoin:round;">
<path d="M21470 31770
L24068 31770
" />
</g>
<g style="fill:#000000; fill-opacity:0.0; 
stroke:#000000; stroke-width:120; stroke-opacity:1; 
stroke-linecap:round; stroke-linejoin:round;">
<path d="M22061.7 29171.1 A79 79 0.0 0 0 21982.7 29250.1 " />
<path d="M21983.7 29250.1 A78 78 0.0 0 0 22061.7 29328.1 " />
<path d="M22061.7 29170.1 A78 78 0.0 0 0 22139.7 29092.1 " />
<path d="M22140.7 29092.1 A79 79 0.0 0 0 22061.7 29013.1 " />
<path d="M22140.7 31061.1 A79 79 0.0 0 0 22061.7 30982.1 " />
<path d="M22061.7 31139.1 A78 78 0.0 0 0 22139.7 31061.1 " />
<path d="M21983.7 31219.1 A78 78 0.0 0 0 22061.7 31297.1 " />
<path d="M22061.7 31140.1 A79 79 0.0 0 0 21982.7 31219.1 " />
<path d="M23399 29329
L23399 28856
" />
<path d="M23399 30903
L23399 31376
" />
<path d="M23635 31140
L23163 31140
" />
</g>
<g style="fill:#000000; fill-opacity:0.0; 
stroke:#000000; stroke-width:150; stroke-opacity:1; 
stroke-linecap:round; stroke-linejoin:round;">
<path d="M21469 28216
L24069 28216
" />
<path d="M24069 28216
L24069 32016
" />
<path d="M24069 32016
L21469 32016
" />
<path d="M21469 32016
L21469 28216
" />
<path d="M34615 3567
L34615 6165
" />
</g>
<g style="fill:#000000; fill-opacity:0.0; 
stroke:#000000; stroke-width:120; stroke-opacity:1; 
stroke-linecap:round; stroke-linejoin:round;">
<path d="M37214.7 4158.14 A79 79 0.0 0 0 37135.7 4079.14 " />
<path d="M37135.7 4080.14 A78 78 0.0 0 0 37057.7 4158.14 " />
<path d="M37215.7 4158.14 A78 78 0.0 0 0 37293.7 4236.14 " />
<path d="M37293.7 4237.14 A79 79 0.0 0 0 37372.7 4158.14 " />
<path d="M35324.7 4237.14 A79 79 0.0 0 0 35403.7 4158.14 " />
<path d="M35246.7 4158.14 A78 78 0.0 0 0 35324.7 4236.14 " />
<path d="M35166.7 4080.14 A78 78 0.0 0 0 35088.7 4158.14 " />
<path d="M35245.7 4158.14 A79 79 0.0 0 0 35166.7 4079.14 " />
<path d="M37056 5496
L37529 5496
" />
<path d="M35482 5496
L35009 5496
" />
<path d="M35245 5732
L35245 5260
" />
</g>
<g style="fill:#000000; fill-opacity:0.0; 
stroke:#000000; stroke-width:150; stroke-opacity:1; 
stroke-linecap:round; stroke-linejoin:round;">
<path d="M38169 3566
L38169 6166
" />
<path d="M38169 6166
L34369 6166
" />
<path d="M34369 6166
L34369 3566
" />
<path d="M34369 3566
L38169 3566
" />
</g>
<g style="fill:#000000; fill-opacity:0.0; 
stroke:#000000; stroke-width:100; stroke-opacity:1; 
stroke-linecap:round; stroke-linejoin:round;">
<path d="M31769 35266
L30769 35266
" />
<path d="M30769 35366
L31769 35366
" />
<path d="M30769 36866
L31769 36866
" />
<path d="M30769 34866
L31769 34866
" />
<path d="M30769 36866
L30769 34866
" />
<path d="M31769 34866
L31769 36866
" />
<path d="M31269 33966
L31269 34866
" />
<path d="M31269 36866
L31269 37766
" />
<path d="M30769 28466
L31769 28466
" />
<path d="M31769 28366
L30769 28366
" />
<path d="M31769 26866
L30769 26866
" />
<path d="M31769 28866
L30769 28866
" />
<path d="M31769 26866
L31769 28866
" />
<path d="M30769 28866
L30769 26866
" />
<path d="M31269 29766
L31269 28866
" />
<path d="M31269 26866
L31269 25966
" />
<path d="M31769 19516
L30769 19516
" />
<path d="M30769 19616
L31769 19616
" />
<path d="M30769 21116
L31769 21116
" />
<path d="M30769 19116
L31769 19116
" />
<path d="M30769 21116
L30769 19116
" />
<path d="M31769 19116
L31769 21116
" />
<path d="M31269 18216
L31269 19116
" />
<path d="M31269 21116
L31269 22016
" />
</g>
<g style="fill:#000000; fill-opacity:0.0; 
stroke:#000000; stroke-width:59.0551; stroke-opacity:1; 
stroke-linecap:round; stroke-linejoin:round;">
<path d="M20800 17097
L20800 21034
" />
<path d="M20800 21034
L12138 21034
" />
<path d="M12138 21034
L12138 17097
" />
<path d="M12138 17097
L20800 17097
" />
</g>
<g style="fill:#000000; fill-opacity:0.0; 
stroke:#000000; stroke-width:120; stroke-opacity:1; 
stroke-linecap:round; stroke-linejoin:round;">
<path d="M40620 17216
L46919 17216
" />
<path d="M46919 13515
L40620 13515
" />
<path d="M40620 13515
L40620 17216
" />
<path d="M46919 13515
L46919 17216
" />
</g>
<g style="fill:#000000; fill-opacity:0.0; 
stroke:#000000; stroke-width:118; stroke-opacity:1; 
stroke-linecap:round; stroke-linejoin:round;">
<path d="M44675 17216
L44675 16665
" />
<path d="M44675 16665
L42864 16665
" />
<path d="M42864 16665
L42864 17216
" />
</g>
<g style="fill:#000000; fill-opacity:0.0; 
stroke:#000000; stroke-width:120; stroke-opacity:1; 
stroke-linecap:round; stroke-linejoin:round;">
<path d="M40620 11216
L46919 11216
" />
<path d="M46919 7515
L40620 7515
" />
<path d="M40620 7515
L40620 11216
" />
<path d="M46919 7515
L46919 11216
" />
</g>
<g style="fill:#000000; fill-opacity:0.0; 
stroke:#000000; stroke-width:118; stroke-opacity:1; 
stroke-linecap:round; stroke-linejoin:round;">
<path d="M44675 11216
L44675 10665
" />
<path d="M44675 10665
L42864 10665
" />
<path d="M42864 10665
L42864 11216
" />
</g>
<g style="fill:#000000; fill-opacity:0.0; 
stroke:#000000; stroke-width:120; stroke-opacity:1; 
stroke-linecap:round; stroke-linejoin:round;">
<path d="M40620 5216
L46919 5216
" />
<path d="M46919 1515
L40620 1515
" />
<path d="M40620 1515
L40620 5216
" />
<path d="M46919 1515
L46919 5216
" />
</g>
<g style="fill:#000000; fill-opacity:0.0; 
stroke:#000000; stroke-width:118; stroke-opacity:1; 
stroke-linecap:round; stroke-linejoin:round;">
<path d="M44675 5216
L44675 4665
" />
<path d="M44675 4665
L42864 4665
" />
<path d="M42864 4665
L42864 5216
" />
</g>
<g style="fill:#000000; fill-opacity:0.0; 
stroke:#000000; stroke-width:120; stroke-opacity:1; 
stroke-linecap:round; stroke-linejoin:round;">
<path d="M46919 33515
L40620 33515
" />
<path d="M40620 37216
L46919 37216
" />
<path d="M46919 37216
L46919 33515
" />
<path d="M40620 37216
L40620 33515
" />
</g>
<g style="fill:#000000; fill-opacity:0.0; 
stroke:#000000; stroke-width:118; stroke-opacity:1; 
stroke-linecap:round; stroke-linejoin:round;">
<path d="M42864 33515
L42864 34066
" />
<path d="M42864 34066
L44675 34066
" />
<path d="M44675 34066
L44675 33515
" />
</g>
<g style="fill:#000000; fill-opacity:0.0; 
stroke:#000000; stroke-width:120; stroke-opacity:1; 
stroke-linecap:round; stroke-linejoin:round;">
<path d="M46919 27515
L40620 27515
" />
<path d="M40620 31216
L46919 31216
" />
<path d="M46919 31216
L46919 27515
" />
<path d="M40620 31216
L40620 27515
" />
</g>
<g style="fill:#000000; fill-opacity:0.0; 
stroke:#000000; stroke-width:118; stroke-opacity:1; 
stroke-linecap:round; stroke-linejoin:round;">
<path d="M42864 27515
L42864 28066
" />
<path d="M42864 28066
L44675 28066
" />
<path d="M44675 28066
L44675 27515
" />
</g>
<g style="fill:#000000; fill-opacity:0.0; 
stroke:#000000; stroke-width:120; stroke-opacity:1; 
stroke-linecap:round; stroke-linejoin:round;">
<path d="M46919 21515
L40620 21515
" />
<path d="M40620 25216
L46919 25216
" />
<path d="M46919 25216
L46919 21515
" />
<path d="M40620 25216
L40620 21515
" />
</g>
<g style="fill:#000000; fill-opacity:0.0; 
stroke:#000000; stroke-width:118; stroke-opacity:1; 
stroke-linecap:round; stroke-linejoin:round;">
<path d="M42864 21515
L42864 22066
" />
<path d="M42864 22066
L44675 22066
" />
<path d="M44675 22066
L44675 21515
" />
</g>
<g style="fill:#000000; fill-opacity:0.0; 
stroke:#000000; stroke-width:59.0551; stroke-opacity:1; 
stroke-linecap:round; stroke-linejoin:round;">
<path d="M3501 24279
L3501 38452
" />
<path d="M3501 38452
L20037 38452
" />
<path d="M20037 38452
L20037 24279
" />
<path d="M20037 24279
L3501 24279
" />
<path d="M16757 14059
L27781 14059
" />
<path d="M27781 14059
L27781 673
" />
<path d="M27781 673
L16757 673
" />
<path d="M16757 673
L16757 14059
" />
<path d="M35019 34116
L35269 34116
" />
<path d="M35269 34116
L35269 37616
" />
<path d="M35269 37616
L35019 37616
" />
<path d="M33519 34116
L35019 34116
" />
<path d="M35019 34116
L35019 37616
" />
<path d="M35019 37616
L33519 37616
" />
<path d="M33519 37616
L33519 34116
" />
<path d="M35019 26116
L35269 26116
" />
<path d="M35269 26116
L35269 29616
" />
<path d="M35269 29616
L35019 29616
" />
<path d="M33519 26116
L35019 26116
" />
<path d="M35019 26116
L35019 29616
" />
<path d="M35019 29616
L33519 29616
" />
<path d="M33519 29616
L33519 26116
" />
<path d="M35019 18116
L35269 18116
" />
<path d="M35269 18116
L35269 21616
" />
<path d="M35269 21616
L35019 21616
" />
<path d="M33519 18116
L35019 18116
" />
<path d="M35019 18116
L35019 21616
" />
<path d="M35019 21616
L33519 21616
" />
<path d="M33519 21616
L33519 18116
" />
<path d="M6801 21208
L6801 16681
" />
<path d="M6801 1523
L6801 6051
" />
<path d="M1289 21208
L6801 21208
" />
<path d="M1289 1523
L6801 1523
" />
<path d="M1289 16681
L1289 21208
" />
<path d="M1289 6051
L1289 1523
" />
<path d="M1289 16681
L108 16681
" />
<path d="M108 16681
L108 6051
" />
<path d="M108 6051
L1289 6051
" />
<path d="M8769 6051
L1289 6051
" />
<path d="M1289 6051
L1289 16681
" />
<path d="M1289 16681
L8769 16681
" />
<path d="M8769 16681
L8769 6051
" />
<path d="M28910 35931
L28929 35950
L28947 36006
L28947 36044
L28929 36100
L28891 36137
L28854 36156
L28779 36175
L28722 36175
L28647 36156
L28610 36137
L28572 36100
L28554 36044
L28554 36006
L28572 35950
L28591 35931
" />
<path d="M28947 35556
L28947 35781
" />
<path d="M28947 35669
L28554 35669
L28610 35706
L28647 35744
L28666 35781
" />
<path d="M28910 24681
L28929 24700
L28947 24756
L28947 24794
L28929 24850
L28891 24887
L28854 24906
L28779 24925
L28722 24925
L28647 24906
L28610 24887
L28572 24850
L28554 24794
L28554 24756
L28572 24700
L28591 24681
" />
<path d="M28591 24531
L28572 24513
L28554 24475
L28554 24381
L28572 24344
L28591 24325
L28629 24306
L28666 24306
L28722 24325
L28947 24550
L28947 24306
" />
<path d="M34010 12856
L34029 12875
L34047 12931
L34047 12969
L34029 13025
L33991 13062
L33954 13081
L33879 13100
L33822 13100
L33747 13081
L33710 13062
L33672 13025
L33654 12969
L33654 12931
L33672 12875
L33691 12856
" />
<path d="M33654 12725
L33654 12481
L33804 12613
L33804 12556
L33822 12519
L33841 12500
L33879 12481
L33972 12481
L34010 12500
L34029 12519
L34047 12556
L34047 12669
L34029 12706
L34010 12725
" />
</g>
<g style="fill:#000000; fill-opacity:0.0; 
stroke:#000000; stroke-width:112; stroke-opacity:1; 
stroke-linecap:round; stroke-linejoin:round;">
<path d="M25816 30583
L25216 30583
L25216 30441
L25244 30355
L25301 30298
L25358 30269
L25473 30241
L25558 30241
L25673 30269
L25730 30298
L25787 30355
L25816 30441
L25816 30583
" />
<path d="M25816 29669
L25816 30012
" />
<path d="M25816 29841
L25216 29841
L25301 29898
L25358 29955
L25387 30012
" />
<path d="M33791 5308
L33191 5308
L33191 5166
L33219 5080
L33276 5023
L33333 4994
L33448 4966
L33533 4966
L33648 4994
L33705 5023
L33762 5080
L33791 5166
L33791 5308
" />
<path d="M33248 4737
L33219 4708
L33191 4651
L33191 4508
L33219 4451
L33248 4423
L33305 4394
L33362 4394
L33448 4423
L33791 4766
L33791 4394
" />
</g>
<g style="fill:#000000; fill-opacity:0.0; 
stroke:#000000; stroke-width:120; stroke-opacity:1; 
stroke-linecap:round; stroke-linejoin:round;">
<path d="M30416 36308
L29816 36308
L29816 36166
L29844 36080
L29901 36023
L29958 35994
L30073 35966
L30158 35966
L30273 35994
L30330 36023
L30387 36080
L30416 36166
L30416 36308
" />
<path d="M29816 35766
L29816 35394
L30044 35594
L30044 35508
L30073 35451
L30101 35423
L30158 35394
L30301 35394
L30358 35423
L30387 35451
L30416 35508
L30416 35680
L30387 35737
L30358 35766
" />
<path d="M30391 28308
L29791 28308
L29791 28166
L29819 28080
L29876 28023
L29933 27994
L30048 27966
L30133 27966
L30248 27994
L30305 28023
L30362 28080
L30391 28166
L30391 28308
" />
<path d="M29991 27451
L30391 27451
" />
<path d="M29762 27594
L30191 27737
L30191 27366
" />
<path d="M30366 20283
L29766 20283
L29766 20141
L29794 20055
L29851 19998
L29908 19969
L30023 19941
L30108 19941
L30223 19969
L30280 19998
L30337 20055
L30366 20141
L30366 20283
" />
<path d="M29766 19398
L29766 19683
L30051 19712
L30023 19683
L29994 19626
L29994 19483
L30023 19426
L30051 19398
L30108 19369
L30251 19369
L30308 19398
L30337 19426
L30366 19483
L30366 19626
L30337 19683
L30308 19712
" />
</g>
<g style="fill:#000000; fill-opacity:0.0; 
stroke:#000000; stroke-width:59.0551; stroke-opacity:1; 
stroke-linecap:round; stroke-linejoin:round;">
<path d="M16452 19212
L16452 19409
" />
<path d="M16761 19409
L16171 19409
L16171 19128
" />
<path d="M16761 18594
L16761 18931
" />
<path d="M16761 18763
L16171 18763
L16255 18819
L16311 18875
L16340 18931
" />
<path d="M30598 9637
L30598 9046
L30795 9468
L30992 9046
L30992 9637
" />
<path d="M31582 9637
L31245 9637
" />
<path d="M31414 9637
L31414 9046
L31357 9131
L31301 9187
L31245 9215
" />
<path d="M11347 6381
L10954 6381
L10954 6231
L10972 6194
L10991 6175
L11029 6156
L11085 6156
L11122 6175
L11141 6194
L11160 6231
L11160 6381
" />
<path d="M11347 5781
L11347 6006
" />
<path d="M11347 5894
L10954 5894
L11010 5931
L11047 5969
L11066 6006
" />
<path d="M14472 15806
L14079 15806
L14079 15656
L14097 15619
L14116 15600
L14154 15581
L14210 15581
L14247 15600
L14266 15619
L14285 15656
L14285 15806
" />
<path d="M14116 15431
L14097 15413
L14079 15375
L14079 15281
L14097 15244
L14116 15225
L14154 15206
L14191 15206
L14247 15225
L14472 15450
L14472 15206
" />
<path d="M11497 15856
L11104 15856
L11104 15706
L11122 15669
L11141 15650
L11179 15631
L11235 15631
L11272 15650
L11291 15669
L11310 15706
L11310 15856
" />
<path d="M11235 15294
L11497 15294
" />
<path d="M11085 15388
L11366 15481
L11366 15238
" />
<path d="M14422 6356
L14029 6356
L14029 6206
L14047 6169
L14066 6150
L14104 6131
L14160 6131
L14197 6150
L14216 6169
L14235 6206
L14235 6356
" />
<path d="M14029 5775
L14029 5963
L14216 5981
L14197 5963
L14179 5925
L14179 5831
L14197 5794
L14216 5775
L14254 5756
L14347 5756
L14385 5775
L14404 5794
L14422 5831
L14422 5925
L14404 5963
L14385 5981
" />
</g>
<g style="fill:#000000; fill-opacity:0.0; 
stroke:#000000; stroke-width:80; stroke-opacity:1; 
stroke-linecap:round; stroke-linejoin:round;">
<path d="M40022 15656
L39629 15656
L39629 15506
L39647 15469
L39666 15450
L39704 15431
L39760 15431
L39797 15450
L39816 15469
L39835 15506
L39835 15656
" />
<path d="M39629 15094
L39629 15169
L39647 15206
L39666 15225
L39722 15263
L39797 15281
L39947 15281
L39985 15263
L40004 15244
L40022 15206
L40022 15131
L40004 15094
L39985 15075
L39947 15056
L39854 15056
L39816 15075
L39797 15094
L39779 15131
L39779 15206
L39797 15244
L39816 15263
L39854 15281
" />
<path d="M39947 9706
L39554 9706
L39554 9556
L39572 9519
L39591 9500
L39629 9481
L39685 9481
L39722 9500
L39741 9519
L39760 9556
L39760 9706
" />
<path d="M39554 9350
L39554 9088
L39947 9256
" />
<path d="M39922 3656
L39529 3656
L39529 3506
L39547 3469
L39566 3450
L39604 3431
L39660 3431
L39697 3450
L39716 3469
L39735 3506
L39735 3656
" />
<path d="M39697 3206
L39679 3244
L39660 3263
L39622 3281
L39604 3281
L39566 3263
L39547 3244
L39529 3206
L39529 3131
L39547 3094
L39566 3075
L39604 3056
L39622 3056
L39660 3075
L39679 3094
L39697 3131
L39697 3206
L39716 3244
L39735 3263
L39772 3281
L39847 3281
L39885 3263
L39904 3244
L39922 3206
L39922 3131
L39904 3094
L39885 3075
L39847 3056
L39772 3056
L39735 3075
L39716 3094
L39697 3131
" />
<path d="M40047 35606
L39654 35606
L39654 35456
L39672 35419
L39691 35400
L39729 35381
L39785 35381
L39822 35400
L39841 35419
L39860 35456
L39860 35606
" />
<path d="M40047 35194
L40047 35119
L40029 35081
L40010 35063
L39954 35025
L39879 35006
L39729 35006
L39691 35025
L39672 35044
L39654 35081
L39654 35156
L39672 35194
L39691 35213
L39729 35231
L39822 35231
L39860 35213
L39879 35194
L39897 35156
L39897 35081
L39879 35044
L39860 35025
L39822 35006
" />
<path d="M40047 29819
L39654 29819
L39654 29669
L39672 29631
L39691 29612
L39729 29594
L39785 29594
L39822 29612
L39841 29631
L39860 29669
L39860 29819
" />
<path d="M40047 29219
L40047 29444
" />
<path d="M40047 29331
L39654 29331
L39710 29369
L39747 29406
L39766 29444
" />
<path d="M39654 28975
L39654 28938
L39672 28900
L39691 28881
L39729 28863
L39804 28844
L39897 28844
L39972 28863
L40010 28881
L40029 28900
L40047 28938
L40047 28975
L40029 29013
L40010 29031
L39972 29050
L39897 29069
L39804 29069
L39729 29050
L39691 29031
L39672 29013
L39654 28975
" />
<path d="M40072 23844
L39679 23844
L39679 23694
L39697 23656
L39716 23637
L39754 23619
L39810 23619
L39847 23637
L39866 23656
L39885 23694
L39885 23844
" />
<path d="M40072 23244
L40072 23469
" />
<path d="M40072 23356
L39679 23356
L39735 23394
L39772 23431
L39791 23469
" />
<path d="M40072 22869
L40072 23094
" />
<path d="M40072 22981
L39679 22981
L39735 23019
L39772 23056
L39791 23094
" />
</g>
<g style="fill:#000000; fill-opacity:0.0; 
stroke:#000000; stroke-width:59.0551; stroke-opacity:1; 
stroke-linecap:round; stroke-linejoin:round;">
<path d="M10265 31816
L10265 31478
" />
<path d="M10855 31647
L10265 31647
" />
<path d="M10855 30972
L10855 31309
" />
<path d="M10855 31141
L10265 31141
L10349 31197
L10405 31253
L10433 31309
" />
<path d="M21921 7766
L21921 7428
" />
<path d="M22511 7597
L21921 7597
" />
<path d="M21977 7259
L21949 7231
L21921 7175
L21921 7034
L21949 6978
L21977 6950
L22033 6922
L22090 6922
L22174 6950
L22511 7288
L22511 6922
" />
<path d="M35554 36166
L35872 36166
L35910 36147
L35929 36128
L35947 36091
L35947 36016
L35929 35978
L35910 35959
L35872 35941
L35554 35941
" />
<path d="M35947 35547
L35947 35772
" />
<path d="M35947 35659
L35554 35659
L35610 35697
L35647 35734
L35666 35772
" />
<path d="M35554 28166
L35872 28166
L35910 28147
L35929 28128
L35947 28091
L35947 28016
L35929 27978
L35910 27959
L35872 27941
L35554 27941
" />
<path d="M35591 27772
L35572 27753
L35554 27716
L35554 27622
L35572 27584
L35591 27566
L35629 27547
L35666 27547
L35722 27566
L35947 27791
L35947 27547
" />
<path d="M35554 20166
L35872 20166
L35910 20147
L35929 20128
L35947 20091
L35947 20016
L35929 19978
L35910 19959
L35872 19941
L35554 19941
" />
<path d="M35554 19791
L35554 19547
L35704 19678
L35704 19622
L35722 19584
L35741 19566
L35779 19547
L35872 19547
L35910 19566
L35929 19584
L35947 19622
L35947 19734
L35929 19772
L35910 19791
" />
<path d="M4461 11952
L3871 11952
L3871 11727
L3899 11670
L3927 11642
L3983 11614
L4068 11614
L4124 11642
L4152 11670
L4180 11727
L4180 11952
" />
<path d="M3871 11417
L3871 11052
L4096 11248
L4096 11164
L4124 11108
L4152 11080
L4208 11052
L4349 11052
L4405 11080
L4433 11108
L4461 11164
L4461 11333
L4433 11389
L4405 11417
" />
</g>
<g style="fill:#000000; fill-opacity:0.0; 
stroke:#000000; stroke-width:118.11; stroke-opacity:1; 
stroke-linecap:round; stroke-linejoin:round;">
<path d="M51560 22095
L51560 22432
" />
<path d="M51560 22263
L50969 22263
L51054 22320
L51110 22376
L51138 22432
" />
<path d="M50969 21729
L50969 21673
L50998 21616
L51026 21588
L51082 21560
L51194 21532
L51335 21532
L51447 21560
L51504 21588
L51532 21616
L51560 21673
L51560 21729
L51532 21785
L51504 21813
L51447 21841
L51335 21870
L51194 21870
L51082 21841
L51026 21813
L50998 21785
L50969 21729
" />
<path d="M50969 21167
L50969 21110
L50998 21054
L51026 21026
L51082 20998
L51194 20970
L51335 20970
L51447 20998
L51504 21026
L51532 21054
L51560 21110
L51560 21167
L51532 21223
L51504 21251
L51447 21279
L51335 21307
L51194 21307
L51082 21279
L51026 21251
L50998 21223
L50969 21167
" />
<path d="M51532 20688
L51560 20688
L51616 20717
L51644 20745
" />
<path d="M50969 20323
L50969 20267
L50998 20210
L51026 20182
L51082 20154
L51194 20126
L51335 20126
L51447 20154
L51504 20182
L51532 20210
L51560 20267
L51560 20323
L51532 20379
L51504 20407
L51447 20435
L51335 20464
L51194 20464
L51082 20435
L51026 20407
L50998 20379
L50969 20323
" />
<path d="M50969 19760
L50969 19704
L50998 19648
L51026 19620
L51082 19592
L51194 19564
L51335 19564
L51447 19592
L51504 19620
L51532 19648
L51560 19704
L51560 19760
L51532 19817
L51504 19845
L51447 19873
L51335 19901
L51194 19901
L51082 19873
L51026 19845
L50998 19817
L50969 19760
" />
<path d="M50969 19198
L50969 19142
L50998 19086
L51026 19057
L51082 19029
L51194 19001
L51335 19001
L51447 19029
L51504 19057
L51532 19086
L51560 19142
L51560 19198
L51532 19254
L51504 19282
L51447 19311
L51335 19339
L51194 19339
L51082 19311
L51026 19282
L50998 19254
L50969 19198
" />
<path d="M51560 18298
L51166 18298
" />
<path d="M51223 18298
L51194 18270
L51166 18214
L51166 18129
L51194 18073
L51251 18045
L51560 18045
" />
<path d="M51251 18045
L51194 18017
L51166 17961
L51166 17876
L51194 17820
L51251 17792
L51560 17792
" />
<path d="M51560 17511
L51166 17511
" />
<path d="M51223 17511
L51194 17483
L51166 17426
L51166 17342
L51194 17286
L51251 17258
L51560 17258
" />
<path d="M51251 17258
L51194 17230
L51166 17173
L51166 17089
L51194 17033
L51251 17005
L51560 17005
" />
<path d="M50761 39389
L50761 19
" />
<path d="M48793 39389
L51824 39389
" />
<path d="M48793 19
L51824 19
" />
<path d="M50761 19
L50992 463
" />
<path d="M50761 19
L50530 463
" />
<path d="M50761 39389
L50992 38946
" />
<path d="M50761 39389
L50530 38946
" />
<path d="M22780 42156
L22443 42156
" />
<path d="M22612 42156
L22612 41566
L22555 41650
L22499 41706
L22443 41735
" />
<path d="M23005 41622
L23034 41594
L23090 41566
L23230 41566
L23287 41594
L23315 41622
L23343 41678
L23343 41735
L23315 41819
L22977 42156
L23343 42156
" />
<path d="M23708 41566
L23765 41566
L23821 41594
L23849 41622
L23877 41678
L23905 41791
L23905 41931
L23877 42044
L23849 42100
L23821 42128
L23765 42156
L23708 42156
L23652 42128
L23624 42100
L23596 42044
L23568 41931
L23568 41791
L23596 41678
L23624 41622
L23652 41594
L23708 41566
" />
<path d="M24187 42128
L24187 42156
L24158 42213
L24130 42241
" />
<path d="M24552 41566
L24608 41566
L24665 41594
L24693 41622
L24721 41678
L24749 41791
L24749 41931
L24721 42044
L24693 42100
L24665 42128
L24608 42156
L24552 42156
L24496 42128
L24468 42100
L24440 42044
L24411 41931
L24411 41791
L24440 41678
L24468 41622
L24496 41594
L24552 41566
" />
<path d="M25115 41566
L25171 41566
L25227 41594
L25255 41622
L25283 41678
L25311 41791
L25311 41931
L25283 42044
L25255 42100
L25227 42128
L25171 42156
L25115 42156
L25058 42128
L25030 42100
L25002 42044
L24974 41931
L24974 41791
L25002 41678
L25030 41622
L25058 41594
L25115 41566
" />
<path d="M25677 41566
L25733 41566
L25789 41594
L25818 41622
L25846 41678
L25874 41791
L25874 41931
L25846 42044
L25818 42100
L25789 42128
L25733 42156
L25677 42156
L25621 42128
L25593 42100
L25564 42044
L25536 41931
L25536 41791
L25564 41678
L25593 41622
L25621 41594
L25677 41566
" />
<path d="M26577 42156
L26577 41763
" />
<path d="M26577 41819
L26605 41791
L26661 41763
L26746 41763
L26802 41791
L26830 41847
L26830 42156
" />
<path d="M26830 41847
L26858 41791
L26914 41763
L26999 41763
L27055 41791
L27083 41847
L27083 42156
" />
<path d="M27364 42156
L27364 41763
" />
<path d="M27364 41819
L27392 41791
L27449 41763
L27533 41763
L27589 41791
L27617 41847
L27617 42156
" />
<path d="M27617 41847
L27645 41791
L27702 41763
L27786 41763
L27842 41791
L27870 41847
L27870 42156
" />
<path d="M1549 41358
L48793 41358
" />
<path d="M1549 39389
L1549 42421
" />
<path d="M48793 39389
L48793 42421
" />
<path d="M48793 41358
L48349 41589
" />
<path d="M48793 41358
L48349 41127
" />
<path d="M1549 41358
L1992 41589
" />
<path d="M1549 41358
L1992 41127
" />
</g>
<g style="fill:#000000; fill-opacity:0.0; 
stroke:#000000; stroke-width:39.3701; stroke-opacity:1; 
stroke-linecap:round; stroke-linejoin:round;">
<path d="M1549 39389
L1549 19
" />
<path d="M48793 39389
L1549 39389
" />
<path d="M48793 19
L48793 39389
" />
<path d="M1549 19
L48793 19
" />
</g> 
</svg>
