<?xml version="1.0" standalone="no"?>
 <!DOCTYPE svg PUBLIC "-//W3C//DTD SVG 1.1//EN" 
 "http://www.w3.org/Graphics/SVG/1.1/DTD/svg11.dtd"> 
<svg xmlns="http://www.w3.org/2000/svg" version="1.1" 
    width="16.4998cm" height="9.99998cm" viewBox="0 0 64960 39370 ">
<title>SVG Picture created as control_board-brd.svg date 2015/04/13 01:39:01 </title>
  <desc>Picture generated by PCBNEW </desc>
<g style="fill:#000000; fill-opacity:1;stroke:#000000; stroke-opacity:1;
stroke-linecap:round; stroke-linejoin:round; "
 transform="translate(0 0) scale(1 1)">
</g>
<g style="fill:#000000; fill-opacity:0.0; 
stroke:#000000; stroke-width:118.11; stroke-opacity:1; 
stroke-linecap:round; stroke-linejoin:round;">
<path d="M40310 27866
L40423 28260
L40535 27978
L40648 28260
L40760 27866
" />
<path d="M40929 27866
L41070 28260
" />
<path d="M41210 27866
L41070 28260
L41013 28400
L40985 28428
L40929 28456
" />
<path d="M41435 28260
L41435 27669
" />
<path d="M41491 28035
L41660 28260
" />
<path d="M41660 27866
L41435 28091
" />
<path d="M41857 27866
L41998 28260
" />
<path d="M42138 27866
L41998 28260
L41941 28400
L41913 28428
L41857 28456
" />
<path d="M42335 28231
L42391 28260
L42504 28260
L42560 28231
L42588 28175
L42588 28147
L42560 28091
L42504 28063
L42419 28063
L42363 28035
L42335 27978
L42335 27950
L42363 27894
L42419 27866
L42504 27866
L42560 27894
" />
<path d="M43263 27725
L43291 27697
L43347 27669
L43488 27669
L43544 27697
L43572 27725
L43600 27782
L43600 27838
L43572 27922
L43235 28260
L43600 28260
" />
<path d="M43966 27669
L44022 27669
L44079 27697
L44107 27725
L44135 27782
L44163 27894
L44163 28035
L44135 28147
L44107 28203
L44079 28231
L44022 28260
L43966 28260
L43910 28231
L43882 28203
L43854 28147
L43825 28035
L43825 27894
L43854 27782
L43882 27725
L43910 27697
L43966 27669
" />
<path d="M44725 28260
L44388 28260
" />
<path d="M44557 28260
L44557 27669
L44500 27753
L44444 27810
L44388 27838
" />
<path d="M45260 27669
L44978 27669
L44950 27950
L44978 27922
L45035 27894
L45175 27894
L45231 27922
L45260 27950
L45288 28006
L45288 28147
L45260 28203
L45231 28231
L45175 28260
L45035 28260
L44978 28231
L44950 28203
" />
<path d="M22692 28231
L22635 28260
L22523 28260
L22467 28231
L22439 28203
L22410 28147
L22410 27978
L22439 27922
L22467 27894
L22523 27866
L22635 27866
L22692 27894
" />
<path d="M23029 28260
L22973 28231
L22945 28203
L22917 28147
L22917 27978
L22945 27922
L22973 27894
L23029 27866
L23113 27866
L23170 27894
L23198 27922
L23226 27978
L23226 28147
L23198 28203
L23170 28231
L23113 28260
L23029 28260
" />
<path d="M23479 27866
L23479 28260
" />
<path d="M23479 27922
L23507 27894
L23563 27866
L23648 27866
L23704 27894
L23732 27950
L23732 28260
" />
<path d="M23929 27866
L24154 27866
" />
<path d="M24013 27669
L24013 28175
L24042 28231
L24098 28260
L24154 28260
" />
<path d="M24351 28260
L24351 27866
" />
<path d="M24351 27978
L24379 27922
L24407 27894
L24463 27866
L24520 27866
" />
<path d="M24801 28260
L24745 28231
L24716 28203
L24688 28147
L24688 27978
L24716 27922
L24745 27894
L24801 27866
L24885 27866
L24941 27894
L24970 27922
L24998 27978
L24998 28147
L24970 28203
L24941 28231
L24885 28260
L24801 28260
" />
<path d="M25335 28260
L25279 28231
L25251 28175
L25251 27669
" />
<path d="M26010 28260
L26010 27669
" />
<path d="M26010 27894
L26066 27866
L26179 27866
L26235 27894
L26263 27922
L26291 27978
L26291 28147
L26263 28203
L26235 28231
L26179 28260
L26066 28260
L26010 28231
" />
<path d="M26629 28260
L26572 28231
L26544 28203
L26516 28147
L26516 27978
L26544 27922
L26572 27894
L26629 27866
L26713 27866
L26769 27894
L26797 27922
L26826 27978
L26826 28147
L26797 28203
L26769 28231
L26713 28260
L26629 28260
" />
<path d="M27332 28260
L27332 27950
L27304 27894
L27247 27866
L27135 27866
L27079 27894
" />
<path d="M27332 28231
L27275 28260
L27135 28260
L27079 28231
L27051 28175
L27051 28119
L27079 28063
L27135 28035
L27275 28035
L27332 28006
" />
<path d="M27613 28260
L27613 27866
" />
<path d="M27613 27978
L27641 27922
L27669 27894
L27725 27866
L27782 27866
" />
<path d="M28232 28260
L28232 27669
" />
<path d="M28232 28231
L28175 28260
L28063 28260
L28007 28231
L27979 28203
L27950 28147
L27950 27978
L27979 27922
L28007 27894
L28063 27866
L28175 27866
L28232 27894
" />
<path d="M28907 27866
L29047 28260
L29188 27866
" />
<path d="M30172 28260
L29835 28260
" />
<path d="M30003 28260
L30003 27669
L29947 27753
L29891 27810
L29835 27838
" />
<path d="M30425 28203
L30453 28231
L30425 28260
L30397 28231
L30425 28203
L30425 28260
" />
<path d="M30819 27669
L30875 27669
L30931 27697
L30959 27725
L30988 27782
L31016 27894
L31016 28035
L30988 28147
L30959 28203
L30931 28231
L30875 28260
L30819 28260
L30763 28231
L30734 28203
L30706 28147
L30678 28035
L30678 27894
L30706 27782
L30734 27725
L30763 27697
L30819 27669
" />
</g>
<g style="fill:#000000; fill-opacity:0.0; 
stroke:#000000; stroke-width:39.3701; stroke-opacity:1; 
stroke-linecap:round; stroke-linejoin:round;">
</g>
<g style="fill:#000000; fill-opacity:1.0; 
stroke:#000000; stroke-width:39.3701; stroke-opacity:1; 
stroke-linecap:round; stroke-linejoin:round;">
<circle cx="23113.5" cy="17592.9" r="374.016" /> 
<circle cx="23113.5" cy="18592.9" r="374.016" /> 
<polyline style="fill-rule:evenodd;"
points="45484,16519
45484,16066
45130,16066
45130,16519
45484,16519
" /> 
<polyline style="fill-rule:evenodd;"
points="44697,16519
44697,16066
44342,16066
44342,16519
44697,16519
" /> 
<polyline style="fill-rule:evenodd;"
points="42542,16066
42542,16519
42897,16519
42897,16066
42542,16066
" /> 
<polyline style="fill-rule:evenodd;"
points="43330,16066
43330,16519
43684,16519
43684,16066
43330,16066
" /> 
<polyline style="fill-rule:evenodd;"
points="40442,19466
40442,19919
40797,19919
40797,19466
40442,19466
" /> 
<polyline style="fill-rule:evenodd;"
points="41230,19466
41230,19919
41584,19919
41584,19466
41230,19466
" /> 
<polyline style="fill-rule:evenodd;"
points="22942,25666
22942,26119
23297,26119
23297,25666
22942,25666
" /> 
<polyline style="fill-rule:evenodd;"
points="23730,25666
23730,26119
24084,26119
24084,25666
23730,25666
" /> 
<polyline style="fill-rule:evenodd;"
points="46187,21763
46639,21763
46639,21409
46187,21409
46187,21763
" /> 
<polyline style="fill-rule:evenodd;"
points="46187,20976
46639,20976
46639,20622
46187,20622
46187,20976
" /> 
<polyline style="fill-rule:evenodd;"
points="46639,22322
46187,22322
46187,22676
46639,22676
46639,22322
" /> 
<polyline style="fill-rule:evenodd;"
points="46639,23109
46187,23109
46187,23463
46639,23463
46639,23109
" /> 
<polyline style="fill-rule:evenodd;"
points="33742,13566
33742,14019
34097,14019
34097,13566
33742,13566
" /> 
<polyline style="fill-rule:evenodd;"
points="34530,13566
34530,14019
34884,14019
34884,13566
34530,13566
" /> 
</g>
<g style="fill:#000000; fill-opacity:1.0; 
stroke:#000000; stroke-width:787.402; stroke-opacity:1; 
stroke-linecap:round; stroke-linejoin:round;">
</g>
<g style="fill:#000000; fill-opacity:0.0; 
stroke:#000000; stroke-width:787.402; stroke-opacity:1; 
stroke-linecap:round; stroke-linejoin:round;">
<path d="M26513 14192
L26513 14389
" />
<path d="M26513 12996
L26513 13192
" />
<path d="M27513 12996
L27513 13192
" />
<path d="M27513 14192
L27513 14389
" />
</g>
<g style="fill:#000000; fill-opacity:0.0; 
stroke:#000000; stroke-width:39.3701; stroke-opacity:1; 
stroke-linecap:round; stroke-linejoin:round;">
</g>
<g style="fill:#000000; fill-opacity:1.0; 
stroke:#000000; stroke-width:39.3701; stroke-opacity:1; 
stroke-linecap:round; stroke-linejoin:round;">
<polyline style="fill-rule:evenodd;"
points="30887,14763
30887,13818
30139,13818
30139,14763
30887,14763
" /> 
</g>
<g style="fill:#000000; fill-opacity:1.0; 
stroke:#000000; stroke-width:787.402; stroke-opacity:1; 
stroke-linecap:round; stroke-linejoin:round;">
</g>
<g style="fill:#000000; fill-opacity:0.0; 
stroke:#000000; stroke-width:787.402; stroke-opacity:1; 
stroke-linecap:round; stroke-linejoin:round;">
<path d="M30513 12996
L30513 13192
" />
<path d="M29513 14192
L29513 14389
" />
<path d="M29513 12996
L29513 13192
" />
<path d="M28513 14192
L28513 14389
" />
<path d="M28513 12996
L28513 13192
" />
</g>
<g style="fill:#000000; fill-opacity:0.0; 
stroke:#000000; stroke-width:39.3701; stroke-opacity:1; 
stroke-linecap:round; stroke-linejoin:round;">
</g>
<g style="fill:#000000; fill-opacity:1.0; 
stroke:#000000; stroke-width:39.3701; stroke-opacity:1; 
stroke-linecap:round; stroke-linejoin:round;">
<polyline style="fill-rule:evenodd;"
points="39582,20883
39582,20706
38991,20706
38991,20883
39582,20883
" /> 
<polyline style="fill-rule:evenodd;"
points="39582,20568
39582,20391
38991,20391
38991,20568
39582,20568
" /> 
<polyline style="fill-rule:evenodd;"
points="39582,20253
39582,20076
38991,20076
38991,20253
39582,20253
" /> 
<polyline style="fill-rule:evenodd;"
points="39582,19938
39582,19761
38991,19761
38991,19938
39582,19938
" /> 
<polyline style="fill-rule:evenodd;"
points="39582,19624
39582,19446
38991,19446
38991,19624
39582,19624
" /> 
<polyline style="fill-rule:evenodd;"
points="39582,19309
39582,19131
38991,19131
38991,19309
39582,19309
" /> 
<polyline style="fill-rule:evenodd;"
points="39582,18994
39582,18816
38991,18816
38991,18994
39582,18994
" /> 
<polyline style="fill-rule:evenodd;"
points="39582,18679
39582,18501
38991,18501
38991,18679
39582,18679
" /> 
<polyline style="fill-rule:evenodd;"
points="38804,17724
38627,17724
38627,18314
38804,18314
38804,17724
" /> 
<polyline style="fill-rule:evenodd;"
points="38489,17724
38312,17724
38312,18314
38489,18314
38489,17724
" /> 
<polyline style="fill-rule:evenodd;"
points="38174,17724
37997,17724
37997,18314
38174,18314
38174,17724
" /> 
<polyline style="fill-rule:evenodd;"
points="37859,17724
37682,17724
37682,18314
37859,18314
37859,17724
" /> 
<polyline style="fill-rule:evenodd;"
points="37544,17724
37367,17724
37367,18314
37544,18314
37544,17724
" /> 
<polyline style="fill-rule:evenodd;"
points="37229,17724
37052,17724
37052,18314
37229,18314
37229,17724
" /> 
<polyline style="fill-rule:evenodd;"
points="36914,17724
36737,17724
36737,18314
36914,18314
36914,17724
" /> 
<polyline style="fill-rule:evenodd;"
points="36599,17724
36422,17724
36422,18314
36599,18314
36599,17724
" /> 
<polyline style="fill-rule:evenodd;"
points="36235,18679
36235,18501
35645,18501
35645,18679
36235,18679
" /> 
<polyline style="fill-rule:evenodd;"
points="36235,18994
36235,18816
35645,18816
35645,18994
36235,18994
" /> 
<polyline style="fill-rule:evenodd;"
points="36235,19309
36235,19131
35645,19131
35645,19309
36235,19309
" /> 
<polyline style="fill-rule:evenodd;"
points="36235,19624
36235,19446
35645,19446
35645,19624
36235,19624
" /> 
<polyline style="fill-rule:evenodd;"
points="36235,19938
36235,19761
35645,19761
35645,19938
36235,19938
" /> 
<polyline style="fill-rule:evenodd;"
points="36235,20253
36235,20076
35645,20076
35645,20253
36235,20253
" /> 
<polyline style="fill-rule:evenodd;"
points="36235,20568
36235,20391
35645,20391
35645,20568
36235,20568
" /> 
<polyline style="fill-rule:evenodd;"
points="36235,20883
36235,20706
35645,20706
35645,20883
36235,20883
" /> 
<polyline style="fill-rule:evenodd;"
points="36599,21070
36422,21070
36422,21661
36599,21661
36599,21070
" /> 
<polyline style="fill-rule:evenodd;"
points="36914,21070
36737,21070
36737,21661
36914,21661
36914,21070
" /> 
<polyline style="fill-rule:evenodd;"
points="37229,21070
37052,21070
37052,21661
37229,21661
37229,21070
" /> 
<polyline style="fill-rule:evenodd;"
points="37544,21070
37367,21070
37367,21661
37544,21661
37544,21070
" /> 
<polyline style="fill-rule:evenodd;"
points="37859,21070
37682,21070
37682,21661
37859,21661
37859,21070
" /> 
<polyline style="fill-rule:evenodd;"
points="38174,21070
37997,21070
37997,21661
38174,21661
38174,21070
" /> 
<polyline style="fill-rule:evenodd;"
points="38489,21070
38312,21070
38312,21661
38489,21661
38489,21070
" /> 
<polyline style="fill-rule:evenodd;"
points="38804,21070
38627,21070
38627,21661
38804,21661
38804,21070
" /> 
<polyline style="fill-rule:evenodd;"
points="21784,16218
20839,16218
20839,16966
21784,16966
21784,16218
" /> 
</g>
<g style="fill:#000000; fill-opacity:1.0; 
stroke:#000000; stroke-width:787.402; stroke-opacity:1; 
stroke-linecap:round; stroke-linejoin:round;">
</g>
<g style="fill:#000000; fill-opacity:0.0; 
stroke:#000000; stroke-width:787.402; stroke-opacity:1; 
stroke-linecap:round; stroke-linejoin:round;">
<path d="M20016 16592
L20213 16592
" />
<path d="M21213 17592
L21410 17592
" />
<path d="M20016 17592
L20213 17592
" />
<path d="M21213 18592
L21410 18592
" />
<path d="M20016 18592
L20213 18592
" />
<path d="M40413 14192
L40413 14389
" />
<path d="M40413 12996
L40413 13192
" />
<path d="M41413 12996
L41413 13192
" />
<path d="M41413 14192
L41413 14389
" />
</g>
<g style="fill:#000000; fill-opacity:0.0; 
stroke:#000000; stroke-width:39.3701; stroke-opacity:1; 
stroke-linecap:round; stroke-linejoin:round;">
</g>
<g style="fill:#000000; fill-opacity:1.0; 
stroke:#000000; stroke-width:39.3701; stroke-opacity:1; 
stroke-linecap:round; stroke-linejoin:round;">
<polyline style="fill-rule:evenodd;"
points="44787,14763
44787,13818
44039,13818
44039,14763
44787,14763
" /> 
</g>
<g style="fill:#000000; fill-opacity:1.0; 
stroke:#000000; stroke-width:787.402; stroke-opacity:1; 
stroke-linecap:round; stroke-linejoin:round;">
</g>
<g style="fill:#000000; fill-opacity:0.0; 
stroke:#000000; stroke-width:787.402; stroke-opacity:1; 
stroke-linecap:round; stroke-linejoin:round;">
<path d="M44413 12996
L44413 13192
" />
<path d="M43413 14192
L43413 14389
" />
<path d="M43413 12996
L43413 13192
" />
<path d="M42413 14192
L42413 14389
" />
<path d="M42413 12996
L42413 13192
" />
</g>
<g style="fill:#000000; fill-opacity:0.0; 
stroke:#000000; stroke-width:39.3701; stroke-opacity:1; 
stroke-linecap:round; stroke-linejoin:round;">
</g>
<g style="fill:#000000; fill-opacity:1.0; 
stroke:#000000; stroke-width:39.3701; stroke-opacity:1; 
stroke-linecap:round; stroke-linejoin:round;">
<polyline style="fill-rule:evenodd;"
points="29541,23007
29541,22377
29226,22377
29226,23007
29541,23007
" /> 
<polyline style="fill-rule:evenodd;"
points="28400,23007
28400,22377
28085,22377
28085,23007
28400,23007
" /> 
<circle cx="22013.5" cy="20692.9" r="374.016" /> 
<polyline style="fill-rule:evenodd;"
points="21639,23066
22387,23066
22387,22318
21639,22318
21639,23066
" /> 
<circle cx="21013.5" cy="21692.9" r="374.016" /> 
<polyline style="fill-rule:evenodd;"
points="47005,18286
47005,17499
44839,17499
44839,18286
47005,18286
" /> 
<polyline style="fill-rule:evenodd;"
points="43187,18286
43187,17499
41021,17499
41021,18286
43187,18286
" /> 
<polyline style="fill-rule:evenodd;"
points="24387,25165
24387,24220
23639,24220
23639,25165
24387,25165
" /> 
</g>
<g style="fill:#000000; fill-opacity:1.0; 
stroke:#000000; stroke-width:787.402; stroke-opacity:1; 
stroke-linecap:round; stroke-linejoin:round;">
</g>
<g style="fill:#000000; fill-opacity:0.0; 
stroke:#000000; stroke-width:787.402; stroke-opacity:1; 
stroke-linecap:round; stroke-linejoin:round;">
<path d="M23013 24594
L23013 24791
" />
<path d="M22013 24594
L22013 24791
" />
</g>
<g style="fill:#000000; fill-opacity:0.0; 
stroke:#000000; stroke-width:39.3701; stroke-opacity:1; 
stroke-linecap:round; stroke-linejoin:round;">
</g>
<g style="fill:#000000; fill-opacity:1.0; 
stroke:#000000; stroke-width:39.3701; stroke-opacity:1; 
stroke-linecap:round; stroke-linejoin:round;">
<polyline style="fill-rule:evenodd;"
points="38887,15565
38887,14620
38139,14620
38139,15565
38887,15565
" /> 
</g>
<g style="fill:#000000; fill-opacity:1.0; 
stroke:#000000; stroke-width:787.402; stroke-opacity:1; 
stroke-linecap:round; stroke-linejoin:round;">
</g>
<g style="fill:#000000; fill-opacity:0.0; 
stroke:#000000; stroke-width:787.402; stroke-opacity:1; 
stroke-linecap:round; stroke-linejoin:round;">
<path d="M37513 14994
L37513 15191
" />
<path d="M36513 14994
L36513 15191
" />
</g>
<g style="fill:#000000; fill-opacity:0.0; 
stroke:#000000; stroke-width:39.3701; stroke-opacity:1; 
stroke-linecap:round; stroke-linejoin:round;">
</g>
<g style="fill:#000000; fill-opacity:1.0; 
stroke:#000000; stroke-width:39.3701; stroke-opacity:1; 
stroke-linecap:round; stroke-linejoin:round;">
<polyline style="fill-rule:evenodd;"
points="32139,24220
32139,25165
32887,25165
32887,24220
32139,24220
" /> 
<polyline style="fill-rule:evenodd;"
points="33139,24220
33139,25165
33887,25165
33887,24220
33139,24220
" /> 
</g>
<g style="fill:#000000; fill-opacity:1.0; 
stroke:#000000; stroke-width:787.402; stroke-opacity:1; 
stroke-linecap:round; stroke-linejoin:round;">
</g>
<g style="fill:#000000; fill-opacity:0.0; 
stroke:#000000; stroke-width:787.402; stroke-opacity:1; 
stroke-linecap:round; stroke-linejoin:round;">
<path d="M34513 24791
L34513 24594
" />
<path d="M35513 24791
L35513 24594
" />
<path d="M36513 24791
L36513 24594
" />
<path d="M37513 24791
L37513 24594
" />
<path d="M38513 24791
L38513 24594
" />
<path d="M39513 24791
L39513 24594
" />
</g>
<g style="fill:#000000; fill-opacity:0.0; 
stroke:#000000; stroke-width:39.3701; stroke-opacity:1; 
stroke-linecap:round; stroke-linejoin:round;">
</g>
<g style="fill:#000000; fill-opacity:1.0; 
stroke:#000000; stroke-width:39.3701; stroke-opacity:1; 
stroke-linecap:round; stroke-linejoin:round;">
<polyline style="fill-rule:evenodd;"
points="25839,24220
25839,25165
26587,25165
26587,24220
25839,24220
" /> 
</g>
<g style="fill:#000000; fill-opacity:1.0; 
stroke:#000000; stroke-width:787.402; stroke-opacity:1; 
stroke-linecap:round; stroke-linejoin:round;">
</g>
<g style="fill:#000000; fill-opacity:0.0; 
stroke:#000000; stroke-width:787.402; stroke-opacity:1; 
stroke-linecap:round; stroke-linejoin:round;">
<path d="M27213 24791
L27213 24594
" />
</g>
<g style="fill:#000000; fill-opacity:0.0; 
stroke:#000000; stroke-width:39.3701; stroke-opacity:1; 
stroke-linecap:round; stroke-linejoin:round;">
</g>
<g style="fill:#000000; fill-opacity:1.0; 
stroke:#000000; stroke-width:39.3701; stroke-opacity:1; 
stroke-linecap:round; stroke-linejoin:round;">
<polyline style="fill-rule:evenodd;"
points="47041,23466
47985,23466
47985,22718
47041,22718
47041,23466
" /> 
</g>
<g style="fill:#000000; fill-opacity:1.0; 
stroke:#000000; stroke-width:600; stroke-opacity:1; 
stroke-linecap:round; stroke-linejoin:round;">
</g>
<g style="fill:#000000; fill-opacity:0.0; 
stroke:#000000; stroke-width:600; stroke-opacity:1; 
stroke-linecap:round; stroke-linejoin:round;">
<path d="M47646 22092
L47380 22092
" />
<path d="M47646 21092
L47380 21092
" />
</g>
<g style="fill:#000000; fill-opacity:0.0; 
stroke:#000000; stroke-width:39.3701; stroke-opacity:1; 
stroke-linecap:round; stroke-linejoin:round;">
</g>
<g style="fill:#000000; fill-opacity:1.0; 
stroke:#000000; stroke-width:39.3701; stroke-opacity:1; 
stroke-linecap:round; stroke-linejoin:round;">
<polyline style="fill-rule:evenodd;"
points="41239,24220
41239,25165
41987,25165
41987,24220
41239,24220
" /> 
</g>
<g style="fill:#000000; fill-opacity:1.0; 
stroke:#000000; stroke-width:787.402; stroke-opacity:1; 
stroke-linecap:round; stroke-linejoin:round;">
</g>
<g style="fill:#000000; fill-opacity:0.0; 
stroke:#000000; stroke-width:787.402; stroke-opacity:1; 
stroke-linecap:round; stroke-linejoin:round;">
<path d="M42613 24791
L42613 24594
" />
<path d="M43613 24791
L43613 24594
" />
</g>
<g style="fill:#000000; fill-opacity:0.0; 
stroke:#000000; stroke-width:39.3701; stroke-opacity:1; 
stroke-linecap:round; stroke-linejoin:round;">
</g>
<g style="fill:#000000; fill-opacity:1.0; 
stroke:#000000; stroke-width:39.3701; stroke-opacity:1; 
stroke-linecap:round; stroke-linejoin:round;">
<polyline style="fill-rule:evenodd;"
points="35187,15465
35187,14520
34439,14520
34439,15465
35187,15465
" /> 
</g>
<g style="fill:#000000; fill-opacity:1.0; 
stroke:#000000; stroke-width:787.402; stroke-opacity:1; 
stroke-linecap:round; stroke-linejoin:round;">
</g>
<g style="fill:#000000; fill-opacity:0.0; 
stroke:#000000; stroke-width:787.402; stroke-opacity:1; 
stroke-linecap:round; stroke-linejoin:round;">
<path d="M33813 14894
L33813 15091
" />
</g>
<g style="fill:#000000; fill-opacity:0.0; 
stroke:#000000; stroke-width:39.3701; stroke-opacity:1; 
stroke-linecap:round; stroke-linejoin:round;">
</g>
<g style="fill:#000000; fill-opacity:1.0; 
stroke:#000000; stroke-width:39.3701; stroke-opacity:1; 
stroke-linecap:round; stroke-linejoin:round;">
<circle cx="26213.5" cy="21568.9" r="373.815" /> 
<circle cx="26213.5" cy="18615.9" r="373.815" /> 
<circle cx="19684.4" cy="13779.5" r="1161.42" /> 
<circle cx="47243.5" cy="13779.5" r="1161.42" /> 
<circle cx="47243.5" cy="27559.1" r="1161.42" /> 
<circle cx="19684.4" cy="27559.1" r="1161.42" /> 
<circle cx="27513.5" cy="16492.9" r="374.016" /> 
<circle cx="27513.5" cy="19992.9" r="374.016" /> 
<circle cx="30013.5" cy="19992.9" r="374.016" /> 
<circle cx="30013.5" cy="16492.9" r="374.016" /> 
<circle cx="47813.5" cy="16492.9" r="374.016" /> 
<circle cx="47813.5" cy="19992.9" r="374.016" /> 
</g>
<g style="fill:#000000; fill-opacity:1.0; 
stroke:#000000; stroke-width:196.85; stroke-opacity:1; 
stroke-linecap:round; stroke-linejoin:round;">
</g>
<g style="fill:#000000; fill-opacity:0.0; 
stroke:#000000; stroke-width:196.85; stroke-opacity:1; 
stroke-linecap:round; stroke-linejoin:round;">
<path d="M37285 20165
L36971 19850
" />
<path d="M36971 19850
L35940 19850
" />
<path d="M38413 20165
L37285 20165
" />
<path d="M39286 20165
L38413 20165
" />
<path d="M38571 19535
L38413 19692
" />
<path d="M38413 19692
L38413 20165
" />
<path d="M39286 19535
L38571 19535
" />
</g>
<g style="fill:#000000; fill-opacity:0.0; 
stroke:#000000; stroke-width:393.701; stroke-opacity:1; 
stroke-linecap:round; stroke-linejoin:round;">
<path d="M20213 17592
L21213 17592
" />
</g>
<g style="fill:#000000; fill-opacity:0.0; 
stroke:#000000; stroke-width:196.85; stroke-opacity:1; 
stroke-linecap:round; stroke-linejoin:round;">
<path d="M33919 14886
L33813 14992
" />
<path d="M33919 13792
L33919 14886
" />
<path d="M23907 24799
L24013 24692
" />
<path d="M23907 25892
L23907 24799
" />
<path d="M41341 20165
L41407 20099
" />
<path d="M41407 20099
L41407 19692
" />
<path d="M39286 20165
L41341 20165
" />
<path d="M28213 21292
L27413 21292
" />
<path d="M27413 21292
L26213 20092
" />
<path d="M26213 20092
L26213 18615
" />
<path d="M35940 18905
L33100 18905
" />
<path d="M33100 18905
L32813 19192
" />
<path d="M28613 20092
L28613 20892
" />
<path d="M32813 19192
L29513 19192
" />
<path d="M29513 19192
L28613 20092
" />
<path d="M28613 20892
L28213 21292
" />
<path d="M39741 19220
L40013 19492
" />
<path d="M40013 19492
L40013 19692
" />
<path d="M40013 19692
L39856 19850
" />
<path d="M39856 19850
L39286 19850
" />
<path d="M39286 19220
L39741 19220
" />
<path d="M37013 19535
L35940 19535
" />
<path d="M36826 18905
L37013 19092
" />
<path d="M37013 19092
L37013 19535
" />
<path d="M35940 18905
L36826 18905
" />
<path d="M37571 19535
L37013 19535
" />
<path d="M37885 19220
L37571 19535
" />
<path d="M39286 19220
L37885 19220
" />
</g>
<g style="fill:#000000; fill-opacity:0.0; 
stroke:#000000; stroke-width:393.701; stroke-opacity:1; 
stroke-linecap:round; stroke-linejoin:round;">
<path d="M20213 18592
L21213 18592
" />
<path d="M21213 18592
L23113 18592
" />
<path d="M26190 18592
L26213 18615
" />
<path d="M24313 18592
L26190 18592
" />
<path d="M23113 18592
L24313 18592
" />
<path d="M23013 23592
L24313 22292
" />
<path d="M24313 19992
L24313 18592
" />
<path d="M24313 22292
L24313 19992
" />
<path d="M23013 24692
L23013 23592
" />
</g>
<g style="fill:#000000; fill-opacity:0.0; 
stroke:#000000; stroke-width:196.85; stroke-opacity:1; 
stroke-linecap:round; stroke-linejoin:round;">
<path d="M23119 24799
L23013 24692
" />
<path d="M23119 25892
L23119 24799
" />
<path d="M40619 19692
L40013 19692
" />
<path d="M28242 21322
L28213 21292
" />
<path d="M28242 22692
L28242 21322
" />
<path d="M45500 18905
L45922 18483
" />
<path d="M45922 18483
L45922 17892
" />
<path d="M39286 18905
L45500 18905
" />
<path d="M45413 17892
L45922 17892
" />
<path d="M45307 17786
L45413 17892
" />
<path d="M45307 16292
L45307 17786
" />
<path d="M39813 17892
L39286 18419
" />
<path d="M39286 18419
L39286 18590
" />
<path d="M42104 17892
L39813 17892
" />
<path d="M42513 17892
L42104 17892
" />
<path d="M42719 17686
L42513 17892
" />
<path d="M42719 16292
L42719 17686
" />
<path d="M46409 20795
L46413 20799
" />
<path d="M39286 20795
L46409 20795
" />
<path d="M46819 20799
L46413 20799
" />
<path d="M47113 21092
L46819 20799
" />
<path d="M47513 21092
L47113 21092
" />
<path d="M43186 21366
L45107 23286
" />
<path d="M45107 23286
L46413 23286
" />
<path d="M38715 21366
L43186 21366
" />
<path d="M47013 23092
L46819 23286
" />
<path d="M46819 23286
L46413 23286
" />
<path d="M47513 23092
L47013 23092
" />
<path d="M37141 17220
L36013 16092
" />
<path d="M36013 16092
L35113 16092
" />
<path d="M35113 16092
L34813 15792
" />
<path d="M34813 15792
L34813 14992
" />
<path d="M37141 18019
L37141 17220
" />
<path d="M34707 14886
L34813 14992
" />
<path d="M34707 13792
L34707 14886
" />
<path d="M33340 18019
L36511 18019
" />
<path d="M32913 17592
L33340 18019
" />
<path d="M27013 17592
L32913 17592
" />
<path d="M26513 17092
L27013 17592
" />
<path d="M26513 14192
L26513 17092
" />
<path d="M27513 14192
L27513 16492
" />
<path d="M28113 18392
L27513 18992
" />
<path d="M27513 18992
L27513 19992
" />
<path d="M35940 18590
L33111 18590
" />
<path d="M32913 18392
L29113 18392
" />
<path d="M33111 18590
L32913 18392
" />
<path d="M29113 18392
L28113 18392
" />
<path d="M32413 15292
L31313 14192
" />
<path d="M32413 16192
L32413 15292
" />
<path d="M33413 17192
L32413 16192
" />
<path d="M36513 17192
L33413 17192
" />
<path d="M31313 14192
L30513 14192
" />
<path d="M36826 17505
L36513 17192
" />
<path d="M36826 18019
L36826 17505
" />
<path d="M37771 21366
L37771 22550
" />
<path d="M40113 23092
L40913 23892
" />
<path d="M37771 22550
L38313 23092
" />
<path d="M38313 23092
L40113 23092
" />
<path d="M31313 27292
L30013 25992
" />
<path d="M40913 23892
L40913 26492
" />
<path d="M40913 26492
L40113 27292
" />
<path d="M30013 25992
L30013 22692
" />
<path d="M40113 27292
L31313 27292
" />
<path d="M30013 22692
L30013 19992
" />
<path d="M29384 22692
L30013 22692
" />
<path d="M29313 16492
L30013 16492
" />
<path d="M28513 15692
L29313 16492
" />
<path d="M28513 14192
L28513 15692
" />
<path d="M41413 14592
L41413 14192
" />
<path d="M38085 17220
L40013 15292
" />
<path d="M40013 15292
L40713 15292
" />
<path d="M40713 15292
L41413 14592
" />
<path d="M38085 18019
L38085 17220
" />
<path d="M42413 14392
L42413 14192
" />
<path d="M38400 17605
L40213 15792
" />
<path d="M40213 15792
L41013 15792
" />
<path d="M41013 15792
L42413 14392
" />
<path d="M38400 18019
L38400 17605
" />
<path d="M41413 16392
L42513 15292
" />
<path d="M42513 15292
L43013 15292
" />
<path d="M43013 15292
L43413 14892
" />
<path d="M43413 14892
L43413 14192
" />
<path d="M38715 18019
L38986 18019
" />
<path d="M38986 18019
L40613 16392
" />
<path d="M40613 16392
L41413 16392
" />
<path d="M44413 14192
L45113 14192
" />
<path d="M47313 16392
L47713 16392
" />
<path d="M47713 16392
L47813 16492
" />
<path d="M45113 14192
L47313 16392
" />
<path d="M39286 20480
L44326 20480
" />
<path d="M44326 20480
L44813 19992
" />
<path d="M44813 19992
L47256 19992
" />
<path d="M47256 19992
L47813 19992
" />
<path d="M41613 23492
L41613 24692
" />
<path d="M40713 22592
L41613 23492
" />
<path d="M38513 22592
L40713 22592
" />
<path d="M38085 22165
L38513 22592
" />
<path d="M38085 21366
L38085 22165
" />
<path d="M43613 24092
L43613 24692
" />
<path d="M41613 22092
L43613 24092
" />
<path d="M38613 22092
L41613 22092
" />
<path d="M38400 21880
L38613 22092
" />
<path d="M38400 21366
L38400 21880
" />
</g>
<g style="fill:#000000; fill-opacity:0.0; 
stroke:#000000; stroke-width:393.701; stroke-opacity:1; 
stroke-linecap:round; stroke-linejoin:round;">
<path d="M20213 16592
L21213 16592
" />
</g>
<g style="fill:#000000; fill-opacity:0.0; 
stroke:#000000; stroke-width:196.85; stroke-opacity:1; 
stroke-linecap:round; stroke-linejoin:round;">
<path d="M38513 15992
L38513 15092
" />
<path d="M37771 16735
L38513 15992
" />
<path d="M37771 18019
L37771 16735
" />
<path d="M38513 24692
L38513 23992
" />
<path d="M39813 23692
L40213 24092
" />
<path d="M38513 23992
L38813 23692
" />
<path d="M38813 23692
L39813 23692
" />
<path d="M30713 25592
L30713 22992
" />
<path d="M40213 24092
L40213 26092
" />
<path d="M40213 26092
L39613 26692
" />
<path d="M39613 26692
L31813 26692
" />
<path d="M31813 26692
L30713 25592
" />
<path d="M34485 19220
L35940 19220
" />
<path d="M30713 22992
L34485 19220
" />
<path d="M39513 25792
L39213 26092
" />
<path d="M39213 26092
L32013 26092
" />
<path d="M32013 26092
L31413 25492
" />
<path d="M31413 25492
L31413 23292
" />
<path d="M31413 23292
L34541 20165
" />
<path d="M34541 20165
L35940 20165
" />
<path d="M39513 24692
L39513 25792
" />
<path d="M35026 20480
L35940 20480
" />
<path d="M35026 20480
L32513 22992
" />
<path d="M32513 24692
L32513 22992
" />
<path d="M35511 20795
L35940 20795
" />
<path d="M35511 20795
L33513 22792
" />
<path d="M33513 24692
L33513 22792
" />
<path d="M36140 21366
L34513 22992
" />
<path d="M36140 21366
L36511 21366
" />
<path d="M34513 24692
L34513 22992
" />
<path d="M36826 22080
L36826 21366
" />
<path d="M36826 22080
L35513 23392
" />
<path d="M35513 24692
L35513 23392
" />
<path d="M37141 22765
L37141 21366
" />
<path d="M37141 22765
L36513 23392
" />
<path d="M36513 24692
L36513 23392
" />
<path d="M37456 24635
L37513 24692
" />
<path d="M37456 21366
L37456 24635
" />
</g>
<g style="fill:#000000; fill-opacity:0.0; 
stroke:#000000; stroke-width:393.701; stroke-opacity:1; 
stroke-linecap:round; stroke-linejoin:round;">
<path d="M22013 24692
L22013 22692
" />
<path d="M21013 22292
L21413 22692
" />
<path d="M21413 22692
L22013 22692
" />
<path d="M21013 21692
L21013 22292
" />
<path d="M26213 21568
L26213 24692
" />
</g>
<g style="fill:#000000; fill-opacity:0.0; 
stroke:#000000; stroke-width:196.85; stroke-opacity:1; 
stroke-linecap:round; stroke-linejoin:round;">
<path d="M36513 15792
L36513 15092
" />
<path d="M37456 16735
L36513 15792
" />
<path d="M37456 18019
L37456 16735
" />
</g>
<g style="fill:#000000; fill-opacity:1.0; 
stroke:#000000; stroke-width:118.11; stroke-opacity:1; 
stroke-linecap:round; stroke-linejoin:round;">
<polyline style="fill-rule:evenodd;"
points="36452,19891
36457,19898
36514,19956
36514,20010
36509,20022
36516,20057
36516,20273
36506,20323
36516,20372
36516,20588
36506,20638
36516,20687
36516,20790
36619,20790
36669,20799
36717,20790
36934,20790
36984,20799
37032,20790
37249,20790
37299,20799
37347,20790
37564,20790
37614,20799
37662,20790
37879,20790
37929,20799
37977,20790
38194,20790
38244,20799
38292,20790
38509,20790
38559,20799
38607,20790
38710,20790
38710,20687
38720,20636
38710,20588
38710,20372
38717,20337
38712,20325
38712,20271
38769,20214
38786,20188
38820,20165
38788,20144
38769,20116
38712,20059
38712,20005
38717,19993
38710,19958
38710,19742
38717,19707
38712,19695
38712,19641
38769,19584
38774,19576
38712,19576
38712,19574
38032,19574
37821,19785
37706,19862
37571,19889
37013,19889
36514,19889
36514,19891
36452,19891
" /> 
<polyline style="fill-rule:evenodd;"
points="17991,29251
19352,29251
19352,18592
19352,16592
19401,16344
19542,16133
19753,15992
20002,15943
20228,15943
20476,15992
20596,16072
20634,16015
20719,15958
20819,15938
21804,15938
21901,15957
21987,16013
22044,16098
22065,16199
22065,16986
22046,17084
21989,17169
21929,17210
22029,17380
22047,17450
21996,17551
21352,17551
21352,17544
21271,17544
21271,17551
20800,17551
20626,17551
20156,17551
20156,17544
20074,17544
20074,17551
19430,17551
19379,17450
19397,17380
19526,17160
19609,17096
19542,17052
19401,16841
19352,16592
19352,18592
19401,18344
19542,18133
19609,18089
19526,18025
19397,17804
19379,17735
19430,17633
20074,17633
20074,17641
20156,17641
20156,17633
20626,17633
20800,17633
21271,17633
21271,17641
21352,17641
21352,17633
21996,17633
22047,17735
22029,17804
21900,18025
21817,18089
21884,18133
21888,18140
22458,18140
22458,17708
22463,17448
22552,17235
22660,17198
22718,17255
22718,17140
22756,17031
22998,16937
23257,16943
23470,17031
23508,17140
23113,17535
22718,17140
22718,17255
23055,17592
22660,17987
22552,17950
22458,17708
22458,18140
22647,18140
22724,18063
22718,18045
23113,17650
23171,17708
23171,17592
23566,17198
23675,17235
23769,17477
23763,17737
23675,17950
23566,17987
23171,17592
23171,17708
23508,18045
23502,18063
23579,18140
24313,18140
25770,18140
25845,18065
26083,17966
26342,17966
26580,18065
26763,18247
26862,18486
26863,18744
26764,18983
26581,19166
26567,19171
26567,19946
26948,20327
26864,20122
26863,19864
26962,19625
27145,19442
27159,19436
27159,18992
27186,18857
27186,18857
27262,18742
27862,18142
27977,18065
28113,18038
29113,18038
32858,18038
32766,17947
27013,17947
26877,17920
26762,17843
26262,17343
26186,17228
26186,17228
26159,17092
26159,14933
26054,14863
25913,14653
25863,14404
25863,14178
25913,13929
26054,13718
26095,13691
26080,13683
25926,13480
25860,13233
25860,13135
25860,13053
25860,12955
25926,12708
26080,12505
26301,12377
26371,12359
26472,12409
26472,13053
25860,13053
25860,13135
26472,13135
26472,13143
26554,13143
26554,13135
26554,13053
26554,12409
26655,12359
26725,12377
26946,12505
27013,12593
27080,12505
27301,12377
27371,12359
27472,12409
27472,13053
27166,13053
26860,13053
26554,13053
26554,13135
26860,13135
27166,13135
27472,13135
27472,13143
27554,13143
27554,13135
27554,13053
27554,12409
27655,12359
27725,12377
27946,12505
28013,12593
28080,12505
28301,12377
28371,12359
28472,12409
28472,13053
28166,13053
27860,13053
27554,13053
27554,13135
27860,13135
28166,13135
28472,13135
28472,13143
28554,13143
28554,13135
28554,13053
28554,12409
28655,12359
28725,12377
28946,12505
29013,12593
29080,12505
29301,12377
29371,12359
29472,12409
29472,13053
29166,13053
28860,13053
28554,13053
28554,13135
28860,13135
29166,13135
29472,13135
29472,13143
29554,13143
29554,13135
29562,13135
29562,13053
29554,13053
29554,12409
29655,12359
29725,12377
29946,12505
30009,12588
30054,12522
30264,12381
30513,12331
30762,12381
30972,12522
31113,12732
31163,12981
31163,13207
31113,13456
31033,13576
31090,13613
31147,13698
31168,13799
31168,13838
31313,13838
31449,13865
31564,13942
32664,15042
32740,15157
32767,15292
32767,16046
33160,16439
33160,15132
33160,15033
33772,15033
33772,15677
33671,15728
33601,15710
33380,15581
33226,15378
33160,15132
33160,16439
33560,16838
36258,16838
35866,16447
35113,16447
34977,16420
34862,16343
34562,16043
34486,15928
34459,15792
34459,15745
34419,15745
34322,15727
34236,15670
34196,15610
34025,15710
33955,15728
33854,15677
33854,15033
33862,15033
33862,14951
33854,14951
33854,14944
33772,14944
33772,14951
33160,14951
33160,14853
33226,14606
33380,14403
33601,14275
33611,14273
33576,14258
33503,14185
33463,14090
33463,13987
33463,13898
33463,13687
33463,13598
33463,13495
33503,13400
33576,13327
33671,13287
33814,13287
33878,13352
33878,13751
33528,13751
33463,13687
33463,13898
33528,13833
33878,13833
33878,13841
33960,13841
33960,13833
33968,13833
33968,13751
33960,13751
33960,13352
34025,13287
34168,13287
34263,13327
34314,13378
34324,13363
34409,13306
34510,13285
34904,13285
35001,13304
35087,13361
35144,13446
35165,13546
35165,14038
35146,14136
35089,14222
35063,14239
35207,14239
35304,14258
35390,14315
35447,14400
35468,14500
35468,15485
35449,15582
35392,15668
35307,15725
35257,15735
35260,15738
36013,15738
36149,15765
36159,15772
36159,15735
36054,15665
35913,15454
35863,15205
35863,14979
35913,14731
36054,14520
36264,14379
36513,14330
36762,14379
36972,14520
37017,14587
37080,14503
37301,14375
37371,14357
37472,14407
37472,15051
37464,15051
37464,15133
37472,15133
37472,15777
37371,15828
37301,15810
37080,15681
37017,15598
36972,15665
36921,15699
37613,16391
38159,15846
38159,15845
38119,15845
38022,15827
37936,15770
37896,15710
37725,15810
37655,15828
37554,15777
37554,15133
37562,15133
37562,15051
37554,15051
37554,14407
37655,14357
37725,14375
37896,14475
37934,14417
38019,14360
38119,14339
38907,14339
39004,14358
39090,14415
39147,14500
39168,14600
39168,15585
39155,15649
39762,15042
39877,14965
40013,14938
40081,14938
39980,14880
39826,14677
39760,14430
39760,14332
39760,14250
39760,14151
39826,13905
39980,13702
39997,13692
39980,13683
39826,13480
39760,13233
39760,13135
39760,13053
39760,12955
39826,12708
39980,12505
40201,12377
40271,12359
40372,12409
40372,13053
39760,13053
39760,13135
40372,13135
40372,13606
40372,13779
40372,14250
39760,14250
39760,14332
40372,14332
40372,14340
40454,14340
40454,14332
40462,14332
40462,14250
40454,14250
40454,13779
40454,13606
40454,13135
40454,13053
40454,12409
40555,12359
40625,12377
40846,12505
40913,12593
40980,12505
41201,12377
41271,12359
41372,12409
41372,13053
41066,13053
40760,13053
40454,13053
40454,13135
40760,13135
41066,13135
41372,13135
41372,13143
41454,13143
41454,13135
41454,13053
41454,12409
41555,12359
41625,12377
41846,12505
41913,12593
41980,12505
42201,12377
42271,12359
42372,12409
42372,13053
42066,13053
41760,13053
41454,13053
41454,13135
41760,13135
42066,13135
42372,13135
42372,13143
42454,13143
42454,13135
42454,13053
42454,12409
42555,12359
42625,12377
42846,12505
42913,12593
42980,12505
43201,12377
43271,12359
43372,12409
43372,13053
43066,13053
42760,13053
42454,13053
42454,13135
42760,13135
43066,13135
43372,13135
43372,13143
43454,13143
43454,13135
43454,13053
43454,12409
43555,12359
43625,12377
43846,12505
43913,12593
43980,12505
44201,12377
44271,12359
44372,12409
44372,13053
44066,13053
43760,13053
43454,13053
43454,13135
43760,13135
44066,13135
44372,13135
44372,13143
44454,13143
44454,13135
44454,13053
44454,12409
44555,12359
44625,12377
44846,12505
45000,12708
45066,12955
45066,13053
44454,13053
44454,13135
45066,13135
45066,13233
45000,13480
44929,13573
44990,13613
45047,13698
45068,13799
45068,13838
45113,13838
45249,13865
45364,13942
47404,15982
47445,15942
47683,15843
47942,15843
48181,15941
48363,16124
48463,16363
48463,16621
48364,16860
48181,17043
47943,17142
47684,17142
47446,17043
47263,16861
47206,16726
47177,16720
47062,16643
45068,14648
45068,14783
45049,14881
44992,14966
44907,15024
44807,15044
44019,15044
43922,15025
43836,14969
43798,14913
43758,14940
43740,15028
43664,15143
43264,15543
43149,15620
43013,15647
42660,15647
42521,15786
42522,15785
42916,15785
43014,15804
43100,15861
43111,15878
43163,15827
43258,15787
43401,15787
43466,15852
43466,16251
43458,16251
43458,16333
43466,16333
43466,16733
43401,16798
43258,16798
43163,16758
43112,16707
43102,16722
43074,16741
43074,17218
43207,17218
43304,17237
43390,17293
43447,17378
43467,17479
43467,18306
43449,18403
43392,18489
43307,18547
43287,18551
43548,18551
43548,16733
43548,16333
43548,16251
43548,15852
43612,15787
43755,15787
43850,15827
43923,15900
43963,15995
43963,16098
43963,16187
43898,16251
43548,16251
43548,16333
43898,16333
43963,16398
43963,16487
43963,16590
43923,16685
43850,16758
43755,16798
43612,16798
43548,16733
43548,18551
44063,18551
44063,16590
44063,16487
44063,16398
44063,16187
44063,16098
44063,15995
44103,15900
44176,15827
44271,15787
44414,15787
44478,15852
44478,16251
44128,16251
44063,16187
44063,16398
44128,16333
44478,16333
44478,16733
44414,16798
44271,16798
44176,16758
44103,16685
44063,16590
44063,18551
44736,18551
44722,18548
44636,18492
44579,18407
44559,18306
44559,17479
44578,17381
44634,17296
44719,17238
44820,17218
44952,17218
44952,16741
44927,16724
44915,16706
44863,16758
44768,16798
44625,16798
44560,16733
44560,16333
44568,16333
44568,16251
44560,16251
44560,15852
44625,15787
44768,15787
44863,15827
44914,15878
44924,15863
45009,15806
45110,15785
45504,15785
45601,15804
45687,15861
45744,15946
45765,16046
45765,16538
45746,16636
45689,16722
45661,16741
45661,17218
47025,17218
47122,17237
47208,17293
47265,17378
47285,17479
47285,18306
47267,18403
47210,18489
47125,18547
47025,18567
46260,18567
46249,18619
46173,18734
45751,19156
45636,19232
45500,19259
41783,19259
41823,19300
41863,19395
41863,19498
41863,19587
41798,19651
41448,19651
41448,19644
41366,19644
41366,19651
41358,19651
41358,19733
41366,19733
41366,19741
41448,19741
41448,19733
41798,19733
41863,19798
41863,19887
41863,19990
41823,20085
41783,20125
44179,20125
44562,19742
44677,19665
44813,19638
47256,19638
47257,19638
47262,19625
47445,19442
47683,19343
47942,19343
48181,19441
48363,19624
48463,19863
48463,20121
48364,20360
48181,20543
47958,20636
48053,20699
48173,20880
48215,21092
48173,21305
48053,21485
47895,21591
47898,21592
48070,21726
48178,21916
48190,21965
48139,22051
47554,22051
47554,22044
47472,22044
47472,22051
46887,22051
46839,21970
46806,22003
46711,22042
46608,22042
46519,22042
46454,21977
46454,21627
46853,21627
46918,21692
46918,21792
46956,21726
47128,21592
47131,21591
46973,21485
46918,21403
46918,21480
46853,21545
46454,21545
46454,21537
46372,21537
46372,21545
45973,21545
45908,21480
45908,21338
45947,21243
45999,21191
45984,21181
45962,21149
43471,21149
45254,22932
45964,22932
45981,22906
45999,22894
45947,22842
45908,22747
45908,22604
45908,22393
45908,22250
45908,21834
45908,21692
45973,21627
46372,21627
46372,21977
46307,22042
46219,22042
46115,22042
46020,22003
45947,21930
45908,21834
45908,22250
45947,22155
46020,22082
46115,22043
46219,22043
46307,22043
46372,22108
46372,22458
45973,22458
45908,22393
45908,22604
45973,22540
46372,22540
46372,22548
46454,22548
46454,22540
46462,22540
46462,22458
46454,22458
46454,22108
46519,22043
46608,22043
46711,22043
46806,22082
46876,22152
46887,22133
47472,22133
47472,22141
47554,22141
47554,22133
48139,22133
48190,22220
48178,22269
48075,22451
48103,22457
48189,22513
48246,22598
48266,22699
48266,23486
48247,23584
48191,23669
48106,23727
48005,23747
47021,23747
46923,23728
46838,23672
46837,23671
46760,23724
46659,23744
46167,23744
46069,23725
45984,23669
45965,23640
45107,23640
44971,23613
44856,23537
43040,21720
39077,21720
39073,21738
41613,21738
41749,21765
41864,21842
43864,23842
43940,23957
43958,24043
44072,24120
44213,24331
44263,24579
44263,24805
44213,25054
44072,25265
43862,25406
43613,25455
43364,25406
43154,25265
43109,25198
43046,25281
42825,25410
42755,25428
42654,25377
42654,24733
42662,24733
42662,24651
42654,24651
42654,24007
42755,23957
42825,23975
43046,24103
43109,24187
43148,24128
41466,22447
41068,22447
41864,23242
41940,23357
41967,23492
41967,23939
42007,23939
42104,23958
42190,24015
42230,24074
42401,23975
42471,23957
42572,24007
42572,24651
42564,24651
42564,24733
42572,24733
42572,25377
42471,25428
42401,25410
42230,25310
42192,25368
42107,25425
42007,25445
41267,25445
41267,26492
41240,26628
41164,26743
40761,27146
45715,27146
45715,28721
39911,28721
39911,27647
31443,27647
31443,28721
21983,28721
21983,27146
23948,27146
23948,26333
23948,25933
24298,25933
24363,25998
24363,26087
24363,26190
24323,26285
24250,26358
24155,26398
24012,26398
23948,26333
23948,27146
25558,27146
25558,25185
25558,24200
25577,24103
25634,24017
25719,23960
25760,23951
25760,22034
25663,21937
25564,21698
25564,21440
25662,21201
25845,21018
26083,20919
26342,20919
26580,21018
26763,21200
26862,21439
26863,21697
26764,21936
26666,22034
26666,23951
26704,23958
26790,24015
26830,24074
27001,23975
27071,23957
27172,24007
27172,24651
27164,24651
27164,24733
27172,24733
27172,25377
27071,25428
27001,25410
26830,25310
26792,25368
26707,25425
26607,25445
25819,25445
25722,25427
25636,25370
25579,25285
25558,25185
25558,27146
27254,27146
27254,25377
27254,24733
27254,24651
27254,24007
27355,23957
27425,23975
27646,24103
27800,24306
27866,24553
27866,24651
27254,24651
27254,24733
27866,24733
27866,24832
27800,25078
27646,25281
27425,25410
27355,25428
27254,25377
27254,27146
30665,27146
29762,26243
29686,26128
29686,26128
29659,25992
29659,23268
29561,23288
29207,23288
29109,23269
29023,23213
28966,23128
28946,23027
28946,22358
28965,22260
29021,22174
29106,22117
29207,22097
29561,22097
29659,22116
29659,22116
29659,20549
29646,20543
29463,20361
29364,20122
29363,19864
29378,19829
28967,20239
28967,20892
28940,21028
28864,21143
28597,21410
28597,22168
28603,22172
28660,22257
28680,22358
28680,23027
28661,23125
28605,23210
28520,23268
28419,23288
28065,23288
27967,23269
27882,23213
27824,23128
27804,23027
27804,22358
27823,22260
27879,22174
27888,22169
27888,21647
27413,21647
27277,21620
27162,21543
25962,20343
25886,20228
25859,20092
25859,19172
25846,19166
25724,19045
24766,19045
24766,19992
24766,22292
24731,22466
24633,22613
23466,23780
23466,23987
23473,23981
23568,23941
23907,23941
23972,24006
23972,24651
23964,24651
23964,24733
23972,24733
23972,24741
24054,24741
24054,24733
24054,24651
24054,24006
24119,23941
24458,23941
24553,23981
24626,24054
24666,24149
24666,24252
24666,24587
24601,24651
24054,24651
24054,24733
24601,24733
24666,24798
24666,25133
24666,25236
24626,25331
24553,25404
24458,25444
24267,25444
24323,25500
24363,25595
24363,25698
24363,25787
24298,25851
23948,25851
23948,25844
23866,25844
23866,25851
23858,25851
23858,25933
23866,25933
23866,26333
23801,26398
23658,26398
23563,26358
23512,26307
23502,26322
23417,26379
23316,26399
22922,26399
22825,26380
22739,26324
22682,26239
22662,26138
22662,25646
22681,25549
22737,25463
22765,25444
22765,25406
22764,25406
22554,25265
22513,25204
22472,25265
22262,25406
22013,25455
21764,25406
21554,25265
21413,25054
21363,24805
21363,24579
21413,24331
21554,24120
21560,24116
21560,23336
21522,23328
21436,23272
21379,23187
21368,23136
21240,23111
21093,23013
20693,22613
20595,22466
20560,22292
20560,22158
20463,22061
20364,21822
20363,21564
20462,21325
20645,21142
20883,21043
21142,21043
21358,21132
21358,20808
21363,20548
21452,20335
21560,20298
21618,20355
21618,20240
21656,20131
21898,20037
22157,20043
22370,20131
22408,20240
22013,20635
21618,20240
21618,20355
21955,20692
21560,21087
21452,21050
21358,20808
21358,21132
21381,21141
21563,21324
21618,21456
21618,21145
22013,20750
22071,20808
22071,20692
22466,20298
22575,20335
22669,20577
22663,20837
22575,21050
22466,21087
22071,20692
22071,20808
22408,21145
22370,21254
22128,21348
21869,21342
21656,21254
21618,21145
21618,21456
21663,21563
21663,21821
21569,22048
21619,22038
22407,22038
22504,22057
22590,22113
22647,22198
22668,22299
22668,23086
22649,23184
22592,23269
22507,23327
22466,23335
22466,24116
22472,24120
22513,24181
22554,24120
22560,24116
22560,23592
22595,23419
22693,23272
23860,22105
23860,19992
23860,19045
23579,19045
23481,19143
23243,19242
22984,19242
22746,19143
22647,19045
21888,19045
21884,19052
21673,19193
21425,19242
21198,19242
20950,19193
20739,19052
20735,19045
20691,19045
20687,19052
20476,19193
20228,19242
20002,19242
19753,19193
19542,19052
19401,18841
19352,18592
19352,29251
48936,29251
48936,12086
17991,12086
17991,29251
" /> 
</g>
<g style="fill:#FFFFFF; fill-opacity:1.0; 
stroke:#FFFFFF; stroke-width:39.3701; stroke-opacity:1; 
stroke-linecap:round; stroke-linejoin:round;">
<circle cx="27513.5" cy="16492.9" r="98.4252" /> 
<circle cx="27513.5" cy="19992.9" r="98.4252" /> 
<circle cx="30013.5" cy="19992.9" r="98.4252" /> 
<circle cx="30013.5" cy="16492.9" r="98.4252" /> 
<circle cx="47813.5" cy="16492.9" r="98.4252" /> 
<circle cx="47813.5" cy="19992.9" r="98.4252" /> 
<circle cx="23113.5" cy="17592.9" r="98.4252" /> 
<circle cx="23113.5" cy="18592.9" r="98.4252" /> 
<circle cx="26513.5" cy="14192.9" r="98.4252" /> 
<circle cx="26513.5" cy="13192.9" r="98.4252" /> 
<circle cx="27513.5" cy="13192.9" r="98.4252" /> 
<circle cx="27513.5" cy="14192.9" r="98.4252" /> 
<circle cx="30513.5" cy="14192.9" r="98.4252" /> 
<circle cx="30513.5" cy="13192.9" r="98.4252" /> 
<circle cx="29513.5" cy="14192.9" r="98.4252" /> 
<circle cx="29513.5" cy="13192.9" r="98.4252" /> 
<circle cx="28513.5" cy="14192.9" r="98.4252" /> 
<circle cx="28513.5" cy="13192.9" r="98.4252" /> 
<circle cx="21213.5" cy="16592.9" r="98.4252" /> 
<circle cx="20213.5" cy="16592.9" r="98.4252" /> 
<circle cx="21213.5" cy="17592.9" r="98.4252" /> 
<circle cx="20213.5" cy="17592.9" r="98.4252" /> 
<circle cx="21213.5" cy="18592.9" r="98.4252" /> 
<circle cx="20213.5" cy="18592.9" r="98.4252" /> 
<circle cx="40413.5" cy="14192.9" r="98.4252" /> 
<circle cx="40413.5" cy="13192.9" r="98.4252" /> 
<circle cx="41413.5" cy="13192.9" r="98.4252" /> 
<circle cx="41413.5" cy="14192.9" r="98.4252" /> 
<circle cx="44413.5" cy="14192.9" r="98.4252" /> 
<circle cx="44413.5" cy="13192.9" r="98.4252" /> 
<circle cx="43413.5" cy="14192.9" r="98.4252" /> 
<circle cx="43413.5" cy="13192.9" r="98.4252" /> 
<circle cx="42413.5" cy="14192.9" r="98.4252" /> 
<circle cx="42413.5" cy="13192.9" r="98.4252" /> 
<circle cx="22013.5" cy="20692.9" r="98.4252" /> 
<circle cx="22013.5" cy="22692.9" r="98.4252" /> 
<circle cx="21013.5" cy="21692.9" r="98.4252" /> 
<circle cx="24013.5" cy="24692.9" r="98.4252" /> 
<circle cx="23013.5" cy="24692.9" r="98.4252" /> 
<circle cx="22013.5" cy="24692.9" r="98.4252" /> 
<circle cx="38513.5" cy="15092.9" r="98.4252" /> 
<circle cx="37513.5" cy="15092.9" r="98.4252" /> 
<circle cx="36513.5" cy="15092.9" r="98.4252" /> 
<circle cx="32513.5" cy="24692.9" r="98.4252" /> 
<circle cx="33513.5" cy="24692.9" r="98.4252" /> 
<circle cx="34513.5" cy="24692.9" r="98.4252" /> 
<circle cx="35513.5" cy="24692.9" r="98.4252" /> 
<circle cx="36513.5" cy="24692.9" r="98.4252" /> 
<circle cx="37513.5" cy="24692.9" r="98.4252" /> 
<circle cx="38513.5" cy="24692.9" r="98.4252" /> 
<circle cx="39513.5" cy="24692.9" r="98.4252" /> 
<circle cx="26213.5" cy="24692.9" r="98.4252" /> 
<circle cx="27213.5" cy="24692.9" r="98.4252" /> 
<circle cx="47513.5" cy="23092.9" r="98.4252" /> 
<circle cx="47513.5" cy="22092.9" r="98.4252" /> 
<circle cx="47513.5" cy="21092.9" r="98.4252" /> 
<circle cx="41613.5" cy="24692.9" r="98.4252" /> 
<circle cx="42613.5" cy="24692.9" r="98.4252" /> 
<circle cx="43613.5" cy="24692.9" r="98.4252" /> 
<circle cx="34813.5" cy="14992.9" r="98.4252" /> 
<circle cx="33813.5" cy="14992.9" r="98.4252" /> 
<circle cx="26213.5" cy="21568.9" r="98.4252" /> 
<circle cx="26213.5" cy="18615.9" r="98.4252" /> 
<circle cx="19684.4" cy="13779.5" r="98.4252" /> 
<circle cx="47243.5" cy="13779.5" r="98.4252" /> 
<circle cx="47243.5" cy="27559.1" r="98.4252" /> 
<circle cx="19684.4" cy="27559.1" r="98.4252" /> 
</g>
<g style="fill:#000000; fill-opacity:0.0; 
stroke:#000000; stroke-width:118.11; stroke-opacity:1; 
stroke-linecap:round; stroke-linejoin:round;">
<path d="M31129 31957
L31073 31929
L31045 31901
L31017 31844
L31017 31816
L31045 31760
L31073 31732
L31129 31704
L31242 31704
L31298 31732
L31326 31760
L31354 31816
L31354 31844
L31326 31901
L31298 31929
L31242 31957
L31129 31957
L31073 31985
L31045 32013
L31017 32069
L31017 32182
L31045 32238
L31073 32266
L31129 32294
L31242 32294
L31298 32266
L31326 32238
L31354 32182
L31354 32069
L31326 32013
L31298 31985
L31242 31957
" />
<path d="M31720 31704
L31776 31704
L31832 31732
L31861 31760
L31889 31816
L31917 31929
L31917 32069
L31889 32182
L31861 32238
L31832 32266
L31776 32294
L31720 32294
L31664 32266
L31636 32238
L31607 32182
L31579 32069
L31579 31929
L31607 31816
L31636 31760
L31664 31732
L31720 31704
" />
<path d="M32198 32266
L32198 32294
L32170 32350
L32142 32379
" />
<path d="M32564 31704
L32620 31704
L32676 31732
L32704 31760
L32732 31816
L32760 31929
L32760 32069
L32732 32182
L32704 32238
L32676 32266
L32620 32294
L32564 32294
L32507 32266
L32479 32238
L32451 32182
L32423 32069
L32423 31929
L32451 31816
L32479 31760
L32507 31732
L32564 31704
" />
<path d="M33126 31704
L33182 31704
L33238 31732
L33267 31760
L33295 31816
L33323 31929
L33323 32069
L33295 32182
L33267 32238
L33238 32266
L33182 32294
L33126 32294
L33070 32266
L33042 32238
L33013 32182
L32985 32069
L32985 31929
L33013 31816
L33042 31760
L33070 31732
L33126 31704
" />
<path d="M33688 31704
L33745 31704
L33801 31732
L33829 31760
L33857 31816
L33885 31929
L33885 32069
L33857 32182
L33829 32238
L33801 32266
L33745 32294
L33688 32294
L33632 32266
L33604 32238
L33576 32182
L33548 32069
L33548 31929
L33576 31816
L33604 31760
L33632 31732
L33688 31704
" />
<path d="M34588 32294
L34588 31901
" />
<path d="M34588 31957
L34616 31929
L34673 31901
L34757 31901
L34813 31929
L34841 31985
L34841 32294
" />
<path d="M34841 31985
L34870 31929
L34926 31901
L35010 31901
L35066 31929
L35094 31985
L35094 32294
" />
<path d="M35376 32294
L35376 31901
" />
<path d="M35376 31957
L35404 31929
L35460 31901
L35544 31901
L35601 31929
L35629 31985
L35629 32294
" />
<path d="M35629 31985
L35657 31929
L35713 31901
L35798 31901
L35854 31929
L35882 31985
L35882 32294
" />
<path d="M49211 31496
L17715 31496
" />
<path d="M49211 29527
L49211 32559
" />
<path d="M17715 29527
L17715 32559
" />
<path d="M17715 31496
L18159 31726
" />
<path d="M17715 31496
L18159 31265
" />
<path d="M49211 31496
L48768 31726
" />
<path d="M49211 31496
L48768 31265
" />
<path d="M13373 18503
L12980 18503
" />
<path d="M13598 18363
L13177 18222
L13177 18588
" />
<path d="M13570 19094
L13570 18813
L13289 18785
L13317 18813
L13345 18869
L13345 19010
L13317 19066
L13289 19094
L13233 19122
L13092 19122
L13036 19094
L13008 19066
L12980 19010
L12980 18869
L13008 18813
L13036 18785
" />
<path d="M13008 19403
L12980 19403
L12924 19375
L12895 19347
" />
<path d="M13570 19769
L13570 19825
L13542 19881
L13514 19910
L13458 19938
L13345 19966
L13205 19966
L13092 19938
L13036 19910
L13008 19881
L12980 19825
L12980 19769
L13008 19713
L13036 19685
L13092 19656
L13205 19628
L13345 19628
L13458 19656
L13514 19685
L13542 19713
L13570 19769
" />
<path d="M13570 20331
L13570 20388
L13542 20444
L13514 20472
L13458 20500
L13345 20528
L13205 20528
L13092 20500
L13036 20472
L13008 20444
L12980 20388
L12980 20331
L13008 20275
L13036 20247
L13092 20219
L13205 20191
L13345 20191
L13458 20219
L13514 20247
L13542 20275
L13570 20331
" />
<path d="M13570 20894
L13570 20950
L13542 21006
L13514 21034
L13458 21062
L13345 21091
L13205 21091
L13092 21062
L13036 21034
L13008 21006
L12980 20950
L12980 20894
L13008 20838
L13036 20809
L13092 20781
L13205 20753
L13345 20753
L13458 20781
L13514 20809
L13542 20838
L13570 20894
" />
<path d="M12980 21794
L13373 21794
" />
<path d="M13317 21794
L13345 21822
L13373 21878
L13373 21962
L13345 22019
L13289 22047
L12980 22047
" />
<path d="M13289 22047
L13345 22075
L13373 22131
L13373 22215
L13345 22272
L13289 22300
L12980 22300
" />
<path d="M12980 22581
L13373 22581
" />
<path d="M13317 22581
L13345 22609
L13373 22665
L13373 22750
L13345 22806
L13289 22834
L12980 22834
" />
<path d="M13289 22834
L13345 22862
L13373 22919
L13373 23003
L13345 23059
L13289 23087
L12980 23087
" />
<path d="M13778 29527
L13778 11811
" />
<path d="M17715 29527
L12715 29527
" />
<path d="M17715 11811
L12715 11811
" />
<path d="M13778 11811
L13548 12254
" />
<path d="M13778 11811
L14009 12254
" />
<path d="M13778 29527
L13548 29084
" />
<path d="M13778 29527
L14009 29084
" />
</g>
<g style="fill:#000000; fill-opacity:0.0; 
stroke:#000000; stroke-width:39.3701; stroke-opacity:1; 
stroke-linecap:round; stroke-linejoin:round;">
<path d="M17715 29527
L17715 11811
" />
<path d="M49211 29527
L17715 29527
" />
<path d="M49211 11811
L49211 29527
" />
<path d="M17715 11811
L49211 11811
" />
</g> 
</svg>
