<?xml version="1.0" standalone="no"?>
 <!DOCTYPE svg PUBLIC "-//W3C//DTD SVG 1.1//EN" 
 "http://www.w3.org/Graphics/SVG/1.1/DTD/svg11.dtd"> 
<svg xmlns="http://www.w3.org/2000/svg" version="1.1" 
    width="16.4998cm" height="9.99998cm" viewBox="0 0 64960 39370 ">
<title>SVG Picture created as control_board-brd.svg date 2015/04/13 01:38:32 </title>
  <desc>Picture generated by PCBNEW </desc>
<g style="fill:#000000; fill-opacity:1;stroke:#000000; stroke-opacity:1;
stroke-linecap:round; stroke-linejoin:round; "
 transform="translate(0 0) scale(1 1)">
</g>
<g style="fill:#000000; fill-opacity:0.0; 
stroke:#000000; stroke-width:19.685; stroke-opacity:1; 
stroke-linecap:round; stroke-linejoin:round;">
<path d="M45622 16686
L44204 16686
" />
<path d="M45622 15899
L44204 15899
" />
<path d="M45622 16686
L45622 15899
" />
<path d="M44204 16686
L44204 15899
" />
<path d="M42404 15899
L43822 15899
" />
<path d="M42404 16686
L43822 16686
" />
<path d="M42404 15899
L42404 16686
" />
<path d="M43822 15899
L43822 16686
" />
<path d="M40304 19299
L41722 19299
" />
<path d="M40304 20086
L41722 20086
" />
<path d="M40304 19299
L40304 20086
" />
<path d="M41722 19299
L41722 20086
" />
<path d="M22804 25499
L24222 25499
" />
<path d="M22804 26286
L24222 26286
" />
<path d="M22804 25499
L22804 26286
" />
<path d="M24222 25499
L24222 26286
" />
<path d="M46019 21901
L46019 20484
" />
<path d="M46807 21901
L46807 20484
" />
<path d="M46019 21901
L46807 21901
" />
<path d="M46019 20484
L46807 20484
" />
<path d="M46807 22184
L46807 23601
" />
<path d="M46019 22184
L46019 23601
" />
<path d="M46807 22184
L46019 22184
" />
<path d="M46807 23601
L46019 23601
" />
<path d="M33604 13399
L35022 13399
" />
<path d="M33604 14186
L35022 14186
" />
<path d="M33604 13399
L33604 14186
" />
<path d="M35022 13399
L35022 14186
" />
<path d="M39700 21779
L39700 17606
" />
<path d="M35526 21779
L35526 17606
" />
<path d="M39700 21779
L35526 21779
" />
<path d="M39700 17606
L35526 17606
" />
<path d="M29679 23165
L27947 23165
" />
<path d="M29679 22220
L27947 22220
" />
<path d="M29679 23165
L29679 22220
" />
<path d="M27947 23165
L27947 22220
" />
</g>
<g style="fill:#000000; fill-opacity:0.0; 
stroke:#000000; stroke-width:59.0551; stroke-opacity:1; 
stroke-linecap:round; stroke-linejoin:round;">
<path d="M44716 16627
L45110 16627
" />
<path d="M45110 15958
L44716 15958
" />
<path d="M43310 15958
L42916 15958
" />
<path d="M42916 16627
L43310 16627
" />
<path d="M41210 19358
L40816 19358
" />
<path d="M40816 20027
L41210 20027
" />
<path d="M23710 25558
L23316 25558
" />
<path d="M23316 26227
L23710 26227
" />
<path d="M46078 20996
L46078 21389
" />
<path d="M46748 21389
L46748 20996
" />
<path d="M46748 23089
L46748 22696
" />
<path d="M46078 22696
L46078 23089
" />
<path d="M34510 13458
L34116 13458
" />
<path d="M34116 14127
L34510 14127
" />
<path d="M39040 21120
L39040 20992
" />
<path d="M36186 21120
L36186 20992
" />
<path d="M36186 18265
L36186 18393
" />
<path d="M39040 18265
L39040 18393
" />
<path d="M39040 21120
L38912 21120
" />
<path d="M39040 18265
L38912 18265
" />
<path d="M36186 18265
L36314 18265
" />
<path d="M36186 21120
L36314 21120
" />
<path d="M39040 20992
L39601 20992
" />
<path d="M28419 22269
L29207 22269
" />
<path d="M29207 23116
L28419 23116
" />
<path d="M46316 16908
L41710 16908
" />
<path d="M41710 18876
L46316 18876
" />
<path d="M41710 16908
L41710 17242
" />
<path d="M41710 18876
L41710 18542
" />
<path d="M46316 16908
L46316 17242
" />
<path d="M46316 18876
L46316 18542
" />
<path d="M44797 15583
L44779 15602
L44722 15621
L44685 15621
L44629 15602
L44591 15564
L44572 15527
L44554 15452
L44554 15396
L44572 15321
L44591 15283
L44629 15246
L44685 15227
L44722 15227
L44779 15246
L44797 15264
" />
<path d="M44947 15264
L44966 15246
L45004 15227
L45097 15227
L45135 15246
L45154 15264
L45172 15302
L45172 15339
L45154 15396
L44929 15621
L45172 15621
" />
<path d="M43047 15606
L43029 15625
L42972 15644
L42935 15644
L42879 15625
L42841 15588
L42822 15550
L42804 15475
L42804 15419
L42822 15344
L42841 15306
L42879 15269
L42935 15250
L42972 15250
L43029 15269
L43047 15288
" />
<path d="M43179 15250
L43422 15250
L43291 15400
L43347 15400
L43385 15419
L43404 15438
L43422 15475
L43422 15569
L43404 15606
L43385 15625
L43347 15644
L43235 15644
L43197 15625
L43179 15606
" />
<path d="M40797 20583
L40779 20602
L40722 20621
L40685 20621
L40629 20602
L40591 20564
L40572 20527
L40554 20452
L40554 20396
L40572 20321
L40591 20283
L40629 20246
L40685 20227
L40722 20227
L40779 20246
L40797 20264
" />
<path d="M41135 20358
L41135 20621
" />
<path d="M41041 20208
L40947 20489
L41191 20489
" />
<path d="M22047 26083
L22029 26102
L21972 26121
L21935 26121
L21879 26102
L21841 26064
L21822 26027
L21804 25952
L21804 25896
L21822 25821
L21841 25783
L21879 25746
L21935 25727
L21972 25727
L22029 25746
L22047 25764
" />
<path d="M22404 25727
L22216 25727
L22197 25914
L22216 25896
L22254 25877
L22347 25877
L22385 25896
L22404 25914
L22422 25952
L22422 26046
L22404 26083
L22385 26102
L22347 26121
L22254 26121
L22216 26102
L22197 26083
" />
<path d="M45297 21333
L45279 21352
L45222 21371
L45185 21371
L45129 21352
L45091 21314
L45072 21277
L45054 21202
L45054 21146
L45072 21071
L45091 21033
L45129 20996
L45185 20977
L45222 20977
L45279 20996
L45297 21014
" />
<path d="M45635 20977
L45560 20977
L45522 20996
L45504 21014
L45466 21071
L45447 21146
L45447 21296
L45466 21333
L45485 21352
L45522 21371
L45597 21371
L45635 21352
L45654 21333
L45672 21296
L45672 21202
L45654 21164
L45635 21146
L45597 21127
L45522 21127
L45485 21146
L45466 21164
L45447 21202
" />
<path d="M45297 23083
L45279 23102
L45222 23121
L45185 23121
L45129 23102
L45091 23064
L45072 23027
L45054 22952
L45054 22896
L45072 22821
L45091 22783
L45129 22746
L45185 22727
L45222 22727
L45279 22746
L45297 22764
" />
<path d="M45429 22727
L45691 22727
L45522 23121
" />
<path d="M34247 13106
L34229 13125
L34172 13144
L34135 13144
L34079 13125
L34041 13088
L34022 13050
L34004 12975
L34004 12919
L34022 12844
L34041 12806
L34079 12769
L34135 12750
L34172 12750
L34229 12769
L34247 12788
" />
<path d="M34472 12919
L34435 12900
L34416 12881
L34397 12844
L34397 12825
L34416 12788
L34435 12769
L34472 12750
L34547 12750
L34585 12769
L34604 12788
L34622 12825
L34622 12844
L34604 12881
L34585 12900
L34547 12919
L34472 12919
L34435 12938
L34416 12956
L34397 12994
L34397 13069
L34416 13106
L34435 13125
L34472 13144
L34547 13144
L34585 13125
L34604 13106
L34622 13069
L34622 12994
L34604 12956
L34585 12938
L34547 12919
" />
<path d="M37229 19871
L37229 19477
" />
<path d="M37641 19833
L37622 19852
L37566 19871
L37529 19871
L37472 19852
L37435 19814
L37416 19777
L37397 19702
L37397 19646
L37416 19571
L37435 19533
L37472 19496
L37529 19477
L37566 19477
L37622 19496
L37641 19514
" />
<path d="M38016 19871
L37791 19871
" />
<path d="M37904 19871
L37904 19477
L37866 19533
L37829 19571
L37791 19589
" />
<path d="M28747 23776
L28616 23589
" />
<path d="M28522 23776
L28522 23382
L28672 23382
L28710 23401
L28729 23420
L28747 23457
L28747 23514
L28729 23551
L28710 23570
L28672 23589
L28522 23589
" />
<path d="M29122 23776
L28897 23776
" />
<path d="M29010 23776
L29010 23382
L28972 23439
L28935 23476
L28897 23495
" />
<path d="M43926 19433
L43926 19621
" />
<path d="M43794 19227
L43926 19433
L44057 19227
" />
<path d="M44394 19621
L44169 19621
" />
<path d="M44282 19621
L44282 19227
L44244 19283
L44207 19321
L44169 19339
" />
</g>
<g style="fill:#000000; fill-opacity:0.0; 
stroke:#000000; stroke-width:118.11; stroke-opacity:1; 
stroke-linecap:round; stroke-linejoin:round;">
<path d="M31129 31957
L31073 31929
L31045 31901
L31017 31844
L31017 31816
L31045 31760
L31073 31732
L31129 31704
L31242 31704
L31298 31732
L31326 31760
L31354 31816
L31354 31844
L31326 31901
L31298 31929
L31242 31957
L31129 31957
L31073 31985
L31045 32013
L31017 32069
L31017 32182
L31045 32238
L31073 32266
L31129 32294
L31242 32294
L31298 32266
L31326 32238
L31354 32182
L31354 32069
L31326 32013
L31298 31985
L31242 31957
" />
<path d="M31720 31704
L31776 31704
L31832 31732
L31861 31760
L31889 31816
L31917 31929
L31917 32069
L31889 32182
L31861 32238
L31832 32266
L31776 32294
L31720 32294
L31664 32266
L31636 32238
L31607 32182
L31579 32069
L31579 31929
L31607 31816
L31636 31760
L31664 31732
L31720 31704
" />
<path d="M32198 32266
L32198 32294
L32170 32350
L32142 32379
" />
<path d="M32564 31704
L32620 31704
L32676 31732
L32704 31760
L32732 31816
L32760 31929
L32760 32069
L32732 32182
L32704 32238
L32676 32266
L32620 32294
L32564 32294
L32507 32266
L32479 32238
L32451 32182
L32423 32069
L32423 31929
L32451 31816
L32479 31760
L32507 31732
L32564 31704
" />
<path d="M33126 31704
L33182 31704
L33238 31732
L33267 31760
L33295 31816
L33323 31929
L33323 32069
L33295 32182
L33267 32238
L33238 32266
L33182 32294
L33126 32294
L33070 32266
L33042 32238
L33013 32182
L32985 32069
L32985 31929
L33013 31816
L33042 31760
L33070 31732
L33126 31704
" />
<path d="M33688 31704
L33745 31704
L33801 31732
L33829 31760
L33857 31816
L33885 31929
L33885 32069
L33857 32182
L33829 32238
L33801 32266
L33745 32294
L33688 32294
L33632 32266
L33604 32238
L33576 32182
L33548 32069
L33548 31929
L33576 31816
L33604 31760
L33632 31732
L33688 31704
" />
<path d="M34588 32294
L34588 31901
" />
<path d="M34588 31957
L34616 31929
L34673 31901
L34757 31901
L34813 31929
L34841 31985
L34841 32294
" />
<path d="M34841 31985
L34870 31929
L34926 31901
L35010 31901
L35066 31929
L35094 31985
L35094 32294
" />
<path d="M35376 32294
L35376 31901
" />
<path d="M35376 31957
L35404 31929
L35460 31901
L35544 31901
L35601 31929
L35629 31985
L35629 32294
" />
<path d="M35629 31985
L35657 31929
L35713 31901
L35798 31901
L35854 31929
L35882 31985
L35882 32294
" />
<path d="M49211 31496
L17715 31496
" />
<path d="M49211 29527
L49211 32559
" />
<path d="M17715 29527
L17715 32559
" />
<path d="M17715 31496
L18159 31726
" />
<path d="M17715 31496
L18159 31265
" />
<path d="M49211 31496
L48768 31726
" />
<path d="M49211 31496
L48768 31265
" />
<path d="M13373 18503
L12980 18503
" />
<path d="M13598 18363
L13177 18222
L13177 18588
" />
<path d="M13570 19094
L13570 18813
L13289 18785
L13317 18813
L13345 18869
L13345 19010
L13317 19066
L13289 19094
L13233 19122
L13092 19122
L13036 19094
L13008 19066
L12980 19010
L12980 18869
L13008 18813
L13036 18785
" />
<path d="M13008 19403
L12980 19403
L12924 19375
L12895 19347
" />
<path d="M13570 19769
L13570 19825
L13542 19881
L13514 19910
L13458 19938
L13345 19966
L13205 19966
L13092 19938
L13036 19910
L13008 19881
L12980 19825
L12980 19769
L13008 19713
L13036 19685
L13092 19656
L13205 19628
L13345 19628
L13458 19656
L13514 19685
L13542 19713
L13570 19769
" />
<path d="M13570 20331
L13570 20388
L13542 20444
L13514 20472
L13458 20500
L13345 20528
L13205 20528
L13092 20500
L13036 20472
L13008 20444
L12980 20388
L12980 20331
L13008 20275
L13036 20247
L13092 20219
L13205 20191
L13345 20191
L13458 20219
L13514 20247
L13542 20275
L13570 20331
" />
<path d="M13570 20894
L13570 20950
L13542 21006
L13514 21034
L13458 21062
L13345 21091
L13205 21091
L13092 21062
L13036 21034
L13008 21006
L12980 20950
L12980 20894
L13008 20838
L13036 20809
L13092 20781
L13205 20753
L13345 20753
L13458 20781
L13514 20809
L13542 20838
L13570 20894
" />
<path d="M12980 21794
L13373 21794
" />
<path d="M13317 21794
L13345 21822
L13373 21878
L13373 21962
L13345 22019
L13289 22047
L12980 22047
" />
<path d="M13289 22047
L13345 22075
L13373 22131
L13373 22215
L13345 22272
L13289 22300
L12980 22300
" />
<path d="M12980 22581
L13373 22581
" />
<path d="M13317 22581
L13345 22609
L13373 22665
L13373 22750
L13345 22806
L13289 22834
L12980 22834
" />
<path d="M13289 22834
L13345 22862
L13373 22919
L13373 23003
L13345 23059
L13289 23087
L12980 23087
" />
<path d="M13778 29527
L13778 11811
" />
<path d="M17715 29527
L12715 29527
" />
<path d="M17715 11811
L12715 11811
" />
<path d="M13778 11811
L13548 12254
" />
<path d="M13778 11811
L14009 12254
" />
<path d="M13778 29527
L13548 29084
" />
<path d="M13778 29527
L14009 29084
" />
</g>
<g style="fill:#000000; fill-opacity:0.0; 
stroke:#000000; stroke-width:39.3701; stroke-opacity:1; 
stroke-linecap:round; stroke-linejoin:round;">
<path d="M17715 29527
L17715 11811
" />
<path d="M49211 29527
L17715 29527
" />
<path d="M49211 11811
L49211 29527
" />
<path d="M17715 11811
L49211 11811
" />
</g> 
</svg>
