<?xml version="1.0" encoding="UTF-8" standalone="no"?>
<svg
   xmlns:dc="http://purl.org/dc/elements/1.1/"
   xmlns:cc="http://creativecommons.org/ns#"
   xmlns:rdf="http://www.w3.org/1999/02/22-rdf-syntax-ns#"
   xmlns:svg="http://www.w3.org/2000/svg"
   xmlns="http://www.w3.org/2000/svg"
   xmlns:sodipodi="http://sodipodi.sourceforge.net/DTD/sodipodi-0.dtd"
   xmlns:inkscape="http://www.inkscape.org/namespaces/inkscape"
   version="1.1"
   width="16.4998cm"
   height="9.99998cm"
   viewBox="0 0 64960 39370 "
   id="svg2"
   inkscape:version="0.48.4 r9939"
   sodipodi:docname="control_board-brd.svg">
  <metadata
     id="metadata722">
    <rdf:RDF>
      <cc:Work
         rdf:about="">
        <dc:format>image/svg+xml</dc:format>
        <dc:type
           rdf:resource="http://purl.org/dc/dcmitype/StillImage" />
      </cc:Work>
    </rdf:RDF>
  </metadata>
  <defs
     id="defs720" />
  <sodipodi:namedview
     pagecolor="#ffffff"
     bordercolor="#666666"
     borderopacity="1"
     objecttolerance="10"
     gridtolerance="10"
     guidetolerance="10"
     inkscape:pageopacity="0"
     inkscape:pageshadow="2"
     inkscape:window-width="1440"
     inkscape:window-height="824"
     id="namedview718"
     showgrid="false"
     inkscape:zoom="2.1620196"
     inkscape:cx="377.98418"
     inkscape:cy="199.95382"
     inkscape:window-x="0"
     inkscape:window-y="25"
     inkscape:window-maximized="1"
     inkscape:current-layer="svg2" />
  <title
     id="title4">SVG Picture created as control_board-brd.svg date 2015/04/13 01:49:24 </title>
  <desc
     id="desc6">Picture generated by PCBNEW </desc>
  <path
     style="fill:#000000;fill-opacity:0;stroke:#000000;stroke-width:196.8500061;stroke-linecap:round;stroke-linejoin:round;stroke-opacity:1"
     inkscape:connector-curvature="0"
     id="path240"
     d="m 37446,16492 0,3500" />
  <path
     style="fill:#000000;fill-opacity:0;stroke:#000000;stroke-width:196.8500061;stroke-linecap:round;stroke-linejoin:round;stroke-opacity:1"
     inkscape:connector-curvature="0"
     id="path242"
     d="m 34946,19992 0,-3500" />
  <path
     style="fill:#000000;fill-opacity:0;stroke:#000000;stroke-width:196.8500061;stroke-linecap:round;stroke-linejoin:round;stroke-opacity:1"
     inkscape:connector-curvature="0"
     id="path244"
     d="m 17146,16492 0,3500" />
  <path
     style="fill:#000000;fill-opacity:0;stroke:#000000;stroke-width:196.8500061;stroke-linecap:round;stroke-linejoin:round;stroke-opacity:1"
     inkscape:connector-curvature="0"
     id="path246"
     d="m 17146,19992 0,0" />
  <circle
     style="fill:#ffffff;fill-opacity:1;stroke:#ffffff;stroke-width:39.37009811;stroke-linecap:round;stroke-linejoin:round;stroke-opacity:1"
     sodipodi:ry="98.425201"
     sodipodi:rx="98.425201"
     sodipodi:cy="16592.9"
     sodipodi:cx="43746.5"
     id="circle288"
     r="98.425201"
     cy="16592.9"
     cx="43746.5" />
  <circle
     style="fill:#ffffff;fill-opacity:1;stroke:#ffffff;stroke-width:39.37009811;stroke-linecap:round;stroke-linejoin:round;stroke-opacity:1"
     sodipodi:ry="98.425201"
     sodipodi:rx="98.425201"
     sodipodi:cy="20692.9"
     sodipodi:cx="42946.5"
     id="circle320"
     r="98.425201"
     cy="20692.9"
     cx="42946.5" />
  <circle
     style="fill:#ffffff;fill-opacity:1;stroke:#ffffff;stroke-width:39.37009811;stroke-linecap:round;stroke-linejoin:round;stroke-opacity:1"
     sodipodi:ry="98.425201"
     sodipodi:rx="98.425201"
     sodipodi:cy="24692.9"
     sodipodi:cx="40946.5"
     id="circle326"
     r="98.425201"
     cy="24692.9"
     cx="40946.5" />
  <circle
     style="fill:#ffffff;fill-opacity:1;stroke:#ffffff;stroke-width:39.37009811;stroke-linecap:round;stroke-linejoin:round;stroke-opacity:1"
     sodipodi:ry="98.425201"
     sodipodi:rx="98.425201"
     sodipodi:cy="15092.9"
     sodipodi:cx="28446.5"
     id="circle336"
     r="98.425201"
     cy="15092.9"
     cx="28446.5" />
  <circle
     style="fill:#ffffff;fill-opacity:1;stroke:#ffffff;stroke-width:39.37009811;stroke-linecap:round;stroke-linejoin:round;stroke-opacity:1"
     sodipodi:ry="98.425201"
     sodipodi:rx="98.425201"
     sodipodi:cy="24692.9"
     sodipodi:cx="38746.5"
     id="circle354"
     r="98.425201"
     cy="24692.9"
     cx="38746.5" />
  <circle
     style="fill:#ffffff;fill-opacity:1;stroke:#ffffff;stroke-width:39.37009811;stroke-linecap:round;stroke-linejoin:round;stroke-opacity:1"
     sodipodi:ry="98.425201"
     sodipodi:rx="98.425201"
     sodipodi:cy="14992.9"
     sodipodi:cx="30146.5"
     id="circle370"
     r="98.425201"
     cy="14992.9"
     cx="30146.5" />
  <circle
     style="fill:#ffffff;fill-opacity:1;stroke:#ffffff;stroke-width:39.37009811;stroke-linecap:round;stroke-linejoin:round;stroke-opacity:1"
     sodipodi:ry="98.425201"
     sodipodi:rx="98.425201"
     sodipodi:cy="13779.5"
     sodipodi:cx="45275.602"
     id="circle378"
     r="98.425201"
     cy="13779.5"
     cx="45275.602" />
  <path
     style="fill:#000000;fill-opacity:0;stroke:#000000;stroke-width:59.05509949;stroke-linecap:round;stroke-linejoin:round;stroke-opacity:1"
     inkscape:connector-curvature="0"
     id="path390"
     d="m 41236,18532 0,-380" />
  <path
     style="fill:#000000;fill-opacity:0;stroke:#000000;stroke-width:59.05509949;stroke-linecap:round;stroke-linejoin:round;stroke-opacity:1"
     inkscape:connector-curvature="0"
     id="path392"
     d="m 41046,18332 380,0" />
  <circle
     style="fill:#000000;fill-opacity:0;stroke:#000000;stroke-width:59.05509949;stroke-linecap:round;stroke-linejoin:round;stroke-opacity:1"
     sodipodi:ry="1000"
     sodipodi:rx="1000"
     sodipodi:cy="18092.9"
     sodipodi:cx="41846.5"
     id="circle394"
     r="1000"
     cy="18092.9"
     cx="41846.5" />
  <path
     style="fill:#000000;fill-opacity:0;stroke:#000000;stroke-width:120;stroke-linecap:round;stroke-linejoin:round;stroke-opacity:1"
     inkscape:connector-curvature="0"
     id="path398"
     d="m 32351,15543 8189,0" />
  <path
     style="fill:#000000;fill-opacity:0;stroke:#000000;stroke-width:120;stroke-linecap:round;stroke-linejoin:round;stroke-opacity:1"
     inkscape:connector-curvature="0"
     id="path400"
     d="m 40540,11842 -8189,0" />
  <path
     style="fill:#000000;fill-opacity:0;stroke:#000000;stroke-width:120;stroke-linecap:round;stroke-linejoin:round;stroke-opacity:1"
     inkscape:connector-curvature="0"
     id="path402"
     d="m 32351,11842 0,3701" />
  <path
     style="fill:#000000;fill-opacity:0;stroke:#000000;stroke-width:120;stroke-linecap:round;stroke-linejoin:round;stroke-opacity:1"
     inkscape:connector-curvature="0"
     id="path404"
     d="m 40540,11842 0,3701" />
  <path
     style="fill:#000000;fill-opacity:0;stroke:#000000;stroke-width:118;stroke-linecap:round;stroke-linejoin:round;stroke-opacity:1"
     inkscape:connector-curvature="0"
     id="path408"
     d="m 37351,15543 0,-551" />
  <path
     style="fill:#000000;fill-opacity:0;stroke:#000000;stroke-width:118;stroke-linecap:round;stroke-linejoin:round;stroke-opacity:1"
     inkscape:connector-curvature="0"
     id="path410"
     d="m 37351,14992 -1811,0" />
  <path
     style="fill:#000000;fill-opacity:0;stroke:#000000;stroke-width:118;stroke-linecap:round;stroke-linejoin:round;stroke-opacity:1"
     inkscape:connector-curvature="0"
     id="path412"
     d="m 35540,14992 0,551" />
  <path
     style="fill:#000000;fill-opacity:0;stroke:#000000;stroke-width:120;stroke-linecap:round;stroke-linejoin:round;stroke-opacity:1"
     inkscape:connector-curvature="0"
     id="path416"
     d="m 45459,14522 0,6141" />
  <path
     style="fill:#000000;fill-opacity:0;stroke:#000000;stroke-width:120;stroke-linecap:round;stroke-linejoin:round;stroke-opacity:1"
     inkscape:connector-curvature="0"
     id="path418"
     d="m 49159,20663 0,-6141" />
  <path
     style="fill:#000000;fill-opacity:0;stroke:#000000;stroke-width:120;stroke-linecap:round;stroke-linejoin:round;stroke-opacity:1"
     inkscape:connector-curvature="0"
     id="path420"
     d="m 49159,14522 -3700,0" />
  <path
     style="fill:#000000;fill-opacity:0;stroke:#000000;stroke-width:120;stroke-linecap:round;stroke-linejoin:round;stroke-opacity:1"
     inkscape:connector-curvature="0"
     id="path422"
     d="m 49159,20663 -3700,0" />
  <path
     style="fill:#000000;fill-opacity:0;stroke:#000000;stroke-width:118;stroke-linecap:round;stroke-linejoin:round;stroke-opacity:1"
     inkscape:connector-curvature="0"
     id="path426"
     d="m 49159,18498 -3700,0" />
  <path
     style="fill:#000000;fill-opacity:0;stroke:#000000;stroke-width:118;stroke-linecap:round;stroke-linejoin:round;stroke-opacity:1"
     inkscape:connector-curvature="0"
     id="path428"
     d="m 49159,16687 -3700,0" />
  <path
     style="fill:#000000;fill-opacity:0;stroke:#000000;stroke-width:120;stroke-linecap:round;stroke-linejoin:round;stroke-opacity:1"
     inkscape:connector-curvature="0"
     id="path432"
     d="m 18451,12480 8189,0" />
  <path
     style="fill:#000000;fill-opacity:0;stroke:#000000;stroke-width:120;stroke-linecap:round;stroke-linejoin:round;stroke-opacity:1"
     inkscape:connector-curvature="0"
     id="path434"
     d="m 26640,8779 -8189,0" />
  <path
     style="fill:#000000;fill-opacity:0;stroke:#000000;stroke-width:120;stroke-linecap:round;stroke-linejoin:round;stroke-opacity:1"
     inkscape:connector-curvature="0"
     id="path436"
     d="m 18451,8779 0,3701" />
  <path
     style="fill:#000000;fill-opacity:0;stroke:#000000;stroke-width:120;stroke-linecap:round;stroke-linejoin:round;stroke-opacity:1"
     inkscape:connector-curvature="0"
     id="path438"
     d="m 26640,8779 0,3701" />
  <path
     style="fill:#000000;fill-opacity:0;stroke:#000000;stroke-width:118;stroke-linecap:round;stroke-linejoin:round;stroke-opacity:1"
     inkscape:connector-curvature="0"
     id="path442"
     d="m 23451,8779 0,3701" />
  <path
     style="fill:#000000;fill-opacity:0;stroke:#000000;stroke-width:118;stroke-linecap:round;stroke-linejoin:round;stroke-opacity:1"
     inkscape:connector-curvature="0"
     id="path444"
     d="m 21640,8779 0,3701" />
  <path
     style="fill:#000000;fill-opacity:0;stroke:#000000;stroke-width:59.05509949;stroke-linecap:round;stroke-linejoin:round;stroke-opacity:1"
     inkscape:connector-curvature="0"
     id="path448"
     d="m 42452,22362 0,-1339" />
  <path
     style="fill:#000000;fill-opacity:0;stroke:#000000;stroke-width:59.05509949;stroke-linecap:round;stroke-linejoin:round;stroke-opacity:1"
     inkscape:connector-curvature="0"
     id="path450"
     d="m 42751,22362 0,-1339" />
  <path
     style="fill:#000000;fill-opacity:0;stroke:#000000;stroke-width:59.05509949;stroke-linecap:round;stroke-linejoin:round;stroke-opacity:1"
     inkscape:connector-curvature="0"
     id="path452"
     d="m 41070,23568 0,-3752" />
  <path
     style="fill:#000000;fill-opacity:0;stroke:#000000;stroke-width:59.05509949;stroke-linecap:round;stroke-linejoin:round;stroke-opacity:1"
     inkscape:connector-curvature="0"
     id="path454"
     d="m 41070,19816 3752,0" />
  <path
     style="fill:#000000;fill-opacity:0;stroke:#000000;stroke-width:59.05509949;stroke-linecap:round;stroke-linejoin:round;stroke-opacity:1"
     inkscape:connector-curvature="0"
     id="path456"
     d="m 44822,19816 0,3752" />
  <path
     style="fill:#000000;fill-opacity:0;stroke:#000000;stroke-width:59.05509949;stroke-linecap:round;stroke-linejoin:round;stroke-opacity:1"
     inkscape:connector-curvature="0"
     id="path458"
     d="m 44822,23568 -3752,0" />
  <circle
     style="fill:#000000;fill-opacity:0;stroke:#000000;stroke-width:59.05509949;stroke-linecap:round;stroke-linejoin:round;stroke-opacity:1"
     sodipodi:ry="709.34399"
     sodipodi:rx="709.34399"
     sodipodi:cy="21692.9"
     sodipodi:cx="42602"
     id="circle460"
     r="709.34399"
     cy="21692.9"
     cx="42602" />
  <path
     style="fill:#000000;fill-opacity:0;stroke:#000000;stroke-width:120;stroke-linecap:round;stroke-linejoin:round;stroke-opacity:1"
     inkscape:connector-curvature="0"
     id="path464"
     d="m 41446,25192 0,-1000" />
  <path
     style="fill:#000000;fill-opacity:0;stroke:#000000;stroke-width:120;stroke-linecap:round;stroke-linejoin:round;stroke-opacity:1"
     inkscape:connector-curvature="0"
     id="path466"
     d="m 40446,24192 3000,0" />
  <path
     style="fill:#000000;fill-opacity:0;stroke:#000000;stroke-width:120;stroke-linecap:round;stroke-linejoin:round;stroke-opacity:1"
     inkscape:connector-curvature="0"
     id="path468"
     d="m 43446,24192 0,1000" />
  <path
     style="fill:#000000;fill-opacity:0;stroke:#000000;stroke-width:120;stroke-linecap:round;stroke-linejoin:round;stroke-opacity:1"
     inkscape:connector-curvature="0"
     id="path470"
     d="m 43446,25192 -3000,0" />
  <path
     style="fill:#000000;fill-opacity:0;stroke:#000000;stroke-width:120;stroke-linecap:round;stroke-linejoin:round;stroke-opacity:1"
     inkscape:connector-curvature="0"
     id="path472"
     d="m 40446,25192 0,-1000" />
  <path
     style="fill:#000000;fill-opacity:0;stroke:#000000;stroke-width:120;stroke-linecap:round;stroke-linejoin:round;stroke-opacity:1"
     inkscape:connector-curvature="0"
     id="path474"
     d="m 26946,15592 0,-1000" />
  <path
     style="fill:#000000;fill-opacity:0;stroke:#000000;stroke-width:120;stroke-linecap:round;stroke-linejoin:round;stroke-opacity:1"
     inkscape:connector-curvature="0"
     id="path476"
     d="m 25946,14592 3000,0" />
  <path
     style="fill:#000000;fill-opacity:0;stroke:#000000;stroke-width:120;stroke-linecap:round;stroke-linejoin:round;stroke-opacity:1"
     inkscape:connector-curvature="0"
     id="path478"
     d="m 28946,14592 0,1000" />
  <path
     style="fill:#000000;fill-opacity:0;stroke:#000000;stroke-width:120;stroke-linecap:round;stroke-linejoin:round;stroke-opacity:1"
     inkscape:connector-curvature="0"
     id="path480"
     d="m 28946,15592 -3000,0" />
  <path
     style="fill:#000000;fill-opacity:0;stroke:#000000;stroke-width:120;stroke-linecap:round;stroke-linejoin:round;stroke-opacity:1"
     inkscape:connector-curvature="0"
     id="path482"
     d="m 25946,15592 0,-1000" />
  <path
     style="fill:#000000;fill-opacity:0;stroke:#000000;stroke-width:120;stroke-linecap:round;stroke-linejoin:round;stroke-opacity:1"
     inkscape:connector-curvature="0"
     id="path484"
     d="m 31946,25192 0,-1000" />
  <path
     style="fill:#000000;fill-opacity:0;stroke:#000000;stroke-width:120;stroke-linecap:round;stroke-linejoin:round;stroke-opacity:1"
     inkscape:connector-curvature="0"
     id="path486"
     d="m 32946,25192 -8000,0" />
  <path
     style="fill:#000000;fill-opacity:0;stroke:#000000;stroke-width:120;stroke-linecap:round;stroke-linejoin:round;stroke-opacity:1"
     inkscape:connector-curvature="0"
     id="path488"
     d="m 24946,25192 0,-1000" />
  <path
     style="fill:#000000;fill-opacity:0;stroke:#000000;stroke-width:120;stroke-linecap:round;stroke-linejoin:round;stroke-opacity:1"
     inkscape:connector-curvature="0"
     id="path490"
     d="m 24946,24192 8000,0" />
  <path
     style="fill:#000000;fill-opacity:0;stroke:#000000;stroke-width:120;stroke-linecap:round;stroke-linejoin:round;stroke-opacity:1"
     inkscape:connector-curvature="0"
     id="path492"
     d="m 32946,24192 0,1000" />
  <path
     style="fill:#000000;fill-opacity:0;stroke:#000000;stroke-width:120;stroke-linecap:round;stroke-linejoin:round;stroke-opacity:1"
     inkscape:connector-curvature="0"
     id="path494"
     d="m 38246,25192 0,-1000" />
  <path
     style="fill:#000000;fill-opacity:0;stroke:#000000;stroke-width:120;stroke-linecap:round;stroke-linejoin:round;stroke-opacity:1"
     inkscape:connector-curvature="0"
     id="path496"
     d="m 38246,24192 1000,1000" />
  <path
     style="fill:#000000;fill-opacity:0;stroke:#000000;stroke-width:120;stroke-linecap:round;stroke-linejoin:round;stroke-opacity:1"
     inkscape:connector-curvature="0"
     id="path498"
     d="m 39246,24192 -1000,1000" />
  <path
     style="fill:#000000;fill-opacity:0;stroke:#000000;stroke-width:120;stroke-linecap:round;stroke-linejoin:round;stroke-opacity:1"
     inkscape:connector-curvature="0"
     id="path500"
     d="m 37246,24192 2000,0" />
  <path
     style="fill:#000000;fill-opacity:0;stroke:#000000;stroke-width:120;stroke-linecap:round;stroke-linejoin:round;stroke-opacity:1"
     inkscape:connector-curvature="0"
     id="path502"
     d="m 39246,25192 -2000,0" />
  <path
     style="fill:#000000;fill-opacity:0;stroke:#000000;stroke-width:120;stroke-linecap:round;stroke-linejoin:round;stroke-opacity:1"
     inkscape:connector-curvature="0"
     id="path504"
     d="m 39246,24192 0,1000" />
  <path
     style="fill:#000000;fill-opacity:0;stroke:#000000;stroke-width:120;stroke-linecap:round;stroke-linejoin:round;stroke-opacity:1"
     inkscape:connector-curvature="0"
     id="path506"
     d="m 37246,25192 0,-1000" />
  <path
     style="fill:#000000;fill-opacity:0;stroke:#000000;stroke-width:120;stroke-linecap:round;stroke-linejoin:round;stroke-opacity:1"
     inkscape:connector-curvature="0"
     id="path508"
     d="m 17946,22592 -1000,0" />
  <path
     style="fill:#000000;fill-opacity:0;stroke:#000000;stroke-width:120;stroke-linecap:round;stroke-linejoin:round;stroke-opacity:1"
     inkscape:connector-curvature="0"
     id="path510"
     d="m 16946,23592 0,-3000" />
  <path
     style="fill:#000000;fill-opacity:0;stroke:#000000;stroke-width:120;stroke-linecap:round;stroke-linejoin:round;stroke-opacity:1"
     inkscape:connector-curvature="0"
     id="path512"
     d="m 16946,20592 1000,0" />
  <path
     style="fill:#000000;fill-opacity:0;stroke:#000000;stroke-width:120;stroke-linecap:round;stroke-linejoin:round;stroke-opacity:1"
     inkscape:connector-curvature="0"
     id="path514"
     d="m 17946,20592 0,3000" />
  <path
     style="fill:#000000;fill-opacity:0;stroke:#000000;stroke-width:120;stroke-linecap:round;stroke-linejoin:round;stroke-opacity:1"
     inkscape:connector-curvature="0"
     id="path516"
     d="m 17946,23592 -1000,0" />
  <path
     style="fill:#000000;fill-opacity:0;stroke:#000000;stroke-width:120;stroke-linecap:round;stroke-linejoin:round;stroke-opacity:1"
     inkscape:connector-curvature="0"
     id="path518"
     d="m 22846,24192 0,1000" />
  <path
     style="fill:#000000;fill-opacity:0;stroke:#000000;stroke-width:120;stroke-linecap:round;stroke-linejoin:round;stroke-opacity:1"
     inkscape:connector-curvature="0"
     id="path520"
     d="m 23846,25192 -3000,0" />
  <path
     style="fill:#000000;fill-opacity:0;stroke:#000000;stroke-width:120;stroke-linecap:round;stroke-linejoin:round;stroke-opacity:1"
     inkscape:connector-curvature="0"
     id="path522"
     d="m 20846,25192 0,-1000" />
  <path
     style="fill:#000000;fill-opacity:0;stroke:#000000;stroke-width:120;stroke-linecap:round;stroke-linejoin:round;stroke-opacity:1"
     inkscape:connector-curvature="0"
     id="path524"
     d="m 20846,24192 3000,0" />
  <path
     style="fill:#000000;fill-opacity:0;stroke:#000000;stroke-width:120;stroke-linecap:round;stroke-linejoin:round;stroke-opacity:1"
     inkscape:connector-curvature="0"
     id="path526"
     d="m 23846,24192 0,1000" />
  <path
     style="fill:#000000;fill-opacity:0;stroke:#000000;stroke-width:120;stroke-linecap:round;stroke-linejoin:round;stroke-opacity:1"
     inkscape:connector-curvature="0"
     id="path528"
     d="m 29646,15492 1000,-1000" />
  <path
     style="fill:#000000;fill-opacity:0;stroke:#000000;stroke-width:120;stroke-linecap:round;stroke-linejoin:round;stroke-opacity:1"
     inkscape:connector-curvature="0"
     id="path530"
     d="m 31646,15492 -2000,0" />
  <path
     style="fill:#000000;fill-opacity:0;stroke:#000000;stroke-width:120;stroke-linecap:round;stroke-linejoin:round;stroke-opacity:1"
     inkscape:connector-curvature="0"
     id="path532"
     d="m 29646,14492 2000,0" />
  <path
     style="fill:#000000;fill-opacity:0;stroke:#000000;stroke-width:120;stroke-linecap:round;stroke-linejoin:round;stroke-opacity:1"
     inkscape:connector-curvature="0"
     id="path534"
     d="m 29646,15492 0,-1000" />
  <path
     style="fill:#000000;fill-opacity:0;stroke:#000000;stroke-width:120;stroke-linecap:round;stroke-linejoin:round;stroke-opacity:1"
     inkscape:connector-curvature="0"
     id="path536"
     d="m 31646,14492 0,1000" />
  <path
     style="fill:#000000;fill-opacity:0;stroke:#000000;stroke-width:59.05509949;stroke-linecap:round;stroke-linejoin:round;stroke-opacity:1"
     inkscape:connector-curvature="0"
     id="path540"
     d="m 38746,19599 0,-354" />
  <circle
     style="fill:#000000;fill-opacity:0;stroke:#000000;stroke-width:59.05509949;stroke-linecap:round;stroke-linejoin:round;stroke-opacity:1"
     sodipodi:ry="1969"
     sodipodi:rx="1969"
     sodipodi:cy="21568.9"
     sodipodi:cx="38746.5"
     id="circle542"
     r="1969"
     cy="21568.9"
     cx="38746.5" />
  <path
     style="fill:#000000;fill-opacity:0;stroke:#000000;stroke-width:59.05509949;stroke-linecap:round;stroke-linejoin:round;stroke-opacity:1"
     inkscape:connector-curvature="0"
     id="path544"
     d="m 40280,18333 -18,19 -57,19 -37,0 -56,-19 -38,-38 -19,-37 -18,-75 0,-56 18,-75 19,-38 38,-37 56,-19 37,0 57,19 18,18" />
  <path
     style="fill:#000000;fill-opacity:0;stroke:#000000;stroke-width:59.05509949;stroke-linecap:round;stroke-linejoin:round;stroke-opacity:1"
     inkscape:connector-curvature="0"
     id="path546"
     d="m 40655,18371 -225,0" />
  <path
     style="fill:#000000;fill-opacity:0;stroke:#000000;stroke-width:59.05509949;stroke-linecap:round;stroke-linejoin:round;stroke-opacity:1"
     inkscape:connector-curvature="0"
     id="path548"
     d="m 40543,18371 0,-394 -38,56 -37,38 -38,18" />
  <path
     style="fill:#000000;fill-opacity:0;stroke:#000000;stroke-width:80;stroke-linecap:round;stroke-linejoin:round;stroke-opacity:1"
     inkscape:connector-curvature="0"
     id="path552"
     d="m 39368,16083 -19,19 -56,19 -38,0 -56,-19 -37,-38 -19,-37 -19,-75 0,-56 19,-75 19,-38 37,-37 56,-19 38,0 56,19 19,18" />
  <path
     style="fill:#000000;fill-opacity:0;stroke:#000000;stroke-width:80;stroke-linecap:round;stroke-linejoin:round;stroke-opacity:1"
     inkscape:connector-curvature="0"
     id="path554"
     d="m 39612,15727 75,0 37,19 38,37 18,75 0,131 -18,75 -38,38 -37,19 -75,0 -38,-19 -37,-38 -19,-75 0,-131 19,-75 37,-37 38,-19" />
  <path
     style="fill:#000000;fill-opacity:0;stroke:#000000;stroke-width:80;stroke-linecap:round;stroke-linejoin:round;stroke-opacity:1"
     inkscape:connector-curvature="0"
     id="path556"
     d="m 39949,16121 0,-394 225,394 0,-394" />
  <path
     style="fill:#000000;fill-opacity:0;stroke:#000000;stroke-width:80;stroke-linecap:round;stroke-linejoin:round;stroke-opacity:1"
     inkscape:connector-curvature="0"
     id="path558"
     d="m 40568,16121 -225,0" />
  <path
     style="fill:#000000;fill-opacity:0;stroke:#000000;stroke-width:80;stroke-linecap:round;stroke-linejoin:round;stroke-opacity:1"
     inkscape:connector-curvature="0"
     id="path560"
     d="m 40455,16121 0,-394 -37,56 -38,38 -37,18" />
  <path
     style="fill:#000000;fill-opacity:0;stroke:#000000;stroke-width:80;stroke-linecap:round;stroke-linejoin:round;stroke-opacity:1"
     inkscape:connector-curvature="0"
     id="path562"
     d="m 47805,21371 0,-394 150,0 38,19 19,18 18,38 0,56 -18,38 -19,18 -38,19 -150,0" />
  <path
     style="fill:#000000;fill-opacity:0;stroke:#000000;stroke-width:80;stroke-linecap:round;stroke-linejoin:round;stroke-opacity:1"
     inkscape:connector-curvature="0"
     id="path564"
     d="m 48405,21371 -225,0" />
  <path
     style="fill:#000000;fill-opacity:0;stroke:#000000;stroke-width:80;stroke-linecap:round;stroke-linejoin:round;stroke-opacity:1"
     inkscape:connector-curvature="0"
     id="path566"
     d="m 48293,21371 0,-394 -38,56 -37,38 -38,18" />
  <path
     style="fill:#000000;fill-opacity:0;stroke:#000000;stroke-width:80;stroke-linecap:round;stroke-linejoin:round;stroke-opacity:1"
     inkscape:connector-curvature="0"
     id="path568"
     d="m 25805,13121 0,-394 150,0 38,19 19,18 18,38 0,56 -18,38 -19,18 -38,19 -150,0" />
  <path
     style="fill:#000000;fill-opacity:0;stroke:#000000;stroke-width:80;stroke-linecap:round;stroke-linejoin:round;stroke-opacity:1"
     inkscape:connector-curvature="0"
     id="path570"
     d="m 26180,12764 19,-18 38,-19 93,0 38,19 19,18 18,38 0,37 -18,57 -225,225 243,0" />
  <path
     style="fill:#000000;fill-opacity:0;stroke:#000000;stroke-width:59.05509949;stroke-linecap:round;stroke-linejoin:round;stroke-opacity:1"
     inkscape:connector-curvature="0"
     id="path574"
     d="m 44612,24121 -132,-188" />
  <path
     style="fill:#000000;fill-opacity:0;stroke:#000000;stroke-width:59.05509949;stroke-linecap:round;stroke-linejoin:round;stroke-opacity:1"
     inkscape:connector-curvature="0"
     id="path576"
     d="m 44387,24121 0,-394 150,0 37,19 19,18 19,38 0,56 -19,38 -19,18 -37,19 -150,0" />
  <path
     style="fill:#000000;fill-opacity:0;stroke:#000000;stroke-width:59.05509949;stroke-linecap:round;stroke-linejoin:round;stroke-opacity:1"
     inkscape:connector-curvature="0"
     id="path578"
     d="m 44724,23727 131,394 132,-394" />
  <path
     style="fill:#000000;fill-opacity:0;stroke:#000000;stroke-width:59.05509949;stroke-linecap:round;stroke-linejoin:round;stroke-opacity:1"
     inkscape:connector-curvature="0"
     id="path580"
     d="m 45324,24121 -225,0" />
  <path
     style="fill:#000000;fill-opacity:0;stroke:#000000;stroke-width:59.05509949;stroke-linecap:round;stroke-linejoin:round;stroke-opacity:1"
     inkscape:connector-curvature="0"
     id="path582"
     d="m 45212,24121 0,-394 -38,56 -37,38 -38,18" />
  <path
     style="fill:#000000;fill-opacity:0;stroke:#000000;stroke-width:80;stroke-linecap:round;stroke-linejoin:round;stroke-opacity:1"
     inkscape:connector-curvature="0"
     id="path586"
     d="m 41551,25873 0,-400 152,0 38,19 19,19 19,39 0,57 -19,38 -19,19 -38,19 -152,0" />
  <path
     style="fill:#000000;fill-opacity:0;stroke:#000000;stroke-width:80;stroke-linecap:round;stroke-linejoin:round;stroke-opacity:1"
     inkscape:connector-curvature="0"
     id="path588"
     d="m 42141,25473 -190,0 -19,191 19,-19 38,-19 95,0 38,19 19,19 19,38 0,95 -19,38 -19,19 -38,19 -95,0 -38,-19 -19,-19" />
  <path
     style="fill:#000000;fill-opacity:0;stroke:#000000;stroke-width:80;stroke-linecap:round;stroke-linejoin:round;stroke-opacity:1"
     inkscape:connector-curvature="0"
     id="path590"
     d="m 27151,14423 0,-400 152,0 38,19 19,19 19,39 0,57 -19,38 -19,19 -38,19 -152,0" />
  <path
     style="fill:#000000;fill-opacity:0;stroke:#000000;stroke-width:80;stroke-linecap:round;stroke-linejoin:round;stroke-opacity:1"
     inkscape:connector-curvature="0"
     id="path592"
     d="m 27722,14023 -76,0 -38,19 -19,19 -38,58 -19,76 0,152 19,38 19,19 38,19 76,0 38,-19 19,-19 19,-38 0,-95 -19,-38 -19,-19 -38,-19 -76,0 -38,19 -19,19 -19,38" />
  <path
     style="fill:#000000;fill-opacity:0;stroke:#000000;stroke-width:80;stroke-linecap:round;stroke-linejoin:round;stroke-opacity:1"
     inkscape:connector-curvature="0"
     id="path594"
     d="m 28651,25723 0,-400 152,0 38,19 19,19 19,39 0,57 -19,38 -19,19 -38,19 -152,0" />
  <path
     style="fill:#000000;fill-opacity:0;stroke:#000000;stroke-width:80;stroke-linecap:round;stroke-linejoin:round;stroke-opacity:1"
     inkscape:connector-curvature="0"
     id="path596"
     d="m 29013,25323 266,0 -171,400" />
  <path
     style="fill:#000000;fill-opacity:0;stroke:#000000;stroke-width:80;stroke-linecap:round;stroke-linejoin:round;stroke-opacity:1"
     inkscape:connector-curvature="0"
     id="path598"
     d="m 38051,25873 0,-400 152,0 38,19 19,19 19,39 0,57 -19,38 -19,19 -38,19 -152,0" />
  <path
     style="fill:#000000;fill-opacity:0;stroke:#000000;stroke-width:80;stroke-linecap:round;stroke-linejoin:round;stroke-opacity:1"
     inkscape:connector-curvature="0"
     id="path600"
     d="m 38508,25645 -38,-19 -19,-19 -19,-38 0,-19 19,-39 19,-19 38,-19 76,0 38,19 19,19 19,39 0,19 -19,38 -19,19 -38,19 -76,0 -38,19 -19,19 -19,38 0,76 19,38 19,19 38,19 76,0 38,-19 19,-19 19,-38 0,-76 -19,-38 -19,-19 -38,-19" />
  <path
     style="fill:#000000;fill-opacity:0;stroke:#000000;stroke-width:80;stroke-linecap:round;stroke-linejoin:round;stroke-opacity:1"
     inkscape:connector-curvature="0"
     id="path602"
     d="m 17051,24373 0,-400 152,0 38,19 19,19 19,39 0,57 -19,38 -19,19 -38,19 -152,0" />
  <path
     style="fill:#000000;fill-opacity:0;stroke:#000000;stroke-width:80;stroke-linecap:round;stroke-linejoin:round;stroke-opacity:1"
     inkscape:connector-curvature="0"
     id="path604"
     d="m 17622,24107 0,266" />
  <path
     style="fill:#000000;fill-opacity:0;stroke:#000000;stroke-width:80;stroke-linecap:round;stroke-linejoin:round;stroke-opacity:1"
     inkscape:connector-curvature="0"
     id="path606"
     d="m 17527,23954 -95,286 247,0" />
  <path
     style="fill:#000000;fill-opacity:0;stroke:#000000;stroke-width:80;stroke-linecap:round;stroke-linejoin:round;stroke-opacity:1"
     inkscape:connector-curvature="0"
     id="path608"
     d="m 22051,25723 0,-400 152,0 38,19 19,19 19,39 0,57 -19,38 -19,19 -38,19 -152,0" />
  <path
     style="fill:#000000;fill-opacity:0;stroke:#000000;stroke-width:80;stroke-linecap:round;stroke-linejoin:round;stroke-opacity:1"
     inkscape:connector-curvature="0"
     id="path610"
     d="m 22413,25323 247,0 -133,153 57,0 38,19 19,19 19,38 0,95 -19,38 -19,19 -38,19 -114,0 -38,-19 -19,-19" />
  <path
     style="fill:#000000;fill-opacity:0;stroke:#000000;stroke-width:80;stroke-linecap:round;stroke-linejoin:round;stroke-opacity:1"
     inkscape:connector-curvature="0"
     id="path612"
     d="m 30113,14304 57,19 95,0 38,-19 19,-19 19,-38 0,-38 -19,-38 -19,-19 -38,-19 -76,-19 -38,-19 -19,-19 -19,-38 0,-38 19,-39 19,-19 38,-19 95,0 57,19" />
  <path
     style="fill:#000000;fill-opacity:0;stroke:#000000;stroke-width:80;stroke-linecap:round;stroke-linejoin:round;stroke-opacity:1"
     inkscape:connector-curvature="0"
     id="path614"
     d="m 30475,13923 95,400 76,-285 76,285 95,-400" />
  <path
     style="fill:#000000;fill-opacity:0;stroke:#000000;stroke-width:80;stroke-linecap:round;stroke-linejoin:round;stroke-opacity:1"
     inkscape:connector-curvature="0"
     id="path616"
     d="m 31179,14323 -228,0" />
  <path
     style="fill:#000000;fill-opacity:0;stroke:#000000;stroke-width:80;stroke-linecap:round;stroke-linejoin:round;stroke-opacity:1"
     inkscape:connector-curvature="0"
     id="path618"
     d="m 31065,14323 0,-400 -38,58 -38,38 -38,19" />
  <path
     style="fill:#000000;fill-opacity:0;stroke:#000000;stroke-width:59.05509949;stroke-linecap:round;stroke-linejoin:round;stroke-opacity:1"
     inkscape:connector-curvature="0"
     id="path622"
     d="m 38780,22871 -131,-188" />
  <path
     style="fill:#000000;fill-opacity:0;stroke:#000000;stroke-width:59.05509949;stroke-linecap:round;stroke-linejoin:round;stroke-opacity:1"
     inkscape:connector-curvature="0"
     id="path624"
     d="m 38555,22871 0,-394 150,0 38,19 19,18 18,38 0,56 -18,38 -19,18 -38,19 -150,0" />
  <path
     style="fill:#000000;fill-opacity:0;stroke:#000000;stroke-width:59.05509949;stroke-linecap:round;stroke-linejoin:round;stroke-opacity:1"
     inkscape:connector-curvature="0"
     id="path626"
     d="m 38930,22514 19,-18 38,-19 93,0 38,19 19,18 18,38 0,37 -18,57 -225,225 243,0" />
  <g
     id="g3985"
     transform="matrix(-1,0,0,1,63019,0)">
    <path
       d="m 33830,31957 56,-28 28,-28 28,-57 0,-28 -28,-56 -28,-28 -56,-28 -113,0 -56,28 -28,28 -28,56 0,28 28,57 28,28 56,28 113,0 56,28 28,28 28,56 0,113 -28,56 -28,28 -56,28 -113,0 -56,-28 -28,-28 -28,-56 0,-113 28,-56 28,-28 56,-28"
       id="path630"
       inkscape:connector-curvature="0"
       style="fill:#000000;fill-opacity:0;stroke:#000000;stroke-width:118.11000061;stroke-linecap:round;stroke-linejoin:round;stroke-opacity:1" />
    <path
       d="m 33239,31704 -56,0 -56,28 -29,28 -28,56 -28,113 0,140 28,113 28,56 29,28 56,28 56,0 56,-28 28,-28 29,-56 28,-113 0,-140 -28,-113 -29,-56 -28,-28 -56,-28"
       id="path632"
       inkscape:connector-curvature="0"
       style="fill:#000000;fill-opacity:0;stroke:#000000;stroke-width:118.11000061;stroke-linecap:round;stroke-linejoin:round;stroke-opacity:1" />
    <path
       d="m 32761,32266 0,28 28,56 28,29"
       id="path634"
       inkscape:connector-curvature="0"
       style="fill:#000000;fill-opacity:0;stroke:#000000;stroke-width:118.11000061;stroke-linecap:round;stroke-linejoin:round;stroke-opacity:1" />
    <path
       d="m 32395,31704 -56,0 -56,28 -28,28 -28,56 -28,113 0,140 28,113 28,56 28,28 56,28 56,0 57,-28 28,-28 28,-56 28,-113 0,-140 -28,-113 -28,-56 -28,-28 -57,-28"
       id="path636"
       inkscape:connector-curvature="0"
       style="fill:#000000;fill-opacity:0;stroke:#000000;stroke-width:118.11000061;stroke-linecap:round;stroke-linejoin:round;stroke-opacity:1" />
    <path
       d="m 31833,31704 -56,0 -56,28 -29,28 -28,56 -28,113 0,140 28,113 28,56 29,28 56,28 56,0 56,-28 28,-28 29,-56 28,-113 0,-140 -28,-113 -29,-56 -28,-28 -56,-28"
       id="path638"
       inkscape:connector-curvature="0"
       style="fill:#000000;fill-opacity:0;stroke:#000000;stroke-width:118.11000061;stroke-linecap:round;stroke-linejoin:round;stroke-opacity:1" />
    <path
       d="m 31271,31704 -57,0 -56,28 -28,28 -28,56 -28,113 0,140 28,113 28,56 28,28 56,28 57,0 56,-28 28,-28 28,-56 28,-113 0,-140 -28,-113 -28,-56 -28,-28 -56,-28"
       id="path640"
       inkscape:connector-curvature="0"
       style="fill:#000000;fill-opacity:0;stroke:#000000;stroke-width:118.11000061;stroke-linecap:round;stroke-linejoin:round;stroke-opacity:1" />
    <path
       d="m 30371,32294 0,-393"
       id="path642"
       inkscape:connector-curvature="0"
       style="fill:#000000;fill-opacity:0;stroke:#000000;stroke-width:118.11000061;stroke-linecap:round;stroke-linejoin:round;stroke-opacity:1" />
    <path
       d="m 30371,31957 -28,-28 -57,-28 -84,0 -56,28 -28,56 0,309"
       id="path644"
       inkscape:connector-curvature="0"
       style="fill:#000000;fill-opacity:0;stroke:#000000;stroke-width:118.11000061;stroke-linecap:round;stroke-linejoin:round;stroke-opacity:1" />
    <path
       d="m 30118,31985 -29,-56 -56,-28 -84,0 -56,28 -28,56 0,309"
       id="path646"
       inkscape:connector-curvature="0"
       style="fill:#000000;fill-opacity:0;stroke:#000000;stroke-width:118.11000061;stroke-linecap:round;stroke-linejoin:round;stroke-opacity:1" />
    <path
       d="m 29583,32294 0,-393"
       id="path648"
       inkscape:connector-curvature="0"
       style="fill:#000000;fill-opacity:0;stroke:#000000;stroke-width:118.11000061;stroke-linecap:round;stroke-linejoin:round;stroke-opacity:1" />
    <path
       d="m 29583,31957 -28,-28 -56,-28 -84,0 -57,28 -28,56 0,309"
       id="path650"
       inkscape:connector-curvature="0"
       style="fill:#000000;fill-opacity:0;stroke:#000000;stroke-width:118.11000061;stroke-linecap:round;stroke-linejoin:round;stroke-opacity:1" />
    <path
       d="m 29330,31985 -28,-56 -56,-28 -85,0 -56,28 -28,56 0,309"
       id="path652"
       inkscape:connector-curvature="0"
       style="fill:#000000;fill-opacity:0;stroke:#000000;stroke-width:118.11000061;stroke-linecap:round;stroke-linejoin:round;stroke-opacity:1" />
  </g>
  <path
     style="fill:#000000;fill-opacity:0;stroke:#000000;stroke-width:118.11000061;stroke-linecap:round;stroke-linejoin:round;stroke-opacity:1"
     inkscape:connector-curvature="0"
     id="path654"
     d="m 15748,31496 31496,0" />
  <path
     style="fill:#000000;fill-opacity:0;stroke:#000000;stroke-width:118.11000061;stroke-linecap:round;stroke-linejoin:round;stroke-opacity:1"
     inkscape:connector-curvature="0"
     id="path656"
     d="m 15748,29527 0,3032" />
  <path
     style="fill:#000000;fill-opacity:0;stroke:#000000;stroke-width:118.11000061;stroke-linecap:round;stroke-linejoin:round;stroke-opacity:1"
     inkscape:connector-curvature="0"
     id="path658"
     d="m 47244,29527 0,3032" />
  <path
     style="fill:#000000;fill-opacity:0;stroke:#000000;stroke-width:118.11000061;stroke-linecap:round;stroke-linejoin:round;stroke-opacity:1"
     inkscape:connector-curvature="0"
     id="path660"
     d="m 47244,31496 -444,230" />
  <path
     style="fill:#000000;fill-opacity:0;stroke:#000000;stroke-width:118.11000061;stroke-linecap:round;stroke-linejoin:round;stroke-opacity:1"
     inkscape:connector-curvature="0"
     id="path662"
     d="m 47244,31496 -444,-231" />
  <path
     style="fill:#000000;fill-opacity:0;stroke:#000000;stroke-width:118.11000061;stroke-linecap:round;stroke-linejoin:round;stroke-opacity:1"
     inkscape:connector-curvature="0"
     id="path664"
     d="m 15748,31496 443,230" />
  <path
     style="fill:#000000;fill-opacity:0;stroke:#000000;stroke-width:118.11000061;stroke-linecap:round;stroke-linejoin:round;stroke-opacity:1"
     inkscape:connector-curvature="0"
     id="path666"
     d="m 15748,31496 443,-231" />
  <g
     id="g3999"
     transform="matrix(1,0,0,-1,0,41309)">
    <path
       d="m 51586,18503 393,0"
       id="path668"
       inkscape:connector-curvature="0"
       style="fill:#000000;fill-opacity:0;stroke:#000000;stroke-width:118.11000061;stroke-linecap:round;stroke-linejoin:round;stroke-opacity:1" />
    <path
       d="m 51361,18363 421,-141 0,366"
       id="path670"
       inkscape:connector-curvature="0"
       style="fill:#000000;fill-opacity:0;stroke:#000000;stroke-width:118.11000061;stroke-linecap:round;stroke-linejoin:round;stroke-opacity:1" />
    <path
       d="m 51389,19094 0,-281 281,-28 -28,28 -28,56 0,141 28,56 28,28 56,28 141,0 56,-28 28,-28 28,-56 0,-141 -28,-56 -28,-28"
       id="path672"
       inkscape:connector-curvature="0"
       style="fill:#000000;fill-opacity:0;stroke:#000000;stroke-width:118.11000061;stroke-linecap:round;stroke-linejoin:round;stroke-opacity:1" />
    <path
       d="m 51951,19403 28,0 56,-28 29,-28"
       id="path674"
       inkscape:connector-curvature="0"
       style="fill:#000000;fill-opacity:0;stroke:#000000;stroke-width:118.11000061;stroke-linecap:round;stroke-linejoin:round;stroke-opacity:1" />
    <path
       d="m 51389,19769 0,56 28,56 28,29 56,28 113,28 140,0 113,-28 56,-28 28,-29 28,-56 0,-56 -28,-56 -28,-28 -56,-29 -113,-28 -140,0 -113,28 -56,29 -28,28 -28,56"
       id="path676"
       inkscape:connector-curvature="0"
       style="fill:#000000;fill-opacity:0;stroke:#000000;stroke-width:118.11000061;stroke-linecap:round;stroke-linejoin:round;stroke-opacity:1" />
    <path
       d="m 51389,20331 0,57 28,56 28,28 56,28 113,28 140,0 113,-28 56,-28 28,-28 28,-56 0,-57 -28,-56 -28,-28 -56,-28 -113,-28 -140,0 -113,28 -56,28 -28,28 -28,56"
       id="path678"
       inkscape:connector-curvature="0"
       style="fill:#000000;fill-opacity:0;stroke:#000000;stroke-width:118.11000061;stroke-linecap:round;stroke-linejoin:round;stroke-opacity:1" />
    <path
       d="m 51389,20894 0,56 28,56 28,28 56,28 113,29 140,0 113,-29 56,-28 28,-28 28,-56 0,-56 -28,-56 -28,-29 -56,-28 -113,-28 -140,0 -113,28 -56,28 -28,29 -28,56"
       id="path680"
       inkscape:connector-curvature="0"
       style="fill:#000000;fill-opacity:0;stroke:#000000;stroke-width:118.11000061;stroke-linecap:round;stroke-linejoin:round;stroke-opacity:1" />
    <path
       d="m 51979,21794 -393,0"
       id="path682"
       inkscape:connector-curvature="0"
       style="fill:#000000;fill-opacity:0;stroke:#000000;stroke-width:118.11000061;stroke-linecap:round;stroke-linejoin:round;stroke-opacity:1" />
    <path
       d="m 51642,21794 -28,28 -28,56 0,84 28,57 56,28 309,0"
       id="path684"
       inkscape:connector-curvature="0"
       style="fill:#000000;fill-opacity:0;stroke:#000000;stroke-width:118.11000061;stroke-linecap:round;stroke-linejoin:round;stroke-opacity:1" />
    <path
       d="m 51670,22047 -56,28 -28,56 0,84 28,57 56,28 309,0"
       id="path686"
       inkscape:connector-curvature="0"
       style="fill:#000000;fill-opacity:0;stroke:#000000;stroke-width:118.11000061;stroke-linecap:round;stroke-linejoin:round;stroke-opacity:1" />
    <path
       d="m 51979,22581 -393,0"
       id="path688"
       inkscape:connector-curvature="0"
       style="fill:#000000;fill-opacity:0;stroke:#000000;stroke-width:118.11000061;stroke-linecap:round;stroke-linejoin:round;stroke-opacity:1" />
    <path
       d="m 51642,22581 -28,28 -28,56 0,85 28,56 56,28 309,0"
       id="path690"
       inkscape:connector-curvature="0"
       style="fill:#000000;fill-opacity:0;stroke:#000000;stroke-width:118.11000061;stroke-linecap:round;stroke-linejoin:round;stroke-opacity:1" />
    <path
       d="m 51670,22834 -56,28 -28,57 0,84 28,56 56,28 309,0"
       id="path692"
       inkscape:connector-curvature="0"
       style="fill:#000000;fill-opacity:0;stroke:#000000;stroke-width:118.11000061;stroke-linecap:round;stroke-linejoin:round;stroke-opacity:1" />
  </g>
  <path
     style="fill:#000000;fill-opacity:0;stroke:#000000;stroke-width:118.11000061;stroke-linecap:round;stroke-linejoin:round;stroke-opacity:1"
     inkscape:connector-curvature="0"
     id="path694"
     d="m 51181,29527 0,-17716" />
  <path
     style="fill:#000000;fill-opacity:0;stroke:#000000;stroke-width:118.11000061;stroke-linecap:round;stroke-linejoin:round;stroke-opacity:1"
     inkscape:connector-curvature="0"
     id="path696"
     d="m 47244,29527 5000,0" />
  <path
     style="fill:#000000;fill-opacity:0;stroke:#000000;stroke-width:118.11000061;stroke-linecap:round;stroke-linejoin:round;stroke-opacity:1"
     inkscape:connector-curvature="0"
     id="path698"
     d="m 47244,11811 5000,0" />
  <path
     style="fill:#000000;fill-opacity:0;stroke:#000000;stroke-width:118.11000061;stroke-linecap:round;stroke-linejoin:round;stroke-opacity:1"
     inkscape:connector-curvature="0"
     id="path700"
     d="m 51181,11811 230,443" />
  <path
     style="fill:#000000;fill-opacity:0;stroke:#000000;stroke-width:118.11000061;stroke-linecap:round;stroke-linejoin:round;stroke-opacity:1"
     inkscape:connector-curvature="0"
     id="path702"
     d="m 51181,11811 -231,443" />
  <path
     style="fill:#000000;fill-opacity:0;stroke:#000000;stroke-width:118.11000061;stroke-linecap:round;stroke-linejoin:round;stroke-opacity:1"
     inkscape:connector-curvature="0"
     id="path704"
     d="m 51181,29527 230,-443" />
  <path
     style="fill:#000000;fill-opacity:0;stroke:#000000;stroke-width:118.11000061;stroke-linecap:round;stroke-linejoin:round;stroke-opacity:1"
     inkscape:connector-curvature="0"
     id="path706"
     d="m 51181,29527 -231,-443" />
  <path
     style="fill:#000000;fill-opacity:0;stroke:#000000;stroke-width:39.37009811;stroke-linecap:round;stroke-linejoin:round;stroke-opacity:1"
     inkscape:connector-curvature="0"
     id="path710"
     d="m 47244,29527 0,-17716" />
  <path
     style="fill:#000000;fill-opacity:0;stroke:#000000;stroke-width:39.37009811;stroke-linecap:round;stroke-linejoin:round;stroke-opacity:1"
     inkscape:connector-curvature="0"
     id="path712"
     d="m 15748,29527 31496,0" />
  <path
     style="fill:#000000;fill-opacity:0;stroke:#000000;stroke-width:39.37009811;stroke-linecap:round;stroke-linejoin:round;stroke-opacity:1"
     inkscape:connector-curvature="0"
     id="path714"
     d="m 15748,11811 0,17716" />
  <path
     style="fill:#000000;fill-opacity:0;stroke:#000000;stroke-width:39.37009811;stroke-linecap:round;stroke-linejoin:round;stroke-opacity:1"
     inkscape:connector-curvature="0"
     id="path716"
     d="m 47244,11811 -31496,0" />
</svg>
