<?xml version="1.0" encoding="UTF-8" standalone="no"?>
<svg
   xmlns:dc="http://purl.org/dc/elements/1.1/"
   xmlns:cc="http://creativecommons.org/ns#"
   xmlns:rdf="http://www.w3.org/1999/02/22-rdf-syntax-ns#"
   xmlns:svg="http://www.w3.org/2000/svg"
   xmlns="http://www.w3.org/2000/svg"
   xmlns:sodipodi="http://sodipodi.sourceforge.net/DTD/sodipodi-0.dtd"
   xmlns:inkscape="http://www.inkscape.org/namespaces/inkscape"
   fill-opacity="1"
   color-rendering="auto"
   color-interpolation="auto"
   text-rendering="auto"
   stroke="black"
   stroke-linecap="square"
   width="1127"
   stroke-miterlimit="10"
   shape-rendering="auto"
   stroke-opacity="1"
   fill="black"
   stroke-dasharray="none"
   font-weight="normal"
   stroke-width="1"
   height="338"
   font-family="'Dialog'"
   font-style="normal"
   stroke-linejoin="miter"
   font-size="12"
   stroke-dashoffset="0"
   image-rendering="auto"
   id="svg2"
   version="1.1"
   inkscape:version="0.48.4 r9939"
   sodipodi:docname="bs_sdr_prez.svg">
  <sodipodi:namedview
     pagecolor="#ffffff"
     bordercolor="#666666"
     borderopacity="1"
     objecttolerance="10"
     gridtolerance="10"
     guidetolerance="10"
     inkscape:pageopacity="0"
     inkscape:pageshadow="2"
     inkscape:window-width="1440"
     inkscape:window-height="824"
     id="namedview170"
     showgrid="false"
     inkscape:zoom="0.79306388"
     inkscape:cx="543.15761"
     inkscape:cy="117.57774"
     inkscape:window-x="0"
     inkscape:window-y="25"
     inkscape:window-maximized="1"
     inkscape:current-layer="svg2" />
  <metadata
     id="metadata172">
    <rdf:RDF>
      <cc:Work
         rdf:about="">
        <dc:format>image/svg+xml</dc:format>
        <dc:type
           rdf:resource="http://purl.org/dc/dcmitype/StillImage" />
      </cc:Work>
    </rdf:RDF>
  </metadata>
  <!--Generated by ySVG 2.5-->
  <defs
     id="genericDefs">
    <defs
       id="defs1">
      <clipPath
         clipPathUnits="userSpaceOnUse"
         id="clipPath1">
        <path
           d="M0 0 L1127 0 L1127 338 L0 338 L0 0 Z"
           id="path9" />
      </clipPath>
      <clipPath
         clipPathUnits="userSpaceOnUse"
         id="clipPath2">
        <path
           d="M19 185 L1146 185 L1146 523 L19 523 L19 185 Z"
           id="path12" />
      </clipPath>
    </defs>
  </defs>
  <text
     transform="translate(-19,-185)"
     style="stroke:none;font-family:sans-serif;fill:#ffffff"
     id="text20"
     clip-path="url(#clipPath2)"
     y="456.55551"
     xml:space="preserve"
     x="1058.9771">osobní</text>
  <text
     transform="translate(-19,-185)"
     style="stroke:none;font-family:sans-serif;fill:#ffffff"
     id="text22"
     clip-path="url(#clipPath2)"
     y="470.5242"
     xml:space="preserve"
     x="1056.9497">počítač</text>
  <text
     transform="translate(-19,-185)"
     style="stroke:none;font-family:sans-serif;fill:#ffffff"
     id="text24"
     clip-path="url(#clipPath2)"
     y="484.49301"
     xml:space="preserve"
     x="1029.106">s demodulačním</text>
  <text
     transform="translate(-19,-185)"
     style="stroke:none;font-family:sans-serif;fill:#ffffff"
     id="text26"
     clip-path="url(#clipPath2)"
     y="498.4617"
     xml:space="preserve"
     x="1052.7192">software</text>
  <rect
     transform="translate(-19,-185)"
     style="fill:none;stroke-linecap:butt;stroke-miterlimit:1.45000005000000010;font-family:sans-serif"
     id="rect28"
     clip-path="url(#clipPath2)"
     y="439.35431"
     height="68"
     width="103.6"
     x="1026.9231" />
  <text
     transform="translate(-19,-185)"
     style="stroke:none;font-family:sans-serif;fill:#ffffff"
     id="text30"
     clip-path="url(#clipPath2)"
     y="224.9362"
     xml:space="preserve"
     x="206.7784">rotační</text>
  <text
     transform="translate(-19,-185)"
     style="stroke:none;font-family:sans-serif;fill:#ffffff"
     id="text32"
     clip-path="url(#clipPath2)"
     y="238.90491"
     xml:space="preserve"
     x="203.1075">enkoder</text>
  <text
     transform="translate(-19,-185)"
     style="stroke:none;font-family:sans-serif;fill:#ffffff"
     id="text34"
     clip-path="url(#clipPath2)"
     y="252.8737"
     xml:space="preserve"
     x="194.6554">s tlačítkem</text>
  <rect
     transform="translate(-19,-185)"
     style="fill:none;stroke-linecap:butt;stroke-miterlimit:1.45000005000000010;font-family:sans-serif"
     id="rect36"
     clip-path="url(#clipPath2)"
     y="200.7506"
     height="68"
     width="103.6"
     x="175.914" />
  <text
     transform="translate(-19,-185)"
     style="stroke:none;font-family:sans-serif;fill:#ffffff"
     id="text38"
     clip-path="url(#clipPath2)"
     y="231.9205"
     xml:space="preserve"
     x="499.23141">LCD</text>
  <text
     transform="translate(-19,-185)"
     style="stroke:none;font-family:sans-serif;fill:#ffffff"
     id="text40"
     clip-path="url(#clipPath2)"
     y="245.8893"
     xml:space="preserve"
     x="490.07901">display</text>
  <rect
     transform="translate(-19,-185)"
     style="fill:none;stroke-linecap:butt;stroke-miterlimit:1.45000005000000010;font-family:sans-serif"
     id="rect42"
     clip-path="url(#clipPath2)"
     y="200.7506"
     height="68"
     width="103.6"
     x="459.58371" />
  <text
     transform="translate(-19,-185)"
     style="stroke:none;font-family:sans-serif;fill:#ffffff"
     id="text44"
     clip-path="url(#clipPath2)"
     y="231.9205"
     xml:space="preserve"
     x="354.9736">řídící</text>
  <text
     transform="translate(-19,-185)"
     style="stroke:none;font-family:sans-serif;fill:#ffffff"
     id="text46"
     clip-path="url(#clipPath2)"
     y="245.8893"
     xml:space="preserve"
     x="343.4043">jednotka</text>
  <rect
     transform="translate(-19,-185)"
     style="fill:none;stroke-linecap:butt;stroke-miterlimit:1.45000005000000010;font-family:sans-serif"
     id="rect48"
     clip-path="url(#clipPath2)"
     y="200.7506"
     height="68"
     width="103.6"
     x="317.74881" />
  <text
     transform="translate(-19,-185)"
     style="stroke:none;font-family:sans-serif;fill:#ffffff"
     id="text50"
     clip-path="url(#clipPath2)"
     y="351.22241"
     xml:space="preserve"
     x="349.92291">lokální</text>
  <text
     transform="translate(-19,-185)"
     style="stroke:none;font-family:sans-serif;fill:#ffffff"
     id="text52"
     clip-path="url(#clipPath2)"
     y="365.1911"
     xml:space="preserve"
     x="343.95209">oscilátor</text>
  <rect
     transform="translate(-19,-185)"
     style="fill:none;stroke-linecap:butt;stroke-miterlimit:1.45000005000000010;font-family:sans-serif"
     id="rect54"
     clip-path="url(#clipPath2)"
     y="320.0524"
     height="68"
     width="103.6"
     x="317.74881" />
  <text
     transform="translate(-19,-185)"
     style="stroke:none;font-family:sans-serif;fill:#ffffff"
     id="text56"
     clip-path="url(#clipPath2)"
     y="470.5242"
     xml:space="preserve"
     x="912.01233">zvuková</text>
  <text
     transform="translate(-19,-185)"
     style="stroke:none;font-family:sans-serif;fill:#ffffff"
     id="text58"
     clip-path="url(#clipPath2)"
     y="484.49301"
     xml:space="preserve"
     x="921.24078">karta</text>
  <rect
     transform="translate(-19,-185)"
     style="fill:none;stroke-linecap:butt;stroke-miterlimit:1.45000005000000010;font-family:sans-serif"
     id="rect60"
     clip-path="url(#clipPath2)"
     y="439.35431"
     height="68"
     width="103.6"
     x="885.08832" />
  <text
     transform="translate(-19,-185)"
     style="stroke:none;font-family:sans-serif;fill:#ffffff"
     id="text62"
     clip-path="url(#clipPath2)"
     y="463.53979"
     xml:space="preserve"
     x="188.4034">nízkošumový</text>
  <text
     transform="translate(-19,-185)"
     style="stroke:none;font-family:sans-serif;fill:#ffffff"
     id="text64"
     clip-path="url(#clipPath2)"
     y="477.50861"
     xml:space="preserve"
     x="199.02361">selektivní</text>
  <text
     transform="translate(-19,-185)"
     style="stroke:none;font-family:sans-serif;fill:#ffffff"
     id="text66"
     clip-path="url(#clipPath2)"
     y="491.47729"
     xml:space="preserve"
     x="200.2159">zesilovač</text>
  <rect
     transform="translate(-19,-185)"
     style="fill:none;stroke-linecap:butt;stroke-miterlimit:1.45000005000000010;font-family:sans-serif"
     id="rect68"
     clip-path="url(#clipPath2)"
     y="439.35431"
     height="68"
     width="103.6"
     x="175.914" />
  <text
     transform="translate(-19,-185)"
     style="stroke:none;font-family:sans-serif;fill:#ffffff"
     id="text70"
     clip-path="url(#clipPath2)"
     y="477.50861"
     xml:space="preserve"
     x="64.876198">anténa</text>
  <rect
     transform="translate(-19,-185)"
     style="fill:none;stroke-linecap:butt;stroke-miterlimit:1.45000005000000010;font-family:sans-serif"
     id="rect72"
     clip-path="url(#clipPath2)"
     y="439.35431"
     height="68"
     width="103.6"
     x="34.079102" />
  <text
     transform="translate(-19,-185)"
     style="stroke:none;font-family:sans-serif;fill:#ffffff"
     id="text74"
     clip-path="url(#clipPath2)"
     y="463.53979"
     xml:space="preserve"
     x="345.82129">diodový</text>
  <text
     transform="translate(-19,-185)"
     style="stroke:none;font-family:sans-serif;fill:#ffffff"
     id="text76"
     clip-path="url(#clipPath2)"
     y="477.50861"
     xml:space="preserve"
     x="345.22949">kruhový</text>
  <text
     transform="translate(-19,-185)"
     style="stroke:none;font-family:sans-serif;fill:#ffffff"
     id="text78"
     clip-path="url(#clipPath2)"
     y="491.47729"
     xml:space="preserve"
     x="339.56351">směšovač</text>
  <rect
     transform="translate(-19,-185)"
     style="fill:none;stroke-linecap:butt;stroke-miterlimit:1.45000005000000010;font-family:sans-serif"
     id="rect80"
     clip-path="url(#clipPath2)"
     y="439.35431"
     height="68"
     width="103.6"
     x="317.74881" />
  <text
     transform="translate(-19,-185)"
     style="stroke:none;font-family:sans-serif;fill:#ffffff"
     id="text82"
     clip-path="url(#clipPath2)"
     y="463.53979"
     xml:space="preserve"
     x="480.9032">psásmová</text>
  <text
     transform="translate(-19,-185)"
     style="stroke:none;font-family:sans-serif;fill:#ffffff"
     id="text84"
     clip-path="url(#clipPath2)"
     y="477.50861"
     xml:space="preserve"
     x="488.3476">propust</text>
  <text
     transform="translate(-19,-185)"
     style="stroke:none;font-family:sans-serif;fill:#ffffff"
     id="text86"
     clip-path="url(#clipPath2)"
     y="491.47729"
     xml:space="preserve"
     x="492.8212">6 MHz</text>
  <rect
     transform="translate(-19,-185)"
     style="fill:none;stroke-linecap:butt;stroke-miterlimit:1.45000005000000010;font-family:sans-serif"
     id="rect88"
     clip-path="url(#clipPath2)"
     y="439.35431"
     height="68"
     width="103.6"
     x="459.58371" />
  <text
     transform="translate(-19,-185)"
     style="stroke:none;font-family:sans-serif;fill:#ffffff"
     id="text90"
     clip-path="url(#clipPath2)"
     y="470.5242"
     xml:space="preserve"
     x="618.47247">kvadraturní</text>
  <text
     transform="translate(-19,-185)"
     style="stroke:none;font-family:sans-serif;fill:#ffffff"
     id="text92"
     clip-path="url(#clipPath2)"
     y="484.49301"
     xml:space="preserve"
     x="627.70978">detektor</text>
  <rect
     transform="translate(-19,-185)"
     style="fill:none;stroke-linecap:butt;stroke-miterlimit:1.45000005000000010;font-family:sans-serif"
     id="rect94"
     clip-path="url(#clipPath2)"
     y="439.35431"
     height="68"
     width="103.6"
     x="601.41852" />
  <text
     transform="translate(-19,-185)"
     style="stroke:none;font-family:sans-serif;fill:#ffffff"
     id="text96"
     clip-path="url(#clipPath2)"
     y="463.53979"
     xml:space="preserve"
     x="754.88452">diferenzicální</text>
  <text
     transform="translate(-19,-185)"
     style="stroke:none;font-family:sans-serif;fill:#ffffff"
     id="text98"
     clip-path="url(#clipPath2)"
     y="477.50861"
     xml:space="preserve"
     x="763.86401">zesilovače</text>
  <text
     transform="translate(-19,-185)"
     style="stroke:none;font-family:sans-serif;fill:#ffffff"
     id="text100"
     clip-path="url(#clipPath2)"
     y="491.47729"
     xml:space="preserve"
     x="753.47821">pro signáli I Q</text>
  <rect
     transform="translate(-19,-185)"
     style="fill:none;stroke-linecap:butt;stroke-miterlimit:1.45000005000000010;font-family:sans-serif"
     id="rect102"
     clip-path="url(#clipPath2)"
     y="439.35431"
     height="68"
     width="103.6"
     x="743.25342" />
  <text
     transform="translate(-19,-185)"
     style="stroke:none;font-family:sans-serif;fill:#ffffff"
     id="text104"
     clip-path="url(#clipPath2)"
     y="224.9362"
     xml:space="preserve"
     x="622.13171">krystalový</text>
  <text
     transform="translate(-19,-185)"
     style="stroke:none;font-family:sans-serif;fill:#ffffff"
     id="text106"
     clip-path="url(#clipPath2)"
     y="238.90491"
     xml:space="preserve"
     x="627.62189">oscilátor</text>
  <text
     transform="translate(-19,-185)"
     style="stroke:none;font-family:sans-serif;fill:#ffffff"
     id="text108"
     clip-path="url(#clipPath2)"
     y="252.8737"
     xml:space="preserve"
     x="630.83868">24 MHz</text>
  <rect
     transform="translate(-19,-185)"
     style="fill:none;stroke-linecap:butt;stroke-miterlimit:1.45000005000000010;font-family:sans-serif"
     id="rect110"
     clip-path="url(#clipPath2)"
     y="200.7506"
     height="68"
     width="103.6"
     x="601.41852" />
  <text
     transform="translate(-19,-185)"
     style="stroke:none;font-family:sans-serif;fill:#ffffff"
     id="text112"
     clip-path="url(#clipPath2)"
     y="351.22241"
     xml:space="preserve"
     x="629.69318">Johnsův</text>
  <text
     transform="translate(-19,-185)"
     style="stroke:none;font-family:sans-serif;fill:#ffffff"
     id="text114"
     clip-path="url(#clipPath2)"
     y="365.1911"
     xml:space="preserve"
     x="638.92462">čítač</text>
  <rect
     transform="translate(-19,-185)"
     style="fill:none;stroke-linecap:butt;stroke-miterlimit:1.45000005000000010;font-family:sans-serif"
     id="rect116"
     clip-path="url(#clipPath2)"
     y="320.0524"
     height="68"
     width="103.6"
     x="601.41852" />
  <path
     transform="translate(-19,-185)"
     style="fill:#ffffff;stroke-linecap:butt;stroke-miterlimit:1.45000005000000010"
     inkscape:connector-curvature="0"
     id="path120"
     clip-path="url(#clipPath2)"
     d="m 302.7488,228.5006 2.85,4.75 -26.0848,0 0,3 26.0848,0 -2.85,4.75 15,-6.25 -15,-6.25 z" />
  <path
     transform="translate(-19,-185)"
     style="fill:#ffffff;stroke-linecap:butt;stroke-miterlimit:1.45000005000000010"
     inkscape:connector-curvature="0"
     id="path124"
     clip-path="url(#clipPath2)"
     d="m 444.5837,228.5006 2.85,4.75 -26.0849,0 0,3 26.0849,0 -2.85,4.75 15,-6.25 -15,-6.25 z" />
  <path
     transform="translate(-19,-185)"
     style="fill:#ffffff;stroke-linecap:butt;stroke-miterlimit:1.45000005000000010"
     inkscape:connector-curvature="0"
     id="path128"
     clip-path="url(#clipPath2)"
     d="m 368.0488,268.7506 0,39.1519 0,0 -4.75,-2.85 6.25,15 6.25,-15 -4.75,2.85 0,0 0,-39.1519 z" />
  <path
     transform="translate(-19,-185)"
     style="fill:#ffffff;stroke-linecap:butt;stroke-miterlimit:1.45000005000000010"
     inkscape:connector-curvature="0"
     id="path132"
     clip-path="url(#clipPath2)"
     d="m 1011.9231,467.1043 2.85,4.75 -26.0849,0 0,3 26.0849,0 -2.85,4.75 15,-6.25 -15,-6.25 z" />
  <path
     transform="translate(-19,-185)"
     style="fill:#ffffff;stroke-linecap:butt;stroke-miterlimit:1.45000005000000010"
     inkscape:connector-curvature="0"
     id="path136"
     clip-path="url(#clipPath2)"
     d="m 160.914,467.1043 2.85,4.75 -26.0849,0 0,3 26.0849,0 -2.85,4.75 15,-6.25 -15,-6.25 z" />
  <path
     transform="translate(-19,-185)"
     style="fill:#ffffff;stroke-linecap:butt;stroke-miterlimit:1.45000005000000010"
     inkscape:connector-curvature="0"
     id="path140"
     clip-path="url(#clipPath2)"
     d="m 302.7488,467.1043 2.85,4.75 -26.0848,0 0,3 26.0848,0 -2.85,4.75 15,-6.25 -15,-6.25 z" />
  <path
     transform="translate(-19,-185)"
     style="fill:#ffffff;stroke-linecap:butt;stroke-miterlimit:1.45000005000000010"
     inkscape:connector-curvature="0"
     id="path144"
     clip-path="url(#clipPath2)"
     d="m 368.0488,388.0525 0,39.1518 0,0 -4.75,-2.85 6.25,15 6.25,-15 -4.75,2.85 0,0 0,-39.1518 z" />
  <path
     transform="translate(-19,-185)"
     style="fill:#ffffff;stroke-linecap:butt;stroke-miterlimit:1.45000005000000010"
     inkscape:connector-curvature="0"
     id="path148"
     clip-path="url(#clipPath2)"
     d="m 444.5837,467.1043 2.85,4.75 -26.0849,0 0,3 26.0849,0 -2.85,4.75 15,-6.25 -15,-6.25 z" />
  <path
     transform="translate(-19,-185)"
     style="fill:#ffffff;stroke-linecap:butt;stroke-miterlimit:1.45000005000000010"
     inkscape:connector-curvature="0"
     id="path152"
     clip-path="url(#clipPath2)"
     d="m 586.4185,467.1043 2.85,4.75 -26.0848,0 0,3 26.0848,0 -2.85,4.75 15,-6.25 -15,-6.25 z" />
  <path
     transform="translate(-19,-185)"
     style="fill:#ffffff;stroke-linecap:butt;stroke-miterlimit:1.45000005000000010"
     inkscape:connector-curvature="0"
     id="path156"
     clip-path="url(#clipPath2)"
     d="m 728.2534,467.1043 2.85,4.75 -26.0848,0 0,3 26.0848,0 -2.85,4.75 15,-6.25 -15,-6.25 z" />
  <path
     transform="translate(-19,-185)"
     style="fill:#ffffff;stroke-linecap:butt;stroke-miterlimit:1.45000005000000010"
     inkscape:connector-curvature="0"
     id="path160"
     clip-path="url(#clipPath2)"
     d="m 870.0883,467.1043 2.8499,4.75 -26.0848,0 0,3 26.0848,0 -2.8499,4.75 15,-6.25 -15,-6.25 z" />
  <path
     transform="translate(-19,-185)"
     style="fill:#ffffff;stroke-linecap:butt;stroke-miterlimit:1.45000005000000010"
     inkscape:connector-curvature="0"
     id="path164"
     clip-path="url(#clipPath2)"
     d="m 651.7186,268.7506 0,39.1519 -4.75,-2.85 6.25,15 6.25,-15 -4.75,2.85 0,-39.1519 z" />
  <path
     transform="translate(-19,-185)"
     style="fill:#ffffff;stroke-linecap:butt;stroke-miterlimit:1.45000005000000010"
     inkscape:connector-curvature="0"
     id="path168"
     clip-path="url(#clipPath2)"
     d="m 651.7186,388.0525 0,39.1518 -4.75,-2.85 6.25,15 6.25,-15 -4.75,2.85 0,-39.1518 z" />
</svg>
