<?xml version="1.0" standalone="no"?>
 <!DOCTYPE svg PUBLIC "-//W3C//DTD SVG 1.1//EN" 
 "http://www.w3.org/Graphics/SVG/1.1/DTD/svg11.dtd"> 
<svg xmlns="http://www.w3.org/2000/svg" version="1.1" 
    width="13.3706cm" height="14.9987cm" viewBox="0 0 52640 59050 ">
<title>SVG Picture created as mixer-brd.svg date 2015/04/26 22:54:00 </title>
  <desc>Picture generated by PCBNEW </desc>
<g style="fill:#000000; fill-opacity:1;stroke:#000000; stroke-opacity:1;
stroke-linecap:round; stroke-linejoin:round; "
 transform="translate(0 0) scale(1 1)">
</g>
<g style="fill:#000000; fill-opacity:0.0; 
stroke:#000000; stroke-width:59.0551; stroke-opacity:1; 
stroke-linecap:round; stroke-linejoin:round;">
<path d="M42953 34507
L42533 34507
" />
<path d="M42733 34707
L42733 34297
" />
<path d="M40863 26807
L41283 26807
" />
<path d="M41083 26607
L41083 27017
" />
<path d="M34703 34257
L34283 34257
" />
<path d="M34483 34457
L34483 34047
" />
</g>
<g style="fill:#000000; fill-opacity:0.0; 
stroke:#000000; stroke-width:39.3701; stroke-opacity:1; 
stroke-linecap:round; stroke-linejoin:round;">
</g>
<g style="fill:#000000; fill-opacity:1.0; 
stroke:#000000; stroke-width:39.3701; stroke-opacity:1; 
stroke-linecap:round; stroke-linejoin:round;">
<circle cx="22783.5" cy="23157.5" r="570.866" /> 
<circle cx="7080.46" cy="43285.5" r="472.441" /> 
<circle cx="12986.5" cy="43285.5" r="472.441" /> 
<circle cx="7080.46" cy="40529.5" r="472.441" /> 
<circle cx="12986.5" cy="40529.5" r="472.441" /> 
<circle cx="12986.5" cy="28779.5" r="472.441" /> 
<circle cx="7080.46" cy="28779.5" r="472.441" /> 
<circle cx="12986.5" cy="31535.5" r="472.441" /> 
<circle cx="7080.46" cy="31535.5" r="472.441" /> 
<circle cx="17486.5" cy="20779.5" r="472.441" /> 
<circle cx="11580.5" cy="20779.5" r="472.441" /> 
<circle cx="17486.5" cy="23535.5" r="472.441" /> 
<circle cx="11580.5" cy="23535.5" r="472.441" /> 
<circle cx="14533.5" cy="18929.5" r="472.441" /> 
<circle cx="14533.5" cy="25425.5" r="472.441" /> 
<circle cx="34236.5" cy="20779.5" r="472.441" /> 
<circle cx="28330.5" cy="20779.5" r="472.441" /> 
<circle cx="34236.5" cy="23535.5" r="472.441" /> 
<circle cx="28330.5" cy="23535.5" r="472.441" /> 
<circle cx="31283.5" cy="18929.5" r="472.441" /> 
<circle cx="31283.5" cy="25425.5" r="472.441" /> 
<circle cx="39905.5" cy="18954.5" r="472.441" /> 
<circle cx="39905.5" cy="24860.5" r="472.441" /> 
<circle cx="42661.5" cy="18954.5" r="472.441" /> 
<circle cx="42661.5" cy="24860.5" r="472.441" /> 
</g>
<g style="fill:#000000; fill-opacity:1.0; 
stroke:#000000; stroke-width:787.402; stroke-opacity:1; 
stroke-linecap:round; stroke-linejoin:round;">
</g>
<g style="fill:#000000; fill-opacity:0.0; 
stroke:#000000; stroke-width:787.402; stroke-opacity:1; 
stroke-linecap:round; stroke-linejoin:round;">
<path d="M42033 34005
L42033 33809
" />
<path d="M43033 34005
L43033 33809
" />
<path d="M41783 27309
L41783 27505
" />
<path d="M40783 27309
L40783 27505
" />
<path d="M33783 33755
L33783 33559
" />
<path d="M34783 33755
L34783 33559
" />
<path d="M11089 37979
L11089 37585
" />
<path d="M8727 37979
L8727 37585
" />
<path d="M11089 34479
L11089 34085
" />
<path d="M8727 34479
L8727 34085
" />
</g>
<g style="fill:#000000; fill-opacity:0.0; 
stroke:#000000; stroke-width:39.3701; stroke-opacity:1; 
stroke-linecap:round; stroke-linejoin:round;">
</g>
<g style="fill:#000000; fill-opacity:1.0; 
stroke:#000000; stroke-width:39.3701; stroke-opacity:1; 
stroke-linecap:round; stroke-linejoin:round;">
<circle cx="12033.5" cy="11907.5" r="472.441" /> 
<circle cx="15033.5" cy="11907.5" r="472.441" /> 
<circle cx="17533.5" cy="11907.5" r="472.441" /> 
<circle cx="20533.5" cy="11907.5" r="472.441" /> 
<circle cx="23033.5" cy="11907.5" r="472.441" /> 
<circle cx="26033.5" cy="11907.5" r="472.441" /> 
<circle cx="7953.46" cy="10657.5" r="472.441" /> 
<circle cx="8953.46" cy="11657.5" r="472.441" /> 
<circle cx="8953.46" cy="9657.48" r="472.441" /> 
<circle cx="6953.46" cy="9657.48" r="472.441" /> 
<circle cx="6953.46" cy="11657.5" r="472.441" /> 
<polyline style="fill-rule:evenodd;"
points="42212,29283
43157,29283
43157,30031
42212,30031
42212,29283
" /> 
</g>
<g style="fill:#000000; fill-opacity:1.0; 
stroke:#000000; stroke-width:787.402; stroke-opacity:1; 
stroke-linecap:round; stroke-linejoin:round;">
</g>
<g style="fill:#000000; fill-opacity:0.0; 
stroke:#000000; stroke-width:787.402; stroke-opacity:1; 
stroke-linecap:round; stroke-linejoin:round;">
<path d="M43980 29657
L43783 29657
" />
<path d="M42783 30657
L42586 30657
" />
<path d="M43980 30657
L43783 30657
" />
<path d="M42783 31657
L42586 31657
" />
<path d="M43980 31657
L43783 31657
" />
</g>
<g style="fill:#000000; fill-opacity:0.0; 
stroke:#000000; stroke-width:39.3701; stroke-opacity:1; 
stroke-linecap:round; stroke-linejoin:round;">
</g>
<g style="fill:#000000; fill-opacity:1.0; 
stroke:#000000; stroke-width:39.3701; stroke-opacity:1; 
stroke-linecap:round; stroke-linejoin:round;">
<polyline style="fill-rule:evenodd;"
points="42212,35783
43157,35783
43157,36531
42212,36531
42212,35783
" /> 
</g>
<g style="fill:#000000; fill-opacity:1.0; 
stroke:#000000; stroke-width:787.402; stroke-opacity:1; 
stroke-linecap:round; stroke-linejoin:round;">
</g>
<g style="fill:#000000; fill-opacity:0.0; 
stroke:#000000; stroke-width:787.402; stroke-opacity:1; 
stroke-linecap:round; stroke-linejoin:round;">
<path d="M43980 36157
L43783 36157
" />
<path d="M42783 37157
L42586 37157
" />
<path d="M43980 37157
L43783 37157
" />
<path d="M42783 38157
L42586 38157
" />
<path d="M43980 38157
L43783 38157
" />
</g>
<g style="fill:#000000; fill-opacity:0.0; 
stroke:#000000; stroke-width:39.3701; stroke-opacity:1; 
stroke-linecap:round; stroke-linejoin:round;">
</g>
<g style="fill:#000000; fill-opacity:1.0; 
stroke:#000000; stroke-width:39.3701; stroke-opacity:1; 
stroke-linecap:round; stroke-linejoin:round;">
<polyline style="fill-rule:evenodd;"
points="32713,44287
32713,43527
33353,43527
33353,44287
32713,44287
" /> 
</g>
<g style="fill:#000000; fill-opacity:1.0; 
stroke:#000000; stroke-width:680; stroke-opacity:1; 
stroke-linecap:round; stroke-linejoin:round;">
</g>
<g style="fill:#000000; fill-opacity:0.0; 
stroke:#000000; stroke-width:680; stroke-opacity:1; 
stroke-linecap:round; stroke-linejoin:round;">
<path d="M34033 43847
L34033 43967
" />
<path d="M35033 43847
L35033 43967
" />
</g>
<g style="fill:#000000; fill-opacity:0.0; 
stroke:#000000; stroke-width:39.3701; stroke-opacity:1; 
stroke-linecap:round; stroke-linejoin:round;">
</g>
<g style="fill:#000000; fill-opacity:1.0; 
stroke:#000000; stroke-width:39.3701; stroke-opacity:1; 
stroke-linecap:round; stroke-linejoin:round;">
<circle cx="7953.46" cy="23657.5" r="472.441" /> 
<circle cx="8953.46" cy="24657.5" r="472.441" /> 
<circle cx="8953.46" cy="22657.5" r="472.441" /> 
<circle cx="6953.46" cy="22657.5" r="472.441" /> 
<circle cx="6953.46" cy="24657.5" r="472.441" /> 
</g>
<g style="fill:#000000; fill-opacity:1.0; 
stroke:#000000; stroke-width:551.181; stroke-opacity:1; 
stroke-linecap:round; stroke-linejoin:round;">
</g>
<g style="fill:#000000; fill-opacity:0.0; 
stroke:#000000; stroke-width:551.181; stroke-opacity:1; 
stroke-linecap:round; stroke-linejoin:round;">
<path d="M39529 12407
L39962 12407
" />
<path d="M40533 13411
L40533 12978
" />
<path d="M40533 11836
L40533 11403
" />
</g>
<g style="fill:#000000; fill-opacity:0.0; 
stroke:#000000; stroke-width:39.3701; stroke-opacity:1; 
stroke-linecap:round; stroke-linejoin:round;">
</g>
<g style="fill:#000000; fill-opacity:1.0; 
stroke:#000000; stroke-width:39.3701; stroke-opacity:1; 
stroke-linecap:round; stroke-linejoin:round;">
<polyline style="fill-rule:evenodd;"
points="24811,38783
25755,38783
25755,39531
24811,39531
24811,38783
" /> 
</g>
<g style="fill:#000000; fill-opacity:1.0; 
stroke:#000000; stroke-width:787.402; stroke-opacity:1; 
stroke-linecap:round; stroke-linejoin:round;">
</g>
<g style="fill:#000000; fill-opacity:0.0; 
stroke:#000000; stroke-width:787.402; stroke-opacity:1; 
stroke-linecap:round; stroke-linejoin:round;">
<path d="M25381 40157
L25185 40157
" />
<path d="M25381 41157
L25185 41157
" />
<path d="M25381 42157
L25185 42157
" />
<path d="M28381 42157
L28185 42157
" />
<path d="M28381 41157
L28185 41157
" />
<path d="M28381 40157
L28185 40157
" />
<path d="M28381 39157
L28185 39157
" />
</g>
<g style="fill:#000000; fill-opacity:0.0; 
stroke:#000000; stroke-width:39.3701; stroke-opacity:1; 
stroke-linecap:round; stroke-linejoin:round;">
</g>
<g style="fill:#000000; fill-opacity:1.0; 
stroke:#000000; stroke-width:39.3701; stroke-opacity:1; 
stroke-linecap:round; stroke-linejoin:round;">
<polyline style="fill-rule:evenodd;"
points="24811,33783
25755,33783
25755,34531
24811,34531
24811,33783
" /> 
</g>
<g style="fill:#000000; fill-opacity:1.0; 
stroke:#000000; stroke-width:787.402; stroke-opacity:1; 
stroke-linecap:round; stroke-linejoin:round;">
</g>
<g style="fill:#000000; fill-opacity:0.0; 
stroke:#000000; stroke-width:787.402; stroke-opacity:1; 
stroke-linecap:round; stroke-linejoin:round;">
<path d="M25381 35157
L25185 35157
" />
<path d="M25381 36157
L25185 36157
" />
<path d="M25381 37157
L25185 37157
" />
<path d="M28381 37157
L28185 37157
" />
<path d="M28381 36157
L28185 36157
" />
<path d="M28381 35157
L28185 35157
" />
<path d="M28381 34157
L28185 34157
" />
</g>
<g style="fill:#000000; fill-opacity:0.0; 
stroke:#000000; stroke-width:787; stroke-opacity:1; 
stroke-linecap:round; stroke-linejoin:round;">
<path d="M35480 11407
L35086 11407
" />
<path d="M34283 12604
L34283 12210
" />
<path d="M34283 10604
L34283 10210
" />
<path d="M30480 11407
L30086 11407
" />
<path d="M29283 12604
L29283 12210
" />
<path d="M29283 10604
L29283 10210
" />
</g>
<g style="fill:#000000; fill-opacity:0.0; 
stroke:#000000; stroke-width:39.3701; stroke-opacity:1; 
stroke-linecap:round; stroke-linejoin:round;">
</g>
<g style="fill:#000000; fill-opacity:1.0; 
stroke:#000000; stroke-width:39.3701; stroke-opacity:1; 
stroke-linecap:round; stroke-linejoin:round;">
<circle cx="43307.1" cy="5905.51" r="1161.42" /> 
<circle cx="7874.02" cy="5905.51" r="1161.42" /> 
<circle cx="7874.02" cy="49212.6" r="1161.42" /> 
<circle cx="43307.1" cy="49212.6" r="1161.42" /> 
<circle cx="11783.5" cy="47157.5" r="374.016" /> 
<circle cx="33033.5" cy="17157.5" r="374.016" /> 
<circle cx="10033.5" cy="17657.5" r="374.016" /> 
<circle cx="38783.5" cy="28657.5" r="374.016" /> 
<circle cx="38783.5" cy="30907.5" r="374.016" /> 
<circle cx="37033.5" cy="37407.5" r="374.016" /> 
<circle cx="37033.5" cy="40157.5" r="374.016" /> 
<circle cx="37033.5" cy="48157.5" r="374.016" /> 
<circle cx="37033.5" cy="43407.5" r="374.016" /> 
<circle cx="36783.5" cy="24907.5" r="374.016" /> 
<circle cx="36783.5" cy="19657.5" r="374.016" /> 
<circle cx="39283.5" cy="40157.5" r="374.016" /> 
<circle cx="39283.5" cy="43407.5" r="374.016" /> 
<circle cx="35033.5" cy="41407.5" r="374.016" /> 
<circle cx="35033.5" cy="37407.5" r="374.016" /> 
<circle cx="19783.5" cy="29907.5" r="374.016" /> 
<circle cx="19783.5" cy="32157.5" r="374.016" /> 
<circle cx="26533.5" cy="32157.5" r="374.016" /> 
<circle cx="25533.5" cy="20907.5" r="374.016" /> 
<circle cx="25533.5" cy="17157.5" r="374.016" /> 
<circle cx="18783.5" cy="33157.5" r="374.016" /> 
<circle cx="18783.5" cy="28407.5" r="374.016" /> 
<circle cx="15283.5" cy="32407.5" r="374.016" /> 
<circle cx="15283.5" cy="29657.5" r="374.016" /> 
</g>
<g style="fill:#000000; fill-opacity:1.0; 
stroke:#000000; stroke-width:196.85; stroke-opacity:1; 
stroke-linecap:round; stroke-linejoin:round;">
</g>
<g style="fill:#000000; fill-opacity:0.0; 
stroke:#000000; stroke-width:196.85; stroke-opacity:1; 
stroke-linecap:round; stroke-linejoin:round;">
<path d="M38783 28657
L38783 30907
" />
<path d="M37033 37407
L37033 40157
" />
<path d="M37033 43407
L37033 48157
" />
<path d="M36783 19657
L36783 24907
" />
<path d="M39283 40157
L39283 43407
" />
<path d="M35033 41407
L35033 37407
" />
<path d="M19783 32157
L19783 29907
" />
<path d="M19783 32157
L26533 32157
" />
<path d="M25533 20907
L25533 17157
" />
<path d="M18783 33157
L18783 28407
" />
<path d="M15283 32407
L15283 29657
" />
</g>
<g style="fill:#FFFFFF; fill-opacity:0.0; 
stroke:#FFFFFF; stroke-width:39.3701; stroke-opacity:1; 
stroke-linecap:round; stroke-linejoin:round;">
</g>
<g style="fill:#FFFFFF; fill-opacity:1.0; 
stroke:#FFFFFF; stroke-width:39.3701; stroke-opacity:1; 
stroke-linecap:round; stroke-linejoin:round;">
<circle cx="11783.5" cy="47157.5" r="98.4252" /> 
<circle cx="33033.5" cy="17157.5" r="98.4252" /> 
<circle cx="10033.5" cy="17657.5" r="98.4252" /> 
<circle cx="38783.5" cy="28657.5" r="98.4252" /> 
<circle cx="38783.5" cy="30907.5" r="98.4252" /> 
<circle cx="37033.5" cy="37407.5" r="98.4252" /> 
<circle cx="37033.5" cy="40157.5" r="98.4252" /> 
<circle cx="37033.5" cy="48157.5" r="98.4252" /> 
<circle cx="37033.5" cy="43407.5" r="98.4252" /> 
<circle cx="36783.5" cy="24907.5" r="98.4252" /> 
<circle cx="36783.5" cy="19657.5" r="98.4252" /> 
<circle cx="39283.5" cy="40157.5" r="98.4252" /> 
<circle cx="39283.5" cy="43407.5" r="98.4252" /> 
<circle cx="35033.5" cy="41407.5" r="98.4252" /> 
<circle cx="35033.5" cy="37407.5" r="98.4252" /> 
<circle cx="19783.5" cy="29907.5" r="98.4252" /> 
<circle cx="19783.5" cy="32157.5" r="98.4252" /> 
<circle cx="26533.5" cy="32157.5" r="98.4252" /> 
<circle cx="25533.5" cy="20907.5" r="98.4252" /> 
<circle cx="25533.5" cy="17157.5" r="98.4252" /> 
<circle cx="18783.5" cy="33157.5" r="98.4252" /> 
<circle cx="18783.5" cy="28407.5" r="98.4252" /> 
<circle cx="15283.5" cy="32407.5" r="98.4252" /> 
<circle cx="15283.5" cy="29657.5" r="98.4252" /> 
<circle cx="22783.5" cy="23157.5" r="98.4252" /> 
<circle cx="7080.46" cy="43285.5" r="98.4252" /> 
<circle cx="12986.5" cy="43285.5" r="98.4252" /> 
<circle cx="7080.46" cy="40529.5" r="98.4252" /> 
<circle cx="12986.5" cy="40529.5" r="98.4252" /> 
<circle cx="12986.5" cy="28779.5" r="98.4252" /> 
<circle cx="7080.46" cy="28779.5" r="98.4252" /> 
<circle cx="12986.5" cy="31535.5" r="98.4252" /> 
<circle cx="7080.46" cy="31535.5" r="98.4252" /> 
<circle cx="17486.5" cy="20779.5" r="98.4252" /> 
<circle cx="11580.5" cy="20779.5" r="98.4252" /> 
<circle cx="17486.5" cy="23535.5" r="98.4252" /> 
<circle cx="11580.5" cy="23535.5" r="98.4252" /> 
<circle cx="14533.5" cy="18929.5" r="98.4252" /> 
<circle cx="14533.5" cy="25425.5" r="98.4252" /> 
<circle cx="34236.5" cy="20779.5" r="98.4252" /> 
<circle cx="28330.5" cy="20779.5" r="98.4252" /> 
<circle cx="34236.5" cy="23535.5" r="98.4252" /> 
<circle cx="28330.5" cy="23535.5" r="98.4252" /> 
<circle cx="31283.5" cy="18929.5" r="98.4252" /> 
<circle cx="31283.5" cy="25425.5" r="98.4252" /> 
<circle cx="39905.5" cy="18954.5" r="98.4252" /> 
<circle cx="39905.5" cy="24860.5" r="98.4252" /> 
<circle cx="42661.5" cy="18954.5" r="98.4252" /> 
<circle cx="42661.5" cy="24860.5" r="98.4252" /> 
<circle cx="42033.5" cy="33907.5" r="98.4252" /> 
<circle cx="43033.5" cy="33907.5" r="98.4252" /> 
<circle cx="41783.5" cy="27407.5" r="98.4252" /> 
<circle cx="40783.5" cy="27407.5" r="98.4252" /> 
<circle cx="33783.5" cy="33657.5" r="98.4252" /> 
<circle cx="34783.5" cy="33657.5" r="98.4252" /> 
<circle cx="11089.6" cy="37782.5" r="98.4252" /> 
<circle cx="8727.36" cy="37782.5" r="98.4252" /> 
<circle cx="11089.6" cy="34282.5" r="98.4252" /> 
<circle cx="8727.36" cy="34282.5" r="98.4252" /> 
<circle cx="12033.5" cy="11907.5" r="98.4252" /> 
<circle cx="15033.5" cy="11907.5" r="98.4252" /> 
<circle cx="17533.5" cy="11907.5" r="98.4252" /> 
<circle cx="20533.5" cy="11907.5" r="98.4252" /> 
<circle cx="23033.5" cy="11907.5" r="98.4252" /> 
<circle cx="26033.5" cy="11907.5" r="98.4252" /> 
<circle cx="7953.46" cy="10657.5" r="98.4252" /> 
<circle cx="8953.46" cy="11657.5" r="98.4252" /> 
<circle cx="8953.46" cy="9657.48" r="98.4252" /> 
<circle cx="6953.46" cy="9657.48" r="98.4252" /> 
<circle cx="6953.46" cy="11657.5" r="98.4252" /> 
<circle cx="42783.5" cy="29657.5" r="78.7402" /> 
<circle cx="43783.5" cy="29657.5" r="98.4252" /> 
<circle cx="42783.5" cy="30657.5" r="98.4252" /> 
<circle cx="43783.5" cy="30657.5" r="98.4252" /> 
<circle cx="42783.5" cy="31657.5" r="98.4252" /> 
<circle cx="43783.5" cy="31657.5" r="98.4252" /> 
<circle cx="42783.5" cy="36157.5" r="78.7402" /> 
<circle cx="43783.5" cy="36157.5" r="98.4252" /> 
<circle cx="42783.5" cy="37157.5" r="98.4252" /> 
<circle cx="43783.5" cy="37157.5" r="98.4252" /> 
<circle cx="42783.5" cy="38157.5" r="98.4252" /> 
<circle cx="43783.5" cy="38157.5" r="98.4252" /> 
<circle cx="33033.5" cy="43907.5" r="98.4252" /> 
<circle cx="34033.5" cy="43907.5" r="98.4252" /> 
<circle cx="35033.5" cy="43907.5" r="98.4252" /> 
<circle cx="7953.46" cy="23657.5" r="98.4252" /> 
<circle cx="8953.46" cy="24657.5" r="98.4252" /> 
<circle cx="8953.46" cy="22657.5" r="98.4252" /> 
<circle cx="6953.46" cy="22657.5" r="98.4252" /> 
<circle cx="6953.46" cy="24657.5" r="98.4252" /> 
<circle cx="39746.1" cy="12407.5" r="98.4252" /> 
<circle cx="40533.5" cy="13194.9" r="98.4252" /> 
<circle cx="40533.5" cy="11620.1" r="98.4252" /> 
<circle cx="25283.5" cy="39157.5" r="98.4252" /> 
<circle cx="25283.5" cy="40157.5" r="98.4252" /> 
<circle cx="25283.5" cy="41157.5" r="98.4252" /> 
<circle cx="25283.5" cy="42157.5" r="98.4252" /> 
<circle cx="28283.5" cy="42157.5" r="98.4252" /> 
<circle cx="28283.5" cy="41157.5" r="98.4252" /> 
<circle cx="28283.5" cy="40157.5" r="98.4252" /> 
<circle cx="28283.5" cy="39157.5" r="98.4252" /> 
<circle cx="25283.5" cy="34157.5" r="98.4252" /> 
<circle cx="25283.5" cy="35157.5" r="98.4252" /> 
<circle cx="25283.5" cy="36157.5" r="98.4252" /> 
<circle cx="25283.5" cy="37157.5" r="98.4252" /> 
<circle cx="28283.5" cy="37157.5" r="98.4252" /> 
<circle cx="28283.5" cy="36157.5" r="98.4252" /> 
<circle cx="28283.5" cy="35157.5" r="98.4252" /> 
<circle cx="28283.5" cy="34157.5" r="98.4252" /> 
<circle cx="35283.5" cy="11407.5" r="98.4252" /> 
<circle cx="34283.5" cy="12407.5" r="98.4252" /> 
<circle cx="34283.5" cy="10407.5" r="98.4252" /> 
<circle cx="30283.5" cy="11407.5" r="98.4252" /> 
<circle cx="29283.5" cy="12407.5" r="98.4252" /> 
<circle cx="29283.5" cy="10407.5" r="98.4252" /> 
<circle cx="43307.1" cy="5905.51" r="98.4252" /> 
<circle cx="7874.02" cy="5905.51" r="98.4252" /> 
<circle cx="7874.02" cy="49212.6" r="98.4252" /> 
<circle cx="43307.1" cy="49212.6" r="98.4252" /> 
</g>
<g style="fill:#000000; fill-opacity:1.0; 
stroke:#000000; stroke-width:59.0551; stroke-opacity:1; 
stroke-linecap:round; stroke-linejoin:round;">
</g>
<g style="fill:#000000; fill-opacity:0.0; 
stroke:#000000; stroke-width:59.0551; stroke-opacity:1; 
stroke-linecap:round; stroke-linejoin:round;">
<path d="M11490 41356
L12238 41001
" />
<path d="M7789 40844
L8655 41198
" />
<path d="M8655 41198
L8143 40372
" />
<path d="M8143 40372
L9009 40726
" />
<path d="M9009 40726
L8576 39938
" />
<path d="M8576 39938
L9403 40490
" />
<path d="M9403 40490
L9442 39545
" />
<path d="M9442 39545
L9876 40332
" />
<path d="M9876 40332
L10230 39505
" />
<path d="M10230 39505
L10427 40372
" />
<path d="M10427 40372
L10939 39702
" />
<path d="M10939 39702
L10860 40608
" />
<path d="M10860 40608
L11529 40057
" />
<path d="M11529 40057
L11214 40923
" />
<path d="M11214 40923
L12002 40529
" />
<path d="M12002 40529
L11490 41316
" />
<path d="M7828 43009
L8734 42773
" />
<path d="M8734 42773
L8379 43679
" />
<path d="M8379 43679
L9009 43088
" />
<path d="M9009 43088
L9009 44072
" />
<path d="M9009 44072
L9521 43403
" />
<path d="M9521 43403
L9561 44269
" />
<path d="M9561 44269
L9954 43442
" />
<path d="M9954 43442
L10151 44348
" />
<path d="M10151 44348
L10427 43403
" />
<path d="M10427 43403
L10899 44151
" />
<path d="M10899 44151
L10702 43324
" />
<path d="M10702 43324
L11490 43797
" />
<path d="M11490 43797
L11096 43009
" />
<path d="M11096 43009
L11962 43403
" />
<path d="M11962 43403
L11411 42576
" />
<path d="M11411 42576
L12238 42931
" />
<circle cx="10033.5" cy="41907.5" r="1535" /> 
<circle cx="10033.5" cy="41907.5" r="2480" /> 
<path d="M8576 30708
L7828 31063
" />
<path d="M12277 31220
L11411 30866
" />
<path d="M11411 30866
L11923 31692
" />
<path d="M11923 31692
L11057 31338
" />
<path d="M11057 31338
L11490 32126
" />
<path d="M11490 32126
L10663 31574
" />
<path d="M10663 31574
L10624 32519
" />
<path d="M10624 32519
L10190 31732
" />
<path d="M10190 31732
L9836 32559
" />
<path d="M9836 32559
L9639 31692
" />
<path d="M9639 31692
L9127 32362
" />
<path d="M9127 32362
L9206 31456
" />
<path d="M9206 31456
L8537 32007
" />
<path d="M8537 32007
L8852 31141
" />
<path d="M8852 31141
L8064 31535
" />
<path d="M8064 31535
L8576 30748
" />
<path d="M12238 29055
L11332 29291
" />
<path d="M11332 29291
L11687 28385
" />
<path d="M11687 28385
L11057 28976
" />
<path d="M11057 28976
L11057 27992
" />
<path d="M11057 27992
L10545 28661
" />
<path d="M10545 28661
L10505 27795
" />
<path d="M10505 27795
L10112 28622
" />
<path d="M10112 28622
L9915 27716
" />
<path d="M9915 27716
L9639 28661
" />
<path d="M9639 28661
L9167 27913
" />
<path d="M9167 27913
L9364 28740
" />
<path d="M9364 28740
L8576 28267
" />
<path d="M8576 28267
L8970 29055
" />
<path d="M8970 29055
L8104 28661
" />
<path d="M8104 28661
L8655 29488
" />
<path d="M8655 29488
L7828 29133
" />
<circle cx="10033.5" cy="30157.5" r="1535" /> 
<circle cx="10033.5" cy="30157.5" r="2480" /> 
<path d="M13076 22708
L12328 23063
" />
<path d="M16777 23220
L15911 22866
" />
<path d="M15911 22866
L16423 23692
" />
<path d="M16423 23692
L15557 23338
" />
<path d="M15557 23338
L15990 24126
" />
<path d="M15990 24126
L15163 23574
" />
<path d="M15163 23574
L15124 24519
" />
<path d="M15124 24519
L14690 23732
" />
<path d="M14690 23732
L14336 24559
" />
<path d="M14336 24559
L14139 23692
" />
<path d="M14139 23692
L13627 24362
" />
<path d="M13627 24362
L13706 23456
" />
<path d="M13706 23456
L13037 24007
" />
<path d="M13037 24007
L13352 23141
" />
<path d="M13352 23141
L12564 23535
" />
<path d="M12564 23535
L13076 22748
" />
<path d="M16738 21055
L15832 21291
" />
<path d="M15832 21291
L16187 20385
" />
<path d="M16187 20385
L15557 20976
" />
<path d="M15557 20976
L15557 19992
" />
<path d="M15557 19992
L15045 20661
" />
<path d="M15045 20661
L15005 19795
" />
<path d="M15005 19795
L14612 20622
" />
<path d="M14612 20622
L14415 19716
" />
<path d="M14415 19716
L14139 20661
" />
<path d="M14139 20661
L13667 19913
" />
<path d="M13667 19913
L13864 20740
" />
<path d="M13864 20740
L13076 20267
" />
<path d="M13076 20267
L13470 21055
" />
<path d="M13470 21055
L12604 20661
" />
<path d="M12604 20661
L13155 21488
" />
<path d="M13155 21488
L12328 21133
" />
<circle cx="14533.5" cy="22157.5" r="1535" /> 
<circle cx="14533.5" cy="22157.5" r="2480" /> 
<path d="M29826 22708
L29078 23063
" />
<path d="M33527 23220
L32661 22866
" />
<path d="M32661 22866
L33173 23692
" />
<path d="M33173 23692
L32307 23338
" />
<path d="M32307 23338
L32740 24126
" />
<path d="M32740 24126
L31913 23574
" />
<path d="M31913 23574
L31874 24519
" />
<path d="M31874 24519
L31440 23732
" />
<path d="M31440 23732
L31086 24559
" />
<path d="M31086 24559
L30889 23692
" />
<path d="M30889 23692
L30377 24362
" />
<path d="M30377 24362
L30456 23456
" />
<path d="M30456 23456
L29787 24007
" />
<path d="M29787 24007
L30102 23141
" />
<path d="M30102 23141
L29314 23535
" />
<path d="M29314 23535
L29826 22748
" />
<path d="M33488 21055
L32582 21291
" />
<path d="M32582 21291
L32937 20385
" />
<path d="M32937 20385
L32307 20976
" />
<path d="M32307 20976
L32307 19992
" />
<path d="M32307 19992
L31795 20661
" />
<path d="M31795 20661
L31755 19795
" />
<path d="M31755 19795
L31362 20622
" />
<path d="M31362 20622
L31165 19716
" />
<path d="M31165 19716
L30889 20661
" />
<path d="M30889 20661
L30417 19913
" />
<path d="M30417 19913
L30614 20740
" />
<path d="M30614 20740
L29826 20267
" />
<path d="M29826 20267
L30220 21055
" />
<path d="M30220 21055
L29354 20661
" />
<path d="M29354 20661
L29905 21488
" />
<path d="M29905 21488
L29078 21133
" />
<circle cx="31283.5" cy="22157.5" r="1535" /> 
<circle cx="31283.5" cy="22157.5" r="2480" /> 
<path d="M41834 23364
L42189 24112
" />
<path d="M42346 19663
L41992 20529
" />
<path d="M41992 20529
L42818 20017
" />
<path d="M42818 20017
L42464 20883
" />
<path d="M42464 20883
L43252 20450
" />
<path d="M43252 20450
L42700 21277
" />
<path d="M42700 21277
L43645 21316
" />
<path d="M43645 21316
L42858 21750
" />
<path d="M42858 21750
L43685 22104
" />
<path d="M43685 22104
L42818 22301
" />
<path d="M42818 22301
L43488 22813
" />
<path d="M43488 22813
L42582 22734
" />
<path d="M42582 22734
L43133 23403
" />
<path d="M43133 23403
L42267 23088
" />
<path d="M42267 23088
L42661 23876
" />
<path d="M42661 23876
L41874 23364
" />
<path d="M40181 19702
L40417 20608
" />
<path d="M40417 20608
L39511 20253
" />
<path d="M39511 20253
L40102 20883
" />
<path d="M40102 20883
L39118 20883
" />
<path d="M39118 20883
L39787 21395
" />
<path d="M39787 21395
L38921 21435
" />
<path d="M38921 21435
L39748 21828
" />
<path d="M39748 21828
L38842 22025
" />
<path d="M38842 22025
L39787 22301
" />
<path d="M39787 22301
L39039 22773
" />
<path d="M39039 22773
L39866 22576
" />
<path d="M39866 22576
L39393 23364
" />
<path d="M39393 23364
L40181 22970
" />
<path d="M40181 22970
L39787 23836
" />
<path d="M39787 23836
L40614 23285
" />
<path d="M40614 23285
L40259 24112
" />
<circle cx="41283.5" cy="21907.5" r="1535" /> 
<circle cx="41283.5" cy="21907.5" r="2480" /> 
<path d="M42533 34507
L42953 34507
" />
<path d="M42733 34707
L42733 34297
" />
<circle cx="42533.5" cy="33907.5" r="1000" /> 
<path d="M41283 26807
L40863 26807
" />
<path d="M41083 26607
L41083 27017
" />
<circle cx="41283.5" cy="27407.5" r="1000" /> 
<path d="M34283 34257
L34703 34257
" />
<path d="M34483 34457
L34483 34047
" />
<circle cx="34283.5" cy="33657.5" r="1000" /> 
<path d="M10695 36995
L10499 36798
" />
<path d="M10695 38569
L10499 38766
" />
<path d="M10695.9 38569.9 A1113.55 1113.55 0.0 0 0 10695.9 36995.1 " />
<path d="M8924.21 38373 A1147.83 1147.83 0.0 0 0 10499 38766.7 " />
<path d="M10499 36798.2 A1147.83 1147.83 0.0 0 0 8924.21 37191.9 " />
<path d="M8924 38373
L8924 37782
" />
<path d="M8924 37782
L8924 37191
" />
<path d="M9514 37388
L10302 38176
" />
<path d="M10302 37388
L9514 38176
" />
<path d="M10695 33495
L10499 33298
" />
<path d="M10695 35069
L10499 35266
" />
<path d="M10695.9 35069.9 A1113.55 1113.55 0.0 0 0 10695.9 33495.1 " />
<path d="M8924.21 34873 A1147.83 1147.83 0.0 0 0 10499 35266.7 " />
<path d="M10499 33298.2 A1147.83 1147.83 0.0 0 0 8924.21 33691.9 " />
<path d="M8924 34873
L8924 34282
" />
<path d="M8924 34282
L8924 33691
" />
<path d="M9514 33888
L10302 34676
" />
<path d="M10302 33888
L9514 34676
" />
<path d="M12033 15207
L12033 12507
" />
<path d="M12033 8907
L12033 11307
" />
<path d="M15183 11307
L15183 8907
" />
<path d="M15183 15207
L15183 12507
" />
<path d="M12033 15207
L15183 15207
" />
<path d="M15183 8907
L12033 8907
" />
<path d="M17533 15207
L17533 12507
" />
<path d="M17533 8907
L17533 11307
" />
<path d="M20683 11307
L20683 8907
" />
<path d="M20683 15207
L20683 12507
" />
<path d="M17533 15207
L20683 15207
" />
<path d="M20683 8907
L17533 8907
" />
<path d="M23033 15207
L23033 12507
" />
<path d="M23033 8907
L23033 11307
" />
<path d="M26183 11307
L26183 8907
" />
<path d="M26183 15207
L26183 12507
" />
<path d="M23033 15207
L26183 15207
" />
<path d="M26183 8907
L23033 8907
" />
</g>
<g style="fill:#000000; fill-opacity:0.0; 
stroke:#000000; stroke-width:150; stroke-opacity:1; 
stroke-linecap:round; stroke-linejoin:round;">
<path d="M3330 11720
L3566 11720
" />
<path d="M3330 9594
L3566 9594
" />
<path d="M5456 9594
L6637 9594
" />
<path d="M6637 11720
L5456 11720
" />
<path d="M3606 9397
L3566 9594
" />
<path d="M3566 9594
L3566 11720
" />
<path d="M3566 11720
L3606 11917
" />
<path d="M5456 9594
L5456 11720
" />
<path d="M5456 11720
L5417 11917
" />
<path d="M5417 9397
L5456 9594
" />
<path d="M5141 9397
L5417 11917
" />
<path d="M4551 9397
L4826 11917
" />
<path d="M4866 9397
L5141 11917
" />
<path d="M4236 9397
L4511 11917
" />
<path d="M3921 9397
L4196 11917
" />
<path d="M5417 9397
L3606 9397
" />
<path d="M3606 9397
L3881 11917
" />
<path d="M5417 11917
L3606 11917
" />
<path d="M3330 9594
L3330 11720
" />
<path d="M6637 9358
L9236 9358
" />
<path d="M9236 9358
L9236 11956
" />
<path d="M9236 11956
L6637 11956
" />
<path d="M6637 11956
L6637 9358
" />
</g>
<g style="fill:#000000; fill-opacity:0.0; 
stroke:#000000; stroke-width:120; stroke-opacity:1; 
stroke-linecap:round; stroke-linejoin:round;">
<path d="M44496 27586
L44496 33728
" />
<path d="M48196 33728
L48196 27586
" />
<path d="M48196 27586
L44496 27586
" />
<path d="M48196 33728
L44496 33728
" />
</g>
<g style="fill:#000000; fill-opacity:0.0; 
stroke:#000000; stroke-width:118; stroke-opacity:1; 
stroke-linecap:round; stroke-linejoin:round;">
<path d="M48196 31562
L44496 31562
" />
<path d="M48196 29751
L44496 29751
" />
</g>
<g style="fill:#000000; fill-opacity:0.0; 
stroke:#000000; stroke-width:120; stroke-opacity:1; 
stroke-linecap:round; stroke-linejoin:round;">
<path d="M44496 34086
L44496 40228
" />
<path d="M48196 40228
L48196 34086
" />
<path d="M48196 34086
L44496 34086
" />
<path d="M48196 40228
L44496 40228
" />
</g>
<g style="fill:#000000; fill-opacity:0.0; 
stroke:#000000; stroke-width:118; stroke-opacity:1; 
stroke-linecap:round; stroke-linejoin:round;">
<path d="M48196 38062
L44496 38062
" />
<path d="M48196 36251
L44496 36251
" />
</g>
<g style="fill:#000000; fill-opacity:0.0; 
stroke:#000000; stroke-width:59.0551; stroke-opacity:1; 
stroke-linecap:round; stroke-linejoin:round;">
<path d="M33033 43297
L32423 43297
" />
<path d="M32423 43297
L32423 44517
" />
<path d="M32423 44517
L33033 44517
" />
<path d="M33533 43407
L35533 43407
" />
<path d="M35533 43407
L35533 44407
" />
<path d="M35533 44407
L33533 44407
" />
<path d="M33533 44407
L33533 43407
" />
</g>
<g style="fill:#000000; fill-opacity:0.0; 
stroke:#000000; stroke-width:150; stroke-opacity:1; 
stroke-linecap:round; stroke-linejoin:round;">
<path d="M3330 24720
L3566 24720
" />
<path d="M3330 22594
L3566 22594
" />
<path d="M5456 22594
L6637 22594
" />
<path d="M6637 24720
L5456 24720
" />
<path d="M3606 22397
L3566 22594
" />
<path d="M3566 22594
L3566 24720
" />
<path d="M3566 24720
L3606 24917
" />
<path d="M5456 22594
L5456 24720
" />
<path d="M5456 24720
L5417 24917
" />
<path d="M5417 22397
L5456 22594
" />
<path d="M5141 22397
L5417 24917
" />
<path d="M4551 22397
L4826 24917
" />
<path d="M4866 22397
L5141 24917
" />
<path d="M4236 22397
L4511 24917
" />
<path d="M3921 22397
L4196 24917
" />
<path d="M5417 22397
L3606 22397
" />
<path d="M3606 22397
L3881 24917
" />
<path d="M5417 24917
L3606 24917
" />
<path d="M3330 22594
L3330 24720
" />
<path d="M6637 22358
L9236 22358
" />
<path d="M9236 22358
L9236 24956
" />
<path d="M9236 24956
L6637 24956
" />
<path d="M6637 24956
L6637 22358
" />
</g>
<g style="fill:#000000; fill-opacity:0.0; 
stroke:#000000; stroke-width:59.0551; stroke-opacity:1; 
stroke-linecap:round; stroke-linejoin:round;">
<circle cx="40533.5" cy="14297.2" r="157.48" /> 
<circle cx="40533.5" cy="12407.5" r="1574.8" /> 
<circle cx="40533.5" cy="12407.5" r="2204.72" /> 
<path d="M27283 38657
L27283 39157
" />
<path d="M27283 39157
L26283 39157
" />
<path d="M26283 39157
L26283 38657
" />
<path d="M27783 38657
L27783 42657
" />
<path d="M27783 42657
L25783 42657
" />
<path d="M25783 42657
L25783 38657
" />
<path d="M25783 38657
L27783 38657
" />
<path d="M27283 33657
L27283 34157
" />
<path d="M27283 34157
L26283 34157
" />
<path d="M26283 34157
L26283 33657
" />
<path d="M27783 33657
L27783 37657
" />
<path d="M27783 37657
L25783 37657
" />
<path d="M25783 37657
L25783 33657
" />
<path d="M25783 33657
L27783 33657
" />
<path d="M33338.2 11407.5 A945.292 945.292 0.0 0 0 33791.3 12214.6 " />
<path d="M33791.3 10600.4 A945.292 945.292 0.0 0 0 33338.2 11407.5 " />
<path d="M34785.1 12210.1 A946.521 946.521 0.0 0 0 34952.8 12076.8 " />
<path d="M34952.8 10738.2 A946.521 946.521 0.0 0 0 34785.1 10604.8 " />
<path d="M34952 10935
L34952 10738
" />
<path d="M34952 12076
L34952 11879
" />
<path d="M28338.2 11407.5 A945.292 945.292 0.0 0 0 28791.3 12214.6 " />
<path d="M28791.3 10600.4 A945.292 945.292 0.0 0 0 28338.2 11407.5 " />
<path d="M29785.1 12210.1 A946.521 946.521 0.0 0 0 29952.8 12076.8 " />
<path d="M29952.8 10738.2 A946.521 946.521 0.0 0 0 29785.1 10604.8 " />
<path d="M29952 10935
L29952 10738
" />
<path d="M29952 12076
L29952 11879
" />
<path d="M9733 41691
L9958 41691
" />
<path d="M9845 42085
L9845 41691
" />
<path d="M10295 42085
L10070 42085
" />
<path d="M10183 42085
L10183 41691
L10145 41748
L10108 41785
L10070 41804
" />
<path d="M9733 29941
L9958 29941
" />
<path d="M9845 30335
L9845 29941
" />
<path d="M10070 29979
L10089 29960
L10127 29941
L10220 29941
L10258 29960
L10277 29979
L10295 30016
L10295 30054
L10277 30110
L10052 30335
L10295 30335
" />
<path d="M14233 21941
L14458 21941
" />
<path d="M14345 22335
L14345 21941
" />
<path d="M14777 21941
L14589 21941
L14570 22129
L14589 22110
L14627 22091
L14720 22091
L14758 22110
L14777 22129
L14795 22166
L14795 22260
L14777 22298
L14758 22316
L14720 22335
L14627 22335
L14589 22316
L14570 22298
" />
<path d="M30983 21941
L31208 21941
" />
<path d="M31095 22335
L31095 21941
" />
<path d="M31508 22073
L31508 22335
" />
<path d="M31414 21923
L31320 22204
L31564 22204
" />
<path d="M40983 21941
L41208 21941
" />
<path d="M41095 22335
L41095 21941
" />
<path d="M41302 21941
L41545 21941
L41414 22091
L41470 22091
L41508 22110
L41527 22129
L41545 22166
L41545 22260
L41527 22298
L41508 22316
L41470 22335
L41358 22335
L41320 22316
L41302 22298
" />
<path d="M41217 35298
L41199 35316
L41142 35335
L41105 35335
L41049 35316
L41011 35279
L40992 35241
L40974 35166
L40974 35110
L40992 35035
L41011 34998
L41049 34960
L41105 34941
L41142 34941
L41199 34960
L41217 34979
" />
<path d="M41555 35073
L41555 35335
" />
<path d="M41461 34923
L41367 35204
L41611 35204
" />
<path d="M41217 26048
L41199 26066
L41142 26085
L41105 26085
L41049 26066
L41011 26029
L40992 25991
L40974 25916
L40974 25860
L40992 25785
L41011 25748
L41049 25710
L41105 25691
L41142 25691
L41199 25710
L41217 25729
" />
<path d="M41574 25691
L41386 25691
L41367 25879
L41386 25860
L41424 25841
L41517 25841
L41555 25860
L41574 25879
L41592 25916
L41592 26010
L41574 26048
L41555 26066
L41517 26085
L41424 26085
L41386 26066
L41367 26048
" />
<path d="M34217 35298
L34199 35316
L34142 35335
L34105 35335
L34049 35316
L34011 35279
L33992 35241
L33974 35166
L33974 35110
L33992 35035
L34011 34998
L34049 34960
L34105 34941
L34142 34941
L34199 34960
L34217 34979
" />
<path d="M34442 35110
L34405 35091
L34386 35073
L34367 35035
L34367 35016
L34386 34979
L34405 34960
L34442 34941
L34517 34941
L34555 34960
L34574 34979
L34592 35016
L34592 35035
L34574 35073
L34555 35091
L34517 35110
L34442 35110
L34405 35129
L34386 35148
L34367 35185
L34367 35260
L34386 35298
L34405 35316
L34442 35335
L34517 35335
L34555 35316
L34574 35298
L34592 35260
L34592 35185
L34574 35148
L34555 35129
L34517 35110
" />
<path d="M12653 37868
L12625 37896
L12541 37924
L12485 37924
L12400 37896
L12344 37840
L12316 37784
L12288 37671
L12288 37587
L12316 37474
L12344 37418
L12400 37362
L12485 37334
L12541 37334
L12625 37362
L12653 37390
" />
<path d="M13216 37924
L12878 37924
" />
<path d="M13047 37924
L13047 37334
L12991 37418
L12935 37474
L12878 37502
" />
<path d="M13413 37334
L13778 37334
L13581 37559
L13666 37559
L13722 37587
L13750 37615
L13778 37671
L13778 37812
L13750 37868
L13722 37896
L13666 37924
L13497 37924
L13441 37896
L13413 37868
" />
<path d="M12653 34368
L12625 34396
L12541 34424
L12485 34424
L12400 34396
L12344 34340
L12316 34284
L12288 34171
L12288 34087
L12316 33974
L12344 33918
L12400 33862
L12485 33834
L12541 33834
L12625 33862
L12653 33890
" />
<path d="M13216 34424
L12878 34424
" />
<path d="M13047 34424
L13047 33834
L12991 33918
L12935 33974
L12878 34002
" />
<path d="M13553 34087
L13497 34059
L13469 34030
L13441 33974
L13441 33946
L13469 33890
L13497 33862
L13553 33834
L13666 33834
L13722 33862
L13750 33890
L13778 33946
L13778 33974
L13750 34030
L13722 34059
L13666 34087
L13553 34087
L13497 34115
L13469 34143
L13441 34199
L13441 34312
L13469 34368
L13497 34396
L13553 34424
L13666 34424
L13722 34396
L13750 34368
L13778 34312
L13778 34199
L13750 34143
L13722 34115
L13666 34087
" />
<path d="M13467 12085
L13280 12085
L13280 11691
" />
<path d="M13805 12085
L13580 12085
" />
<path d="M13692 12085
L13692 11691
L13655 11748
L13617 11785
L13580 11804
" />
<path d="M18967 12085
L18780 12085
L18780 11691
" />
<path d="M19080 11729
L19099 11710
L19136 11691
L19230 11691
L19267 11710
L19286 11729
L19305 11766
L19305 11804
L19286 11860
L19061 12085
L19305 12085
" />
<path d="M24467 12085
L24280 12085
L24280 11691
" />
<path d="M24561 11691
L24805 11691
L24674 11841
L24730 11841
L24767 11860
L24786 11879
L24805 11916
L24805 12010
L24786 12048
L24767 12066
L24730 12085
L24617 12085
L24580 12066
L24561 12048
" />
</g>
<g style="fill:#000000; fill-opacity:0.0; 
stroke:#000000; stroke-width:120; stroke-opacity:1; 
stroke-linecap:round; stroke-linejoin:round;">
<path d="M7590 8678
L7590 8078
L7819 8078
L7876 8107
L7904 8136
L7933 8193
L7933 8278
L7904 8336
L7876 8364
L7819 8393
L7590 8393
" />
<path d="M8504 8678
L8162 8678
" />
<path d="M8333 8678
L8333 8078
L8276 8164
L8219 8221
L8162 8250
" />
<path d="M10098 10786
L10098 11071
L9498 11071
" />
<path d="M9498 10471
L9498 10357
L9526 10300
L9583 10243
L9698 10214
L9898 10214
L10012 10243
L10069 10300
L10098 10357
L10098 10471
L10069 10528
L10012 10586
L9898 10614
L9698 10614
L9583 10586
L9526 10528
L9498 10471
" />
</g>
<g style="fill:#000000; fill-opacity:0.0; 
stroke:#000000; stroke-width:80; stroke-opacity:1; 
stroke-linecap:round; stroke-linejoin:round;">
<path d="M43242 28335
L43242 27941
L43392 27941
L43430 27960
L43449 27979
L43467 28016
L43467 28073
L43449 28110
L43430 28129
L43392 28148
L43242 28148
" />
<path d="M43617 27979
L43636 27960
L43674 27941
L43767 27941
L43805 27960
L43824 27979
L43842 28016
L43842 28054
L43824 28110
L43599 28335
L43842 28335
" />
<path d="M43242 39835
L43242 39441
L43392 39441
L43430 39460
L43449 39479
L43467 39516
L43467 39573
L43449 39610
L43430 39629
L43392 39648
L43242 39648
" />
<path d="M43599 39441
L43842 39441
L43711 39591
L43767 39591
L43805 39610
L43824 39629
L43842 39666
L43842 39760
L43824 39798
L43805 39816
L43767 39835
L43655 39835
L43617 39816
L43599 39798
" />
</g>
<g style="fill:#000000; fill-opacity:0.0; 
stroke:#000000; stroke-width:59.0551; stroke-opacity:1; 
stroke-linecap:round; stroke-linejoin:round;">
<path d="M33742 45335
L33742 44941
L33892 44941
L33930 44960
L33949 44979
L33967 45016
L33967 45073
L33949 45110
L33930 45129
L33892 45148
L33742 45148
" />
<path d="M34305 45073
L34305 45335
" />
<path d="M34211 44923
L34117 45204
L34361 45204
" />
</g>
<g style="fill:#000000; fill-opacity:0.0; 
stroke:#000000; stroke-width:120; stroke-opacity:1; 
stroke-linecap:round; stroke-linejoin:round;">
<path d="M7590 21678
L7590 21078
L7819 21078
L7876 21107
L7904 21136
L7933 21193
L7933 21278
L7904 21336
L7876 21364
L7819 21393
L7590 21393
" />
<path d="M8476 21078
L8190 21078
L8162 21364
L8190 21336
L8247 21307
L8390 21307
L8447 21336
L8476 21364
L8504 21421
L8504 21564
L8476 21621
L8447 21650
L8390 21678
L8247 21678
L8190 21650
L8162 21621
" />
<path d="M10098 23728
L9812 23928
" />
<path d="M10098 24071
L9498 24071
L9498 23843
L9526 23786
L9555 23757
L9612 23728
L9698 23728
L9755 23757
L9783 23786
L9812 23843
L9812 24071
" />
<path d="M9783 23271
L9783 23471
" />
<path d="M10098 23471
L9498 23471
L9498 23186
" />
</g>
<g style="fill:#000000; fill-opacity:0.0; 
stroke:#000000; stroke-width:59.0551; stroke-opacity:1; 
stroke-linecap:round; stroke-linejoin:round;">
<path d="M42245 14873
L42208 14854
L42170 14816
L42114 14760
L42077 14741
L42039 14741
" />
<path d="M42058 14835
L42020 14816
L41983 14779
L41964 14704
L41964 14573
L41983 14498
L42020 14460
L42058 14441
L42133 14441
L42170 14460
L42208 14498
L42227 14573
L42227 14704
L42208 14779
L42170 14816
L42133 14835
L42058 14835
" />
<path d="M42358 14441
L42602 14441
L42470 14591
L42527 14591
L42564 14610
L42583 14629
L42602 14666
L42602 14760
L42583 14798
L42564 14816
L42527 14835
L42414 14835
L42377 14816
L42358 14798
" />
<path d="M26483 37941
L26483 38260
L26502 38298
L26520 38316
L26558 38335
L26633 38335
L26670 38316
L26689 38298
L26708 38260
L26708 37941
" />
<path d="M27064 38073
L27064 38335
" />
<path d="M26970 37923
L26877 38204
L27120 38204
" />
<path d="M26483 32941
L26483 33260
L26502 33298
L26520 33316
L26558 33335
L26633 33335
L26670 33316
L26689 33298
L26708 33260
L26708 32941
" />
<path d="M27083 32941
L26895 32941
L26877 33129
L26895 33110
L26933 33091
L27027 33091
L27064 33110
L27083 33129
L27102 33166
L27102 33260
L27083 33298
L27064 33316
L27027 33335
L26933 33335
L26895 33316
L26877 33298
" />
<path d="M32745 11873
L32708 11854
L32670 11816
L32614 11760
L32577 11741
L32539 11741
" />
<path d="M32558 11835
L32520 11816
L32483 11779
L32464 11704
L32464 11573
L32483 11498
L32520 11460
L32558 11441
L32633 11441
L32670 11460
L32708 11498
L32727 11573
L32727 11704
L32708 11779
L32670 11816
L32633 11835
L32558 11835
" />
<path d="M32877 11479
L32895 11460
L32933 11441
L33027 11441
L33064 11460
L33083 11479
L33102 11516
L33102 11554
L33083 11610
L32858 11835
L33102 11835
" />
<path d="M27745 11873
L27708 11854
L27670 11816
L27614 11760
L27577 11741
L27539 11741
" />
<path d="M27558 11835
L27520 11816
L27483 11779
L27464 11704
L27464 11573
L27483 11498
L27520 11460
L27558 11441
L27633 11441
L27670 11460
L27708 11498
L27727 11573
L27727 11704
L27708 11779
L27670 11816
L27633 11835
L27558 11835
" />
<path d="M28102 11835
L27877 11835
" />
<path d="M27989 11835
L27989 11441
L27952 11498
L27914 11535
L27877 11554
" />
</g>
<g style="fill:#000000; fill-opacity:0.0; 
stroke:#000000; stroke-width:19.685; stroke-opacity:1; 
stroke-linecap:round; stroke-linejoin:round;">
<path d="M32344 43218
L32344 44596
" />
<path d="M35730 43218
L35730 44596
" />
<path d="M32344 43218
L35730 43218
" />
<path d="M32344 44596
L35730 44596
" />
<path d="M35976 13096
L33240 13096
" />
<path d="M35976 13096
L35976 9710
" />
<path d="M33240 13096
L33240 9710
" />
<path d="M35976 9710
L33240 9710
" />
<path d="M30976 13096
L28240 13096
" />
<path d="M30976 13096
L30976 9710
" />
<path d="M28240 13096
L28240 9710
" />
<path d="M30976 9710
L28240 9710
" />
</g>
<g style="fill:#000000; fill-opacity:0.0; 
stroke:#000000; stroke-width:118.11; stroke-opacity:1; 
stroke-linecap:round; stroke-linejoin:round;">
<path d="M23200 53948
L22862 53948
" />
<path d="M23031 53948
L23031 53357
L22975 53442
L22919 53498
L22862 53526
" />
<path d="M23565 53357
L23622 53357
L23678 53385
L23706 53413
L23734 53470
L23762 53582
L23762 53723
L23734 53835
L23706 53892
L23678 53920
L23622 53948
L23565 53948
L23509 53920
L23481 53892
L23453 53835
L23425 53723
L23425 53582
L23453 53470
L23481 53413
L23509 53385
L23565 53357
" />
<path d="M24128 53357
L24184 53357
L24240 53385
L24268 53413
L24296 53470
L24325 53582
L24325 53723
L24296 53835
L24268 53892
L24240 53920
L24184 53948
L24128 53948
L24071 53920
L24043 53892
L24015 53835
L23987 53723
L23987 53582
L24015 53470
L24043 53413
L24071 53385
L24128 53357
" />
<path d="M24606 53920
L24606 53948
L24578 54004
L24550 54032
" />
<path d="M24971 53357
L25028 53357
L25084 53385
L25112 53413
L25140 53470
L25168 53582
L25168 53723
L25140 53835
L25112 53892
L25084 53920
L25028 53948
L24971 53948
L24915 53920
L24887 53892
L24859 53835
L24831 53723
L24831 53582
L24859 53470
L24887 53413
L24915 53385
L24971 53357
" />
<path d="M25534 53357
L25590 53357
L25646 53385
L25674 53413
L25703 53470
L25731 53582
L25731 53723
L25703 53835
L25674 53892
L25646 53920
L25590 53948
L25534 53948
L25478 53920
L25449 53892
L25421 53835
L25393 53723
L25393 53582
L25421 53470
L25449 53413
L25478 53385
L25534 53357
" />
<path d="M26096 53357
L26152 53357
L26209 53385
L26237 53413
L26265 53470
L26293 53582
L26293 53723
L26265 53835
L26237 53892
L26209 53920
L26152 53948
L26096 53948
L26040 53920
L26012 53892
L25984 53835
L25956 53723
L25956 53582
L25984 53470
L26012 53413
L26040 53385
L26096 53357
" />
<path d="M26996 53948
L26996 53554
" />
<path d="M26996 53610
L27024 53582
L27080 53554
L27165 53554
L27221 53582
L27249 53638
L27249 53948
" />
<path d="M27249 53638
L27277 53582
L27334 53554
L27418 53554
L27474 53582
L27502 53638
L27502 53948
" />
<path d="M27784 53948
L27784 53554
" />
<path d="M27784 53610
L27812 53582
L27868 53554
L27952 53554
L28008 53582
L28037 53638
L28037 53948
" />
<path d="M28037 53638
L28065 53582
L28121 53554
L28205 53554
L28262 53582
L28290 53638
L28290 53948
" />
<path d="M45275 53149
L5905 53149
" />
<path d="M45275 51181
L45275 54212
" />
<path d="M5905 51181
L5905 54212
" />
<path d="M5905 53149
L6349 52918
" />
<path d="M5905 53149
L6349 53380
" />
<path d="M45275 53149
L44832 52918
" />
<path d="M45275 53149
L44832 53380
" />
<path d="M50011 29949
L50011 30286
" />
<path d="M50011 30118
L49420 30118
L49505 30174
L49561 30230
L49589 30286
" />
<path d="M49476 29724
L49448 29696
L49420 29640
L49420 29499
L49448 29443
L49476 29415
L49533 29386
L49589 29386
L49673 29415
L50011 29752
L50011 29386
" />
<path d="M49420 29021
L49420 28965
L49448 28908
L49476 28880
L49533 28852
L49645 28824
L49786 28824
L49898 28852
L49955 28880
L49983 28908
L50011 28965
L50011 29021
L49983 29077
L49955 29105
L49898 29133
L49786 29161
L49645 29161
L49533 29133
L49476 29105
L49448 29077
L49420 29021
" />
<path d="M49983 28543
L50011 28543
L50067 28571
L50095 28599
" />
<path d="M49420 28177
L49420 28121
L49448 28065
L49476 28037
L49533 28008
L49645 27980
L49786 27980
L49898 28008
L49955 28037
L49983 28065
L50011 28121
L50011 28177
L49983 28233
L49955 28262
L49898 28290
L49786 28318
L49645 28318
L49533 28290
L49476 28262
L49448 28233
L49420 28177
" />
<path d="M49420 27615
L49420 27559
L49448 27502
L49476 27474
L49533 27446
L49645 27418
L49786 27418
L49898 27446
L49955 27474
L49983 27502
L50011 27559
L50011 27615
L49983 27671
L49955 27699
L49898 27727
L49786 27755
L49645 27755
L49533 27727
L49476 27699
L49448 27671
L49420 27615
" />
<path d="M49420 27052
L49420 26996
L49448 26940
L49476 26912
L49533 26884
L49645 26856
L49786 26856
L49898 26884
L49955 26912
L49983 26940
L50011 26996
L50011 27052
L49983 27109
L49955 27137
L49898 27165
L49786 27193
L49645 27193
L49533 27165
L49476 27137
L49448 27109
L49420 27052
" />
<path d="M50011 26152
L49617 26152
" />
<path d="M49673 26152
L49645 26124
L49617 26068
L49617 25984
L49645 25928
L49701 25899
L50011 25899
" />
<path d="M49701 25899
L49645 25871
L49617 25815
L49617 25731
L49645 25674
L49701 25646
L50011 25646
" />
<path d="M50011 25365
L49617 25365
" />
<path d="M49673 25365
L49645 25337
L49617 25281
L49617 25196
L49645 25140
L49701 25112
L50011 25112
" />
<path d="M49701 25112
L49645 25084
L49617 25028
L49617 24943
L49645 24887
L49701 24859
L50011 24859
" />
<path d="M49212 51181
L49212 3937
" />
<path d="M45275 51181
L50275 51181
" />
<path d="M45275 3937
L50275 3937
" />
<path d="M49212 3937
L49443 4380
" />
<path d="M49212 3937
L48981 4380
" />
<path d="M49212 51181
L49443 50737
" />
<path d="M49212 51181
L48981 50737
" />
</g>
<g style="fill:#000000; fill-opacity:0.0; 
stroke:#000000; stroke-width:39.3701; stroke-opacity:1; 
stroke-linecap:round; stroke-linejoin:round;">
<path d="M45275 51181
L5905 51181
" />
<path d="M45275 3937
L45275 51181
" />
<path d="M5905 3937
L45275 3937
" />
<path d="M5905 51181
L5905 3937
" />
<path d="M5905 3937
L5905 51181
" />
</g> 
</svg>
