<?xml version="1.0" standalone="no"?>
 <!DOCTYPE svg PUBLIC "-//W3C//DTD SVG 1.1//EN" 
 "http://www.w3.org/Graphics/SVG/1.1/DTD/svg11.dtd"> 
<svg xmlns="http://www.w3.org/2000/svg" version="1.1" 
    width="11.4986cm" height="8.99922cm" viewBox="0 0 45270 35430 ">
<title>SVG Picture created as DDS-brd.svg date 2015/04/13 02:49:20 </title>
  <desc>Picture generated by PCBNEW </desc>
<g style="fill:#000000; fill-opacity:1;stroke:#000000; stroke-opacity:1;
stroke-linecap:round; stroke-linejoin:round; "
 transform="translate(0 0) scale(1 1)">
</g>
<g style="fill:#000000; fill-opacity:0.0; 
stroke:#000000; stroke-width:118.11; stroke-opacity:1; 
stroke-linecap:round; stroke-linejoin:round;">
<path d="M32388 9110
L32388 9701
L32248 9701
L32163 9673
L32107 9616
L32079 9560
L32051 9448
L32051 9363
L32079 9251
L32107 9195
L32163 9138
L32248 9110
L32388 9110
" />
<path d="M31798 9110
L31798 9701
L31657 9701
L31573 9673
L31516 9616
L31488 9560
L31460 9448
L31460 9363
L31488 9251
L31516 9195
L31573 9138
L31657 9110
L31798 9110
" />
<path d="M31235 9138
L31151 9110
L31010 9110
L30954 9138
L30926 9167
L30898 9223
L30898 9279
L30926 9335
L30954 9363
L31010 9392
L31123 9420
L31179 9448
L31207 9476
L31235 9532
L31235 9588
L31207 9645
L31179 9673
L31123 9701
L30982 9701
L30898 9673
" />
<path d="M30251 9504
L30138 9110
L30026 9392
L29913 9110
L29801 9504
" />
<path d="M29576 9110
L29576 9504
" />
<path d="M29576 9701
L29604 9673
L29576 9645
L29548 9673
L29576 9701
L29576 9645
" />
<path d="M29379 9504
L29154 9504
" />
<path d="M29295 9701
L29295 9195
L29267 9138
L29210 9110
L29154 9110
" />
<path d="M28957 9110
L28957 9701
" />
<path d="M28704 9110
L28704 9420
L28732 9476
L28789 9504
L28873 9504
L28929 9476
L28957 9448
" />
<path d="M28001 9279
L27720 9279
" />
<path d="M28057 9110
L27861 9701
L27664 9110
" />
<path d="M27467 9110
L27467 9701
L27326 9701
L27242 9673
L27186 9616
L27158 9560
L27129 9448
L27129 9363
L27158 9251
L27186 9195
L27242 9138
L27326 9110
L27467 9110
" />
<path d="M26848 9110
L26736 9110
L26680 9138
L26651 9167
L26595 9251
L26567 9363
L26567 9588
L26595 9645
L26623 9673
L26680 9701
L26792 9701
L26848 9673
L26876 9645
L26904 9588
L26904 9448
L26876 9392
L26848 9363
L26792 9335
L26680 9335
L26623 9363
L26595 9392
L26567 9448
" />
<path d="M26230 9448
L26286 9476
L26314 9504
L26342 9560
L26342 9588
L26314 9645
L26286 9673
L26230 9701
L26117 9701
L26061 9673
L26033 9645
L26005 9588
L26005 9560
L26033 9504
L26061 9476
L26117 9448
L26230 9448
L26286 9420
L26314 9392
L26342 9335
L26342 9223
L26314 9167
L26286 9138
L26230 9110
L26117 9110
L26061 9138
L26033 9167
L26005 9223
L26005 9335
L26033 9392
L26061 9420
L26117 9448
" />
<path d="M25470 9701
L25752 9701
L25780 9420
L25752 9448
L25695 9476
L25555 9476
L25498 9448
L25470 9420
L25442 9363
L25442 9223
L25470 9167
L25498 9138
L25555 9110
L25695 9110
L25752 9138
L25780 9167
" />
<path d="M25077 9701
L25020 9701
L24964 9673
L24936 9645
L24908 9588
L24880 9476
L24880 9335
L24908 9223
L24936 9167
L24964 9138
L25020 9110
L25077 9110
L25133 9138
L25161 9167
L25189 9223
L25217 9335
L25217 9476
L25189 9588
L25161 9645
L25133 9673
L25077 9701
" />
<path d="M22883 9504
L22743 9110
L22602 9504
" />
<path d="M21955 9645
L21927 9673
L21871 9701
L21730 9701
L21674 9673
L21646 9645
L21618 9588
L21618 9532
L21646 9448
L21983 9110
L21618 9110
" />
<path d="M21365 9167
L21336 9138
L21365 9110
L21393 9138
L21365 9167
L21365 9110
" />
<path d="M20971 9701
L20915 9701
L20858 9673
L20830 9645
L20802 9588
L20774 9476
L20774 9335
L20802 9223
L20830 9167
L20858 9138
L20915 9110
L20971 9110
L21027 9138
L21055 9167
L21083 9223
L21111 9335
L21111 9476
L21083 9588
L21055 9645
L21027 9673
L20971 9701
" />
<path d="M18777 9504
L18665 9110
L18552 9392
L18440 9110
L18327 9504
" />
<path d="M18159 9504
L18018 9110
" />
<path d="M17877 9504
L18018 9110
L18074 8970
L18102 8942
L18159 8913
" />
<path d="M17653 9110
L17653 9701
" />
<path d="M17596 9335
L17428 9110
" />
<path d="M17428 9504
L17653 9279
" />
<path d="M17231 9504
L17090 9110
" />
<path d="M16949 9504
L17090 9110
L17146 8970
L17174 8942
L17231 8913
" />
<path d="M16753 9138
L16696 9110
L16584 9110
L16528 9138
L16500 9195
L16500 9223
L16528 9279
L16584 9307
L16668 9307
L16725 9335
L16753 9392
L16753 9420
L16725 9476
L16668 9504
L16584 9504
L16528 9476
" />
<path d="M15825 9645
L15796 9673
L15740 9701
L15600 9701
L15543 9673
L15515 9645
L15487 9588
L15487 9532
L15515 9448
L15853 9110
L15487 9110
" />
<path d="M15122 9701
L15065 9701
L15009 9673
L14981 9645
L14953 9588
L14925 9476
L14925 9335
L14953 9223
L14981 9167
L15009 9138
L15065 9110
L15122 9110
L15178 9138
L15206 9167
L15234 9223
L15262 9335
L15262 9476
L15234 9588
L15206 9645
L15178 9673
L15122 9701
" />
<path d="M14362 9110
L14700 9110
" />
<path d="M14531 9110
L14531 9701
L14587 9616
L14644 9560
L14700 9532
" />
<path d="M13828 9701
L14109 9701
L14137 9420
L14109 9448
L14053 9476
L13912 9476
L13856 9448
L13828 9420
L13800 9363
L13800 9223
L13828 9167
L13856 9138
L13912 9110
L14053 9110
L14109 9138
L14137 9167
" />
</g>
<g style="fill:#000000; fill-opacity:0.0; 
stroke:#000000; stroke-width:39.3701; stroke-opacity:1; 
stroke-linecap:round; stroke-linejoin:round;">
</g>
<g style="fill:#000000; fill-opacity:1.0; 
stroke:#000000; stroke-width:39.3701; stroke-opacity:1; 
stroke-linecap:round; stroke-linejoin:round;">
<polyline style="fill-rule:evenodd;"
points="22888,22133
22888,21622
22578,21622
22578,22133
22888,22133
" /> 
<polyline style="fill-rule:evenodd;"
points="22138,22133
22138,21622
21828,21622
21828,22133
22138,22133
" /> 
<circle cx="34108.6" cy="18878" r="374.016" /> 
<circle cx="34108.6" cy="17878" r="374.016" /> 
<circle cx="34108.6" cy="21878" r="374.016" /> 
<circle cx="34108.6" cy="22878" r="374.016" /> 
<circle cx="32108.6" cy="20878" r="374.016" /> 
<circle cx="32108.6" cy="19878" r="374.016" /> 
<polyline style="fill-rule:evenodd;"
points="27363,16347
26853,16347
26853,16658
27363,16658
27363,16347
" /> 
<polyline style="fill-rule:evenodd;"
points="27363,17097
26853,17097
26853,17408
27363,17408
27363,17097
" /> 
<polyline style="fill-rule:evenodd;"
points="18478,18522
18478,19033
18788,19033
18788,18522
18478,18522
" /> 
<polyline style="fill-rule:evenodd;"
points="19228,18522
19228,19033
19538,19033
19538,18522
19228,18522
" /> 
<polyline style="fill-rule:evenodd;"
points="22888,12383
22888,11872
22578,11872
22578,12383
22888,12383
" /> 
<polyline style="fill-rule:evenodd;"
points="22138,12383
22138,11872
21828,11872
21828,12383
22138,12383
" /> 
<polyline style="fill-rule:evenodd;"
points="16613,15097
16103,15097
16103,15408
16613,15408
16613,15097
" /> 
<polyline style="fill-rule:evenodd;"
points="16613,15847
16103,15847
16103,16158
16613,16158
16613,15847
" /> 
<polyline style="fill-rule:evenodd;"
points="15613,15097
15103,15097
15103,15408
15613,15408
15613,15097
" /> 
<polyline style="fill-rule:evenodd;"
points="15613,15847
15103,15847
15103,16158
15613,16158
15613,15847
" /> 
<polyline style="fill-rule:evenodd;"
points="12853,16158
13363,16158
13363,15847
12853,15847
12853,16158
" /> 
<polyline style="fill-rule:evenodd;"
points="12853,15408
13363,15408
13363,15097
12853,15097
12853,15408
" /> 
<polyline style="fill-rule:evenodd;"
points="10353,13908
10863,13908
10863,13597
10353,13597
10353,13908
" /> 
<polyline style="fill-rule:evenodd;"
points="10353,13158
10863,13158
10863,12847
10353,12847
10353,13158
" /> 
<polyline style="fill-rule:evenodd;"
points="13278,21422
13278,21933
13588,21933
13588,21422
13278,21422
" /> 
<polyline style="fill-rule:evenodd;"
points="14028,21422
14028,21933
14338,21933
14338,21422
14028,21422
" /> 
<polyline style="fill-rule:evenodd;"
points="27834,12265
28582,12265
28582,11990
27834,11990
27834,12265
" /> 
<polyline style="fill-rule:evenodd;"
points="27834,12765
28582,12765
28582,12490
27834,12490
27834,12765
" /> 
<polyline style="fill-rule:evenodd;"
points="27834,13265
28582,13265
28582,12990
27834,12990
27834,13265
" /> 
<polyline style="fill-rule:evenodd;"
points="27834,13765
28582,13765
28582,13490
27834,13490
27834,13765
" /> 
<polyline style="fill-rule:evenodd;"
points="27834,14265
28582,14265
28582,13990
27834,13990
27834,14265
" /> 
<polyline style="fill-rule:evenodd;"
points="27834,14765
28582,14765
28582,14490
27834,14490
27834,14765
" /> 
<polyline style="fill-rule:evenodd;"
points="27834,15265
28582,15265
28582,14990
27834,14990
27834,15265
" /> 
<polyline style="fill-rule:evenodd;"
points="27834,15765
28582,15765
28582,15490
27834,15490
27834,15765
" /> 
<polyline style="fill-rule:evenodd;"
points="27834,16265
28582,16265
28582,15990
27834,15990
27834,16265
" /> 
<polyline style="fill-rule:evenodd;"
points="27834,16765
28582,16765
28582,16490
27834,16490
27834,16765
" /> 
<polyline style="fill-rule:evenodd;"
points="31634,16765
32382,16765
32382,16490
31634,16490
31634,16765
" /> 
<polyline style="fill-rule:evenodd;"
points="31634,16265
32382,16265
32382,15990
31634,15990
31634,16265
" /> 
<polyline style="fill-rule:evenodd;"
points="31634,15765
32382,15765
32382,15490
31634,15490
31634,15765
" /> 
<polyline style="fill-rule:evenodd;"
points="31634,15265
32382,15265
32382,14990
31634,14990
31634,15265
" /> 
<polyline style="fill-rule:evenodd;"
points="31634,14765
32382,14765
32382,14490
31634,14490
31634,14765
" /> 
<polyline style="fill-rule:evenodd;"
points="31634,14265
32382,14265
32382,13990
31634,13990
31634,14265
" /> 
<polyline style="fill-rule:evenodd;"
points="31634,13765
32382,13765
32382,13490
31634,13490
31634,13765
" /> 
<polyline style="fill-rule:evenodd;"
points="31634,13265
32382,13265
32382,12990
31634,12990
31634,13265
" /> 
<polyline style="fill-rule:evenodd;"
points="31634,12765
32382,12765
32382,12490
31634,12490
31634,12765
" /> 
<polyline style="fill-rule:evenodd;"
points="31634,12265
32382,12265
32382,11990
31634,11990
31634,12265
" /> 
<polyline style="fill-rule:evenodd;"
points="22478,18833
22738,18833
22738,18672
22478,18672
22478,18833
" /> 
<polyline style="fill-rule:evenodd;"
points="22478,18083
22738,18083
22738,17922
22478,17922
22478,18083
" /> 
<polyline style="fill-rule:evenodd;"
points="21478,18833
21738,18833
21738,18672
21478,18672
21478,18833
" /> 
<polyline style="fill-rule:evenodd;"
points="22478,18458
22738,18458
22738,18297
22478,18297
22478,18458
" /> 
<polyline style="fill-rule:evenodd;"
points="21478,18083
21738,18083
21738,17922
21478,17922
21478,18083
" /> 
<circle cx="17358.6" cy="14128" r="374.016" /> 
<circle cx="14358.6" cy="14128" r="374.016" /> 
</g>
<g style="fill:#000000; fill-opacity:1.0; 
stroke:#000000; stroke-width:787.402; stroke-opacity:1; 
stroke-linecap:round; stroke-linejoin:round;">
</g>
<g style="fill:#000000; fill-opacity:0.0; 
stroke:#000000; stroke-width:787.402; stroke-opacity:1; 
stroke-linecap:round; stroke-linejoin:round;">
<path d="M11994 16127
L11797 16127
" />
<path d="M11108 17013
L11108 16816
" />
<path d="M11108 15438
L11108 15242
" />
</g>
<g style="fill:#000000; fill-opacity:0.0; 
stroke:#000000; stroke-width:39.3701; stroke-opacity:1; 
stroke-linecap:round; stroke-linejoin:round;">
</g>
<g style="fill:#000000; fill-opacity:1.0; 
stroke:#000000; stroke-width:39.3701; stroke-opacity:1; 
stroke-linecap:round; stroke-linejoin:round;">
<polyline style="fill-rule:evenodd;"
points="28380,17562
28380,18192
28695,18192
28695,17562
28380,17562
" /> 
<polyline style="fill-rule:evenodd;"
points="29521,17562
29521,18192
29836,18192
29836,17562
29521,17562
" /> 
<polyline style="fill-rule:evenodd;"
points="31836,18192
31836,17562
31521,17562
31521,18192
31836,18192
" /> 
<polyline style="fill-rule:evenodd;"
points="30695,18192
30695,17562
30380,17562
30380,18192
30695,18192
" /> 
<polyline style="fill-rule:evenodd;"
points="34693,17106
35323,17106
35323,16791
34693,16791
34693,17106
" /> 
<polyline style="fill-rule:evenodd;"
points="34693,15964
35323,15964
35323,15649
34693,15649
34693,15964
" /> 
<polyline style="fill-rule:evenodd;"
points="33293,17106
33923,17106
33923,16791
33293,16791
33293,17106
" /> 
<polyline style="fill-rule:evenodd;"
points="33293,15964
33923,15964
33923,15649
33293,15649
33293,15964
" /> 
<polyline style="fill-rule:evenodd;"
points="19736,17892
19736,17262
19421,17262
19421,17892
19736,17892
" /> 
<polyline style="fill-rule:evenodd;"
points="18595,17892
18595,17262
18280,17262
18280,17892
18595,17892
" /> 
<polyline style="fill-rule:evenodd;"
points="17673,14899
17043,14899
17043,15214
17673,15214
17673,14899
" /> 
<polyline style="fill-rule:evenodd;"
points="17673,16041
17043,16041
17043,16356
17673,16356
17673,16041
" /> 
<polyline style="fill-rule:evenodd;"
points="14673,14899
14043,14899
14043,15214
14673,15214
14673,14899
" /> 
<polyline style="fill-rule:evenodd;"
points="14673,16041
14043,16041
14043,16356
14673,16356
14673,16041
" /> 
<polyline style="fill-rule:evenodd;"
points="14336,19192
14336,18562
14021,18562
14021,19192
14336,19192
" /> 
<polyline style="fill-rule:evenodd;"
points="13195,19192
13195,18562
12880,18562
12880,19192
13195,19192
" /> 
<polyline style="fill-rule:evenodd;"
points="12880,17062
12880,17692
13195,17692
13195,17062
12880,17062
" /> 
<polyline style="fill-rule:evenodd;"
points="14021,17062
14021,17692
14336,17692
14336,17062
14021,17062
" /> 
<polyline style="fill-rule:evenodd;"
points="11543,14106
12173,14106
12173,13791
11543,13791
11543,14106
" /> 
<polyline style="fill-rule:evenodd;"
points="11543,12964
12173,12964
12173,12649
11543,12649
11543,12964
" /> 
<polyline style="fill-rule:evenodd;"
points="9673,12649
9043,12649
9043,12964
9673,12964
9673,12649
" /> 
<polyline style="fill-rule:evenodd;"
points="9673,13791
9043,13791
9043,14106
9673,14106
9673,13791
" /> 
<polyline style="fill-rule:evenodd;"
points="12880,20062
12880,20692
13195,20692
13195,20062
12880,20062
" /> 
<polyline style="fill-rule:evenodd;"
points="14021,20062
14021,20692
14336,20692
14336,20062
14021,20062
" /> 
<circle cx="10655.6" cy="19750" r="570.815" /> 
<circle cx="16561.6" cy="19750" r="570.815" /> 
<circle cx="10655.6" cy="22506" r="570.815" /> 
<circle cx="16561.6" cy="22506" r="570.815" /> 
<polyline style="fill-rule:evenodd;"
points="30058,23558
30058,22797
28658,22797
28658,23558
30058,23558
" /> 
<polyline style="fill-rule:evenodd;"
points="29538,20958
29538,20197
29178,20197
29178,20958
29538,20958
" /> 
<polyline style="fill-rule:evenodd;"
points="28638,20958
28638,20197
28278,20197
28278,20958
28638,20958
" /> 
<polyline style="fill-rule:evenodd;"
points="30438,20958
30438,20197
30078,20197
30078,20958
30438,20958
" /> 
<circle cx="17710.9" cy="25495.4" r="531.496" /> 
<circle cx="16710.9" cy="24495.4" r="531.496" /> 
<circle cx="18710.9" cy="24495.4" r="531.496" /> 
<circle cx="18710.9" cy="26495.4" r="531.496" /> 
<circle cx="16710.9" cy="26495.4" r="531.496" /> 
</g>
<g style="fill:#000000; fill-opacity:1.0; 
stroke:#000000; stroke-width:787.402; stroke-opacity:1; 
stroke-linecap:round; stroke-linejoin:round;">
</g>
<g style="fill:#000000; fill-opacity:0.0; 
stroke:#000000; stroke-width:787.402; stroke-opacity:1; 
stroke-linecap:round; stroke-linejoin:round;">
<path d="M36608 11877
L36411 11877
" />
<path d="M37805 11877
L37608 11877
" />
<path d="M37805 12877
L37608 12877
" />
<path d="M36608 12877
L36411 12877
" />
</g>
<g style="fill:#000000; fill-opacity:0.0; 
stroke:#000000; stroke-width:39.3701; stroke-opacity:1; 
stroke-linecap:round; stroke-linejoin:round;">
</g>
<g style="fill:#000000; fill-opacity:1.0; 
stroke:#000000; stroke-width:39.3701; stroke-opacity:1; 
stroke-linecap:round; stroke-linejoin:round;">
<polyline style="fill-rule:evenodd;"
points="36037,16251
36982,16251
36982,15503
36037,15503
36037,16251
" /> 
</g>
<g style="fill:#000000; fill-opacity:1.0; 
stroke:#000000; stroke-width:787.402; stroke-opacity:1; 
stroke-linecap:round; stroke-linejoin:round;">
</g>
<g style="fill:#000000; fill-opacity:0.0; 
stroke:#000000; stroke-width:787.402; stroke-opacity:1; 
stroke-linecap:round; stroke-linejoin:round;">
<path d="M37805 15877
L37608 15877
" />
<path d="M36608 14877
L36411 14877
" />
<path d="M37805 14877
L37608 14877
" />
<path d="M36608 13877
L36411 13877
" />
<path d="M37805 13877
L37608 13877
" />
</g>
<g style="fill:#000000; fill-opacity:0.0; 
stroke:#000000; stroke-width:39.3701; stroke-opacity:1; 
stroke-linecap:round; stroke-linejoin:round;">
</g>
<g style="fill:#000000; fill-opacity:1.0; 
stroke:#000000; stroke-width:39.3701; stroke-opacity:1; 
stroke-linecap:round; stroke-linejoin:round;">
<polyline style="fill-rule:evenodd;"
points="36037,23751
36982,23751
36982,23003
36037,23003
36037,23751
" /> 
</g>
<g style="fill:#000000; fill-opacity:1.0; 
stroke:#000000; stroke-width:787.402; stroke-opacity:1; 
stroke-linecap:round; stroke-linejoin:round;">
</g>
<g style="fill:#000000; fill-opacity:0.0; 
stroke:#000000; stroke-width:787.402; stroke-opacity:1; 
stroke-linecap:round; stroke-linejoin:round;">
<path d="M37805 23377
L37608 23377
" />
<path d="M36608 22377
L36411 22377
" />
<path d="M37805 22377
L37608 22377
" />
<path d="M36608 21377
L36411 21377
" />
<path d="M37805 21377
L37608 21377
" />
</g>
<g style="fill:#000000; fill-opacity:0.0; 
stroke:#000000; stroke-width:39.3701; stroke-opacity:1; 
stroke-linecap:round; stroke-linejoin:round;">
</g>
<g style="fill:#000000; fill-opacity:1.0; 
stroke:#000000; stroke-width:39.3701; stroke-opacity:1; 
stroke-linecap:round; stroke-linejoin:round;">
<circle cx="9836.93" cy="25590.6" r="1161.42" /> 
<circle cx="35427.5" cy="9842.52" r="1161.42" /> 
<circle cx="35427.5" cy="25590.6" r="1161.42" /> 
<circle cx="9836.93" cy="9842.52" r="1161.42" /> 
<polyline style="fill-rule:evenodd;"
points="21866,13145
21866,13283
22516,13283
22516,13145
21866,13145
" /> 
<polyline style="fill-rule:evenodd;"
points="21866,13401
21866,13539
22516,13539
22516,13401
21866,13401
" /> 
<polyline style="fill-rule:evenodd;"
points="21866,13657
21866,13795
22516,13795
22516,13657
21866,13657
" /> 
<polyline style="fill-rule:evenodd;"
points="21866,13913
21866,14051
22516,14051
22516,13913
21866,13913
" /> 
<polyline style="fill-rule:evenodd;"
points="21866,14169
21866,14307
22516,14307
22516,14169
21866,14169
" /> 
<polyline style="fill-rule:evenodd;"
points="21866,14425
21866,14562
22516,14562
22516,14425
21866,14425
" /> 
<polyline style="fill-rule:evenodd;"
points="21866,14681
21866,14818
22516,14818
22516,14681
21866,14681
" /> 
<polyline style="fill-rule:evenodd;"
points="21866,14937
21866,15074
22516,15074
22516,14937
21866,14937
" /> 
<polyline style="fill-rule:evenodd;"
points="21866,15192
21866,15330
22516,15330
22516,15192
21866,15192
" /> 
<polyline style="fill-rule:evenodd;"
points="21866,15448
21866,15586
22516,15586
22516,15448
21866,15448
" /> 
<polyline style="fill-rule:evenodd;"
points="21866,15704
21866,15842
22516,15842
22516,15704
21866,15704
" /> 
<polyline style="fill-rule:evenodd;"
points="21866,15960
21866,16098
22516,16098
22516,15960
21866,15960
" /> 
<polyline style="fill-rule:evenodd;"
points="21866,16216
21866,16354
22516,16354
22516,16216
21866,16216
" /> 
<polyline style="fill-rule:evenodd;"
points="21866,16472
21866,16610
22516,16610
22516,16472
21866,16472
" /> 
<polyline style="fill-rule:evenodd;"
points="24701,16472
24701,16610
25350,16610
25350,16472
24701,16472
" /> 
<polyline style="fill-rule:evenodd;"
points="24701,16216
24701,16354
25350,16354
25350,16216
24701,16216
" /> 
<polyline style="fill-rule:evenodd;"
points="24701,15960
24701,16098
25350,16098
25350,15960
24701,15960
" /> 
<polyline style="fill-rule:evenodd;"
points="24701,15704
24701,15842
25350,15842
25350,15704
24701,15704
" /> 
<polyline style="fill-rule:evenodd;"
points="24701,15448
24701,15586
25350,15586
25350,15448
24701,15448
" /> 
<polyline style="fill-rule:evenodd;"
points="24701,15192
24701,15330
25350,15330
25350,15192
24701,15192
" /> 
<polyline style="fill-rule:evenodd;"
points="24701,14937
24701,15074
25350,15074
25350,14937
24701,14937
" /> 
<polyline style="fill-rule:evenodd;"
points="24701,14681
24701,14818
25350,14818
25350,14681
24701,14681
" /> 
<polyline style="fill-rule:evenodd;"
points="24701,14425
24701,14562
25350,14562
25350,14425
24701,14425
" /> 
<polyline style="fill-rule:evenodd;"
points="24701,14169
24701,14307
25350,14307
25350,14169
24701,14169
" /> 
<polyline style="fill-rule:evenodd;"
points="24701,13913
24701,14051
25350,14051
25350,13913
24701,13913
" /> 
<polyline style="fill-rule:evenodd;"
points="24701,13657
24701,13795
25350,13795
25350,13657
24701,13657
" /> 
<polyline style="fill-rule:evenodd;"
points="24701,13401
24701,13539
25350,13539
25350,13401
24701,13401
" /> 
<polyline style="fill-rule:evenodd;"
points="24701,13145
24701,13283
25350,13283
25350,13145
24701,13145
" /> 
<polyline style="fill-rule:evenodd;"
points="25575,22616
26716,22616
26716,21080
25575,21080
25575,22616
" /> 
<polyline style="fill-rule:evenodd;"
points="25575,20104
26716,20104
26716,18568
25575,18568
25575,20104
" /> 
<polyline style="fill-rule:evenodd;"
points="23921,20104
25063,20104
25063,18568
23921,18568
23921,20104
" /> 
<polyline style="fill-rule:evenodd;"
points="23921,22616
25063,22616
25063,21080
23921,21080
23921,22616
" /> 
<polyline style="fill-rule:evenodd;"
points="18613,21097
18103,21097
18103,21408
18613,21408
18613,21097
" /> 
<polyline style="fill-rule:evenodd;"
points="18613,21847
18103,21847
18103,22158
18613,22158
18613,21847
" /> 
<polyline style="fill-rule:evenodd;"
points="14253,24108
14763,24108
14763,23797
14253,23797
14253,24108
" /> 
<polyline style="fill-rule:evenodd;"
points="14253,23358
14763,23358
14763,23047
14253,23047
14253,23358
" /> 
<polyline style="fill-rule:evenodd;"
points="14846,25585
14400,25140
14178,25362
14623,25808
14846,25585
" /> 
<polyline style="fill-rule:evenodd;"
points="14038,26392
13593,25947
13370,26170
13816,26615
14038,26392
" /> 
<circle cx="26108.6" cy="14378" r="374.016" /> 
<circle cx="26108.6" cy="17378" r="374.016" /> 
<circle cx="26108.6" cy="15878" r="374.016" /> 
<circle cx="20608.6" cy="18778" r="374.016" /> 
<circle cx="20608.6" cy="13878" r="374.016" /> 
<circle cx="20608.6" cy="16378" r="374.016" /> 
<circle cx="23858.6" cy="12128" r="374.016" /> 
<circle cx="17358.6" cy="12128" r="374.016" /> 
</g>
<g style="fill:#000000; fill-opacity:1.0; 
stroke:#000000; stroke-width:314.961; stroke-opacity:1; 
stroke-linecap:round; stroke-linejoin:round;">
</g>
<g style="fill:#000000; fill-opacity:0.0; 
stroke:#000000; stroke-width:314.961; stroke-opacity:1; 
stroke-linecap:round; stroke-linejoin:round;">
<path d="M28858 21877
L29358 21877
" />
<path d="M29358 23177
L29358 21877
" />
<path d="M29358 21877
L29358 21377
" />
<path d="M29358 21377
L29358 20577
" />
</g>
<g style="fill:#000000; fill-opacity:0.0; 
stroke:#000000; stroke-width:157.48; stroke-opacity:1; 
stroke-linecap:round; stroke-linejoin:round;">
<path d="M24146 21502
L24492 21848
" />
</g>
<g style="fill:#000000; fill-opacity:0.0; 
stroke:#000000; stroke-width:314.961; stroke-opacity:1; 
stroke-linecap:round; stroke-linejoin:round;">
<path d="M28858 21877
L26175 21877
" />
</g>
<g style="fill:#000000; fill-opacity:0.0; 
stroke:#000000; stroke-width:157.48; stroke-opacity:1; 
stroke-linecap:round; stroke-linejoin:round;">
<path d="M26175 21877
L26145 21848
" />
</g>
<g style="fill:#000000; fill-opacity:0.0; 
stroke:#000000; stroke-width:314.961; stroke-opacity:1; 
stroke-linecap:round; stroke-linejoin:round;">
<path d="M26145 21848
L24492 21848
" />
</g>
<g style="fill:#000000; fill-opacity:0.0; 
stroke:#000000; stroke-width:157.48; stroke-opacity:1; 
stroke-linecap:round; stroke-linejoin:round;">
<path d="M32108 19877
L31858 19877
" />
</g>
<g style="fill:#000000; fill-opacity:0.0; 
stroke:#000000; stroke-width:314.961; stroke-opacity:1; 
stroke-linecap:round; stroke-linejoin:round;">
<path d="M31858 19877
L31608 19627
" />
<path d="M31608 19627
L29608 19627
" />
<path d="M29608 19627
L29358 19877
" />
<path d="M29358 19877
L29358 20577
" />
</g>
<g style="fill:#000000; fill-opacity:0.0; 
stroke:#000000; stroke-width:157.48; stroke-opacity:1; 
stroke-linecap:round; stroke-linejoin:round;">
<path d="M28888 21848
L28858 21877
" />
</g>
<g style="fill:#000000; fill-opacity:0.0; 
stroke:#000000; stroke-width:314.961; stroke-opacity:1; 
stroke-linecap:round; stroke-linejoin:round;">
<path d="M24462 21877
L24492 21848
" />
<path d="M22733 21877
L24462 21877
" />
</g>
<g style="fill:#000000; fill-opacity:0.0; 
stroke:#000000; stroke-width:157.48; stroke-opacity:1; 
stroke-linecap:round; stroke-linejoin:round;">
<path d="M25025 16541
L24195 16541
" />
<path d="M24195 16541
L24108 16627
" />
<path d="M22191 14238
L22998 14238
" />
<path d="M22998 14238
L23108 14127
" />
<path d="M22191 13470
L23016 13470
" />
<path d="M23016 13470
L23108 13377
" />
<path d="M25025 14238
L24468 14238
" />
<path d="M24358 13127
L24858 12627
" />
<path d="M24358 14127
L24358 13127
" />
<path d="M24468 14238
L24358 14127
" />
<path d="M22608 18002
L22983 18002
" />
<path d="M22983 18002
L23108 17877
" />
<path d="M25025 16285
L24016 16285
" />
<path d="M25025 15517
L24048 15517
" />
</g>
<g style="fill:#000000; fill-opacity:0.0; 
stroke:#000000; stroke-width:196.85; stroke-opacity:1; 
stroke-linecap:round; stroke-linejoin:round;">
<path d="M28208 16127
L27608 16127
" />
<path d="M27608 16127
L27358 15877
" />
</g>
<g style="fill:#000000; fill-opacity:0.0; 
stroke:#000000; stroke-width:157.48; stroke-opacity:1; 
stroke-linecap:round; stroke-linejoin:round;">
<path d="M22248 15517
L22198 15517
" />
<path d="M22358 15517
L22248 15517
" />
<path d="M25230 16541
L24771 16541
" />
<path d="M25230 15517
L24748 15517
" />
<path d="M25230 14238
L24748 14238
" />
<path d="M22191 15517
L20218 15517
" />
</g>
<g style="fill:#000000; fill-opacity:0.0; 
stroke:#000000; stroke-width:314.961; stroke-opacity:1; 
stroke-linecap:round; stroke-linejoin:round;">
<path d="M31679 17877
L31679 18707
" />
<path d="M31308 19077
L28458 19077
" />
<path d="M31679 18707
L31308 19077
" />
<path d="M28458 19127
L28458 19077
" />
<path d="M28458 20577
L28458 19127
" />
<path d="M28458 19077
L28458 18867
" />
<path d="M28458 18867
L28458 17957
" />
<path d="M33608 16948
L33608 17877
" />
<path d="M34108 17877
L31679 17877
" />
<path d="M37608 21377
L36608 21377
" />
</g>
<g style="fill:#000000; fill-opacity:0.0; 
stroke:#000000; stroke-width:196.85; stroke-opacity:1; 
stroke-linecap:round; stroke-linejoin:round;">
<path d="M20608 18752
L21608 18752
" />
<path d="M20608 18752
L20608 19228
" />
<path d="M20608 19228
L20608 20127
" />
</g>
<g style="fill:#000000; fill-opacity:0.0; 
stroke:#000000; stroke-width:314.961; stroke-opacity:1; 
stroke-linecap:round; stroke-linejoin:round;">
<path d="M21058 20577
L20916 20435
" />
<path d="M28458 20577
L21058 20577
" />
<path d="M20916 20435
L20608 20127
" />
<path d="M28458 17957
L28537 17877
" />
</g>
<g style="fill:#000000; fill-opacity:0.0; 
stroke:#000000; stroke-width:196.85; stroke-opacity:1; 
stroke-linecap:round; stroke-linejoin:round;">
<path d="M27108 17877
L28537 17877
" />
<path d="M34108 17877
L33608 17877
" />
<path d="M33608 17877
L33108 17877
" />
<path d="M33108 17877
L31679 17877
" />
<path d="M31679 16807
L31679 17877
" />
<path d="M31858 16627
L31679 16807
" />
<path d="M32008 16627
L31858 16627
" />
<path d="M28537 16807
L28537 17877
" />
<path d="M28358 16627
L28537 16807
" />
<path d="M28208 16627
L28358 16627
" />
<path d="M27108 17252
L27108 17877
" />
</g>
<g style="fill:#000000; fill-opacity:0.0; 
stroke:#000000; stroke-width:157.48; stroke-opacity:1; 
stroke-linecap:round; stroke-linejoin:round;">
<path d="M25992 14494
L25230 14494
" />
<path d="M25992 14494
L26108 14377
" />
</g>
<g style="fill:#000000; fill-opacity:0.0; 
stroke:#000000; stroke-width:196.85; stroke-opacity:1; 
stroke-linecap:round; stroke-linejoin:round;">
<path d="M26608 17877
L26108 17377
" />
<path d="M26608 17877
L27108 17877
" />
</g>
<g style="fill:#000000; fill-opacity:0.0; 
stroke:#000000; stroke-width:157.48; stroke-opacity:1; 
stroke-linecap:round; stroke-linejoin:round;">
<path d="M22474 14494
L22224 14494
" />
<path d="M25230 15773
L26004 15773
" />
<path d="M26004 15773
L26108 15877
" />
<path d="M21212 15773
L21002 15984
" />
<path d="M21002 15984
L20608 16377
" />
<path d="M22191 15773
L21212 15773
" />
</g>
<g style="fill:#000000; fill-opacity:0.0; 
stroke:#000000; stroke-width:314.961; stroke-opacity:1; 
stroke-linecap:round; stroke-linejoin:round;">
<path d="M20608 20127
L20608 18777
" />
<path d="M19383 18777
L20608 18777
" />
<path d="M35801 21377
L36608 21377
" />
<path d="M35801 21377
L35108 20685
" />
<path d="M35008 20585
L35108 20685
" />
<path d="M35008 17777
L35008 20585
" />
<path d="M35008 16948
L35008 17777
" />
<path d="M35008 17877
L35008 17777
" />
<path d="M34108 17877
L35008 17877
" />
</g>
<g style="fill:#000000; fill-opacity:0.0; 
stroke:#000000; stroke-width:157.48; stroke-opacity:1; 
stroke-linecap:round; stroke-linejoin:round;">
<path d="M21258 12127
L20608 12777
" />
<path d="M20608 12777
L20608 13877
" />
<path d="M21983 12127
L21258 12127
" />
<path d="M20760 13726
L20608 13877
" />
<path d="M21308 13726
L20760 13726
" />
<path d="M21608 13726
L21308 13726
" />
<path d="M22191 13726
L21608 13726
" />
<path d="M21608 13777
L21608 13726
" />
<path d="M21608 13726
L21608 13777
" />
<path d="M21712 13982
L21608 13877
" />
<path d="M21608 13877
L21608 13726
" />
<path d="M22191 13982
L21712 13982
" />
<path d="M21624 14494
L21308 14177
" />
<path d="M21308 14177
L21308 13726
" />
<path d="M22191 14494
L21724 14494
" />
<path d="M21724 14494
L21624 14494
" />
</g>
<g style="fill:#000000; fill-opacity:0.0; 
stroke:#000000; stroke-width:393.701; stroke-opacity:1; 
stroke-linecap:round; stroke-linejoin:round;">
<path d="M34108 23377
L32857 24629
" />
<path d="M34108 22877
L34108 23377
" />
<path d="M36608 23377
L34108 23377
" />
<path d="M37608 23377
L36608 23377
" />
<path d="M32857 24629
L32155 25331
" />
<path d="M22108 25377
L21858 25127
" />
<path d="M32108 25377
L32857 24629
" />
<path d="M24128 25377
L23608 25377
" />
<path d="M32108 25377
L24128 25377
" />
<path d="M23608 25377
L23108 25377
" />
<path d="M18358 22505
L19236 22505
" />
<path d="M16561 22505
L18358 22505
" />
<path d="M21858 25127
L19236 22505
" />
<path d="M23108 25377
L22108 25377
" />
</g>
<g style="fill:#000000; fill-opacity:0.0; 
stroke:#000000; stroke-width:314.961; stroke-opacity:1; 
stroke-linecap:round; stroke-linejoin:round;">
<path d="M18358 22002
L18358 22505
" />
<path d="M13108 15252
L13108 14627
" />
<path d="M13608 14127
L14358 14127
" />
<path d="M13108 14627
L13608 14127
" />
<path d="M14358 15057
L14358 14127
" />
<path d="M15358 14571
L15358 15252
" />
<path d="M14358 14127
L14915 14127
" />
<path d="M15358 14571
L15358 14627
" />
<path d="M14915 14127
L15358 14571
" />
</g>
<g style="fill:#000000; fill-opacity:0.0; 
stroke:#000000; stroke-width:196.85; stroke-opacity:1; 
stroke-linecap:round; stroke-linejoin:round;">
<path d="M15358 14627
L15358 15252
" />
</g>
<g style="fill:#000000; fill-opacity:0.0; 
stroke:#000000; stroke-width:314.961; stroke-opacity:1; 
stroke-linecap:round; stroke-linejoin:round;">
<path d="M11895 16127
L12983 16127
" />
<path d="M12983 16127
L13108 16002
" />
<path d="M13037 17377
L13037 16073
" />
<path d="M13037 16073
L13108 16002
" />
<path d="M13037 18877
L13037 17377
" />
<path d="M13433 21677
L13037 21677
" />
<path d="M13037 20377
L13037 21677
" />
<path d="M13037 21677
L13037 22505
" />
<path d="M13037 22505
L13108 22505
" />
<path d="M13805 22505
L14480 22505
" />
<path d="M10655 22505
L12858 22505
" />
<path d="M12858 22505
L13108 22505
" />
<path d="M13108 22505
L13805 22505
" />
<path d="M16561 20424
L16561 19749
" />
<path d="M14480 22505
L16561 20424
" />
<path d="M14508 22533
L14480 22505
" />
<path d="M14508 23202
L14508 22533
" />
<path d="M14179 20377
L14179 21673
" />
<path d="M14179 21673
L14183 21677
" />
<path d="M14179 20377
L14179 18877
" />
</g>
<g style="fill:#000000; fill-opacity:0.0; 
stroke:#000000; stroke-width:157.48; stroke-opacity:1; 
stroke-linecap:round; stroke-linejoin:round;">
<path d="M25108 10377
L27608 13127
" />
<path d="M21108 10377
L25108 10377
" />
<path d="M19358 12127
L21108 10377
" />
<path d="M19358 14377
L19358 12127
" />
<path d="M19858 14877
L19358 14377
" />
<path d="M19986 15005
L19858 14877
" />
<path d="M27608 13127
L28208 13127
" />
<path d="M21480 15005
L21358 15127
" />
<path d="M21358 15127
L20108 15127
" />
<path d="M20108 15127
L19858 14877
" />
<path d="M22191 15005
L21480 15005
" />
<path d="M24858 10877
L27358 13627
" />
<path d="M21358 10877
L24858 10877
" />
<path d="M19858 12377
L21358 10877
" />
<path d="M19858 14127
L19858 12377
" />
<path d="M27358 13627
L28208 13627
" />
<path d="M20480 14750
L19858 14127
" />
<path d="M22191 14750
L20480 14750
" />
<path d="M28208 14127
L27108 14127
" />
<path d="M26608 13627
L27108 14127
" />
<path d="M25230 13982
L25504 13982
" />
<path d="M25504 13982
L25858 13627
" />
<path d="M25858 13627
L26608 13627
" />
<path d="M25480 14750
L25858 15127
" />
<path d="M25858 15127
L26608 15127
" />
<path d="M25230 14750
L25480 14750
" />
<path d="M27108 14627
L28208 14627
" />
<path d="M26608 15127
L27108 14627
" />
</g>
<g style="fill:#000000; fill-opacity:0.0; 
stroke:#000000; stroke-width:196.85; stroke-opacity:1; 
stroke-linecap:round; stroke-linejoin:round;">
<path d="M32008 15127
L33358 15127
" />
<path d="M33608 15377
L33608 15807
" />
<path d="M33358 15127
L33608 15377
" />
<path d="M33679 15877
L33608 15807
" />
<path d="M36608 15877
L36608 16177
" />
<path d="M36408 15877
L36608 15877
" />
<path d="M35908 16377
L36408 15877
" />
<path d="M33808 16377
L33608 16177
" />
<path d="M33608 15807
L33608 16177
" />
<path d="M33808 16377
L35908 16377
" />
<path d="M34758 14627
L35008 14877
" />
<path d="M35008 14877
L35008 15807
" />
<path d="M32008 14627
L34658 14627
" />
<path d="M34658 14627
L34758 14627
" />
<path d="M36608 14877
L35008 14877
" />
<path d="M30537 14948
L31358 14127
" />
<path d="M31358 14127
L32008 14127
" />
<path d="M30537 17877
L30537 14948
" />
<path d="M34758 14127
L35008 13877
" />
<path d="M35008 13877
L36608 13877
" />
<path d="M32008 14127
L34758 14127
" />
<path d="M32008 13627
L34358 13627
" />
<path d="M35108 12877
L36608 12877
" />
<path d="M34358 13627
L35108 12877
" />
<path d="M29679 14807
L30858 13627
" />
<path d="M30858 13627
L32008 13627
" />
<path d="M29679 17877
L29679 14807
" />
</g>
<g style="fill:#000000; fill-opacity:0.0; 
stroke:#000000; stroke-width:157.48; stroke-opacity:1; 
stroke-linecap:round; stroke-linejoin:round;">
<path d="M24492 19336
L22817 19336
" />
<path d="M22817 19336
L22608 19127
" />
<path d="M22608 19127
L22608 18752
" />
<path d="M22608 18752
L22608 18377
" />
<path d="M21608 18002
L21608 17377
" />
<path d="M22608 17127
L23108 16627
" />
<path d="M22742 15261
L22191 15261
" />
<path d="M23108 15627
L22742 15261
" />
<path d="M23108 16627
L23108 15627
" />
<path d="M21858 17127
L22608 17127
" />
<path d="M21608 17377
L21858 17127
" />
<path d="M21358 17027
L21208 17177
" />
<path d="M20808 17577
L19579 17577
" />
<path d="M21707 16029
L21358 16377
" />
<path d="M22191 16029
L21707 16029
" />
<path d="M20808 17577
L21208 17177
" />
<path d="M21358 16377
L21358 17027
" />
</g>
<g style="fill:#000000; fill-opacity:0.0; 
stroke:#000000; stroke-width:314.961; stroke-opacity:1; 
stroke-linecap:round; stroke-linejoin:round;">
<path d="M11108 16915
L11108 19296
" />
<path d="M11108 19296
L10655 19749
" />
<path d="M11108 15340
L11108 15127
" />
<path d="M11108 15127
L11858 14377
" />
<path d="M11858 13948
L11858 14377
" />
<path d="M10608 13002
L10608 12127
" />
<path d="M11858 12807
L11858 12377
" />
<path d="M9358 12377
L9358 12807
" />
<path d="M9608 12127
L9358 12377
" />
<path d="M11608 12127
L10608 12127
" />
<path d="M10608 12127
L9608 12127
" />
<path d="M11858 12377
L11608 12127
" />
<path d="M15008 25077
L14908 25077
" />
<path d="M14908 25077
L14512 25474
" />
<path d="M17710 25495
L15425 25495
" />
<path d="M14508 24577
L14508 23952
" />
<path d="M15425 25495
L15008 25077
" />
<path d="M15008 25077
L14508 24577
" />
</g>
<g style="fill:#000000; fill-opacity:0.0; 
stroke:#000000; stroke-width:157.48; stroke-opacity:1; 
stroke-linecap:round; stroke-linejoin:round;">
<path d="M25025 15005
L24486 15005
" />
</g>
<g style="fill:#000000; fill-opacity:0.0; 
stroke:#000000; stroke-width:314.961; stroke-opacity:1; 
stroke-linecap:round; stroke-linejoin:round;">
<path d="M17358 12127
L17358 14127
" />
</g>
<g style="fill:#000000; fill-opacity:0.0; 
stroke:#000000; stroke-width:157.48; stroke-opacity:1; 
stroke-linecap:round; stroke-linejoin:round;">
<path d="M23858 14377
L23858 12127
" />
<path d="M24486 15005
L23858 14377
" />
</g>
<g style="fill:#000000; fill-opacity:0.0; 
stroke:#000000; stroke-width:314.961; stroke-opacity:1; 
stroke-linecap:round; stroke-linejoin:round;">
<path d="M16858 14127
L17358 14127
" />
<path d="M16358 14627
L16858 14127
" />
<path d="M16358 15252
L16358 14627
" />
<path d="M17358 15057
L17358 14127
" />
</g>
<g style="fill:#000000; fill-opacity:1.0; 
stroke:#000000; stroke-width:118.11; stroke-opacity:1; 
stroke-linecap:round; stroke-linejoin:round;">
<polyline style="fill-rule:evenodd;"
points="8144,27283
8763,27283
8763,12984
8763,12629
8781,12532
8838,12446
8923,12389
8945,12384
8945,12377
8976,12219
8976,12219
9066,12085
9316,11835
9450,11746
9608,11714
10608,11714
11608,11714
11766,11746
11900,11835
12150,12085
12240,12219
12271,12377
12271,12384
12290,12387
12376,12444
12433,12529
12454,12629
12454,12984
12435,13081
12378,13167
12293,13224
12193,13245
11523,13245
11426,13226
11340,13169
11283,13084
11263,12984
11263,12629
11280,12541
11021,12541
11021,12612
11066,12642
11124,12727
11144,12827
11144,13177
11125,13275
11069,13361
11047,13375
11103,13431
11142,13526
11142,13647
11077,13712
10649,13712
10649,13704
10567,13704
10567,13712
10139,13712
10074,13647
10074,13526
10113,13431
10169,13376
10150,13363
10092,13278
10072,13177
10072,12827
10091,12730
10147,12644
10195,12612
10195,12541
9936,12541
9954,12629
9954,12984
9935,13081
9878,13167
9793,13224
9693,13245
9023,13245
8926,13226
8840,13169
8783,13084
8763,12984
8763,27283
8764,27283
8764,14177
8764,14054
8764,13843
8764,13720
8804,13624
8877,13552
8972,13512
9075,13512
9252,13512
9317,13577
9317,13907
8829,13907
8764,13843
8764,14054
8829,13989
9317,13989
9317,14320
9252,14385
9075,14385
8972,14385
8877,14345
8804,14272
8764,14177
8764,27283
9399,27283
9399,14320
9399,13989
9399,13907
9399,13577
9464,13512
9641,13512
9744,13512
9839,13552
9912,13624
9952,13720
9952,13843
9887,13907
9399,13907
9399,13989
9887,13989
9952,14054
9952,14177
9912,14272
9839,14345
9744,14385
9641,14385
9464,14385
9399,14320
9399,27283
9809,27283
9809,22338
9809,19582
9937,19271
10074,19133
10074,13979
10074,13858
10139,13793
10567,13793
10567,14122
10502,14187
10385,14187
10282,14187
10186,14147
10113,14074
10074,13979
10074,19133
10175,19032
10486,18903
10695,18903
10695,17518
10649,17487
10508,17277
10458,17028
10458,16802
10508,16553
10649,16342
10859,16202
11108,16152
11139,16158
11133,16127
11139,16097
11108,16103
10859,16053
10649,15912
10508,15702
10458,15453
10458,15227
10508,14978
10649,14768
10649,14767
10649,14122
10649,13793
11077,13793
11142,13858
11142,13979
11103,14074
11030,14147
10935,14187
10832,14187
10714,14187
10649,14122
10649,14767
10859,14627
11065,14586
11340,14311
11283,14226
11263,14125
11263,13771
11281,13674
11338,13588
11423,13530
11523,13510
12193,13510
12290,13529
12376,13586
12433,13671
12454,13771
12454,14125
12435,14223
12378,14309
12293,14366
12271,14371
12271,14377
12240,14536
12150,14670
11730,15090
11758,15227
11758,15453
11752,15484
11782,15478
12009,15478
12257,15527
12468,15668
12499,15714
12601,15714
12647,15644
12672,15628
12650,15613
12592,15528
12572,15427
12572,15077
12591,14980
12647,14894
12695,14862
12695,14627
12726,14469
12816,14335
13316,13835
13372,13797
13372,10224
13372,8649
32844,8649
32844,10224
25421,10224
27553,12570
27553,12470
27572,12376
27553,12285
27553,11970
27572,11872
27629,11787
27714,11729
27814,11709
28602,11709
28699,11728
28785,11784
28843,11869
28863,11970
28863,12285
28844,12379
28863,12470
28863,12785
28844,12879
28863,12970
28863,13285
28844,13379
28863,13470
28863,13785
28844,13879
28863,13970
28863,14285
28844,14379
28863,14470
28863,14785
28844,14879
28863,14970
28863,15285
28844,15379
28863,15470
28863,15785
28844,15879
28861,15918
28861,16022
28796,16087
28249,16087
28249,16079
28167,16079
28167,16087
27620,16087
27555,16022
27555,15918
27572,15878
27553,15785
27553,15470
27572,15376
27553,15285
27553,14970
27555,14962
27247,14962
26845,15364
26736,15437
26611,15462
26658,15509
26758,15748
26758,16006
26722,16093
26782,16068
26885,16068
27002,16068
27067,16133
27067,16462
26639,16462
26574,16397
26574,16330
26477,16428
26238,16527
25979,16527
25741,16428
25629,16317
25629,16326
25598,16326
25622,16384
25629,16391
25629,16401
25629,16425
25629,16435
25622,16442
25590,16520
25528,16582
25564,16582
25629,16647
25629,16681
25590,16776
25517,16849
25421,16888
25131,16888
25066,16824
25066,16582
25080,16582
25066,16568
25066,16500
25066,16492
24984,16492
24984,16500
24984,16568
24970,16582
24984,16582
24984,16824
24920,16888
24629,16888
24534,16849
24461,16776
24422,16681
24422,16647
24487,16582
24523,16582
24461,16520
24429,16442
24422,16435
24422,16425
24422,16401
24422,16391
24429,16384
24461,16306
24484,16283
24440,16218
24435,16192
24422,16179
24422,16145
24424,16139
24420,16118
24420,15940
24428,15900
24420,15862
24420,15685
24424,15663
24422,15657
24422,15623
24434,15610
24439,15587
24485,15517
24440,15450
24435,15425
24422,15412
24422,15377
24424,15371
24420,15350
24420,15327
24358,15315
24249,15242
23621,14614
23549,14506
23523,14377
23523,14377
23523,14377
23523,12692
23491,12678
23308,12496
23209,12257
23208,11999
23307,11760
23490,11577
23728,11478
23987,11478
24226,11576
24408,11759
24508,11998
24508,12256
24409,12495
24227,12678
24193,12692
24193,14239
24420,14466
24420,14405
24424,14383
24422,14378
24422,14343
24434,14331
24439,14307
24485,14237
24440,14171
24435,14145
24422,14132
24422,14098
24424,14092
24420,14070
24420,13893
24428,13853
24420,13814
24420,13637
24428,13597
24420,13559
24420,13381
24428,13341
24420,13303
24420,13125
24439,13028
24495,12942
24580,12885
24681,12865
25370,12865
25467,12883
25553,12940
25611,13025
25631,13125
25631,13303
25623,13343
25631,13381
25631,13385
25730,13318
25858,13293
26602,13293
24710,11212
21497,11212
20193,12516
20193,13374
20240,13327
20273,13313
20273,12777
20273,12777
20273,12777
20299,12649
20371,12541
20371,12541
20371,12541
21021,11891
21130,11818
21258,11793
21559,11793
21566,11755
21622,11669
21707,11612
21808,11592
22158,11592
22256,11610
22341,11667
22356,11688
22411,11633
22507,11593
22627,11593
22692,11658
22692,12087
22684,12087
22684,12168
22692,12168
22692,12597
22627,12662
22507,12662
22411,12622
22356,12567
22344,12586
22259,12643
22158,12663
21808,12663
21711,12644
21625,12588
21567,12503
21559,12462
21397,12462
20943,12916
20943,13313
20976,13326
21040,13391
21308,13391
21587,13391
21603,13391
21600,13377
21587,13364
21587,13330
21590,13324
21585,13303
21585,13125
21604,13028
21661,12942
21746,12885
21846,12865
22535,12865
22633,12883
22719,12940
22774,13022
22774,12597
22774,12168
22774,12087
22774,11658
22839,11593
22960,11593
23055,11633
23128,11706
23167,11801
23167,11904
23167,12022
23102,12087
22774,12087
22774,12168
23102,12168
23167,12233
23167,12351
23167,12454
23128,12549
23055,12622
22960,12662
22839,12662
22774,12597
22774,13022
22776,13025
22796,13125
22796,13303
22792,13324
22794,13330
22794,13364
22782,13377
22777,13400
22731,13470
22776,13537
22781,13563
22794,13576
22794,13610
22792,13616
22796,13637
22796,13814
22788,13854
22796,13893
22796,14070
22792,14092
22794,14098
22794,14132
22782,14145
22777,14168
22731,14238
22776,14304
22781,14330
22794,14343
22794,14378
22792,14384
22796,14405
22796,14430
22809,14494
22796,14557
22796,14582
22788,14622
22796,14661
22796,14838
22788,14878
22796,14917
22796,14937
22870,14952
22979,15025
22979,15025
23345,15391
23417,15499
23443,15627
23443,16627
23417,16756
23345,16864
22845,17364
22736,17437
22608,17462
21997,17462
21943,17516
21943,17719
21999,17802
22019,17902
22019,18102
22000,18200
21944,18286
21859,18343
21758,18363
21458,18363
21361,18344
21275,18288
21217,18203
21197,18102
21197,17902
21216,17805
21272,17719
21273,17718
21273,17585
21045,17814
20936,17887
20808,17912
20017,17912
19998,18010
19942,18095
19857,18153
19756,18173
19402,18173
19304,18154
19218,18098
19161,18013
19141,17912
19141,17243
19160,17145
19216,17059
19301,17002
19402,16982
19756,16982
19854,17001
19939,17057
19997,17142
20017,17243
20669,17243
20971,16941
21023,16889
21023,16881
20977,16928
20738,17027
20479,17027
20241,16928
20058,16746
19959,16507
19958,16249
20057,16010
20240,15827
20478,15728
20737,15728
20771,15742
20976,15536
21084,15464
21094,15462
20108,15462
19980,15437
19871,15364
19749,15242
19749,15242
19621,15114
19621,15114
19621,15114
19621,15114
19621,15114
19121,14614
19049,14506
19023,14377
19023,12127
19049,11999
19121,11891
20788,10224
13372,10224
13372,13797
13450,13746
13608,13714
13853,13714
13990,13577
14228,13478
14487,13478
14726,13576
14863,13714
14915,13714
15073,13746
15207,13835
15650,14278
15740,14412
15771,14571
15771,14627
15771,14862
15816,14892
15858,14954
15897,14894
15945,14862
15945,14627
15976,14469
16066,14335
16566,13835
16700,13746
16852,13715
16945,13622
16945,12633
16808,12496
16709,12257
16708,11999
16807,11760
16990,11577
17228,11478
17487,11478
17726,11576
17908,11759
18008,11998
18008,12256
17909,12495
17771,12633
17771,13622
17908,13759
18008,13998
18008,14256
17909,14495
17771,14633
17771,14634
17790,14637
17876,14694
17933,14779
17954,14879
17954,15234
17935,15331
17878,15417
17793,15474
17693,15495
17023,15495
16926,15476
16889,15452
16875,15525
16819,15611
16797,15625
16853,15681
16892,15776
16892,15795
16972,15762
17075,15762
17252,15762
17317,15827
17317,16157
17309,16157
17309,16239
17317,16239
17317,16570
17252,16635
17075,16635
16972,16635
16877,16595
16804,16522
16764,16427
16764,16403
16685,16437
16582,16437
16464,16437
16399,16372
16399,16043
16407,16043
16407,15962
16399,15962
16399,15954
16317,15954
16317,15962
15889,15962
15858,15931
15827,15962
15399,15962
15399,15954
15317,15954
15317,15962
15309,15962
15309,16043
15317,16043
15317,16372
15252,16437
15135,16437
15032,16437
14952,16403
14952,16427
14912,16522
14839,16595
14744,16635
14641,16635
14464,16635
14399,16570
14399,16239
14407,16239
14407,16157
14399,16157
14399,15827
14464,15762
14641,15762
14744,15762
14824,15795
14824,15776
14863,15681
14919,15626
14900,15613
14842,15528
14827,15452
14793,15474
14693,15495
14023,15495
13926,15476
13840,15419
13783,15334
13763,15234
13763,14879
13781,14782
13838,14696
13923,14639
13945,14634
13945,14633
13853,14541
13779,14541
13521,14799
13521,14862
13566,14892
13624,14977
13644,15077
13644,15427
13625,15525
13569,15611
13544,15627
13566,15642
13624,15727
13644,15827
13644,16177
13625,16275
13569,16361
13484,16418
13451,16425
13451,16936
13455,16942
13475,17043
13475,17712
13456,17810
13451,17818
13451,18436
13455,18442
13475,18543
13475,19212
13456,19310
13400,19395
13315,19453
13214,19473
12860,19473
12762,19454
12677,19398
12619,19313
12599,19212
12599,18543
12618,18445
12624,18436
12624,17819
12619,17813
12599,17712
12599,17043
12618,16945
12624,16936
12624,16541
12499,16541
12468,16587
12257,16728
12009,16777
11782,16777
11752,16771
11758,16802
11758,17028
11708,17277
11567,17487
11521,17518
11521,19296
11490,19455
11465,19492
11501,19580
11502,19917
11373,20228
11135,20467
10824,20596
10487,20596
10176,20467
9938,20230
9809,19919
9809,19582
9809,22338
9937,22027
10175,21788
10486,21659
10823,21659
11134,21787
11372,22025
11400,22092
12624,22092
12624,21677
12624,20819
12619,20813
12599,20712
12599,20043
12618,19945
12674,19859
12759,19802
12860,19782
13214,19782
13312,19801
13398,19857
13455,19942
13475,20043
13475,20712
13456,20810
13451,20818
13451,21142
13608,21142
13706,21160
13766,21200
13766,20819
13761,20813
13741,20712
13741,20043
13760,19945
13766,19936
13766,19319
13761,19313
13741,19212
13741,18543
13743,18533
13743,17764
13743,17661
13743,17483
13743,17272
13743,17094
13743,16991
13764,16939
13764,16427
13764,16304
13764,16093
13764,15970
13804,15874
13877,15802
13972,15762
14075,15762
14252,15762
14317,15827
14317,16157
13829,16157
13764,16093
13764,16304
13829,16239
14317,16239
14317,16570
14252,16635
14075,16635
13972,16635
13877,16595
13804,16522
13764,16427
13764,16939
13782,16896
13855,16823
13950,16784
14073,16784
14138,16849
14138,17337
13807,17337
13743,17272
13743,17483
13807,17418
14138,17418
14138,17906
14073,17971
13950,17971
13855,17932
13782,17859
13743,17764
13743,18533
13760,18445
13816,18359
13901,18302
14002,18282
14220,18282
14220,17906
14220,17418
14220,17337
14220,16849
14285,16784
14408,16784
14503,16823
14576,16896
14615,16991
14615,17094
14615,17272
14550,17337
14220,17337
14220,17418
14550,17418
14615,17483
14615,17661
14615,17764
14576,17859
14503,17932
14408,17971
14285,17971
14220,17906
14220,18282
14356,18282
14454,18301
14539,18357
14597,18442
14617,18543
14617,19212
14598,19310
14592,19318
14592,19936
14597,19942
14617,20043
14617,20712
14598,20810
14592,20818
14592,21292
14599,21302
14619,21402
14619,21782
15399,21002
15399,16372
15399,16043
15827,16043
15858,16074
15889,16043
16317,16043
16317,16372
16252,16437
16135,16437
16032,16437
15936,16397
15863,16324
15858,16311
15853,16324
15780,16397
15685,16437
15582,16437
15464,16437
15399,16372
15399,21002
16008,20393
15844,20230
15715,19919
15715,19582
15843,19271
16081,19032
16392,18903
16729,18903
17040,19031
17278,19269
17399,19560
17399,16570
17399,16239
17399,16157
17399,15827
17464,15762
17641,15762
17744,15762
17839,15802
17912,15874
17952,15970
17952,16093
17887,16157
17399,16157
17399,16239
17887,16239
17952,16304
17952,16427
17912,16522
17839,16595
17744,16635
17641,16635
17464,16635
17399,16570
17399,19560
17407,19580
17408,19917
17279,20228
17041,20467
16959,20501
16943,20583
16853,20717
14921,22649
14921,22812
14966,22842
15024,22927
15044,23027
15044,23377
15025,23475
14969,23561
14944,23577
14966,23592
15024,23677
15044,23777
15044,24127
15025,24225
14969,24311
14921,24343
14921,24406
15300,24785
15597,25081
15715,25081
15715,22338
15843,22027
16081,21788
16392,21659
16729,21659
17040,21787
17278,22025
17290,22053
17822,22053
17822,21827
17841,21730
17897,21644
17919,21630
17863,21574
17824,21479
17824,21358
17824,21147
17824,21026
17863,20931
17936,20858
18001,20831
18001,17964
18001,17861
18001,17683
18001,17472
18001,17294
18001,17191
18040,17096
18113,17023
18209,16984
18332,16984
18396,17049
18396,17537
18066,17537
18001,17472
18001,17683
18066,17618
18396,17618
18396,18106
18332,18171
18209,18171
18113,18132
18040,18059
18001,17964
18001,20831
18032,20818
18135,20818
18199,20818
18199,19104
18199,19001
18199,18883
18199,18672
18199,18554
18199,18451
18238,18356
18311,18283
18407,18243
18478,18243
18478,18106
18478,17618
18478,17537
18478,17049
18543,16984
18666,16984
18761,17023
18834,17096
18873,17191
18873,17294
18873,17472
18809,17537
18478,17537
18478,17618
18809,17618
18873,17683
18873,17861
18873,17964
18834,18059
18761,18132
18666,18171
18543,18171
18478,18106
18478,18243
18527,18243
18592,18308
18592,18737
18264,18737
18199,18672
18199,18883
18264,18818
18592,18818
18592,19247
18527,19312
18407,19312
18311,19272
18238,19199
18199,19104
18199,20818
18252,20818
18317,20883
18317,21212
17889,21212
17824,21147
17824,21358
17889,21293
18317,21293
18317,21301
18399,21301
18399,21293
18399,21212
18399,20883
18464,20818
18582,20818
18674,20818
18674,19247
18674,18818
18682,18818
18682,18737
18674,18737
18674,18308
18739,18243
18860,18243
18955,18283
19010,18338
19022,18319
19107,18262
19208,18242
19558,18242
19656,18260
19741,18317
19773,18364
20103,18364
20240,18227
20478,18128
20737,18128
20976,18226
21148,18398
21425,18398
21458,18392
21758,18392
21856,18410
21941,18467
21999,18552
22019,18652
22019,18852
22000,18950
21944,19036
21859,19093
21758,19113
21458,19113
21424,19107
21175,19107
21159,19145
21021,19283
21021,19956
21208,20143
21229,20164
23649,20164
23640,20124
23640,19671
22817,19671
22689,19645
22580,19573
22371,19364
22299,19256
22273,19127
22273,19036
22217,18953
22197,18852
22197,18652
22214,18564
22197,18477
22197,18277
22214,18190
22199,18154
22199,18108
22199,17897
22199,17851
22238,17756
22311,17683
22407,17643
22502,17643
22567,17708
22567,17962
22264,17962
22199,17897
22199,18108
22264,18043
22348,18043
22357,18037
22458,18017
22649,18017
22649,17962
22649,17708
22714,17643
22810,17643
22905,17683
22978,17756
23017,17851
23017,17897
22952,17962
22649,17962
22649,18017
22758,18017
22856,18035
22868,18043
22952,18043
23017,18108
23017,18154
23002,18191
23019,18277
23019,18477
23002,18566
23019,18652
23019,18852
23000,18950
22966,19001
23640,19001
23640,18549
23659,18451
23716,18365
23801,18308
23901,18288
25082,18288
25180,18307
25266,18363
25319,18442
25335,18402
25408,18329
25503,18290
25606,18290
26040,18290
26105,18354
26105,19295
26097,19295
26097,19377
26105,19377
26105,19385
26186,19385
26186,19377
26186,19295
26186,18354
26251,18290
26685,18290
26788,18290
26883,18329
26956,18402
26995,18497
26995,19230
26930,19295
26186,19295
26186,19377
26930,19377
26995,19442
26995,20164
28000,20164
28016,20080
28045,20036
28045,19127
28045,19077
28045,18867
28045,18232
27108,18232
26608,18232
26472,18205
26358,18128
26251,18021
26238,18027
25979,18027
25741,17928
25558,17746
25459,17507
25458,17249
25557,17010
25740,16827
25978,16728
26237,16728
26476,16826
26606,16957
26647,16894
26669,16880
26613,16824
26574,16729
26574,16608
26639,16543
27067,16543
27067,16551
27149,16551
27149,16543
27157,16543
27157,16462
27149,16462
27149,16133
27214,16068
27332,16068
27435,16068
27530,16108
27603,16181
27604,16184
27620,16168
28167,16168
28167,16176
28249,16176
28249,16168
28796,16168
28861,16233
28861,16336
28844,16377
28863,16470
28863,16668
28865,16671
28892,16807
28892,17353
28898,17357
28955,17442
28975,17543
28975,18212
28956,18310
28900,18395
28871,18415
28871,18664
31137,18664
31266,18535
31266,18319
31261,18313
31241,18212
31241,17543
31260,17445
31316,17359
31325,17354
31325,16807
31352,16671
31352,16671
31353,16668
31353,16668
31353,16470
31372,16376
31355,16336
31355,16233
31355,16022
31355,15918
31372,15877
31355,15836
31355,15733
31420,15668
31967,15668
31967,15776
31967,15979
31967,16087
31420,16087
31355,16022
31355,16233
31420,16168
31967,16168
31967,16176
32049,16176
32049,16168
32049,16087
32049,15979
32049,15776
32049,15668
32596,15668
32661,15733
32661,15836
32644,15877
32661,15918
32661,16022
32596,16087
32049,16087
32049,16168
32596,16168
32661,16233
32661,16336
32644,16377
32663,16470
32663,16785
32644,16883
32587,16968
32502,17026
32402,17046
32033,17046
32033,17353
32039,17357
32097,17442
32101,17464
33195,17464
33195,17371
33176,17367
33090,17311
33033,17226
33013,17125
33013,16771
33031,16674
33088,16588
33173,16530
33273,16510
33440,16510
33358,16428
33281,16313
33281,16313
33267,16243
33176,16226
33090,16169
33033,16084
33013,15984
33013,15629
33031,15532
33064,15482
32661,15482
32661,15522
32596,15587
32049,15587
32049,15579
31967,15579
31967,15587
31420,15587
31355,15522
31355,15418
31372,15378
31353,15285
31353,14970
31372,14876
31353,14785
31353,14633
30892,15095
30892,17353
30898,17357
30955,17442
30975,17543
30975,18212
30956,18310
30900,18395
30815,18453
30714,18473
30360,18473
30262,18454
30177,18398
30119,18313
30108,18257
30098,18310
30042,18395
29957,18453
29856,18473
29502,18473
29404,18454
29318,18398
29261,18313
29241,18212
29241,17543
29260,17445
29316,17359
29325,17354
29325,14807
29352,14671
29428,14556
30608,13377
30722,13300
30858,13273
31355,13273
31355,13233
31355,13022
31355,12918
31372,12877
31355,12836
31355,12733
31355,12522
31355,12418
31372,12377
31355,12336
31355,12233
31355,12022
31355,11918
31395,11823
31468,11750
31563,11711
31666,11711
31902,11711
31967,11776
31967,12087
31420,12087
31355,12022
31355,12233
31420,12168
31967,12168
31967,12276
31967,12479
31967,12587
31420,12587
31355,12522
31355,12733
31420,12668
31967,12668
31967,12776
31967,12979
31967,13087
31420,13087
31355,13022
31355,13233
31420,13168
31967,13168
31967,13176
32049,13176
32049,13168
32049,13087
32049,12979
32049,12776
32049,12668
32049,12587
32049,12479
32049,12276
32049,12168
32049,12087
32049,11776
32114,11711
32350,11711
32453,11711
32549,11750
32621,11823
32661,11918
32661,12022
32596,12087
32049,12087
32049,12168
32596,12168
32661,12233
32661,12336
32644,12377
32661,12418
32661,12522
32596,12587
32049,12587
32049,12668
32596,12668
32661,12733
32661,12836
32644,12877
32661,12918
32661,13022
32596,13087
32049,13087
32049,13168
32596,13168
32661,13233
32661,13273
34211,13273
34858,12627
34972,12550
35108,12523
35867,12523
35937,12418
36004,12374
35921,12310
35792,12089
35774,12020
35774,11735
35792,11665
35921,11445
36124,11290
36370,11225
36469,11225
36469,11837
35825,11837
35774,11735
35774,12020
35825,11918
36469,11918
36469,11926
36551,11926
36551,11918
36551,11837
36551,11225
36649,11225
36896,11290
37099,11445
37108,11461
37118,11445
37320,11290
37567,11225
37666,11225
37666,11837
37195,11837
37022,11837
36551,11837
36551,11918
37022,11918
37195,11918
37666,11918
37666,12225
37666,12530
37666,12837
37658,12837
37658,12918
37666,12918
37666,13225
37666,13530
37666,13837
37658,13837
37658,13918
37666,13918
37666,14225
37666,14530
37666,14837
37658,14837
37658,14918
37666,14918
37666,15225
37666,15530
37666,15837
37658,15837
37658,15918
37666,15918
37666,16530
37567,16530
37320,16465
37227,16394
37187,16454
37102,16512
37002,16532
36255,16532
36159,16628
36044,16705
36044,16705
35908,16732
35596,16732
35604,16771
35604,17125
35585,17223
35528,17309
35443,17366
35421,17371
35421,17777
35421,17877
35421,20413
35933,20925
35937,20918
36148,20777
36397,20728
36623,20728
36871,20777
37082,20918
37108,20957
37134,20918
37345,20777
37593,20728
37747,20728
37747,16530
37747,15918
37747,15837
37747,15530
37747,15225
37747,14918
37747,14837
37747,14530
37747,14225
37747,13918
37747,13837
37747,13530
37747,13225
37747,12918
37747,12837
37747,12530
37747,12225
37747,11918
37747,11837
37747,11225
37846,11225
38093,11290
38295,11445
38424,11665
38442,11735
38391,11837
37747,11837
37747,11918
38391,11918
38442,12020
38424,12089
38295,12310
38207,12377
38295,12445
38424,12665
38442,12735
38391,12837
37747,12837
37747,12918
38391,12918
38442,13020
38424,13089
38295,13310
38207,13377
38295,13445
38424,13665
38442,13735
38391,13837
37747,13837
37747,13918
38391,13918
38442,14020
38424,14089
38295,14310
38207,14377
38295,14445
38424,14665
38442,14735
38391,14837
37747,14837
37747,14918
38391,14918
38442,15020
38424,15089
38295,15310
38207,15377
38295,15445
38424,15665
38442,15735
38391,15837
37747,15837
37747,15918
38391,15918
38442,16020
38424,16089
38295,16310
38093,16465
37846,16530
37747,16530
37747,20728
37820,20728
38068,20777
38279,20918
38420,21129
38469,21377
38420,21626
38279,21837
38212,21881
38295,21945
38424,22165
38442,22235
38391,22337
37747,22337
37747,22329
37666,22329
37666,22337
37195,22337
37022,22337
36551,22337
36551,22329
36469,22329
36469,22337
35825,22337
35774,22235
35792,22165
35921,21945
36004,21881
35937,21837
35907,21791
35801,21791
35643,21759
35509,21670
34816,20977
34716,20877
34626,20743
34595,20585
34595,19261
34561,19272
34166,18877
34561,18483
34595,18494
34595,18309
34497,18407
34503,18425
34108,18820
33713,18425
33719,18407
33603,18291
32102,18291
32098,18310
32092,18318
32092,18707
32061,18865
31971,18999
31732,19239
31766,19246
31831,19289
31978,19228
32237,19228
32476,19326
32658,19509
32758,19748
32758,20006
32659,20245
32497,20407
32503,20425
32108,20820
31713,20425
31719,20407
31558,20246
31498,20102
31437,20041
30682,20041
30717,20126
30717,20229
30717,20472
30652,20537
30299,20537
30299,20529
30217,20529
30217,20537
30209,20537
30209,20618
30217,20618
30217,21172
30152,21237
30007,21237
29911,21197
29838,21124
29806,21045
29800,21075
29771,21119
29771,21377
29771,21622
30299,21622
30299,21172
30299,20618
30652,20618
30717,20683
30717,20926
30717,21029
30678,21124
30605,21197
30510,21237
30364,21237
30299,21172
30299,21622
31453,21622
31453,20993
31458,20733
31547,20520
31655,20483
32050,20877
31655,21272
31547,21235
31453,20993
31453,21622
31614,21622
31614,24133
23602,24133
23602,22291
23123,22291
23094,22336
23009,22393
22908,22413
22558,22413
22461,22394
22375,22338
22360,22317
22305,22372
22210,22412
22089,22412
22024,22347
22024,21918
22032,21918
22032,21837
22024,21837
22024,21408
22089,21343
22210,21343
22305,21383
22360,21438
22372,21419
22457,21362
22558,21342
22908,21342
23006,21360
23091,21417
23123,21464
23640,21464
23640,21061
23654,20991
21058,20991
20900,20959
20766,20870
20624,20728
20316,20420
20226,20286
20226,20286
20195,20127
20195,19283
20103,19191
19773,19191
19744,19236
19659,19293
19558,19313
19208,19313
19111,19294
19025,19238
19010,19217
18955,19272
18860,19312
18739,19312
18674,19247
18674,20818
18685,20818
18780,20858
18853,20931
18892,21026
18892,21147
18827,21212
18399,21212
18399,21293
18827,21293
18892,21358
18892,21479
18853,21574
18798,21629
18816,21642
18874,21727
18894,21827
18894,22053
19236,22053
19236,22053
19381,22081
19409,22087
19556,22185
21549,24178
21549,22204
21549,22101
21549,21983
21549,21772
21549,21654
21549,21551
21588,21456
21661,21383
21757,21343
21877,21343
21942,21408
21942,21837
21614,21837
21549,21772
21549,21983
21614,21918
21942,21918
21942,22347
21877,22412
21757,22412
21661,22372
21588,22299
21549,22204
21549,24178
22178,24807
22296,24925
23108,24925
23608,24925
24128,24925
31713,24925
31713,21330
32108,20935
32166,20993
32166,20877
32561,20483
32670,20520
32764,20762
32758,21022
32670,21235
32561,21272
32166,20877
32166,20993
32503,21330
32465,21439
32223,21533
31964,21527
31751,21439
31713,21330
31713,24925
31921,24925
32537,24309
33453,23393
33453,21993
33453,18993
33458,18733
33547,18520
33655,18483
34050,18877
33655,19272
33547,19235
33453,18993
33453,21993
33458,21733
33547,21520
33655,21483
33713,21540
33713,21425
33713,19330
34108,18935
34503,19330
34465,19439
34223,19533
33964,19527
33751,19439
33713,19330
33713,21425
33751,21316
33993,21222
34252,21228
34465,21316
34503,21425
34108,21820
33713,21425
33713,21540
34050,21877
33655,22272
33547,22235
33453,21993
33453,23393
33579,23267
33558,23246
33459,23007
33458,22749
33557,22510
33719,22348
33713,22330
34108,21935
34166,21993
34166,21877
34561,21483
34670,21520
34764,21762
34758,22022
34670,22235
34561,22272
34166,21877
34166,21993
34503,22330
34497,22348
34658,22509
34758,22748
34758,22925
35768,22925
35776,22886
35832,22800
35892,22760
35792,22589
35774,22520
35825,22418
36469,22418
36469,22426
36551,22426
36551,22418
37022,22418
37195,22418
37666,22418
37666,22426
37747,22426
37747,22418
38391,22418
38442,22520
38424,22589
38295,22810
38212,22874
38279,22918
38420,23129
38469,23377
38420,23626
38279,23837
38068,23978
37820,24027
37593,24027
37345,23978
37225,23897
37187,23954
37102,24012
37002,24032
36018,24032
35920,24013
35834,23957
35777,23872
35768,23830
34296,23830
33177,24949
32475,25651
32428,25698
32281,25796
32108,25830
24128,25830
23608,25830
23108,25830
22108,25830
21935,25796
21788,25698
21538,25448
19049,22958
18358,22958
17290,22958
17279,22984
17041,23223
16730,23352
16393,23352
16082,23223
15844,22986
15715,22675
15715,22338
15715,25081
15899,25081
15899,24648
15902,24325
16019,24043
16144,23986
16202,24044
16202,23928
16259,23803
16558,23683
16880,23686
17162,23803
17219,23928
16710,24437
16202,23928
16202,24044
16653,24495
16144,25003
16019,24947
15899,24648
15899,25081
16211,25081
16202,25061
16710,24553
16716,24558
16774,24500
16768,24495
17277,23986
17402,24043
17522,24342
17519,24664
17501,24708
17549,24688
17870,24688
17924,24710
17899,24648
17902,24325
18019,24043
18144,23986
18202,24044
18202,23928
18259,23803
18558,23683
18880,23686
19162,23803
19219,23928
18710,24437
18202,23928
18202,24044
18653,24495
18647,24500
18705,24558
18710,24553
18768,24611
18768,24495
19277,23986
19402,24043
19522,24342
19519,24664
19402,24947
19277,25003
18768,24495
18768,24611
19219,25061
19162,25186
18863,25307
18541,25303
18497,25285
18517,25334
18518,25655
18496,25708
18558,25683
18880,25686
19162,25803
19219,25928
18710,26437
18705,26431
18647,26489
18653,26495
18144,27003
18019,26947
17899,26648
17902,26325
17920,26282
17872,26302
17551,26302
17497,26280
17522,26342
17519,26664
17402,26947
17277,27003
16768,26495
16774,26489
16716,26431
16710,26437
16202,25928
16211,25908
15425,25908
15267,25877
15133,25787
15081,25735
15058,25770
14808,26020
14725,26076
14625,26097
14524,26077
14439,26020
13965,25547
13910,25465
13889,25364
13908,25263
13965,25178
14216,24927
14250,24904
14216,24870
14126,24736
14095,24577
14095,24343
14050,24313
13992,24228
13972,24127
13972,23777
13991,23680
14047,23594
14072,23578
14050,23563
13992,23478
13972,23377
13972,23027
13991,22930
13998,22919
13805,22919
13108,22919
13037,22919
12858,22919
11400,22919
11373,22984
11135,23223
10824,23352
10487,23352
10176,23223
9938,22986
9809,22675
9809,22338
9809,27283
13083,27283
13083,26118
13123,26023
13210,25936
13301,25936
13359,25994
13359,25878
13359,25787
13446,25700
13542,25660
13645,25660
13740,25700
13813,25772
13938,25898
13938,25990
13704,26223
13359,25878
13359,25994
13647,26281
13413,26515
13321,26515
13196,26389
13123,26317
13083,26221
13083,26118
13083,27283
13471,27283
13471,26664
13471,26573
13704,26339
13762,26397
13762,26281
13996,26047
14088,26047
14213,26173
14286,26246
14325,26341
14325,26444
14286,26539
14199,26626
14107,26626
13762,26281
13762,26397
14049,26684
14049,26776
13963,26863
13867,26902
13764,26902
13669,26863
13596,26790
13471,26664
13471,27283
15899,27283
15899,26648
15902,26325
16019,26043
16144,25986
16653,26495
16144,27003
16019,26947
15899,26648
15899,27283
16492,27283
16259,27186
16202,27061
16710,26553
17219,27061
17162,27186
16922,27283
18492,27283
18259,27186
18202,27061
18710,26553
18768,26611
18768,26495
19277,25986
19402,26043
19522,26342
19519,26664
19402,26947
19277,27003
18768,26495
18768,26611
19219,27061
19162,27186
18922,27283
39088,27283
39088,8149
8144,8149
8144,27283
" /> 
</g>
<g style="fill:#000000; fill-opacity:1.0; 
stroke:#000000; stroke-width:196.85; stroke-opacity:1; 
stroke-linecap:round; stroke-linejoin:round;">
<polyline style="fill-rule:evenodd;"
points="23957,23779
31260,23779
31260,21976
27034,21976
27034,22695
26989,22804
26905,22888
26795,22934
26677,22934
26222,22934
26147,22859
26147,21976
26144,21976
26144,22859
26069,22934
25614,22934
25496,22934
25386,22888
25319,22821
25252,22888
25142,22934
25023,22934
24568,22934
24494,22859
24494,21976
24490,21976
24490,22859
24416,22934
23961,22934
23957,22934
23957,23779
" /> 
</g>
<g style="fill:#FFFFFF; fill-opacity:1.0; 
stroke:#FFFFFF; stroke-width:39.3701; stroke-opacity:1; 
stroke-linecap:round; stroke-linejoin:round;">
<circle cx="26108.6" cy="14378" r="98.4252" /> 
<circle cx="26108.6" cy="17378" r="98.4252" /> 
<circle cx="26108.6" cy="15878" r="98.4252" /> 
<circle cx="20608.6" cy="18778" r="98.4252" /> 
<circle cx="20608.6" cy="13878" r="98.4252" /> 
<circle cx="20608.6" cy="16378" r="98.4252" /> 
<circle cx="23858.6" cy="12128" r="98.4252" /> 
<circle cx="17358.6" cy="12128" r="98.4252" /> 
<circle cx="34108.6" cy="18878" r="98.4252" /> 
<circle cx="34108.6" cy="17878" r="98.4252" /> 
<circle cx="34108.6" cy="21878" r="98.4252" /> 
<circle cx="34108.6" cy="22878" r="98.4252" /> 
<circle cx="32108.6" cy="20878" r="98.4252" /> 
<circle cx="32108.6" cy="19878" r="98.4252" /> 
<circle cx="17358.6" cy="14128" r="98.4252" /> 
<circle cx="14358.6" cy="14128" r="98.4252" /> 
<circle cx="11896" cy="16128" r="98.4252" /> 
<circle cx="11108.6" cy="16915.4" r="98.4252" /> 
<circle cx="11108.6" cy="15340.6" r="98.4252" /> 
<circle cx="10655.6" cy="19750" r="98.4252" /> 
<circle cx="16561.6" cy="19750" r="98.4252" /> 
<circle cx="10655.6" cy="22506" r="98.4252" /> 
<circle cx="16561.6" cy="22506" r="98.4252" /> 
<circle cx="17710.9" cy="25495.4" r="98.4252" /> 
<circle cx="16710.9" cy="24495.4" r="98.4252" /> 
<circle cx="18710.9" cy="24495.4" r="98.4252" /> 
<circle cx="18710.9" cy="26495.4" r="98.4252" /> 
<circle cx="16710.9" cy="26495.4" r="98.4252" /> 
<circle cx="36608.6" cy="11878" r="98.4252" /> 
<circle cx="37608.6" cy="11878" r="98.4252" /> 
<circle cx="37608.6" cy="12878" r="98.4252" /> 
<circle cx="36608.6" cy="12878" r="98.4252" /> 
<circle cx="36608.6" cy="15878" r="98.4252" /> 
<circle cx="37608.6" cy="15878" r="98.4252" /> 
<circle cx="36608.6" cy="14878" r="98.4252" /> 
<circle cx="37608.6" cy="14878" r="98.4252" /> 
<circle cx="36608.6" cy="13878" r="98.4252" /> 
<circle cx="37608.6" cy="13878" r="98.4252" /> 
<circle cx="36608.6" cy="23378" r="98.4252" /> 
<circle cx="37608.6" cy="23378" r="98.4252" /> 
<circle cx="36608.6" cy="22378" r="98.4252" /> 
<circle cx="37608.6" cy="22378" r="98.4252" /> 
<circle cx="36608.6" cy="21378" r="98.4252" /> 
<circle cx="37608.6" cy="21378" r="98.4252" /> 
<circle cx="9836.93" cy="25590.6" r="98.4252" /> 
<circle cx="35427.5" cy="9842.52" r="98.4252" /> 
<circle cx="35427.5" cy="25590.6" r="98.4252" /> 
<circle cx="9836.93" cy="9842.52" r="98.4252" /> 
</g>
<g style="fill:#000000; fill-opacity:0.0; 
stroke:#000000; stroke-width:118.11; stroke-opacity:1; 
stroke-linecap:round; stroke-linejoin:round;">
<path d="M5691 15579
L5691 15298
L5410 15269
L5438 15298
L5466 15354
L5466 15494
L5438 15551
L5410 15579
L5354 15607
L5213 15607
L5157 15579
L5129 15551
L5101 15494
L5101 15354
L5129 15298
L5157 15269
" />
<path d="M5691 15973
L5691 16029
L5663 16085
L5635 16113
L5579 16141
L5466 16169
L5326 16169
L5213 16141
L5157 16113
L5129 16085
L5101 16029
L5101 15973
L5129 15916
L5157 15888
L5213 15860
L5326 15832
L5466 15832
L5579 15860
L5635 15888
L5663 15916
L5691 15973
" />
<path d="M5129 16451
L5101 16451
L5045 16422
L5016 16394
" />
<path d="M5691 16816
L5691 16872
L5663 16929
L5635 16957
L5579 16985
L5466 17013
L5326 17013
L5213 16985
L5157 16957
L5129 16929
L5101 16872
L5101 16816
L5129 16760
L5157 16732
L5213 16704
L5326 16676
L5466 16676
L5579 16704
L5635 16732
L5663 16760
L5691 16816
" />
<path d="M5691 17379
L5691 17435
L5663 17491
L5635 17519
L5579 17547
L5466 17575
L5326 17575
L5213 17547
L5157 17519
L5129 17491
L5101 17435
L5101 17379
L5129 17322
L5157 17294
L5213 17266
L5326 17238
L5466 17238
L5579 17266
L5635 17294
L5663 17322
L5691 17379
" />
<path d="M5691 17941
L5691 17997
L5663 18053
L5635 18082
L5579 18110
L5466 18138
L5326 18138
L5213 18110
L5157 18082
L5129 18053
L5101 17997
L5101 17941
L5129 17885
L5157 17857
L5213 17829
L5326 17800
L5466 17800
L5579 17829
L5635 17857
L5663 17885
L5691 17941
" />
<path d="M5101 18841
L5494 18841
" />
<path d="M5438 18841
L5466 18869
L5494 18925
L5494 19010
L5466 19066
L5410 19094
L5101 19094
" />
<path d="M5410 19094
L5466 19122
L5494 19178
L5494 19263
L5466 19319
L5410 19347
L5101 19347
" />
<path d="M5101 19628
L5494 19628
" />
<path d="M5438 19628
L5466 19656
L5494 19713
L5494 19797
L5466 19853
L5410 19881
L5101 19881
" />
<path d="M5410 19881
L5466 19910
L5494 19966
L5494 20050
L5466 20106
L5410 20134
L5101 20134
" />
<path d="M5899 27559
L5899 7874
" />
<path d="M7868 27559
L4836 27559
" />
<path d="M7868 7874
L4836 7874
" />
<path d="M5899 7874
L5669 8317
" />
<path d="M5899 7874
L6130 8317
" />
<path d="M5899 27559
L5669 27115
" />
<path d="M5899 27559
L6130 27115
" />
<path d="M21282 29988
L21226 29960
L21198 29932
L21169 29876
L21169 29848
L21198 29791
L21226 29763
L21282 29735
L21394 29735
L21451 29763
L21479 29791
L21507 29848
L21507 29876
L21479 29932
L21451 29960
L21394 29988
L21282 29988
L21226 30016
L21198 30044
L21169 30101
L21169 30213
L21198 30269
L21226 30298
L21282 30326
L21394 30326
L21451 30298
L21479 30269
L21507 30213
L21507 30101
L21479 30044
L21451 30016
L21394 29988
" />
<path d="M21872 29735
L21929 29735
L21985 29763
L22013 29791
L22041 29848
L22069 29960
L22069 30101
L22041 30213
L22013 30269
L21985 30298
L21929 30326
L21872 30326
L21816 30298
L21788 30269
L21760 30213
L21732 30101
L21732 29960
L21760 29848
L21788 29791
L21816 29763
L21872 29735
" />
<path d="M22350 30298
L22350 30326
L22322 30382
L22294 30410
" />
<path d="M22716 29735
L22772 29735
L22829 29763
L22857 29791
L22885 29848
L22913 29960
L22913 30101
L22885 30213
L22857 30269
L22829 30298
L22772 30326
L22716 30326
L22660 30298
L22632 30269
L22604 30213
L22575 30101
L22575 29960
L22604 29848
L22632 29791
L22660 29763
L22716 29735
" />
<path d="M23278 29735
L23335 29735
L23391 29763
L23419 29791
L23447 29848
L23475 29960
L23475 30101
L23447 30213
L23419 30269
L23391 30298
L23335 30326
L23278 30326
L23222 30298
L23194 30269
L23166 30213
L23138 30101
L23138 29960
L23166 29848
L23194 29791
L23222 29763
L23278 29735
" />
<path d="M23841 29735
L23897 29735
L23953 29763
L23982 29791
L24010 29848
L24038 29960
L24038 30101
L24010 30213
L23982 30269
L23953 30298
L23897 30326
L23841 30326
L23785 30298
L23757 30269
L23728 30213
L23700 30101
L23700 29960
L23728 29848
L23757 29791
L23785 29763
L23841 29735
" />
<path d="M24741 30326
L24741 29932
" />
<path d="M24741 29988
L24769 29960
L24825 29932
L24910 29932
L24966 29960
L24994 30016
L24994 30326
" />
<path d="M24994 30016
L25022 29960
L25078 29932
L25163 29932
L25219 29960
L25247 30016
L25247 30326
" />
<path d="M25528 30326
L25528 29932
" />
<path d="M25528 29988
L25556 29960
L25613 29932
L25697 29932
L25753 29960
L25781 30016
L25781 30326
" />
<path d="M25781 30016
L25809 29960
L25866 29932
L25950 29932
L26006 29960
L26034 30016
L26034 30326
" />
<path d="M39364 29527
L7868 29527
" />
<path d="M39364 27559
L39364 30590
" />
<path d="M7868 27559
L7868 30590
" />
<path d="M7868 29527
L8311 29758
" />
<path d="M7868 29527
L8311 29296
" />
<path d="M39364 29527
L38920 29758
" />
<path d="M39364 29527
L38920 29296
" />
</g>
<g style="fill:#000000; fill-opacity:0.0; 
stroke:#000000; stroke-width:39.3701; stroke-opacity:1; 
stroke-linecap:round; stroke-linejoin:round;">
<path d="M7868 27559
L39364 27559
" />
<path d="M7868 7874
L7868 27559
" />
<path d="M39364 7874
L7868 7874
" />
<path d="M39364 27559
L39364 7874
" />
</g> 
</svg>
