<?xml version="1.0" encoding="UTF-8" standalone="no"?>
<svg
   xmlns:dc="http://purl.org/dc/elements/1.1/"
   xmlns:cc="http://creativecommons.org/ns#"
   xmlns:rdf="http://www.w3.org/1999/02/22-rdf-syntax-ns#"
   xmlns:svg="http://www.w3.org/2000/svg"
   xmlns="http://www.w3.org/2000/svg"
   xmlns:sodipodi="http://sodipodi.sourceforge.net/DTD/sodipodi-0.dtd"
   xmlns:inkscape="http://www.inkscape.org/namespaces/inkscape"
   version="1.1"
   width="335.73648"
   height="205.50699"
   viewBox="0 0 37303.99 22834.11"
   id="svg2"
   inkscape:version="0.48.4 r9939"
   sodipodi:docname="DDS-brd.svg">
  <metadata
     id="metadata656">
    <rdf:RDF>
      <cc:Work
         rdf:about="">
        <dc:format>image/svg+xml</dc:format>
        <dc:type
           rdf:resource="http://purl.org/dc/dcmitype/StillImage" />
      </cc:Work>
    </rdf:RDF>
  </metadata>
  <defs
     id="defs654" />
  <sodipodi:namedview
     pagecolor="#ffffff"
     bordercolor="#666666"
     borderopacity="1"
     objecttolerance="10"
     gridtolerance="10"
     guidetolerance="10"
     inkscape:pageopacity="0"
     inkscape:pageshadow="2"
     inkscape:window-width="1440"
     inkscape:window-height="824"
     id="namedview652"
     showgrid="false"
     fit-margin-top="0"
     fit-margin-left="0"
     fit-margin-right="0"
     fit-margin-bottom="0"
     inkscape:zoom="1.4802271"
     inkscape:cx="18.394364"
     inkscape:cy="93.384308"
     inkscape:window-x="0"
     inkscape:window-y="25"
     inkscape:window-maximized="1"
     inkscape:current-layer="svg2" />
  <title
     id="title4">SVG Picture created as DDS-brd.svg date 2015/04/13 02:32:30 </title>
  <desc
     id="desc6">Picture generated by PCBNEW </desc>
  <path
     style="fill:#000000;fill-opacity:0;stroke:#000000;stroke-width:157.47999573;stroke-linecap:round;stroke-linejoin:round;stroke-opacity:1"
     inkscape:connector-curvature="0"
     id="path146"
     d="m 15972.961,8062.055 0,1500" />
  <path
     style="fill:#000000;fill-opacity:0;stroke:#000000;stroke-width:157.47999573;stroke-linecap:round;stroke-linejoin:round;stroke-opacity:1"
     inkscape:connector-curvature="0"
     id="path148"
     d="m 15972.961,6562.055 0,1500" />
  <path
     style="fill:#000000;fill-opacity:0;stroke:#000000;stroke-width:157.47999573;stroke-linecap:round;stroke-linejoin:round;stroke-opacity:1"
     inkscape:connector-curvature="0"
     id="path150"
     d="m 21472.961,8562.055 0,2400" />
  <path
     style="fill:#000000;fill-opacity:0;stroke:#000000;stroke-width:157.47999573;stroke-linecap:round;stroke-linejoin:round;stroke-opacity:1"
     inkscape:connector-curvature="0"
     id="path152"
     d="m 21472.961,8062.055 0,500" />
  <path
     style="fill:#000000;fill-opacity:0;stroke:#000000;stroke-width:157.47999573;stroke-linecap:round;stroke-linejoin:round;stroke-opacity:1"
     inkscape:connector-curvature="0"
     id="path154"
     d="m 21472.961,6062.055 0,2000" />
  <path
     style="fill:#000000;fill-opacity:0;stroke:#000000;stroke-width:157.47999573;stroke-linecap:round;stroke-linejoin:round;stroke-opacity:1"
     inkscape:connector-curvature="0"
     id="path156"
     d="m 24722.961,4312.055 -6500,0" />
  <circle
     style="fill:#ffffff;fill-opacity:1;stroke:#ffffff;stroke-width:39.37009811;stroke-linecap:round;stroke-linejoin:round;stroke-opacity:1"
     sodipodi:ry="98.425201"
     sodipodi:rx="98.425201"
     sodipodi:cy="14128"
     sodipodi:cx="27911.4"
     id="circle190"
     r="98.425201"
     cy="14128"
     cx="27911.4"
     transform="translate(-3188.0389,-7814.945)" />
  <circle
     style="fill:#ffffff;fill-opacity:1;stroke:#ffffff;stroke-width:39.37009811;stroke-linecap:round;stroke-linejoin:round;stroke-opacity:1"
     sodipodi:ry="98.425201"
     sodipodi:rx="98.425201"
     sodipodi:cy="14128"
     sodipodi:cx="30911.4"
     id="circle192"
     r="98.425201"
     cy="14128"
     cx="30911.4"
     transform="translate(-3188.0389,-7814.945)" />
  <circle
     style="fill:#ffffff;fill-opacity:1;stroke:#ffffff;stroke-width:39.37009811;stroke-linecap:round;stroke-linejoin:round;stroke-opacity:1"
     sodipodi:ry="98.425201"
     sodipodi:rx="98.425201"
     sodipodi:cy="23378"
     sodipodi:cx="8661.4199"
     id="circle238"
     r="98.425201"
     cy="23378"
     cx="8661.4199"
     transform="translate(-3188.0389,-7814.945)" />
  <circle
     style="fill:#ffffff;fill-opacity:1;stroke:#ffffff;stroke-width:39.37009811;stroke-linecap:round;stroke-linejoin:round;stroke-opacity:1"
     sodipodi:ry="98.425201"
     sodipodi:rx="98.425201"
     sodipodi:cy="23378"
     sodipodi:cx="7661.4199"
     id="circle240"
     r="98.425201"
     cy="23378"
     cx="7661.4199"
     transform="translate(-3188.0389,-7814.945)" />
  <circle
     style="fill:#ffffff;fill-opacity:1;stroke:#ffffff;stroke-width:39.37009811;stroke-linecap:round;stroke-linejoin:round;stroke-opacity:1"
     sodipodi:ry="98.425201"
     sodipodi:rx="98.425201"
     sodipodi:cy="22378"
     sodipodi:cx="8661.4199"
     id="circle242"
     r="98.425201"
     cy="22378"
     cx="8661.4199"
     transform="translate(-3188.0389,-7814.945)" />
  <circle
     style="fill:#ffffff;fill-opacity:1;stroke:#ffffff;stroke-width:39.37009811;stroke-linecap:round;stroke-linejoin:round;stroke-opacity:1"
     sodipodi:ry="98.425201"
     sodipodi:rx="98.425201"
     sodipodi:cy="21378"
     sodipodi:cx="7661.4199"
     id="circle248"
     r="98.425201"
     cy="21378"
     cx="7661.4199"
     transform="translate(-3188.0389,-7814.945)" />
  <circle
     style="fill:#ffffff;fill-opacity:1;stroke:#ffffff;stroke-width:39.37009811;stroke-linecap:round;stroke-linejoin:round;stroke-opacity:1"
     sodipodi:ry="98.425201"
     sodipodi:rx="98.425201"
     sodipodi:cy="9842.5195"
     sodipodi:cx="9842.5195"
     id="circle252"
     r="98.425201"
     cy="9842.5195"
     cx="9842.5195"
     transform="translate(-3188.0389,-7814.945)" />
  <circle
     style="fill:#ffffff;fill-opacity:1;stroke:#ffffff;stroke-width:39.37009811;stroke-linecap:round;stroke-linejoin:round;stroke-opacity:1"
     sodipodi:ry="98.425201"
     sodipodi:rx="98.425201"
     sodipodi:cy="25590.6"
     sodipodi:cx="9842.5195"
     id="circle254"
     r="98.425201"
     cy="25590.6"
     cx="9842.5195"
     transform="translate(-3188.0389,-7814.945)" />
  <path
     style="fill:#000000;fill-opacity:0;stroke:#000000;stroke-width:59.05509949;stroke-linecap:round;stroke-linejoin:round;stroke-opacity:1"
     inkscape:connector-curvature="0"
     id="path262"
     d="m 8838.9611,10168.055 -394,0" />
  <path
     style="fill:#000000;fill-opacity:0;stroke:#000000;stroke-width:59.05509949;stroke-linecap:round;stroke-linejoin:round;stroke-opacity:1"
     inkscape:connector-curvature="0"
     id="path264"
     d="m 8641.9611,9971.055 0,394" />
  <circle
     style="fill:#000000;fill-opacity:0;stroke:#000000;stroke-width:59.05509949;stroke-linecap:round;stroke-linejoin:round;stroke-opacity:1"
     sodipodi:ry="1240"
     sodipodi:rx="1240"
     sodipodi:cy="18378"
     sodipodi:cx="11161.4"
     id="circle266"
     r="1240"
     cy="18378"
     cx="11161.4"
     transform="translate(-3188.0389,-7814.945)" />
  <path
     style="fill:#000000;fill-opacity:0;stroke:#000000;stroke-width:59.05509949;stroke-linecap:round;stroke-linejoin:round;stroke-opacity:1"
     inkscape:connector-curvature="0"
     id="path268"
     d="m 7106.9611,14956.055 394,0" />
  <path
     style="fill:#000000;fill-opacity:0;stroke:#000000;stroke-width:59.05509949;stroke-linecap:round;stroke-linejoin:round;stroke-opacity:1"
     inkscape:connector-curvature="0"
     id="path270"
     d="m 7303.9611,15153.055 0,-394" />
  <circle
     style="fill:#000000;fill-opacity:0;stroke:#000000;stroke-width:59.05509949;stroke-linecap:round;stroke-linejoin:round;stroke-opacity:1"
     sodipodi:ry="1240"
     sodipodi:rx="1240"
     sodipodi:cy="22378"
     sodipodi:cx="11161.4"
     id="circle272"
     r="1240"
     cy="22378"
     cx="11161.4"
     transform="translate(-3188.0389,-7814.945)" />
  <path
     style="fill:#000000;fill-opacity:0;stroke:#000000;stroke-width:59.05509949;stroke-linecap:round;stroke-linejoin:round;stroke-opacity:1"
     inkscape:connector-curvature="0"
     id="path274"
     d="m 10838.961,12168.055 -394,0" />
  <path
     style="fill:#000000;fill-opacity:0;stroke:#000000;stroke-width:59.05509949;stroke-linecap:round;stroke-linejoin:round;stroke-opacity:1"
     inkscape:connector-curvature="0"
     id="path276"
     d="m 10641.961,11971.055 0,394" />
  <circle
     style="fill:#000000;fill-opacity:0;stroke:#000000;stroke-width:59.05509949;stroke-linecap:round;stroke-linejoin:round;stroke-opacity:1"
     sodipodi:ry="1240"
     sodipodi:rx="1240"
     sodipodi:cy="20378"
     sodipodi:cx="13161.4"
     id="circle278"
     r="1240"
     cy="20378"
     cx="13161.4"
     transform="translate(-3188.0389,-7814.945)" />
  <path
     style="fill:#000000;fill-opacity:0;stroke:#000000;stroke-width:59.05509949;stroke-linecap:round;stroke-linejoin:round;stroke-opacity:1"
     inkscape:connector-curvature="0"
     id="path280"
     d="m 24722.961,6312.055 200,0" />
  <path
     style="fill:#000000;fill-opacity:0;stroke:#000000;stroke-width:59.05509949;stroke-linecap:round;stroke-linejoin:round;stroke-opacity:1"
     inkscape:connector-curvature="0"
     id="path282"
     d="m 27722.961,6312.055 -200,0" />
  <path
     style="fill:#000000;fill-opacity:0;stroke:#000000;stroke-width:59.05509949;stroke-linecap:round;stroke-linejoin:round;stroke-opacity:1"
     inkscape:connector-curvature="0"
     id="path284"
     d="m 27522.961,6312.055 0,-400" />
  <path
     style="fill:#000000;fill-opacity:0;stroke:#000000;stroke-width:59.05509949;stroke-linecap:round;stroke-linejoin:round;stroke-opacity:1"
     inkscape:connector-curvature="0"
     id="path286"
     d="m 27522.961,5912.055 -2600,0" />
  <path
     style="fill:#000000;fill-opacity:0;stroke:#000000;stroke-width:59.05509949;stroke-linecap:round;stroke-linejoin:round;stroke-opacity:1"
     inkscape:connector-curvature="0"
     id="path288"
     d="m 24922.961,5912.055 0,800" />
  <path
     style="fill:#000000;fill-opacity:0;stroke:#000000;stroke-width:59.05509949;stroke-linecap:round;stroke-linejoin:round;stroke-opacity:1"
     inkscape:connector-curvature="0"
     id="path290"
     d="m 24922.961,6712.055 2600,0" />
  <path
     style="fill:#000000;fill-opacity:0;stroke:#000000;stroke-width:59.05509949;stroke-linecap:round;stroke-linejoin:round;stroke-opacity:1"
     inkscape:connector-curvature="0"
     id="path292"
     d="m 27522.961,6712.055 0,-400" />
  <path
     style="fill:#000000;fill-opacity:0;stroke:#000000;stroke-width:59.05509949;stroke-linecap:round;stroke-linejoin:round;stroke-opacity:1"
     inkscape:connector-curvature="0"
     id="path294"
     d="m 24922.961,6112.055 200,-200" />
  <circle
     style="fill:#000000;fill-opacity:0;stroke:#000000;stroke-width:59.05509949;stroke-linecap:round;stroke-linejoin:round;stroke-opacity:1"
     sodipodi:ry="157.48"
     sodipodi:rx="157.48"
     sodipodi:cy="18017.699"
     sodipodi:cx="34161.398"
     id="circle296"
     r="157.48"
     cy="18017.699"
     cx="34161.398"
     transform="translate(-3188.0389,-7814.945)" />
  <circle
     style="fill:#000000;fill-opacity:0;stroke:#000000;stroke-width:59.05509949;stroke-linecap:round;stroke-linejoin:round;stroke-opacity:1"
     sodipodi:ry="1574.8"
     sodipodi:rx="1574.8"
     sodipodi:cy="16128"
     sodipodi:cx="34161.398"
     id="circle298"
     r="1574.8"
     cy="16128"
     cx="34161.398"
     transform="translate(-3188.0389,-7814.945)" />
  <circle
     style="fill:#000000;fill-opacity:0;stroke:#000000;stroke-width:59.05509949;stroke-linecap:round;stroke-linejoin:round;stroke-opacity:1"
     sodipodi:ry="2204.72"
     sodipodi:rx="2204.72"
     sodipodi:cy="16128"
     sodipodi:cx="34161.398"
     id="circle300"
     r="2204.72"
     cy="16128"
     cx="34161.398"
     transform="translate(-3188.0389,-7814.945)" />
  <path
     style="fill:#000000;fill-opacity:0;stroke:#000000;stroke-width:59.05509949;stroke-linecap:round;stroke-linejoin:round;stroke-opacity:1"
     inkscape:connector-curvature="0"
     id="path302"
     d="m 27015.961,13863.055 -748,355" />
  <path
     style="fill:#000000;fill-opacity:0;stroke:#000000;stroke-width:59.05509949;stroke-linecap:round;stroke-linejoin:round;stroke-opacity:1"
     inkscape:connector-curvature="0"
     id="path304"
     d="m 30716.961,14375.055 -866,-354" />
  <path
     style="fill:#000000;fill-opacity:0;stroke:#000000;stroke-width:59.05509949;stroke-linecap:round;stroke-linejoin:round;stroke-opacity:1"
     inkscape:connector-curvature="0"
     id="path306"
     d="m 29850.961,14021.055 512,826" />
  <path
     style="fill:#000000;fill-opacity:0;stroke:#000000;stroke-width:59.05509949;stroke-linecap:round;stroke-linejoin:round;stroke-opacity:1"
     inkscape:connector-curvature="0"
     id="path308"
     d="m 30362.961,14847.055 -866,-354" />
  <path
     style="fill:#000000;fill-opacity:0;stroke:#000000;stroke-width:59.05509949;stroke-linecap:round;stroke-linejoin:round;stroke-opacity:1"
     inkscape:connector-curvature="0"
     id="path310"
     d="m 29496.961,14493.055 433,788" />
  <path
     style="fill:#000000;fill-opacity:0;stroke:#000000;stroke-width:59.05509949;stroke-linecap:round;stroke-linejoin:round;stroke-opacity:1"
     inkscape:connector-curvature="0"
     id="path312"
     d="m 29929.961,15281.055 -827,-552" />
  <path
     style="fill:#000000;fill-opacity:0;stroke:#000000;stroke-width:59.05509949;stroke-linecap:round;stroke-linejoin:round;stroke-opacity:1"
     inkscape:connector-curvature="0"
     id="path314"
     d="m 29102.961,14729.055 -39,945" />
  <path
     style="fill:#000000;fill-opacity:0;stroke:#000000;stroke-width:59.05509949;stroke-linecap:round;stroke-linejoin:round;stroke-opacity:1"
     inkscape:connector-curvature="0"
     id="path316"
     d="m 29063.961,15674.055 -434,-787" />
  <path
     style="fill:#000000;fill-opacity:0;stroke:#000000;stroke-width:59.05509949;stroke-linecap:round;stroke-linejoin:round;stroke-opacity:1"
     inkscape:connector-curvature="0"
     id="path318"
     d="m 28629.961,14887.055 -354,827" />
  <path
     style="fill:#000000;fill-opacity:0;stroke:#000000;stroke-width:59.05509949;stroke-linecap:round;stroke-linejoin:round;stroke-opacity:1"
     inkscape:connector-curvature="0"
     id="path320"
     d="m 28275.961,15714.055 -197,-867" />
  <path
     style="fill:#000000;fill-opacity:0;stroke:#000000;stroke-width:59.05509949;stroke-linecap:round;stroke-linejoin:round;stroke-opacity:1"
     inkscape:connector-curvature="0"
     id="path322"
     d="m 28078.961,14847.055 -512,670" />
  <path
     style="fill:#000000;fill-opacity:0;stroke:#000000;stroke-width:59.05509949;stroke-linecap:round;stroke-linejoin:round;stroke-opacity:1"
     inkscape:connector-curvature="0"
     id="path324"
     d="m 27566.961,15517.055 79,-906" />
  <path
     style="fill:#000000;fill-opacity:0;stroke:#000000;stroke-width:59.05509949;stroke-linecap:round;stroke-linejoin:round;stroke-opacity:1"
     inkscape:connector-curvature="0"
     id="path326"
     d="m 27645.961,14611.055 -669,551" />
  <path
     style="fill:#000000;fill-opacity:0;stroke:#000000;stroke-width:59.05509949;stroke-linecap:round;stroke-linejoin:round;stroke-opacity:1"
     inkscape:connector-curvature="0"
     id="path328"
     d="m 26976.961,15162.055 315,-866" />
  <path
     style="fill:#000000;fill-opacity:0;stroke:#000000;stroke-width:59.05509949;stroke-linecap:round;stroke-linejoin:round;stroke-opacity:1"
     inkscape:connector-curvature="0"
     id="path330"
     d="m 27291.961,14296.055 -788,394" />
  <path
     style="fill:#000000;fill-opacity:0;stroke:#000000;stroke-width:59.05509949;stroke-linecap:round;stroke-linejoin:round;stroke-opacity:1"
     inkscape:connector-curvature="0"
     id="path332"
     d="m 26503.961,14690.055 512,-787" />
  <path
     style="fill:#000000;fill-opacity:0;stroke:#000000;stroke-width:59.05509949;stroke-linecap:round;stroke-linejoin:round;stroke-opacity:1"
     inkscape:connector-curvature="0"
     id="path334"
     d="m 30677.961,12210.055 -906,236" />
  <path
     style="fill:#000000;fill-opacity:0;stroke:#000000;stroke-width:59.05509949;stroke-linecap:round;stroke-linejoin:round;stroke-opacity:1"
     inkscape:connector-curvature="0"
     id="path336"
     d="m 29771.961,12446.055 355,-906" />
  <path
     style="fill:#000000;fill-opacity:0;stroke:#000000;stroke-width:59.05509949;stroke-linecap:round;stroke-linejoin:round;stroke-opacity:1"
     inkscape:connector-curvature="0"
     id="path338"
     d="m 30126.961,11540.055 -630,591" />
  <path
     style="fill:#000000;fill-opacity:0;stroke:#000000;stroke-width:59.05509949;stroke-linecap:round;stroke-linejoin:round;stroke-opacity:1"
     inkscape:connector-curvature="0"
     id="path340"
     d="m 29496.961,12131.055 0,-984" />
  <path
     style="fill:#000000;fill-opacity:0;stroke:#000000;stroke-width:59.05509949;stroke-linecap:round;stroke-linejoin:round;stroke-opacity:1"
     inkscape:connector-curvature="0"
     id="path342"
     d="m 29496.961,11147.055 -512,669" />
  <path
     style="fill:#000000;fill-opacity:0;stroke:#000000;stroke-width:59.05509949;stroke-linecap:round;stroke-linejoin:round;stroke-opacity:1"
     inkscape:connector-curvature="0"
     id="path344"
     d="m 28984.961,11816.055 -40,-866" />
  <path
     style="fill:#000000;fill-opacity:0;stroke:#000000;stroke-width:59.05509949;stroke-linecap:round;stroke-linejoin:round;stroke-opacity:1"
     inkscape:connector-curvature="0"
     id="path346"
     d="m 28944.961,10950.055 -393,827" />
  <path
     style="fill:#000000;fill-opacity:0;stroke:#000000;stroke-width:59.05509949;stroke-linecap:round;stroke-linejoin:round;stroke-opacity:1"
     inkscape:connector-curvature="0"
     id="path348"
     d="m 28551.961,11777.055 -197,-906" />
  <path
     style="fill:#000000;fill-opacity:0;stroke:#000000;stroke-width:59.05509949;stroke-linecap:round;stroke-linejoin:round;stroke-opacity:1"
     inkscape:connector-curvature="0"
     id="path350"
     d="m 28354.961,10871.055 -276,945" />
  <path
     style="fill:#000000;fill-opacity:0;stroke:#000000;stroke-width:59.05509949;stroke-linecap:round;stroke-linejoin:round;stroke-opacity:1"
     inkscape:connector-curvature="0"
     id="path352"
     d="m 28078.961,11816.055 -472,-748" />
  <path
     style="fill:#000000;fill-opacity:0;stroke:#000000;stroke-width:59.05509949;stroke-linecap:round;stroke-linejoin:round;stroke-opacity:1"
     inkscape:connector-curvature="0"
     id="path354"
     d="m 27606.961,11068.055 197,827" />
  <path
     style="fill:#000000;fill-opacity:0;stroke:#000000;stroke-width:59.05509949;stroke-linecap:round;stroke-linejoin:round;stroke-opacity:1"
     inkscape:connector-curvature="0"
     id="path356"
     d="m 27803.961,11895.055 -788,-473" />
  <path
     style="fill:#000000;fill-opacity:0;stroke:#000000;stroke-width:59.05509949;stroke-linecap:round;stroke-linejoin:round;stroke-opacity:1"
     inkscape:connector-curvature="0"
     id="path358"
     d="m 27015.961,11422.055 394,788" />
  <path
     style="fill:#000000;fill-opacity:0;stroke:#000000;stroke-width:59.05509949;stroke-linecap:round;stroke-linejoin:round;stroke-opacity:1"
     inkscape:connector-curvature="0"
     id="path360"
     d="m 27409.961,12210.055 -866,-394" />
  <path
     style="fill:#000000;fill-opacity:0;stroke:#000000;stroke-width:59.05509949;stroke-linecap:round;stroke-linejoin:round;stroke-opacity:1"
     inkscape:connector-curvature="0"
     id="path362"
     d="m 26543.961,11816.055 551,827" />
  <path
     style="fill:#000000;fill-opacity:0;stroke:#000000;stroke-width:59.05509949;stroke-linecap:round;stroke-linejoin:round;stroke-opacity:1"
     inkscape:connector-curvature="0"
     id="path364"
     d="m 27094.961,12643.055 -827,-355" />
  <circle
     style="fill:#000000;fill-opacity:0;stroke:#000000;stroke-width:59.05509949;stroke-linecap:round;stroke-linejoin:round;stroke-opacity:1"
     sodipodi:ry="1535"
     sodipodi:rx="1535"
     sodipodi:cy="21128"
     sodipodi:cx="31661.4"
     id="circle366"
     r="1535"
     cy="21128"
     cx="31661.4"
     transform="translate(-3188.0389,-7814.945)" />
  <circle
     style="fill:#000000;fill-opacity:0;stroke:#000000;stroke-width:59.05509949;stroke-linecap:round;stroke-linejoin:round;stroke-opacity:1"
     sodipodi:ry="2480"
     sodipodi:rx="2480"
     sodipodi:cy="21128"
     sodipodi:cx="31661.4"
     id="circle368"
     r="2480"
     cy="21128"
     cx="31661.4"
     transform="translate(-3188.0389,-7814.945)" />
  <path
     style="fill:#000000;fill-opacity:0;stroke:#000000;stroke-width:150;stroke-linecap:round;stroke-linejoin:round;stroke-opacity:1"
     inkscape:connector-curvature="0"
     id="path372"
     d="m 25433.961,22303.055 0,-237" />
  <path
     style="fill:#000000;fill-opacity:0;stroke:#000000;stroke-width:150;stroke-linecap:round;stroke-linejoin:round;stroke-opacity:1"
     inkscape:connector-curvature="0"
     id="path374"
     d="m 23307.961,22303.055 0,-237" />
  <path
     style="fill:#000000;fill-opacity:0;stroke:#000000;stroke-width:150;stroke-linecap:round;stroke-linejoin:round;stroke-opacity:1"
     inkscape:connector-curvature="0"
     id="path376"
     d="m 23307.961,20177.055 0,-1181" />
  <path
     style="fill:#000000;fill-opacity:0;stroke:#000000;stroke-width:150;stroke-linecap:round;stroke-linejoin:round;stroke-opacity:1"
     inkscape:connector-curvature="0"
     id="path378"
     d="m 25433.961,18996.055 0,1181" />
  <path
     style="fill:#000000;fill-opacity:0;stroke:#000000;stroke-width:150;stroke-linecap:round;stroke-linejoin:round;stroke-opacity:1"
     inkscape:connector-curvature="0"
     id="path380"
     d="m 23110.961,22027.055 197,39" />
  <path
     style="fill:#000000;fill-opacity:0;stroke:#000000;stroke-width:150;stroke-linecap:round;stroke-linejoin:round;stroke-opacity:1"
     inkscape:connector-curvature="0"
     id="path382"
     d="m 23307.961,22066.055 2126,0" />
  <path
     style="fill:#000000;fill-opacity:0;stroke:#000000;stroke-width:150;stroke-linecap:round;stroke-linejoin:round;stroke-opacity:1"
     inkscape:connector-curvature="0"
     id="path384"
     d="m 25433.961,22066.055 196,-39" />
  <path
     style="fill:#000000;fill-opacity:0;stroke:#000000;stroke-width:150;stroke-linecap:round;stroke-linejoin:round;stroke-opacity:1"
     inkscape:connector-curvature="0"
     id="path386"
     d="m 23307.961,20177.055 2126,0" />
  <path
     style="fill:#000000;fill-opacity:0;stroke:#000000;stroke-width:150;stroke-linecap:round;stroke-linejoin:round;stroke-opacity:1"
     inkscape:connector-curvature="0"
     id="path388"
     d="m 25433.961,20177.055 196,39" />
  <path
     style="fill:#000000;fill-opacity:0;stroke:#000000;stroke-width:150;stroke-linecap:round;stroke-linejoin:round;stroke-opacity:1"
     inkscape:connector-curvature="0"
     id="path390"
     d="m 23110.961,20216.055 197,-39" />
  <path
     style="fill:#000000;fill-opacity:0;stroke:#000000;stroke-width:150;stroke-linecap:round;stroke-linejoin:round;stroke-opacity:1"
     inkscape:connector-curvature="0"
     id="path392"
     d="m 23110.961,20492.055 2519,-276" />
  <path
     style="fill:#000000;fill-opacity:0;stroke:#000000;stroke-width:150;stroke-linecap:round;stroke-linejoin:round;stroke-opacity:1"
     inkscape:connector-curvature="0"
     id="path394"
     d="m 23110.961,21082.055 2519,-275" />
  <path
     style="fill:#000000;fill-opacity:0;stroke:#000000;stroke-width:150;stroke-linecap:round;stroke-linejoin:round;stroke-opacity:1"
     inkscape:connector-curvature="0"
     id="path396"
     d="m 23110.961,20767.055 2519,-275" />
  <path
     style="fill:#000000;fill-opacity:0;stroke:#000000;stroke-width:150;stroke-linecap:round;stroke-linejoin:round;stroke-opacity:1"
     inkscape:connector-curvature="0"
     id="path398"
     d="m 23110.961,21397.055 2519,-275" />
  <path
     style="fill:#000000;fill-opacity:0;stroke:#000000;stroke-width:150;stroke-linecap:round;stroke-linejoin:round;stroke-opacity:1"
     inkscape:connector-curvature="0"
     id="path400"
     d="m 23110.961,21712.055 2519,-276" />
  <path
     style="fill:#000000;fill-opacity:0;stroke:#000000;stroke-width:150;stroke-linecap:round;stroke-linejoin:round;stroke-opacity:1"
     inkscape:connector-curvature="0"
     id="path402"
     d="m 23110.961,20216.055 0,1811" />
  <path
     style="fill:#000000;fill-opacity:0;stroke:#000000;stroke-width:150;stroke-linecap:round;stroke-linejoin:round;stroke-opacity:1"
     inkscape:connector-curvature="0"
     id="path404"
     d="m 23110.961,22027.055 2519,-276" />
  <path
     style="fill:#000000;fill-opacity:0;stroke:#000000;stroke-width:150;stroke-linecap:round;stroke-linejoin:round;stroke-opacity:1"
     inkscape:connector-curvature="0"
     id="path406"
     d="m 25629.961,20216.055 0,1811" />
  <path
     style="fill:#000000;fill-opacity:0;stroke:#000000;stroke-width:150;stroke-linecap:round;stroke-linejoin:round;stroke-opacity:1"
     inkscape:connector-curvature="0"
     id="path408"
     d="m 23307.961,22303.055 2126,0" />
  <path
     style="fill:#000000;fill-opacity:0;stroke:#000000;stroke-width:150;stroke-linecap:round;stroke-linejoin:round;stroke-opacity:1"
     inkscape:connector-curvature="0"
     id="path410"
     d="m 23070.961,18996.055 0,-2599" />
  <path
     style="fill:#000000;fill-opacity:0;stroke:#000000;stroke-width:150;stroke-linecap:round;stroke-linejoin:round;stroke-opacity:1"
     inkscape:connector-curvature="0"
     id="path412"
     d="m 23070.961,16397.055 2599,-1" />
  <path
     style="fill:#000000;fill-opacity:0;stroke:#000000;stroke-width:150;stroke-linecap:round;stroke-linejoin:round;stroke-opacity:1"
     inkscape:connector-curvature="0"
     id="path414"
     d="m 25669.961,16397.055 0,2599" />
  <path
     style="fill:#000000;fill-opacity:0;stroke:#000000;stroke-width:150;stroke-linecap:round;stroke-linejoin:round;stroke-opacity:1"
     inkscape:connector-curvature="0"
     id="path416"
     d="m 25669.961,18996.055 -2599,0" />
  <path
     style="fill:#000000;fill-opacity:0;stroke:#000000;stroke-width:120;stroke-linecap:round;stroke-linejoin:round;stroke-opacity:1"
     inkscape:connector-curvature="0"
     id="path420"
     d="m 3759.9611,10157.055 0,-8189" />
  <path
     style="fill:#000000;fill-opacity:0;stroke:#000000;stroke-width:120;stroke-linecap:round;stroke-linejoin:round;stroke-opacity:1"
     inkscape:connector-curvature="0"
     id="path422"
     d="m 59.961066,1968.055 0,8189" />
  <path
     style="fill:#000000;fill-opacity:0;stroke:#000000;stroke-width:120;stroke-linecap:round;stroke-linejoin:round;stroke-opacity:1"
     inkscape:connector-curvature="0"
     id="path424"
     d="m 59.961066,10157.055 3700.000034,0" />
  <path
     style="fill:#000000;fill-opacity:0;stroke:#000000;stroke-width:120;stroke-linecap:round;stroke-linejoin:round;stroke-opacity:1"
     inkscape:connector-curvature="0"
     id="path426"
     d="m 59.961066,1968.055 3700.000034,0" />
  <path
     style="fill:#000000;fill-opacity:0;stroke:#000000;stroke-width:118;stroke-linecap:round;stroke-linejoin:round;stroke-opacity:1"
     inkscape:connector-curvature="0"
     id="path430"
     d="m 59.961066,5157.055 3700.000034,0" />
  <path
     style="fill:#000000;fill-opacity:0;stroke:#000000;stroke-width:118;stroke-linecap:round;stroke-linejoin:round;stroke-opacity:1"
     inkscape:connector-curvature="0"
     id="path432"
     d="m 59.961066,6968.055 3700.000034,0" />
  <path
     style="fill:#000000;fill-opacity:0;stroke:#000000;stroke-width:120;stroke-linecap:round;stroke-linejoin:round;stroke-opacity:1"
     inkscape:connector-curvature="0"
     id="path436"
     d="m 3759.9611,17633.055 0,-6141" />
  <path
     style="fill:#000000;fill-opacity:0;stroke:#000000;stroke-width:120;stroke-linecap:round;stroke-linejoin:round;stroke-opacity:1"
     inkscape:connector-curvature="0"
     id="path438"
     d="m 59.961066,11492.055 0,6141" />
  <path
     style="fill:#000000;fill-opacity:0;stroke:#000000;stroke-width:120;stroke-linecap:round;stroke-linejoin:round;stroke-opacity:1"
     inkscape:connector-curvature="0"
     id="path440"
     d="m 59.961066,17633.055 3700.000034,0" />
  <path
     style="fill:#000000;fill-opacity:0;stroke:#000000;stroke-width:120;stroke-linecap:round;stroke-linejoin:round;stroke-opacity:1"
     inkscape:connector-curvature="0"
     id="path442"
     d="m 59.961066,11492.055 3700.000034,0" />
  <path
     style="fill:#000000;fill-opacity:0;stroke:#000000;stroke-width:118;stroke-linecap:round;stroke-linejoin:round;stroke-opacity:1"
     inkscape:connector-curvature="0"
     id="path446"
     d="m 59.961066,13657.055 3700.000034,0" />
  <path
     style="fill:#000000;fill-opacity:0;stroke:#000000;stroke-width:118;stroke-linecap:round;stroke-linejoin:round;stroke-opacity:1"
     inkscape:connector-curvature="0"
     id="path448"
     d="m 59.961066,15468.055 3700.000034,0" />
  <path
     style="fill:#000000;fill-opacity:0;stroke:#000000;stroke-width:59.05509949;stroke-linecap:round;stroke-linejoin:round;stroke-opacity:1"
     inkscape:connector-curvature="0"
     id="path452"
     d="m 9906.9611,10703.055 -18,19 -57,19 -37,0 -56,-19 -38,-38 -19,-37 -18,-75 0,-56 18,-75 19,-38 38,-37 56,-19 37,0 57,19 18,18" />
  <path
     style="fill:#000000;fill-opacity:0;stroke:#000000;stroke-width:59.05509949;stroke-linecap:round;stroke-linejoin:round;stroke-opacity:1"
     inkscape:connector-curvature="0"
     id="path454"
     d="m 10056.961,10384.055 19,-18 38,-19 93,0 38,19 19,18 18,38 0,37 -18,57 -225,225 243,0" />
  <path
     style="fill:#000000;fill-opacity:0;stroke:#000000;stroke-width:59.05509949;stroke-linecap:round;stroke-linejoin:round;stroke-opacity:1"
     inkscape:connector-curvature="0"
     id="path474"
     d="m 9906.9611,14703.055 -18,19 -57,19 -37,0 -56,-19 -38,-38 -19,-37 -18,-75 0,-56 18,-75 19,-38 38,-37 56,-19 37,0 57,19 18,18" />
  <path
     style="fill:#000000;fill-opacity:0;stroke:#000000;stroke-width:59.05509949;stroke-linecap:round;stroke-linejoin:round;stroke-opacity:1"
     inkscape:connector-curvature="0"
     id="path476"
     d="m 10038.961,14347.055 243,0 -131,150 56,0 38,19 19,18 18,38 0,94 -18,37 -19,19 -38,19 -112,0 -38,-19 -18,-19" />
  <path
     style="fill:#000000;fill-opacity:0;stroke:#000000;stroke-width:59.05509949;stroke-linecap:round;stroke-linejoin:round;stroke-opacity:1"
     inkscape:connector-curvature="0"
     id="path496"
     d="m 11906.961,12453.055 -18,19 -57,19 -37,0 -56,-19 -38,-38 -19,-37 -18,-75 0,-56 18,-75 19,-38 38,-37 56,-19 37,0 57,19 18,18" />
  <path
     style="fill:#000000;fill-opacity:0;stroke:#000000;stroke-width:59.05509949;stroke-linecap:round;stroke-linejoin:round;stroke-opacity:1"
     inkscape:connector-curvature="0"
     id="path498"
     d="m 12244.961,12228.055 0,263" />
  <path
     style="fill:#000000;fill-opacity:0;stroke:#000000;stroke-width:59.05509949;stroke-linecap:round;stroke-linejoin:round;stroke-opacity:1"
     inkscape:connector-curvature="0"
     id="path500"
     d="m 12150.961,12078.055 -94,281 244,0" />
  <path
     style="fill:#000000;fill-opacity:0;stroke:#000000;stroke-width:59.05509949;stroke-linecap:round;stroke-linejoin:round;stroke-opacity:1"
     inkscape:connector-curvature="0"
     id="path520"
     d="m 26156.961,5491.055 -187,0 0,-394" />
  <path
     style="fill:#000000;fill-opacity:0;stroke:#000000;stroke-width:59.05509949;stroke-linecap:round;stroke-linejoin:round;stroke-opacity:1"
     inkscape:connector-curvature="0"
     id="path522"
     d="m 26494.961,5491.055 -225,0" />
  <path
     style="fill:#000000;fill-opacity:0;stroke:#000000;stroke-width:59.05509949;stroke-linecap:round;stroke-linejoin:round;stroke-opacity:1"
     inkscape:connector-curvature="0"
     id="path524"
     d="m 26381.961,5491.055 0,-394 -37,56 -38,38 -37,18" />
  <path
     style="fill:#000000;fill-opacity:0;stroke:#000000;stroke-width:59.05509949;stroke-linecap:round;stroke-linejoin:round;stroke-opacity:1"
     inkscape:connector-curvature="0"
     id="path526"
     d="m 32934.961,10528.055 -37,-19 -38,-37 -56,-56 -37,-19 -38,0" />
  <path
     style="fill:#000000;fill-opacity:0;stroke:#000000;stroke-width:59.05509949;stroke-linecap:round;stroke-linejoin:round;stroke-opacity:1"
     inkscape:connector-curvature="0"
     id="path528"
     d="m 32747.961,10491.055 -38,-19 -37,-38 -19,-75 0,-131 19,-75 37,-37 38,-19 75,0 37,19 38,37 19,75 0,131 -19,75 -38,38 -37,19 -75,0" />
  <path
     style="fill:#000000;fill-opacity:0;stroke:#000000;stroke-width:59.05509949;stroke-linecap:round;stroke-linejoin:round;stroke-opacity:1"
     inkscape:connector-curvature="0"
     id="path530"
     d="m 33291.961,10491.055 -225,0" />
  <path
     style="fill:#000000;fill-opacity:0;stroke:#000000;stroke-width:59.05509949;stroke-linecap:round;stroke-linejoin:round;stroke-opacity:1"
     inkscape:connector-curvature="0"
     id="path532"
     d="m 33178.961,10491.055 0,-394 -37,56 -38,38 -37,18" />
  <path
     style="fill:#000000;fill-opacity:0;stroke:#000000;stroke-width:59.05509949;stroke-linecap:round;stroke-linejoin:round;stroke-opacity:1"
     inkscape:connector-curvature="0"
     id="path534"
     d="m 28225.961,13097.055 225,0" />
  <path
     style="fill:#000000;fill-opacity:0;stroke:#000000;stroke-width:59.05509949;stroke-linecap:round;stroke-linejoin:round;stroke-opacity:1"
     inkscape:connector-curvature="0"
     id="path536"
     d="m 28338.961,13491.055 0,-394" />
  <path
     style="fill:#000000;fill-opacity:0;stroke:#000000;stroke-width:59.05509949;stroke-linecap:round;stroke-linejoin:round;stroke-opacity:1"
     inkscape:connector-curvature="0"
     id="path538"
     d="m 28806.961,13491.055 -131,-188" />
  <path
     style="fill:#000000;fill-opacity:0;stroke:#000000;stroke-width:59.05509949;stroke-linecap:round;stroke-linejoin:round;stroke-opacity:1"
     inkscape:connector-curvature="0"
     id="path540"
     d="m 28581.961,13491.055 0,-394 150,0 38,19 19,18 18,38 0,56 -18,38 -19,18 -38,19 -150,0" />
  <path
     style="fill:#000000;fill-opacity:0;stroke:#000000;stroke-width:59.05509949;stroke-linecap:round;stroke-linejoin:round;stroke-opacity:1"
     inkscape:connector-curvature="0"
     id="path542"
     d="m 29181.961,13491.055 -225,0" />
  <path
     style="fill:#000000;fill-opacity:0;stroke:#000000;stroke-width:59.05509949;stroke-linecap:round;stroke-linejoin:round;stroke-opacity:1"
     inkscape:connector-curvature="0"
     id="path544"
     d="m 29069.961,13491.055 0,-394 -38,56 -37,38 -38,18" />
  <path
     style="fill:#000000;fill-opacity:0;stroke:#000000;stroke-width:120;stroke-linecap:round;stroke-linejoin:round;stroke-opacity:1"
     inkscape:connector-curvature="0"
     id="path548"
     d="m 21529.961,18084.055 0,-600 229,0 57,28 28,29 29,57 0,86 -29,57 -28,29 -57,28 -229,0" />
  <path
     style="fill:#000000;fill-opacity:0;stroke:#000000;stroke-width:120;stroke-linecap:round;stroke-linejoin:round;stroke-opacity:1"
     inkscape:connector-curvature="0"
     id="path550"
     d="m 22072.961,17484.055 371,0 -200,228 86,0 57,29 29,29 28,57 0,143 -28,57 -29,28 -57,29 -171,0 -58,-29 -28,-28" />
  <path
     style="fill:#000000;fill-opacity:0;stroke:#000000;stroke-width:80;stroke-linecap:round;stroke-linejoin:round;stroke-opacity:1"
     inkscape:connector-curvature="0"
     id="path554"
     d="m 4181.9611,9741.055 0,-394 150,0 38,19 19,18 18,38 0,56 -18,38 -19,18 -38,19 -150,0" />
  <path
     style="fill:#000000;fill-opacity:0;stroke:#000000;stroke-width:80;stroke-linecap:round;stroke-linejoin:round;stroke-opacity:1"
     inkscape:connector-curvature="0"
     id="path556"
     d="m 4781.9611,9741.055 -225,0" />
  <path
     style="fill:#000000;fill-opacity:0;stroke:#000000;stroke-width:80;stroke-linecap:round;stroke-linejoin:round;stroke-opacity:1"
     inkscape:connector-curvature="0"
     id="path558"
     d="m 4669.9611,9741.055 0,-394 -38,56 -37,38 -38,18" />
  <path
     style="fill:#000000;fill-opacity:0;stroke:#000000;stroke-width:80;stroke-linecap:round;stroke-linejoin:round;stroke-opacity:1"
     inkscape:connector-curvature="0"
     id="path560"
     d="m 4181.9611,16991.055 0,-394 150,0 38,19 19,18 18,38 0,56 -18,38 -19,18 -38,19 -150,0" />
  <path
     style="fill:#000000;fill-opacity:0;stroke:#000000;stroke-width:80;stroke-linecap:round;stroke-linejoin:round;stroke-opacity:1"
     inkscape:connector-curvature="0"
     id="path562"
     d="m 4556.9611,16634.055 19,-18 38,-19 93,0 38,19 19,18 18,38 0,37 -18,57 -225,225 243,0" />
  <path
     style="fill:#000000;fill-opacity:0;stroke:#000000;stroke-width:118.11000061;stroke-linecap:round;stroke-linejoin:round;stroke-opacity:1"
     inkscape:connector-curvature="0"
     id="path566"
     d="m 36389.961,12038.055 0,281 281,29 -28,-29 -28,-56 0,-140 28,-57 28,-28 56,-28 141,0 56,28 28,28 28,57 0,140 -28,56 -28,29" />
  <path
     style="fill:#000000;fill-opacity:0;stroke:#000000;stroke-width:118.11000061;stroke-linecap:round;stroke-linejoin:round;stroke-opacity:1"
     inkscape:connector-curvature="0"
     id="path568"
     d="m 36389.961,11645.055 0,-57 28,-56 28,-28 56,-28 113,-28 140,0 113,28 56,28 28,28 28,56 0,57 -28,56 -28,28 -56,28 -113,28 -140,0 -113,-28 -56,-28 -28,-28 -28,-56" />
  <path
     style="fill:#000000;fill-opacity:0;stroke:#000000;stroke-width:118.11000061;stroke-linecap:round;stroke-linejoin:round;stroke-opacity:1"
     inkscape:connector-curvature="0"
     id="path570"
     d="m 36951.961,11167.055 28,0 56,28 29,28" />
  <path
     style="fill:#000000;fill-opacity:0;stroke:#000000;stroke-width:118.11000061;stroke-linecap:round;stroke-linejoin:round;stroke-opacity:1"
     inkscape:connector-curvature="0"
     id="path572"
     d="m 36389.961,10801.055 0,-56 28,-57 28,-28 56,-28 113,-28 140,0 113,28 56,28 28,28 28,57 0,56 -28,56 -28,28 -56,28 -113,29 -140,0 -113,-29 -56,-28 -28,-28 -28,-56" />
  <path
     style="fill:#000000;fill-opacity:0;stroke:#000000;stroke-width:118.11000061;stroke-linecap:round;stroke-linejoin:round;stroke-opacity:1"
     inkscape:connector-curvature="0"
     id="path574"
     d="m 36389.961,10238.055 0,-56 28,-56 28,-28 56,-28 113,-28 140,0 113,28 56,28 28,28 28,56 0,56 -28,57 -28,28 -56,28 -113,28 -140,0 -113,-28 -56,-28 -28,-28 -28,-57" />
  <path
     style="fill:#000000;fill-opacity:0;stroke:#000000;stroke-width:118.11000061;stroke-linecap:round;stroke-linejoin:round;stroke-opacity:1"
     inkscape:connector-curvature="0"
     id="path576"
     d="m 36389.961,9676.055 0,-56 28,-56 28,-29 56,-28 113,-28 140,0 113,28 56,28 28,29 28,56 0,56 -28,56 -28,28 -56,29 -113,28 -140,0 -113,-28 -56,-29 -28,-28 -28,-56" />
  <path
     style="fill:#000000;fill-opacity:0;stroke:#000000;stroke-width:118.11000061;stroke-linecap:round;stroke-linejoin:round;stroke-opacity:1"
     inkscape:connector-curvature="0"
     id="path578"
     d="m 36979.961,8776.055 -393,0" />
  <path
     style="fill:#000000;fill-opacity:0;stroke:#000000;stroke-width:118.11000061;stroke-linecap:round;stroke-linejoin:round;stroke-opacity:1"
     inkscape:connector-curvature="0"
     id="path580"
     d="m 36642.961,8776.055 -28,-28 -28,-56 0,-85 28,-56 56,-28 309,0" />
  <path
     style="fill:#000000;fill-opacity:0;stroke:#000000;stroke-width:118.11000061;stroke-linecap:round;stroke-linejoin:round;stroke-opacity:1"
     inkscape:connector-curvature="0"
     id="path582"
     d="m 36670.961,8523.055 -56,-28 -28,-56 0,-85 28,-56 56,-28 309,0" />
  <path
     style="fill:#000000;fill-opacity:0;stroke:#000000;stroke-width:118.11000061;stroke-linecap:round;stroke-linejoin:round;stroke-opacity:1"
     inkscape:connector-curvature="0"
     id="path584"
     d="m 36979.961,7989.055 -393,0" />
  <path
     style="fill:#000000;fill-opacity:0;stroke:#000000;stroke-width:118.11000061;stroke-linecap:round;stroke-linejoin:round;stroke-opacity:1"
     inkscape:connector-curvature="0"
     id="path586"
     d="m 36642.961,7989.055 -28,-28 -28,-57 0,-84 28,-56 56,-28 309,0" />
  <path
     style="fill:#000000;fill-opacity:0;stroke:#000000;stroke-width:118.11000061;stroke-linecap:round;stroke-linejoin:round;stroke-opacity:1"
     inkscape:connector-curvature="0"
     id="path588"
     d="m 36670.961,7736.055 -56,-28 -28,-57 0,-84 28,-56 56,-28 309,0" />
  <path
     style="fill:#000000;fill-opacity:0;stroke:#000000;stroke-width:118.11000061;stroke-linecap:round;stroke-linejoin:round;stroke-opacity:1"
     inkscape:connector-curvature="0"
     id="path590"
     d="m 36181.961,19744.055 0,-19685" />
  <path
     style="fill:#000000;fill-opacity:0;stroke:#000000;stroke-width:118.11000061;stroke-linecap:round;stroke-linejoin:round;stroke-opacity:1"
     inkscape:connector-curvature="0"
     id="path592"
     d="m 34212.961,19744.055 3032,0" />
  <path
     style="fill:#000000;fill-opacity:0;stroke:#000000;stroke-width:118.11000061;stroke-linecap:round;stroke-linejoin:round;stroke-opacity:1"
     inkscape:connector-curvature="0"
     id="path594"
     d="m 34212.961,59.055 3032,0" />
  <path
     style="fill:#000000;fill-opacity:0;stroke:#000000;stroke-width:118.11000061;stroke-linecap:round;stroke-linejoin:round;stroke-opacity:1"
     inkscape:connector-curvature="0"
     id="path596"
     d="m 36181.961,59.055 230,443" />
  <path
     style="fill:#000000;fill-opacity:0;stroke:#000000;stroke-width:118.11000061;stroke-linecap:round;stroke-linejoin:round;stroke-opacity:1"
     inkscape:connector-curvature="0"
     id="path598"
     d="m 36181.961,59.055 -231,443" />
  <path
     style="fill:#000000;fill-opacity:0;stroke:#000000;stroke-width:118.11000061;stroke-linecap:round;stroke-linejoin:round;stroke-opacity:1"
     inkscape:connector-curvature="0"
     id="path600"
     d="m 36181.961,19744.055 230,-444" />
  <path
     style="fill:#000000;fill-opacity:0;stroke:#000000;stroke-width:118.11000061;stroke-linecap:round;stroke-linejoin:round;stroke-opacity:1"
     inkscape:connector-curvature="0"
     id="path602"
     d="m 36181.961,19744.055 -231,-444" />
  <path
     style="fill:#000000;fill-opacity:0;stroke:#000000;stroke-width:118.11000061;stroke-linecap:round;stroke-linejoin:round;stroke-opacity:1"
     inkscape:connector-curvature="0"
     id="path604"
     d="m 16130.961,22173.055 -56,-28 -28,-28 -29,-56 0,-28 29,-57 28,-28 56,-28 112,0 57,28 28,28 28,57 0,28 -28,56 -28,28 -57,28 -112,0 -56,28 -28,28 -29,57 0,112 29,56 28,29 56,28 112,0 57,-28 28,-29 28,-56 0,-112 -28,-57 -28,-28 -57,-28" />
  <path
     style="fill:#000000;fill-opacity:0;stroke:#000000;stroke-width:118.11000061;stroke-linecap:round;stroke-linejoin:round;stroke-opacity:1"
     inkscape:connector-curvature="0"
     id="path606"
     d="m 16721.961,21920.055 56,0 56,28 28,28 28,57 28,112 0,141 -28,112 -28,56 -28,29 -56,28 -56,0 -57,-28 -28,-29 -28,-56 -28,-112 0,-141 28,-112 28,-57 28,-28 57,-28" />
  <path
     style="fill:#000000;fill-opacity:0;stroke:#000000;stroke-width:118.11000061;stroke-linecap:round;stroke-linejoin:round;stroke-opacity:1"
     inkscape:connector-curvature="0"
     id="path608"
     d="m 17199.961,22483.055 0,28 -29,56 -28,28" />
  <path
     style="fill:#000000;fill-opacity:0;stroke:#000000;stroke-width:118.11000061;stroke-linecap:round;stroke-linejoin:round;stroke-opacity:1"
     inkscape:connector-curvature="0"
     id="path610"
     d="m 17564.961,21920.055 56,0 57,28 28,28 28,57 28,112 0,141 -28,112 -28,56 -28,29 -57,28 -56,0 -56,-28 -28,-29 -28,-56 -28,-112 0,-141 28,-112 28,-57 28,-28 56,-28" />
  <path
     style="fill:#000000;fill-opacity:0;stroke:#000000;stroke-width:118.11000061;stroke-linecap:round;stroke-linejoin:round;stroke-opacity:1"
     inkscape:connector-curvature="0"
     id="path612"
     d="m 18127.961,21920.055 56,0 56,28 28,28 28,57 28,112 0,141 -28,112 -28,56 -28,29 -56,28 -56,0 -57,-28 -28,-29 -28,-56 -28,-112 0,-141 28,-112 28,-57 28,-28 57,-28" />
  <path
     style="fill:#000000;fill-opacity:0;stroke:#000000;stroke-width:118.11000061;stroke-linecap:round;stroke-linejoin:round;stroke-opacity:1"
     inkscape:connector-curvature="0"
     id="path614"
     d="m 18689.961,21920.055 56,0 57,28 28,28 28,57 28,112 0,141 -28,112 -28,56 -28,29 -57,28 -56,0 -56,-28 -28,-29 -28,-56 -29,-112 0,-141 29,-112 28,-57 28,-28 56,-28" />
  <path
     style="fill:#000000;fill-opacity:0;stroke:#000000;stroke-width:118.11000061;stroke-linecap:round;stroke-linejoin:round;stroke-opacity:1"
     inkscape:connector-curvature="0"
     id="path616"
     d="m 19589.961,22511.055 0,-394" />
  <path
     style="fill:#000000;fill-opacity:0;stroke:#000000;stroke-width:118.11000061;stroke-linecap:round;stroke-linejoin:round;stroke-opacity:1"
     inkscape:connector-curvature="0"
     id="path618"
     d="m 19589.961,22173.055 28,-28 56,-28 85,0 56,28 28,56 0,310" />
  <path
     style="fill:#000000;fill-opacity:0;stroke:#000000;stroke-width:118.11000061;stroke-linecap:round;stroke-linejoin:round;stroke-opacity:1"
     inkscape:connector-curvature="0"
     id="path620"
     d="m 19842.961,22201.055 28,-56 56,-28 85,0 56,28 28,56 0,310" />
  <path
     style="fill:#000000;fill-opacity:0;stroke:#000000;stroke-width:118.11000061;stroke-linecap:round;stroke-linejoin:round;stroke-opacity:1"
     inkscape:connector-curvature="0"
     id="path622"
     d="m 20376.961,22511.055 0,-394" />
  <path
     style="fill:#000000;fill-opacity:0;stroke:#000000;stroke-width:118.11000061;stroke-linecap:round;stroke-linejoin:round;stroke-opacity:1"
     inkscape:connector-curvature="0"
     id="path624"
     d="m 20376.961,22173.055 28,-28 57,-28 84,0 56,28 28,56 0,310" />
  <path
     style="fill:#000000;fill-opacity:0;stroke:#000000;stroke-width:118.11000061;stroke-linecap:round;stroke-linejoin:round;stroke-opacity:1"
     inkscape:connector-curvature="0"
     id="path626"
     d="m 20629.961,22201.055 29,-56 56,-28 84,0 56,28 28,56 0,310" />
  <path
     style="fill:#000000;fill-opacity:0;stroke:#000000;stroke-width:118.11000061;stroke-linecap:round;stroke-linejoin:round;stroke-opacity:1"
     inkscape:connector-curvature="0"
     id="path628"
     d="m 2716.9611,21712.055 31495.9999,0" />
  <path
     style="fill:#000000;fill-opacity:0;stroke:#000000;stroke-width:118.11000061;stroke-linecap:round;stroke-linejoin:round;stroke-opacity:1"
     inkscape:connector-curvature="0"
     id="path630"
     d="m 2716.9611,19744.055 0,3031" />
  <path
     style="fill:#000000;fill-opacity:0;stroke:#000000;stroke-width:118.11000061;stroke-linecap:round;stroke-linejoin:round;stroke-opacity:1"
     inkscape:connector-curvature="0"
     id="path632"
     d="m 34212.961,19744.055 0,3031" />
  <path
     style="fill:#000000;fill-opacity:0;stroke:#000000;stroke-width:118.11000061;stroke-linecap:round;stroke-linejoin:round;stroke-opacity:1"
     inkscape:connector-curvature="0"
     id="path634"
     d="m 34212.961,21712.055 -443,231" />
  <path
     style="fill:#000000;fill-opacity:0;stroke:#000000;stroke-width:118.11000061;stroke-linecap:round;stroke-linejoin:round;stroke-opacity:1"
     inkscape:connector-curvature="0"
     id="path636"
     d="m 34212.961,21712.055 -443,-231" />
  <path
     style="fill:#000000;fill-opacity:0;stroke:#000000;stroke-width:118.11000061;stroke-linecap:round;stroke-linejoin:round;stroke-opacity:1"
     inkscape:connector-curvature="0"
     id="path638"
     d="m 2716.9611,21712.055 444,231" />
  <path
     style="fill:#000000;fill-opacity:0;stroke:#000000;stroke-width:118.11000061;stroke-linecap:round;stroke-linejoin:round;stroke-opacity:1"
     inkscape:connector-curvature="0"
     id="path640"
     d="m 2716.9611,21712.055 444,-231" />
  <path
     style="fill:#000000;fill-opacity:0;stroke:#000000;stroke-width:39.37009811;stroke-linecap:round;stroke-linejoin:round;stroke-opacity:1"
     inkscape:connector-curvature="0"
     id="path644"
     d="m 34212.961,19744.055 -31495.9999,0" />
  <path
     style="fill:#000000;fill-opacity:0;stroke:#000000;stroke-width:39.37009811;stroke-linecap:round;stroke-linejoin:round;stroke-opacity:1"
     inkscape:connector-curvature="0"
     id="path646"
     d="m 34212.961,59.055 0,19685" />
  <path
     style="fill:#000000;fill-opacity:0;stroke:#000000;stroke-width:39.37009811;stroke-linecap:round;stroke-linejoin:round;stroke-opacity:1"
     inkscape:connector-curvature="0"
     id="path648"
     d="m 2716.9611,59.055 31495.9999,0" />
  <path
     style="fill:#000000;fill-opacity:0;stroke:#000000;stroke-width:39.37009811;stroke-linecap:round;stroke-linejoin:round;stroke-opacity:1"
     inkscape:connector-curvature="0"
     id="path650"
     d="m 2716.9611,19744.055 0,-19685" />
</svg>
